<svg xmlns="http://www.w3.org/2000/svg" width="426.475" height="670.806" viewBox="0 0 426.475 670.806">
  <g id="Group_265" data-name="Group 265" transform="translate(-411.396 -417)">
    <path id="Path_601" data-name="Path 601" d="M100.174,286.588a13.111,13.111,0,0,0-11.667-11.037A18.857,18.857,0,0,0,52.69,269.78a15.56,15.56,0,0,0-18.646,16.876A8.515,8.515,0,0,0,27.075,295h0a8.51,8.51,0,0,0,8.484,8.485H99.1A8.51,8.51,0,0,0,107.584,295h0A8.512,8.512,0,0,0,100.174,286.588Z" transform="translate(498.763 601.272)" fill="#fff"/>
    <g id="Group_263" data-name="Group 263">
      <g id="Group_262" data-name="Group 262" transform="translate(38 -42)">
        <path id="Path_600" data-name="Path 600" d="M7084.094,2047.415c23-27,120.906-40.415,147.906,13.585s-9,62,0,138-45,40-60,111-51,3-99-77,19-86,12-127c-2.24-13.12-11.113-14.974-13.731-20.771C7066.743,2076.742,7068.454,2065.775,7084.094,2047.415Z" transform="translate(-6580 -1210)" fill="#eef"/>
        <g id="Group_259" data-name="Group 259" transform="translate(328.763 340.272)">
          <g id="BACKGROUND" transform="translate(39.052 34)">
            <path id="Path_548" data-name="Path 548" d="M95.853,364.075a91.345,91.345,0,0,1-21.032-4.515c-28.188-9.942-46.083-36.76-49.946-65.66-2.964-22.165,5.187-40.379,8.282-61.725,2.931-20.208-3.116-37.755-5.845-57.359-2.43-17.448-.023-36.876,5.465-53.513,7.493-22.715,22.736-43.21,43.572-54.956,32.466-18.3,73.9-13.213,107.457,3,14.056,6.791,27.535,15.488,42.86,18.461,22.352,4.335,44.906-4.076,67.231-8.551,30.388-6.093,63.227-4.562,90.619,9.941,31.056,16.442,51.733,50.355,46.816,85.911-2.227,16.112-20.3,27.919-19.386,61.146,0,37.779-10.37,43.552-29.586,62.813-38.234,33.682,24.507,62.882-114.674,94.184-47.6,12.442-77.66-28.476-129.193-28.575C124.323,364.65,109.865,365.537,95.853,364.075Z" transform="translate(0 30)" fill="#eef"/>
          </g>
          <g id="OBJECTS">
            <g id="Group_236" data-name="Group 236">
              <path id="Path_549" data-name="Path 549" d="M402.475,227.62a45.971,45.971,0,0,0-5.127-12.227l6.62-10.9-2.816-2.817-6.162-6.16-2.816-2.816L381.2,199.36a45.958,45.958,0,0,0-12.11-5l-3.054-12.5H349.35l-3.054,12.5a45.972,45.972,0,0,0-12.11,5L323.208,192.7l-2.817,2.816-6.161,6.16-2.817,2.817,6.62,10.9a45.969,45.969,0,0,0-5.126,12.227l-12.323,3.012v16.679l12.21,2.985a45.9,45.9,0,0,0,5.111,12.469l-6.492,10.69,2.817,2.817,6.161,6.16,2.817,2.817,10.616-6.446a46,46,0,0,0,12.585,5.241l2.941,12.034h16.681l2.941-12.034a45.973,45.973,0,0,0,12.585-5.241l10.617,6.446,2.816-2.817,6.162-6.16,2.816-2.817-6.491-10.69a45.93,45.93,0,0,0,5.111-12.469l12.21-2.985V230.632Zm-44.784,41.6a30.033,30.033,0,1,1,30.033-30.033A30.032,30.032,0,0,1,357.691,269.222Z" fill="#8690f1"/>
              <path id="Path_550" data-name="Path 550" d="M357.691,202.028a36.944,36.944,0,1,0,36.943,36.944A36.944,36.944,0,0,0,357.691,202.028Zm0,67.194a30.033,30.033,0,1,1,30.033-30.033A30.032,30.032,0,0,1,357.691,269.222Z" fill="#514e92"/>
            </g>
            <g id="Group_249" data-name="Group 249">
              <path id="Path_580" data-name="Path 580" d="M301.09,162.068a11.3,11.3,0,0,0-10.054-9.511,16.249,16.249,0,0,0-30.864-4.974A13.409,13.409,0,0,0,244.1,162.126a7.338,7.338,0,0,0-6.006,7.192h0a7.334,7.334,0,0,0,7.312,7.312h54.754a7.334,7.334,0,0,0,7.312-7.312h0A7.335,7.335,0,0,0,301.09,162.068Z" fill="#fff"/>
              <path id="Path_581" data-name="Path 581" d="M454.1,225.133a11.208,11.208,0,0,0-9.975-9.437,16.123,16.123,0,0,0-30.625-4.935,13.3,13.3,0,0,0-15.943,14.43,7.282,7.282,0,0,0-5.959,7.136h0a7.275,7.275,0,0,0,7.255,7.254h54.329a7.276,7.276,0,0,0,7.255-7.254h0A7.279,7.279,0,0,0,454.1,225.133Z" fill="#fff"/>
              <path id="Path_582" data-name="Path 582" d="M100.174,286.588a13.111,13.111,0,0,0-11.667-11.037A18.857,18.857,0,0,0,52.69,269.78a15.56,15.56,0,0,0-18.646,16.876A8.515,8.515,0,0,0,27.075,295h0a8.51,8.51,0,0,0,8.484,8.485H99.1A8.51,8.51,0,0,0,107.584,295h0A8.512,8.512,0,0,0,100.174,286.588Z" transform="translate(20 9)" fill="#fff"/>
            </g>
            <g id="Group_256" data-name="Group 256">
              <rect id="Rectangle_184" data-name="Rectangle 184" width="203.066" height="132.868" transform="translate(158.225 267.53)" fill="#fff"/>
              <rect id="Rectangle_185" data-name="Rectangle 185" width="104.897" height="132.868" transform="translate(158.225 267.53)" fill="#f1f1f1" opacity="0.45"/>
              <g id="Group_251" data-name="Group 251">
                <g id="Group_250" data-name="Group 250">
                  <rect id="Rectangle_186" data-name="Rectangle 186" width="25.091" height="25.091" transform="translate(211.082 291.207)" fill="#ecbf4c"/>
                  <rect id="Rectangle_187" data-name="Rectangle 187" width="25.091" height="25.091" transform="translate(246.627 291.207)" fill="#dfa331"/>
                  <rect id="Rectangle_203" data-name="Rectangle 203" width="25.091" height="25.091" transform="translate(175.627 291.207)" fill="#dfa331"/>
                  <rect id="Rectangle_188" data-name="Rectangle 188" width="25.091" height="25.091" transform="translate(282.173 291.207)" fill="#ecbf4c"/>
                  <rect id="Rectangle_189" data-name="Rectangle 189" width="25.091" height="25.091" transform="translate(317.718 291.207)" fill="#dfa331"/>
                  <rect id="Rectangle_190" data-name="Rectangle 190" width="25.091" height="25.091" transform="translate(211.082 326.055)" fill="#dfa331"/>
                  <rect id="Rectangle_191" data-name="Rectangle 191" width="25.091" height="25.091" transform="translate(175.536 326.055)" fill="#ecbf4c"/>
                  <rect id="Rectangle_192" data-name="Rectangle 192" width="25.091" height="25.091" transform="translate(246.627 326.055)" fill="#ecbf4c"/>
                  <rect id="Rectangle_193" data-name="Rectangle 193" width="25.091" height="25.091" transform="translate(282.173 326.055)" fill="#ecbf4c"/>
                  <rect id="Rectangle_194" data-name="Rectangle 194" width="25.091" height="25.091" transform="translate(317.718 326.055)" fill="#dfa331"/>
                  <rect id="Rectangle_195" data-name="Rectangle 195" width="25.091" height="25.091" transform="translate(211.082 360.904)" fill="#ecbf4c"/>
                  <rect id="Rectangle_196" data-name="Rectangle 196" width="25.091" height="25.091" transform="translate(175.536 360.904)" fill="#ecbf4c"/>
                  <rect id="Rectangle_197" data-name="Rectangle 197" width="25.091" height="25.091" transform="translate(246.627 360.904)" fill="#ecbf4c"/>
                  <rect id="Rectangle_198" data-name="Rectangle 198" width="25.091" height="25.091" transform="translate(282.173 360.904)" fill="#dfa331"/>
                  <rect id="Rectangle_199" data-name="Rectangle 199" width="25.091" height="25.091" transform="translate(317.718 360.904)" fill="#ecbf4c"/>
                </g>
                <path id="Path_583" data-name="Path 583" d="M238.737,287.99a12.779,12.779,0,0,0-4.623,2.825c-1.455,1.2-2.852,2.454-4.238,3.727q-2.756,2.527-5.4,5.17c-.286-.265-.572-.529-.861-.79-2.668-2.42-5.442-4.723-8.288-6.931-2.679-2.079-5.588-4.54-8.849-5.575a.55.55,0,0,0-.615.8c1.687,2.836,4.59,5.023,7.044,7.194,2.641,2.337,5.282,4.669,7.824,7.114.338.324.67.655,1.005.984q-3.577,3.732-6.963,7.641c-1.185,1.371-2.342,2.756-3.44,4.2a35.4,35.4,0,0,0-3.349,4.742,1.214,1.214,0,0,0,1.9,1.464,48.6,48.6,0,0,0,3.664-3.973c1.213-1.341,2.4-2.705,3.6-4.059q3.423-3.862,7.046-7.545c1.261,1.306,2.5,2.639,3.688,4,2.282,2.608,4.186,5.633,6.712,8,1.049.985,3.1.027,2.567-1.493-1.2-3.406-3.68-6.236-6.017-8.935-1.319-1.524-2.7-2.987-4.124-4.4q2.639-2.595,5.358-5.107c1.331-1.227,2.686-2.427,4.017-3.653a14.014,14.014,0,0,0,3.437-3.977A.982.982,0,0,0,238.737,287.99Z" fill="#5f5ea5"/>
                <path id="Path_584" data-name="Path 584" d="M310.293,324a12.794,12.794,0,0,0-4.623,2.826c-1.455,1.194-2.852,2.453-4.238,3.726q-2.756,2.527-5.4,5.17c-.286-.265-.572-.528-.861-.79-2.668-2.42-5.442-4.723-8.288-6.931-2.68-2.079-5.589-4.54-8.85-5.575a.551.551,0,0,0-.615.8c1.688,2.836,4.591,5.023,7.045,7.195,2.641,2.336,5.282,4.669,7.824,7.113.338.325.67.656,1.005.984q-3.578,3.732-6.963,7.641c-1.186,1.371-2.342,2.756-3.44,4.2a35.391,35.391,0,0,0-3.349,4.741,1.215,1.215,0,0,0,1.9,1.465,48.753,48.753,0,0,0,3.664-3.974c1.213-1.341,2.4-2.7,3.6-4.059q3.423-3.863,7.045-7.545,1.893,1.959,3.689,4c2.282,2.608,4.186,5.633,6.712,8,1.049.984,3.1.026,2.567-1.494-1.2-3.406-3.681-6.236-6.017-8.935-1.319-1.524-2.7-2.987-4.125-4.4q2.64-2.6,5.359-5.107c1.33-1.227,2.685-2.426,4.017-3.652a14.041,14.041,0,0,0,3.437-3.977A.982.982,0,0,0,310.293,324Z" fill="#5f5ea5"/>
              </g>
              <rect id="Rectangle_200" data-name="Rectangle 200" width="203.066" height="37.604" transform="translate(158.225 236.61)" fill="#e08675"/>
              <rect id="Rectangle_201" data-name="Rectangle 201" width="104.897" height="37.604" transform="translate(158.225 236.61)" fill="#dd6e5c"/>
              <g id="Group_255" data-name="Group 255">
                <circle id="Ellipse_129" data-name="Ellipse 129" cx="10.106" cy="10.106" r="10.106" transform="translate(173.677 247.065)" fill="#fff"/>
                <circle id="Ellipse_130" data-name="Ellipse 130" cx="10.106" cy="10.106" r="10.106" transform="translate(327.011 247.065)" fill="#fff"/>
                <g id="Group_254" data-name="Group 254">
                  <g id="Group_252" data-name="Group 252">
                    <path id="Path_585" data-name="Path 585" d="M189.712,231.383v26.485a5.922,5.922,0,0,1-5.812,5.922c-.038,0-.075,0-.112,0a5.925,5.925,0,0,1-5.924-5.924V231.383a5.853,5.853,0,0,1,.339-1.975,5.923,5.923,0,0,1,5.585-3.949c.037,0,.074,0,.112,0a5.923,5.923,0,0,1,5.812,5.922Z" fill="#ecbf4c"/>
                    <path id="Path_586" data-name="Path 586" d="M183.9,225.461V263.79c-.038,0-.075,0-.112,0a5.925,5.925,0,0,1-5.924-5.924V231.383a5.853,5.853,0,0,1,.339-1.975,5.923,5.923,0,0,1,5.585-3.949C183.825,225.459,183.862,225.459,183.9,225.461Z" fill="#dfa331"/>
                  </g>
                  <g id="Group_253" data-name="Group 253">
                    <path id="Path_587" data-name="Path 587" d="M342.814,231.383v26.485A5.923,5.923,0,0,1,337,263.79c-.037,0-.074,0-.111,0a5.926,5.926,0,0,1-5.925-5.924V231.383a5.854,5.854,0,0,1,.34-1.975,5.922,5.922,0,0,1,5.585-3.949c.037,0,.074,0,.111,0a5.923,5.923,0,0,1,5.813,5.922Z" fill="#ecbf4c"/>
                    <path id="Path_588" data-name="Path 588" d="M337,225.461V263.79c-.037,0-.074,0-.111,0a5.926,5.926,0,0,1-5.925-5.924V231.383a5.854,5.854,0,0,1,.34-1.975,5.922,5.922,0,0,1,5.585-3.949C336.927,225.459,336.964,225.459,337,225.461Z" fill="#dfa331"/>
                  </g>
                </g>
              </g>
            </g>
            <g id="Group_260" data-name="Group 260" transform="matrix(0.966, 0.259, -0.259, 0.966, -33.74, 63.285)">
              <path id="Path_589" data-name="Path 589" d="M412.737,338.152c12.624-10.977,21.3-33.235,21.466-58.975H355.576c.16,25.74,8.842,48,21.466,58.975-12.624,10.976-21.306,33.234-21.466,58.974H434.2C434.042,371.386,425.361,349.128,412.737,338.152Z" fill="#f1f1f1"/>
              <path id="Path_590" data-name="Path 590" d="M407.64,338.417c10.578-10.334,22.181-29.96,22.315-54.192H360.191c.135,24.232,10.453,43.785,21.03,54.12-10.577,10.334-20.777,32.689-20.911,56.921h69.645C429.821,371.034,418.218,348.751,407.64,338.417Z" fill="#fff"/>
              <path id="Path_591" data-name="Path 591" d="M435,285.553h-79.7a7.194,7.194,0,0,1-7.172-7.172h0a7.193,7.193,0,0,1,7.172-7.173H435a7.194,7.194,0,0,1,7.173,7.173h0A7.194,7.194,0,0,1,435,285.553Z" fill="#5f5ea5"/>
              <g id="Group_257" data-name="Group 257">
                <path id="Path_592" data-name="Path 592" d="M421.455,393.141H368.324c.028-6.893,22.634-13.519,24.086-19.747h3.364a5.243,5.243,0,0,0,1.619,2.467C403.109,381.363,421.43,387.151,421.455,393.141Z" fill="#ecbf4c"/>
                <path id="Path_593" data-name="Path 593" d="M423.436,296.975c-2.715,12.881-10.178,24.534-17.261,33.573-3.733,4.764-7.36,8.8-10.128,11.913l-.094.105a12.073,12.073,0,0,1-2.112.052h0c-.839-.013-1.606-.038-1.606-.038-7.991-8.943-21.933-25.725-26.078-45.6Z" fill="#ecbf4c"/>
                <rect id="Rectangle_202" data-name="Rectangle 202" width="3.719" height="45.692" transform="translate(392.233 332.839)" fill="#dfa331"/>
                <path id="Path_594" data-name="Path 594" d="M406.175,330.548c-3.733,4.764-7.36,8.8-10.128,11.913q-1.1.1-2.206.157h0c-.839-.013-1.606-.038-1.606-.038-7.991-8.943-21.933-25.725-26.078-45.6h21.108c.7,2.94.9,6.557,1.5,8.636a53.916,53.916,0,0,0,5.638,13.311A33.625,33.625,0,0,0,406.175,330.548Z" fill="#dfa331"/>
                <path id="Path_595" data-name="Path 595" d="M411.287,393.141H368.324c.028-6.893,22.634-13.519,24.086-19.747h3.3a22.518,22.518,0,0,0,1.1,2.751,46.116,46.116,0,0,0,11.356,14.487Q409.679,391.946,411.287,393.141Z" fill="#dfa331"/>
              </g>
              <path id="Path_596" data-name="Path 596" d="M435,407.22h-79.7a7.193,7.193,0,0,1-7.172-7.172h0a7.194,7.194,0,0,1,7.172-7.173H435a7.194,7.194,0,0,1,7.173,7.173h0A7.193,7.193,0,0,1,435,407.22Z" fill="#5f5ea5"/>
            </g>
          </g>
        </g>
        <g id="Group_261" data-name="Group 261" transform="translate(427.995 853.493) rotate(-25)">
          <path id="Path_551" data-name="Path 551" d="M87.905,350.137a3.539,3.539,0,0,1-.392,1.621l-4.206,8.2a3.585,3.585,0,0,1-4.543,1.671c-.09-.036-.18-.077-.268-.123a3.584,3.584,0,0,1-1.548-4.81l4.206-8.2a3.583,3.583,0,0,1,4.73-1.588c.028.013.055.026.081.04A3.584,3.584,0,0,1,87.905,350.137Z" transform="translate(-32.296 -142.17)" fill="#ecbf4c"/>
          <path id="Path_552" data-name="Path 552" d="M169.251,361.507c-.079.04-.16.078-.241.112a3.586,3.586,0,0,1-4.57-1.661l-4.206-8.2a3.539,3.539,0,0,1-.392-1.621,3.583,3.583,0,0,1,1.94-3.189c.035-.018.071-.036.106-.052a3.584,3.584,0,0,1,4.7,1.6l4.206,8.2A3.584,3.584,0,0,1,169.251,361.507Z" transform="translate(-91.696 -142.17)" fill="#ecbf4c"/>
          <path id="Path_553" data-name="Path 553" d="M93.4,351.012A3.539,3.539,0,0,1,93,352.633l-4.206,8.2a3.585,3.585,0,0,1-4.543,1.671l7.12-14.722c.028.013.055.026.081.04A3.584,3.584,0,0,1,93.4,351.012Z" transform="translate(-37.787 -143.045)" fill="#dfa331"/>
          <path id="Path_554" data-name="Path 554" d="M169.01,362.464a3.586,3.586,0,0,1-4.57-1.661l-4.206-8.2a3.539,3.539,0,0,1-.392-1.621,3.583,3.583,0,0,1,1.94-3.189c.035-.018.071-.036.106-.052Z" transform="translate(-91.696 -143.015)" fill="#dfa331"/>
          <circle id="Ellipse_126" data-name="Ellipse 126" cx="2.069" cy="2.069" r="2.069" transform="translate(36.063 155.116)" fill="#fff"/>
          <path id="Path_555" data-name="Path 555" d="M217.868,178.3a2.069,2.069,0,1,1-2.069-2.069A2.069,2.069,0,0,1,217.868,178.3Z" transform="translate(-130.129 -20.696)" fill="#fff"/>
          <g id="Group_237" data-name="Group 237" transform="translate(38.085 147.216)">
            <path id="Path_556" data-name="Path 556" d="M55.918,166.73a.893.893,0,0,1-.753-1.373l9.288-14.581a.891.891,0,0,1,.362-.323,36.5,36.5,0,0,1,9.138-2.733,33.89,33.89,0,0,1,9.106-.339,26.971,26.971,0,0,1,10.143,3.09.892.892,0,0,1,.329.308l8.941,14.157a.893.893,0,1,1-1.511.954l-8.816-13.958a25.227,25.227,0,0,0-9.272-2.774,32.1,32.1,0,0,0-8.625.324,36.209,36.209,0,0,0-8.43,2.474l-9.148,14.36A.893.893,0,0,1,55.918,166.73Z" transform="translate(-55.025 -147.216)" fill="#ecbf4c"/>
          </g>
          <path id="Path_557" data-name="Path 557" d="M132.98,192.024h0a1.886,1.886,0,0,1-1.881-1.881v-9.4a1.887,1.887,0,0,1,1.881-1.881h0a1.887,1.887,0,0,1,1.881,1.881v9.4A1.886,1.886,0,0,1,132.98,192.024Z" transform="translate(-71.197 -22.567)" fill="#ecbf4c"/>
          <g id="Group_238" data-name="Group 238" transform="translate(33.665 154.222)">
            <rect id="Rectangle_180" data-name="Rectangle 180" width="3.107" height="13.898" transform="translate(4.221 5.767) rotate(-40.735)" fill="#ecbf4c"/>
            <path id="Path_558" data-name="Path 558" d="M55.773,176.969,47.6,183.96l-3.49,2.984a1.522,1.522,0,0,1-2.146-.167l-.864-1.01a6.23,6.23,0,0,1,.684-8.758l2.329-1.992,2.208-1.888a6.23,6.23,0,0,1,8.759.684l.864,1.01A1.523,1.523,0,0,1,55.773,176.969Z" transform="translate(-39.613 -171.644)" fill="#c3b7fc"/>
          </g>
          <g id="Group_239" data-name="Group 239" transform="translate(72.66 154.222)">
            <rect id="Rectangle_181" data-name="Rectangle 181" width="3.107" height="13.898" transform="translate(3.402 16.297) rotate(-139.264)" fill="#ecbf4c"/>
            <path id="Path_559" data-name="Path 559" d="M190.791,185.766l-.864,1.01a1.523,1.523,0,0,1-2.147.167l-7.607-6.5-4.058-3.471a1.523,1.523,0,0,1-.167-2.147l.864-1.01a6.229,6.229,0,0,1,8.758-.684l2.022,1.729,2.515,2.151A6.23,6.23,0,0,1,190.791,185.766Z" transform="translate(-175.582 -171.644)" fill="#c3b7fc"/>
          </g>
          <rect id="Rectangle_182" data-name="Rectangle 182" width="11.097" height="4.702" rx="2.351" transform="translate(56.235 154.41)" fill="#5f5ea5"/>
          <path id="Path_560" data-name="Path 560" d="M97.152,222.383a26.827,26.827,0,0,1-18,25.323c-.039.015-.079.028-.119.041a26.5,26.5,0,0,1-3.7.976,27,27,0,0,1-13.3-.855,26.8,26.8,0,0,1,6.628-52.233q.839-.053,1.693-.053,1.044,0,2.069.079a26.733,26.733,0,0,1,15.137,6.173,26.776,26.776,0,0,1,9.6,20.549Z" transform="translate(-8.756 -34.495)" fill="#5f5ea5"/>
          <circle id="Ellipse_127" data-name="Ellipse 127" cx="21.441" cy="21.441" r="21.441" transform="translate(31.273 187.889) rotate(-45)" fill="#fff"/>
          <circle id="Ellipse_128" data-name="Ellipse 128" cx="21.441" cy="21.441" r="21.441" transform="translate(31.273 187.889) rotate(-45)" fill="#f1f1f1"/>
          <path id="Path_561" data-name="Path 561" d="M107.778,240.156A19.665,19.665,0,1,1,88.124,220.5,19.626,19.626,0,0,1,107.778,240.156Z" transform="translate(-26.529 -52.268)" fill="#c3b7fc"/>
          <path id="Path_562" data-name="Path 562" d="M47.6,192.344l-3.49,2.984a1.522,1.522,0,0,1-2.146-.167l-.864-1.01a6.23,6.23,0,0,1,.684-8.758L44.11,183.4a10.19,10.19,0,0,0,.3,4A10.3,10.3,0,0,0,47.6,192.344Z" transform="translate(-5.949 -25.806)" fill="#a797fb"/>
          <path id="Path_563" data-name="Path 563" d="M187.592,174.857a10.075,10.075,0,0,0-7.418,5.582l-4.058-3.471a1.523,1.523,0,0,1-.167-2.147l.864-1.01a6.229,6.229,0,0,1,8.758-.684Z" transform="translate(-102.922 -17.422)" fill="#a797fb"/>
          <path id="Path_564" data-name="Path 564" d="M99.784,259.32A19.657,19.657,0,1,1,80.97,225.185a62.476,62.476,0,0,0-.17,9.593,30.425,30.425,0,0,0,5.558,15.064C89.754,254.288,94.542,257.213,99.784,259.32Z" transform="translate(-26.529 -55.608)" fill="#a797fb"/>
          <g id="Group_247" data-name="Group 247" transform="translate(43.821 169.974)">
            <path id="Path_565" data-name="Path 565" d="M132.273,251.711v-1.7h-.9v1.7a1.983,1.983,0,0,0,0,3.862v4.691h.9v-4.691a1.983,1.983,0,0,0,0-3.862Zm0,3.4a1.535,1.535,0,1,1,1.085-1.467A1.535,1.535,0,0,1,132.273,255.109Z" transform="translate(-114.122 -243.289)" fill="#fff"/>
            <rect id="Rectangle_183" data-name="Rectangle 183" width="15.921" height="0.957" transform="translate(9.722 29.715) rotate(-55.699)" fill="#fff"/>
            <g id="Group_246" data-name="Group 246">
              <path id="Path_566" data-name="Path 566" d="M133.366,282.953a2.445,2.445,0,1,1-2.445-2.445A2.445,2.445,0,0,1,133.366,282.953Z" transform="translate(-113.147 -265.038)" fill="#514e92"/>
              <g id="Group_240" data-name="Group 240" transform="translate(0 16.692)">
                <path id="Path_567" data-name="Path 567" d="M77.285,285.9a1.128,1.128,0,1,1-1.128-1.129A1.128,1.128,0,0,1,77.285,285.9Z" transform="translate(-75.028 -284.77)" fill="#514e92"/>
                <path id="Path_568" data-name="Path 568" d="M193.689,285.9a1.129,1.129,0,1,1-1.129-1.129A1.129,1.129,0,0,1,193.689,285.9Z" transform="translate(-158.048 -284.77)" fill="#514e92"/>
              </g>
              <g id="Group_241" data-name="Group 241" transform="translate(16.692)">
                <path id="Path_569" data-name="Path 569" d="M134.359,342.973a1.128,1.128,0,1,1-1.129,1.128A1.128,1.128,0,0,1,134.359,342.973Z" transform="translate(-133.23 -309.589)" fill="#514e92"/>
                <path id="Path_570" data-name="Path 570" d="M134.359,226.568a1.129,1.129,0,1,1-1.129,1.129A1.129,1.129,0,0,1,134.359,226.568Z" transform="translate(-133.23 -226.568)" fill="#514e92"/>
              </g>
              <g id="Group_242" data-name="Group 242" transform="translate(2.125 8.542)">
                <path id="Path_571" data-name="Path 571" d="M184.166,313.766a1.128,1.128,0,1,1,.434,1.536A1.128,1.128,0,0,1,184.166,313.766Z" transform="translate(-154.888 -296.888)" fill="#514e92"/>
                <path id="Path_572" data-name="Path 572" d="M82.58,256.929a1.129,1.129,0,1,1,.434,1.536A1.129,1.129,0,0,1,82.58,256.929Z" transform="translate(-82.436 -256.351)" fill="#514e92"/>
              </g>
              <g id="Group_243" data-name="Group 243" transform="translate(1.767 9.217)">
                <path id="Path_573" data-name="Path 573" d="M185.389,260.341a1.129,1.129,0,1,1,1.514.5A1.128,1.128,0,0,1,185.389,260.341Z" transform="translate(-155.42 -258.707)" fill="#514e92"/>
                <path id="Path_574" data-name="Path 574" d="M81.308,312.467a1.128,1.128,0,1,1,1.514.5A1.128,1.128,0,0,1,81.308,312.467Z" transform="translate(-81.189 -295.883)" fill="#514e92"/>
              </g>
              <g id="Group_244" data-name="Group 244" transform="translate(7.666 2.65)">
                <path id="Path_575" data-name="Path 575" d="M165.219,237.888a1.128,1.128,0,1,1,1.56-.339A1.129,1.129,0,0,1,165.219,237.888Z" transform="translate(-146.649 -235.81)" fill="#514e92"/>
                <path id="Path_576" data-name="Path 576" d="M102.277,335.808a1.129,1.129,0,1,1,1.56-.339A1.128,1.128,0,0,1,102.277,335.808Z" transform="translate(-101.759 -305.647)" fill="#514e92"/>
              </g>
              <g id="Group_245" data-name="Group 245" transform="translate(7.891 2.509)">
                <path id="Path_577" data-name="Path 577" d="M104.266,237.4a1.128,1.128,0,1,1,.364-1.554A1.129,1.129,0,0,1,104.266,237.4Z" transform="translate(-102.542 -235.315)" fill="#514e92"/>
                <path id="Path_578" data-name="Path 578" d="M165.641,336.312a1.128,1.128,0,1,1,.364-1.554A1.128,1.128,0,0,1,165.641,336.312Z" transform="translate(-146.315 -305.858)" fill="#514e92"/>
              </g>
            </g>
          </g>
          <path id="Path_579" data-name="Path 579" d="M123.69,172.3V177h-3.632a1.752,1.752,0,0,1-1.747-1.747v-1.208a1.752,1.752,0,0,1,1.747-1.747Z" transform="translate(-62.076 -17.89)" fill="#514e92"/>
        </g>
        <path id="Path_597" data-name="Path 597" d="M7062.782,2082.561s-4.552,16.456,7,22.408" transform="translate(-6581 -1222)" fill="none" stroke="#d5d5ff" stroke-width="1"/>
        <path id="Path_598" data-name="Path 598" d="M7158.717,2143.134s17.214,20.762,39.972,17.611c7.669-1.062,11.239-1.456,12.641-4.211,1.674-2.9-1.952-6.268-5.666-5.107-5.6,1.751-13.335,9.914-6.333,30.221" transform="translate(-6578 -1212)" fill="none" stroke="#d5d5ff" stroke-linecap="round" stroke-width="1"/>
        <path id="Path_599" data-name="Path 599" d="M7193.651,2182.566s3.3,5.092,3.866,15.654" transform="matrix(-0.53, -0.848, 0.848, -0.53, 2572.105, 8329.326)" fill="none" stroke="#d5d5ff" stroke-linecap="round" stroke-width="1"/>
      </g>
      <path id="Path_602" data-name="Path 602" d="M7022,1642s-39,30-31,85" transform="translate(-6578 -1212)" fill="none" stroke="#d5d5ff" stroke-width="1"/>
      <path id="Path_603" data-name="Path 603" d="M7415.87,1836s6.13,26-15.87,45-23,49-23,49" transform="translate(-6581 -1216)" fill="none" stroke="#d5d5ff" stroke-width="1"/>
    </g>
  </g>
</svg>
