<svg xmlns="http://www.w3.org/2000/svg" width="13.056" height="15.349" viewBox="0 0 13.056 15.349">
  <g id="avatar_1_" data-name="avatar (1)" transform="translate(-36.073)">
    <g id="Group_83" data-name="Group 83" transform="translate(36.073)">
      <path id="Path_12" data-name="Path 12" d="M140.343,8.271h.1a2.933,2.933,0,0,0,2.241-.969,5.814,5.814,0,0,0,1-3.97A3.243,3.243,0,0,0,142.142.448,3.534,3.534,0,0,0,140.432,0h-.054a3.54,3.54,0,0,0-1.71.435,3.245,3.245,0,0,0-1.561,2.9,5.814,5.814,0,0,0,1,3.97A2.921,2.921,0,0,0,140.343,8.271Zm-2.387-4.86c0-.01,0-.019,0-.025A2.312,2.312,0,0,1,140.375.861h.038a2.324,2.324,0,0,1,2.416,2.524.062.062,0,0,0,0,.025,5.033,5.033,0,0,1-.785,3.322,2.083,2.083,0,0,1-1.637.68h-.032a2.077,2.077,0,0,1-1.634-.68C137.737,5.6,137.953,3.43,137.956,3.411Z" transform="translate(-133.871)" fill="#fe5049"/>
      <path id="Path_13" data-name="Path 13" d="M49.128,263.2v-.01c0-.025,0-.051,0-.079-.019-.629-.06-2.1-1.44-2.571l-.032-.01a9.171,9.171,0,0,1-2.638-1.2.429.429,0,1,0-.493.7,9.9,9.9,0,0,0,2.9,1.325c.741.264.823,1.055.845,1.78a.637.637,0,0,0,0,.079,5.77,5.77,0,0,1-.067.982,11.7,11.7,0,0,1-5.6,1.3A11.765,11.765,0,0,1,37,264.192a5.462,5.462,0,0,1-.067-.982c0-.025,0-.051,0-.079.022-.725.1-1.516.845-1.78a9.993,9.993,0,0,0,2.9-1.325.429.429,0,0,0-.493-.7,9.07,9.07,0,0,1-2.638,1.2l-.032.01a2.5,2.5,0,0,0-1.44,2.571.639.639,0,0,1,0,.079v.01a4.874,4.874,0,0,0,.162,1.44.408.408,0,0,0,.165.2,12.023,12.023,0,0,0,6.2,1.519,12.059,12.059,0,0,0,6.2-1.519.425.425,0,0,0,.165-.2A5.114,5.114,0,0,0,49.128,263.2Z" transform="translate(-36.073 -251.004)" fill="#fe5049"/>
    </g>
  </g>
</svg>
