<svg xmlns="http://www.w3.org/2000/svg" xmlns:xlink="http://www.w3.org/1999/xlink" width="315.663" height="463.943" viewBox="0 0 315.663 463.943">
  <defs>
    <clipPath id="clip-path">
      <path id="Path_635" data-name="Path 635" d="M290.65,284.88c12.45,26.61-23,44-52,17.67-17.17-15.62-19.1-52,10-48.29s-5.43-28.69,21.65-29.65,16.67-2,25.74-17c3.16-5.21,10.42-9.38,19.42-4.9,9.63,4.8,9.52,17.73,5.1,22.8-11.49,13.2-15.65,3.59-8.31,29.68S278.21,258.28,290.65,284.88Z" transform="translate(-24.42 -27.45)" fill="none"/>
    </clipPath>
    <clipPath id="clip-path-2">
      <path id="Path_638" data-name="Path 638" d="M77.61,281c-12.45,26.61,23,44,52,17.67,17.17-15.62,19.1-52-10-48.29s5.39-28.68-21.7-29.64-16.67-2-25.74-17c-3.16-5.21-10.42-9.38-19.42-4.9-9.63,4.8-9.52,17.73-5.1,22.8,11.49,13.2,15.65,3.59,8.31,29.68S90.06,254.42,77.61,281Z" transform="translate(-24.42 -27.45)" fill="none"/>
    </clipPath>
    <clipPath id="clip-path-3">
      <path id="Path_678" data-name="Path 678" d="M103.81,0a103.805,103.805,0,0,1,83.379,165.646c-1.9,2.574-2,7.289-4.342,9.884-.925,1.024-3.175,2.2-4.3,3.347-18.585,18.973-44.726,29.961-73.787,29.961-33.138,0-65.057-15.312-84.464-40C6.354,151.1,0,128,0,103.81A103.81,103.81,0,0,1,103.81,0Z" transform="translate(59.64 161.12)" fill="none"/>
    </clipPath>
    <clipPath id="clip-path-4">
      <path id="Path_661" data-name="Path 661" d="M254.59,313.39l-22.47-.43L205.2,321.4l-.54,4.17,73.55,2.22.52-3.73Z" transform="translate(-24.42 -27.45)" fill="none"/>
    </clipPath>
  </defs>
  <g id="contacthr" transform="translate(0.022)">
    <path id="Path_604" data-name="Path 604" d="M152.23,426.19a50.089,50.089,0,0,1,8.69,3.76,33.674,33.674,0,0,1,3.73,2.36l.12.15c.1.11.26.28-.07.32l-.62-.19c-2.9-.83-5.86-1.5-8.74-2.46a12.31,12.31,0,0,1-5.74-3.48v.09a53.508,53.508,0,0,0,2.14,5.47,7.831,7.831,0,0,0,2.28,1.29c3.19,1.25,6.64,1.74,9.88,2.87,1.66.58,3.37,1.23,4.26,2.48l.06.24c.06.62-.59.22-1,.16-1.5-.19-3-.46-4.49-.72a24.639,24.639,0,0,1-7.83-2.25,11.621,11.621,0,0,1-1.82-1.36c.76,1.51,1.57,3,2.42,4.49,2,1.52,4.62,1.88,7,2.66a48.226,48.226,0,0,1,8.15,3.39,6.229,6.229,0,0,1,1.27.88.65.65,0,0,1,.3.42c.23.52-.39.28-.74.24a46.682,46.682,0,0,1-7.1-1h-.1a15.87,15.87,0,0,1-7.23-3.89c.91,1.54,1.84,3.09,2.77,4.63h0c0-.07.05,0,0,.14l.37.62c3.55,2.5,8.5,2.35,12.41,4.49a8.77,8.77,0,0,1,2.68,2s.49.64-.08.61a18.118,18.118,0,0,1-3.08-.57c-3.93-1-7.94-2.16-10.72-4.49l1,1.74a17,17,0,0,1,2.72,3.68A27.12,27.12,0,0,1,169,469.44c0,1.55-.12,1-.35,1.06a.62.62,0,0,1-.28-.2,9,9,0,0,1-.86-1.67,52.251,52.251,0,0,1-2.59-9.34c-.3-1.42-.54-2.85-.95-4.24q-.49-.92-1-1.82-1.5-2.625-3-5.24a10.82,10.82,0,0,1-.13,3.56c-.63,3.07-2.27,5.69-3.66,8.41l-.55,1.08a.7.7,0,0,1-.24.54c-.41.29-.45-.51-.38-.95a29,29,0,0,1,1.77-7c.71-1.69,1.73-3.26,2.38-5l.06-.16s.17-.41.27-.7a.49.49,0,0,0,0-.42v-.16c-1.34-2.29-2.69-4.57-4-6.86a6.75,6.75,0,0,1,.22,1.86,12.32,12.32,0,0,1-.66,3.31c-1.25,3.72-3.6,7.07-5.84,10.42a8.3,8.3,0,0,1-.81,1.36c-.2.19-.11.15-.34,0a.68.68,0,0,1-.13-.28,9.17,9.17,0,0,1,1.09-4.57c.78-1.78,1.57-3.55,2.43-5.29,1.22-2.47,2.74-4.76,3.39-7.33.14-.57.1-.43.12-.45l-.7-1.26c-.9-1.64-1.77-3.32-2.56-5a3.279,3.279,0,0,1,0,.41c-.12,2.52-1.7,4.71-3.23,6.78a58.749,58.749,0,0,1-4.35,4.87c-.59.63-1.29,1.4-1.48,1.66-.31.45-.5.17-.58-.07v-.29a6.619,6.619,0,0,1,.16-.74,22.18,22.18,0,0,1,3.21-5.84c1.94-2.74,4.73-4.86,5.65-7.85a.54.54,0,0,1,.08-.2h0a50.692,50.692,0,0,1-2.08-5.63,9.81,9.81,0,0,1-.85,1.13,17.11,17.11,0,0,1-5.95,4.21c-2.61,1.18-5.28,1.84-7.78,3h-.1l-.25.11c-.41,0-.21-.62.12-1l.66-.63c2.62-2.42,6.12-3.78,9.57-5.1a13.139,13.139,0,0,0,4.43-2.23l-.2-.74-.12-.11v-.23h.06a28.17,28.17,0,0,1-.73-11.65,3.483,3.483,0,0,0,.16-.31s0-.48.15.27v.16a29.41,29.41,0,0,0,.85,11.68,13.212,13.212,0,0,0,3.13,1.43Zm12.43,6.13Z" transform="translate(-24.42 -27.45)" fill="#f59e00"/>
    <path id="Path_605" data-name="Path 605" d="M134.53,446.71Z" transform="translate(-24.42 -27.45)" fill="#548936"/>
    <path id="Path_606" data-name="Path 606" d="M128.65,451a58.37,58.37,0,0,0-4.34,15.06c0,.26-.08.53.18.49s.24-.27.34-.5a41.42,41.42,0,0,1,6.3-9.91c2.55-3.06,3.71-5.41,3.37-9.43C132,447.5,129.79,448.58,128.65,451Z" transform="translate(-24.42 -27.45)" fill="#548936"/>
    <path id="Path_607" data-name="Path 607" d="M141,432.94c-1.67-1.27-2.36-3.38-3.47-5a5.64,5.64,0,0,0-4.19-2.69c-1.61-.22-3.3-.29-5-.41a7.13,7.13,0,0,0-3.25.3c-.08.17.17.24.26.3,2,1.24,5.52,3.56,7.23,4.6,1.56.95,7.08,2.85,7.7,3.15h0c.21.59.72.35.38,1s-.87,1.52-1.18,2.18c-.17.36-.51.63-.82.35a21.4,21.4,0,0,1-1.82-2.33c-1.32-1.59-2.44-2.71-4.65-2.52a37.639,37.639,0,0,1-7.28,0,12.928,12.928,0,0,0-3.06-.27,9.35,9.35,0,0,0,5,4.06A31,31,0,0,0,133,436.9a27.623,27.623,0,0,0,5.52.34h0c.05.06.28.33.25.38a6.74,6.74,0,0,1-1.84,2.86,10.661,10.661,0,0,1-4.11-1.47c-1.78-.92-3.29-1.88-5.44-1.65a52.9,52.9,0,0,0-9.26,1.49,1.641,1.641,0,0,0,.72.39c2.44.56,4.71,1.4,7.22,1.93a23.769,23.769,0,0,0,7.77.76,10.83,10.83,0,0,0,3.12-.7h0c.8,1.13-1.12,2.24-1.54,3.25a.25.25,0,0,1-.22.16,17.417,17.417,0,0,1-2.87-.57c-4.5-1.26-7.69-1.35-11.91.44-.29.12-.44.15-.36.43s.38.2.65.25c.55.1.83.1,1.47.22,4.71.9,7.81,2.22,12.5,0,0,.43-.09.85-.13,1.28.53-.25.79-.48,1.16.12h0c.6,5.86.85,5.9,3.87,10.72.32-1.31.68-2.32,1.07-3.65a5.1,5.1,0,0,0-1.23-5.35c-.93-1.1-2.06-2.36-3-3.48a2.53,2.53,0,0,1,1.2-2.92,17.362,17.362,0,0,0,.76,2.34,35.7,35.7,0,0,0,3.21,5.66,9.45,9.45,0,0,0,5.8,4.64,2.06,2.06,0,0,0-.12-.89c-.68-1.77-1.35-3.78-2.15-5.44a21.6,21.6,0,0,0-1.45-2.75c-.75-.88-5.53-4.26-5.78-4.49h0c1.45-.84,1.33-2.85,2.14-4.21a11.38,11.38,0,0,0,2.55,6.21c2.31,2.76,4.72,5,7.07,7.6a4.21,4.21,0,0,0,1.39,1.29,4.65,4.65,0,0,0,0-.58,35.58,35.58,0,0,0-2.08-6.72,9.87,9.87,0,0,0-3.89-4.52c-1.56-1.08-3.47-1.78-4.41-3.56-.57-1.07.35-1.62.7-2.52a8.61,8.61,0,0,0,1.2,2.08c.27.21,0,0,0,0,.29.24.65,1,1,1.35,2.74,2.5,5.79,4.95,8.74,7.23,1.28,1,2.45,1.84,3.74,2.79a36.209,36.209,0,0,0-4.35-7.46,13.15,13.15,0,0,0-3.66-3.28c-1.82-1.12-3.76-1.89-5.57-3.06-.24-.15-.72-.19-.56-.61s.55-.32.91-.2a41.4,41.4,0,0,0,5.34,1.43,8.53,8.53,0,0,0,4.9-.09c-2.51-1.59-4.39-3.39-7.54-3a9.631,9.631,0,0,0-2.79.6c.63-.95,1.3-2.05,2-2.93,1.84-2.35,3.66-4.59,5.59-6.84a29.132,29.132,0,0,0,3.52-4,30.173,30.173,0,0,0-3.88,3.84,71.405,71.405,0,0,0-7.05,8.76c-.2.29-.36.85-.69.17-.18-1.28.05-2.3-.24-3.65a6.62,6.62,0,0,0-4.74-4.91c1,2.27,2,4.62,2.87,7a5.19,5.19,0,0,0,1.43,2.39.834.834,0,0,1,0,1.34h0C141.36,432.91,141.16,433,141,432.94Z" transform="translate(-24.42 -27.45)" fill="#548936"/>
    <path id="Path_608" data-name="Path 608" d="M86.45,390.91Z" transform="translate(-24.42 -27.45)" fill="#365b1e"/>
    <path id="Path_609" data-name="Path 609" d="M80.36,397c-1.81,6.13-2.23,12.11-2.37,18.34,0,.31,0,.64.3.54s.23-.35.31-.65a48.869,48.869,0,0,1,5.58-12.68c2.42-4,3.37-7,2.25-11.6C83.59,392.29,81.26,393.93,80.36,397Z" transform="translate(-24.42 -27.45)" fill="#365b1e"/>
    <path id="Path_610" data-name="Path 610" d="M91.57,373.69c-2.17-1.18-3.36-3.52-4.94-5.2a6.65,6.65,0,0,0-5.37-2.39c-1.91,0-3.9.24-5.85.41a8.41,8.41,0,0,0-3.74.93c-.06.21.25.25.36.3,2.57,1.08,7.07,3.16,9.25,4.08,2,.83,8.77,2.06,9.55,2.3h0c.35.65.91.28.62,1.09s-.74,1.92-1,2.75c-.13.44-.48.83-.89.56a25.25,25.25,0,0,1-2.56-2.4c-1.82-1.62-3.33-2.72-5.88-2.11a44.415,44.415,0,0,1-8.49,1.31,15.26,15.26,0,0,0-3.62.23,11,11,0,0,0,6.52,3.84,36.59,36.59,0,0,0,7.36.34,32.6,32.6,0,0,0,6.5-.59h0c.07.06.38.33.36.4a8.016,8.016,0,0,1-1.63,3.66,12.58,12.58,0,0,1-5.05-1c-2.24-.75-4.17-1.61-6.64-.95a62.407,62.407,0,0,0-10.53,3.39,1.94,1.94,0,0,0,.91.32c2.95.22,5.74.8,8.77,1a26.959,26.959,0,0,0,9.2-.5c1,0,2.85-1.1,3.51-1.38h0c1.14,1.18-.91,2.81-1.21,4.06a.254.254,0,0,1-.22.22,20.551,20.551,0,0,1-3.45-.16c-5.48-.66-9.22-.2-13.81,2.64-.31.19-.48.25-.34.56s.48.16.8.17h1.76c5.66.21,9.51,1.19,14.58-2.21,0,.51.05,1,.07,1.51.57-.38.84-.7,1.37-.06h0c1.75,6.73,2,6.72,6.43,11.81.14-1.58.38-2.83.59-4.45a5.989,5.989,0,0,0-2.39-6c-1.28-1.12-2.83-2.39-4.17-3.51a3,3,0,0,1,.9-3.66,20.5,20.5,0,0,0,1.3,2.59,42.119,42.119,0,0,0,4.75,6c2.28,2.62,4.19,3.88,7.59,4.38a2.43,2.43,0,0,0-.3-1c-1.11-1.94-2.25-4.17-3.48-6a25.489,25.489,0,0,0-2.18-2.94c-1-.89-7.21-4-7.54-4.21h0c1.54-1.24,1-3.56,1.74-5.29a13.43,13.43,0,0,0,4.09,6.79c3.19,2.81,6.39,5,9.6,7.6a5,5,0,0,0,1.85,1.25,5.469,5.469,0,0,0-.13-.67,42,42,0,0,0-3.62-7.47,11.65,11.65,0,0,0-5.34-4.58c-2-1-4.37-1.46-5.78-3.36-.85-1.15.11-2,.37-3.07.56.68,1.1,1.81,1.78,2.21h0c.38.22.94,1.07,1.42,1.4,3.64,2.42,7.64,4.74,11.48,6.88,1.68.93,3.19,1.71,4.86,2.59a42.731,42.731,0,0,0-6.41-7.93,15.52,15.52,0,0,0-4.86-3.18c-2.32-1-4.73-1.54-7-2.58-.3-.14-.88-.09-.76-.62s.59-.47,1-.4a48.869,48.869,0,0,0,6.48.71c2,.06,3.85.08,5.7-1-3.21-1.41-5.73-3.17-9.34-2.19a11.359,11.359,0,0,0-3.15,1.2c.57-1.22,1.15-2.63,1.79-3.78,1.72-3.07,3.45-6,5.29-9a34.362,34.362,0,0,0,3.4-5.29,35.606,35.606,0,0,0-3.84,5.18,84.239,84.239,0,0,0-6.66,11.47c-.18.37-.27,1.06-.78.32-.44-1.46-.35-2.7-.94-4.22a7.81,7.81,0,0,0-6.41-4.88c1.62,2.46,3.17,5,4.59,7.61a6.12,6.12,0,0,0,2.1,2.53c.87.42.44,1.31.29,1.55h0C92,373.6,91.75,373.79,91.57,373.69Z" transform="translate(-24.42 -27.45)" fill="#365b1e"/>
    <path id="Path_611" data-name="Path 611" d="M311.87,352.89Z" transform="translate(-24.42 -27.45)" fill="#548936"/>
    <path id="Path_612" data-name="Path 612" d="M318.73,361.87c6.09,4.82,13.21,4.41,20.33,3.86.35,0,1,0,1-.66,0-.54-.53-.46-.86-.54-5-1.28-9-4.28-13-7.34a20.72,20.72,0,0,0-14.31-4.3A19.91,19.91,0,0,0,318.73,361.87Z" transform="translate(-24.42 -27.45)" fill="#548936"/>
    <path id="Path_613" data-name="Path 613" d="M287.08,342.17c-1.82,3.81-5.11,6.33-8,9.19s-5.12,5.76-5,10.05a77.539,77.539,0,0,0,.79,10.91c.39,2.35.26,4.94,1.78,7,.51,0,.44-.41.54-.67,2.25-6.06,4.54-12.1,6.74-18.17,2-5.52,4.4-11,3.81-17.08h0c.15-1,.31-1.73,1.59-.94a40.115,40.115,0,0,0,4.09,2.11,1.15,1.15,0,0,1,.76,1.57c-1.24,1.39-2.5,2.75-3.71,4.17-2.5,2.95-4.38,6.2-3.33,10.22A123.551,123.551,0,0,1,289.47,374c.29,2,0,4.08,1,6,5.28-5.62,5.25-7.71,5.42-12.14.13-3.71-.17-7.44-.35-11.15-.17-3.43,0-6.87-.54-10.27h0c.22-.2.56-.61.65-.56,1.77.95,4,1.21,5.17,3.07.09,2.59-.84,4.94-1.6,7.35-1,3.09-2.36,6.2-.69,9.53a48,48,0,0,0,8.69,12.92,2.57,2.57,0,0,0,.3-1.53c-.55-3.86-.92-7.74-1.62-11.57s-.72-7.88-2-11.65c.07-2-1.9-3.26-1.76-5.26h0a19.57,19.57,0,0,0,5.86,2.57l.31.34c-.12,1.48-.11,3-.37,4.43-1.32,7.47,2.05,12.65,8,16.63.4.27.73.58,1.17.3s.06-.78-.05-1.16c-.24-.79-.47-1.58-.76-2.35-2.07-5.66-2.86-11.81-6.58-17l2.14.32c-.26-.58-1.14-1.22.16-1.68h0c6.87-.2,13.91,1.18,21.13-2.07-2.88-1.18-5.06-2.12-7.27-3-3.52-1.35-7-1.83-10.63-.07a46.385,46.385,0,0,0-6.31,3.9c-1.81.48-4.72-.71-5.21-2.14,1.37-.35,2.76-.66,4.12-1,3.6-1,7.15-2.28,10.8-3.07,5.15-1.11,9.54-3.06,11.71-8.36a4.15,4.15,0,0,0-2,0,86.637,86.637,0,0,1-12.16,1.81c-1.89.17-3.82.06-5.68,1-4,2.07-6.41,5.51-8.55,9.24h0a18.241,18.241,0,0,1-7.59-3.84c4.24-.39,7.9-2.31,11.44-4.45q8.59-5.2,17.07-10.58c1.06-.67,2.43-1,3.2-2.42a10.092,10.092,0,0,0-1.26-.22,81.525,81.525,0,0,0-14.67,1.18c-4.38.66-7.33,2.9-9.73,6.44-2.07,3.05-3.3,6.76-6.59,8.91-2,1.31-3.06-.59-4.62-1.14,1.1-1.32,3.2-1.08,3.65-2.93h0a22.737,22.737,0,0,0,2.38-2c5.16-5.79,10.64-11.26,16-16.85,2.34-2.43,4.61-4.93,6.92-7.4A69.67,69.67,0,0,0,301,319.44a19.63,19.63,0,0,0-7.13,7.27c-2.25,3.89-3.65,8.13-5.44,12.2-.23.53-.12,1.66-1,1.41s-.69-1.17-.55-1.94c.7-4,1.43-7.9,2-11.86.54-3.49,1.35-7-.44-10.94-3.18,5.6-8,10.19-5.55,17.25,0,2,1.12,3.74,2,6.06-2.41-1.4-4.41-2.5-6.35-3.7-5.2-3.19-10.38-6.43-15.57-9.65a51,51,0,0,0-9.61-6.15c2.73,2.86,6.11,4.82,9.37,7,6.34,4.59,13.11,8.48,19.84,12.45.62.36,2,.4.58,1.52a58.548,58.548,0,0,0-7,1.6c-4,1.4-8.7,7.83-8.81,12.42,4.6-3,9.08-6,13.62-8.85a11.9,11.9,0,0,0,3.9-3.93c.83-1.42,1.43-1.1,2.35-.39h0Z" transform="translate(-24.42 -27.45)" fill="#548936"/>
    <path id="Path_614" data-name="Path 614" d="M144.16,400.25c17.24-4.18,39.67,7,41.54,22.54,1.51,12.6-10.67,26.44-17.2,25.11-6.13-1.24-4.91-15.37-12.59-17.54S142.19,441.47,134,439c-6.42-1.95-10.69-11.28-10.08-18.87C124.85,409,136.12,402.2,144.16,400.25Z" transform="translate(-24.42 -27.45)" fill="#009ad0"/>
    <circle id="Ellipse_131" data-name="Ellipse 131" cx="9.74" cy="9.74" r="9.74" transform="translate(109.88 457.196) rotate(-72.2)" fill="#009ad0"/>
    <path id="Path_615" data-name="Path 615" d="M67.54,292a125.279,125.279,0,0,1,10.1-21.24,102.346,102.346,0,0,1,6.44-9.48c.74-1,1.5-1.95,2.27-2.89l24.58,7.89a.25.25,0,0,0,.1.06h.07l.21.11.13.05.29.12.44.17,1.18.44,1.07.38h0l.75.27.81.29,1.82.62,3.21,1.1,3.23,1.08,9.84,3.26h0l2.65.87,1.57.52,2.8.91c38.36,12.51,100.78,32.52,145.86,47-2.87,9.38-6.19,13.31-8.07,22.08-6.66,31,40.21,45.8,39.8,74.66a10.458,10.458,0,0,1-.08,1.58c-.79,11.24-8.27,22.5-19.3,32.59A123.206,123.206,0,0,1,285,465.69c-23.68,16-54.66,26.76-75.2,25.62h0c-7.36-.41-13.37-2.37-17.22-6.16-16.07-15.84,13.49-50.65-5.26-76.32-23.15-31.7-83.75,1-113.78-31.18C54.79,357.55,56.63,321.51,67.54,292Z" transform="translate(-24.42 -27.45)" fill="#009ad0"/>
    <path id="Path_616" data-name="Path 616" d="M311.61,420.6c0,15-17.43,27.94-19.89,24.26-1.5-2.25,3.33-9.56,5.08-27,.88-8.79.21-12.38,1.75-14C301.79,400.54,311.62,409.32,311.61,420.6Z" transform="translate(-24.42 -27.45)" fill="#00b7e8"/>
    <path id="Path_617" data-name="Path 617" d="M261.12,251.47C298.38,237,311,189.58,296,154.9c-5-11.52-13-21.81-21.65-30.78-3.88-4-7.93-7.92-11.07-12.53-3.53-5.18-4.8-10.47-5.32-16.61-.46-5.37-.55-11.72-5.56-15-11.19-7.41-19.77,9.07-25.69,15.31A29.82,29.82,0,0,1,206.6,104,41.86,41.86,0,0,1,185,98.82c-4.63-2.46-9.24-5.72-14.49-5.6-13.67.32-19.28,16-22.44,27C145,131,141.69,144.18,131,150c-7.07,3.85-15.58,3.29-23.63,3.42-13.87.21-28.87,3.29-38.82,13.67-10.45,10.89-14.66,27.07-10,41.54C63.83,225,85,246.13,103.5,243.79" transform="translate(-24.42 -27.45)" fill="none" stroke="#757af8" stroke-miterlimit="10" stroke-width="1" stroke-dasharray="5 5"/>
    <rect id="Rectangle_203" data-name="Rectangle 203" width="35.99" height="24.01" rx="2" transform="translate(92.78 93.41)" fill="#d43577"/>
    <path id="Path_618" data-name="Path 618" d="M117.78,121.63l15.76,15.28a2.42,2.42,0,0,0,3.31,0l15.76-15.28" transform="translate(-24.42 -27.45)" fill="none" stroke="#fff" stroke-miterlimit="10" stroke-width="1"/>
    <line id="Line_130" data-name="Line 130" y1="9.93" x2="12.93" transform="translate(93.36 106.72)" fill="none" stroke="#fff" stroke-miterlimit="10" stroke-width="1"/>
    <line id="Line_131" data-name="Line 131" x1="12.93" y1="9.93" transform="translate(115.26 106.72)" fill="none" stroke="#fff" stroke-miterlimit="10" stroke-width="1"/>
    <rect id="Rectangle_204" data-name="Rectangle 204" width="21.76" height="14.52" rx="2" transform="translate(194.56)" fill="#babcf6"/>
    <path id="Path_619" data-name="Path 619" d="M219.33,27.92l9.53,9.24a1.46,1.46,0,0,0,2,0l9.53-9.24" transform="translate(-24.42 -27.45)" fill="none" stroke="#fff" stroke-miterlimit="10" stroke-width="1"/>
    <line id="Line_132" data-name="Line 132" y1="6" x2="7.82" transform="translate(194.91 8.05)" fill="none" stroke="#fff" stroke-miterlimit="10" stroke-width="1"/>
    <line id="Line_133" data-name="Line 133" x1="7.82" y1="6" transform="translate(208.15 8.05)" fill="none" stroke="#fff" stroke-miterlimit="10" stroke-width="1"/>
    <rect id="Rectangle_205" data-name="Rectangle 205" width="21.76" height="14.52" rx="2" transform="translate(36.48 79.5)" fill="#babcf6"/>
    <path id="Path_620" data-name="Path 620" d="M61.25,107.42l9.53,9.24a1.46,1.46,0,0,0,2,0l9.53-9.24" transform="translate(-24.42 -27.45)" fill="none" stroke="#fff" stroke-miterlimit="10" stroke-width="1"/>
    <line id="Line_134" data-name="Line 134" y1="6" x2="7.82" transform="translate(36.83 87.55)" fill="none" stroke="#fff" stroke-miterlimit="10" stroke-width="1"/>
    <line id="Line_135" data-name="Line 135" x1="7.82" y1="6" transform="translate(50.07 87.55)" fill="none" stroke="#fff" stroke-miterlimit="10" stroke-width="1"/>
    <circle id="Ellipse_132" data-name="Ellipse 132" cx="16.56" cy="16.56" r="16.56" transform="translate(225.89 60.4)" fill="#d43577"/>
    <path id="Path_621" data-name="Path 621" d="M263.21,103.08l.6-.67a2.77,2.77,0,0,0-.2-3.91l-1-.92a2.77,2.77,0,0,0-3.91.2l-.6.67a2.747,2.747,0,0,0-.22.28h0a3.37,3.37,0,0,0-.77,3.12,15.54,15.54,0,0,0,13.81,12.49,3.9,3.9,0,0,0,2.38-.5,2.78,2.78,0,0,0,.68-.55l.6-.67a2.77,2.77,0,0,0-.2-3.91l-1-.92a2.77,2.77,0,0,0-3.91.2l-.6.67a2.75,2.75,0,0,0-.57,1l-.05.16-.16-.06a11.67,11.67,0,0,1-6.17-5.66l-.09-.17.18-.06a2.76,2.76,0,0,0,1.2-.79Z" transform="translate(-24.42 -27.45)" fill="#fff"/>
    <path id="Path_622" data-name="Path 622" d="M266.6,95.09a.65.65,0,0,0,.65.65,8.22,8.22,0,0,1,8.21,8.21.65.65,0,0,0,1.29,0,9.51,9.51,0,0,0-9.5-9.5.65.65,0,0,0-.65.64Z" transform="translate(-24.42 -27.45)" fill="#fff"/>
    <path id="Path_623" data-name="Path 623" d="M266.49,98.25a.65.65,0,0,0,.65.65,5.16,5.16,0,0,1,5.15,5.15.65.65,0,1,0,1.29,0,6.45,6.45,0,0,0-6.44-6.44.65.65,0,0,0-.65.64Z" transform="translate(-24.42 -27.45)" fill="#fff"/>
    <circle id="Ellipse_133" data-name="Ellipse 133" cx="10.68" cy="10.68" r="10.68" transform="translate(173.64 103.57)" fill="#babcf6"/>
    <path id="Path_624" data-name="Path 624" d="M206.39,140.85l.39-.43a1.79,1.79,0,0,0-.13-2.52l-.66-.59a1.79,1.79,0,0,0-2.52.13l-.39.43-.14.18h0a2.18,2.18,0,0,0-.5,2,10,10,0,0,0,8.91,8.06,2.52,2.52,0,0,0,1.54-.32,1.8,1.8,0,0,0,.44-.35l.39-.43a1.79,1.79,0,0,0-.13-2.52l-.66-.59a1.79,1.79,0,0,0-2.52.13l-.39.43a1.78,1.78,0,0,0-.37.63v.1h-.1a7.53,7.53,0,0,1-4-3.65l-.06-.11h.12a1.78,1.78,0,0,0,.78-.58Z" transform="translate(-24.42 -27.45)" fill="#fff"/>
    <path id="Path_625" data-name="Path 625" d="M208.57,135.69a.42.42,0,0,0,.42.42,5.3,5.3,0,0,1,5.29,5.29.42.42,0,0,0,.83,0,6.13,6.13,0,0,0-6.13-6.13.42.42,0,0,0-.41.42Z" transform="translate(-24.42 -27.45)" fill="#fff"/>
    <path id="Path_626" data-name="Path 626" d="M208.5,137.73a.42.42,0,0,0,.42.42,3.33,3.33,0,0,1,3.32,3.32.42.42,0,1,0,.83,0,4.16,4.16,0,0,0-4.16-4.16.42.42,0,0,0-.41.42Z" transform="translate(-24.42 -27.45)" fill="#fff"/>
    <circle id="Ellipse_134" data-name="Ellipse 134" cx="9.92" cy="9.92" r="9.92" transform="translate(236.42 123.64)" fill="#babcf6"/>
    <path id="Path_627" data-name="Path 627" d="M268.57,160.22l.36-.4a1.66,1.66,0,0,0-.12-2.34l-.61-.55a1.66,1.66,0,0,0-2.34.12l-.36.4-.13.17h0a2,2,0,0,0-.46,1.87,9.3,9.3,0,0,0,8.27,7.48,2.34,2.34,0,0,0,1.43-.3,1.671,1.671,0,0,0,.4-.33l.36-.4a1.66,1.66,0,0,0-.12-2.34l-.61-.55a1.66,1.66,0,0,0-2.34.12l-.36.4a1.65,1.65,0,0,0-.34.58v.1h-.09a7,7,0,0,1-3.69-3.39l-.05-.1h.11A1.65,1.65,0,0,0,268.57,160.22Z" transform="translate(-24.42 -27.45)" fill="#fff"/>
    <path id="Path_628" data-name="Path 628" d="M270.59,155.43a.39.39,0,0,0,.39.39,4.92,4.92,0,0,1,4.91,4.91.39.39,0,0,0,.77,0A5.69,5.69,0,0,0,271,155a.39.39,0,0,0-.41.43Z" transform="translate(-24.42 -27.45)" fill="#fff"/>
    <path id="Path_629" data-name="Path 629" d="M270.53,157.32a.39.39,0,0,0,.39.39A3.09,3.09,0,0,1,274,160.8a.39.39,0,1,0,.77,0,3.86,3.86,0,0,0-3.86-3.86.39.39,0,0,0-.38.38Z" transform="translate(-24.42 -27.45)" fill="#fff"/>
    <circle id="Ellipse_135" data-name="Ellipse 135" cx="9.19" cy="9.19" r="9.19" transform="translate(113.88 33.91)" fill="#babcf6"/>
    <path id="Path_630" data-name="Path 630" d="M145.46,69.82l.33-.37a1.54,1.54,0,0,0-.11-2.17l-.56-.51a1.54,1.54,0,0,0-2.17.11l-.33.37-.12.16h0a1.87,1.87,0,0,0-.43,1.73,8.62,8.62,0,0,0,7.66,6.93A2.17,2.17,0,0,0,151,75.8a1.54,1.54,0,0,0,.38-.3l.33-.37a1.54,1.54,0,0,0-.11-2.17l-.56-.51a1.54,1.54,0,0,0-2.17.11l-.33.37a1.53,1.53,0,0,0-.32.54v.09h-.09a6.47,6.47,0,0,1-3.42-3.14v-.09h.1a1.53,1.53,0,0,0,.65-.51Z" transform="translate(-24.42 -27.45)" fill="#fff"/>
    <path id="Path_631" data-name="Path 631" d="M147.33,65.38a.36.36,0,0,0,.36.36,4.56,4.56,0,0,1,4.56,4.56.36.36,0,1,0,.72,0,5.28,5.28,0,0,0-5.28-5.3.36.36,0,0,0-.36.38Z" transform="translate(-24.42 -27.45)" fill="#fff"/>
    <path id="Path_632" data-name="Path 632" d="M147.28,67.14a.36.36,0,0,0,.36.36,2.86,2.86,0,0,1,2.86,2.86.36.36,0,0,0,.72,0,3.58,3.58,0,0,0-3.58-3.58.36.36,0,0,0-.36.36Z" transform="translate(-24.42 -27.45)" fill="#fff"/>
    <path id="Path_633" data-name="Path 633" d="M290.65,284.88c12.45,26.61-23,44-52,17.67-17.17-15.62-19.1-52,10-48.29s-5.43-28.69,21.65-29.65,16.67-2,25.74-17c3.16-5.21,10.42-9.38,19.42-4.9,9.63,4.8,9.52,17.73,5.1,22.8-11.49,13.2-15.65,3.59-8.31,29.68S278.21,258.28,290.65,284.88Z" transform="translate(-24.42 -27.45)" fill="#fad57b" fill-rule="evenodd"/>
    <g id="Group_267" data-name="Group 267" clip-path="url(#clip-path)">
      <path id="Path_634" data-name="Path 634" d="M275.23,257.21l1.37-1.93c4.71-6.69,9.59-13.29,14.76-19.71l.33-.41,4.47-5.28,1.6-1.85c4.1-4.75,8.29-9.44,12-14.47l.94-.26.21.79c-3.42,5.37-7.29,10.44-11.06,15.59l-1.44,2L295,236.32l-.66.88L292,240.1q-6.12,7.905-11.78,15.93c2.17-.3,4.43-.38,6.61-.58,3.21-.27,6.43-.51,9.64-.77,0,0,4.78-.26,8.3-.52,0,0,.42,0,.11.38-7.53,1-15,1.66-22.78,2.41-.95.1-1.89.21-2.81.39C271.49,268.4,264,279.6,256,290.74l-.41.57q1-.13,2.1-.22h.19c7.61-.22,15.41.75,23,.46l.92.58-.5.65c-7.5.45-15.22-.35-22.8-.05,0,0-1.79,0-3.94.08-6.83,9.58-13.59,19.21-20.08,29l-2.73,3.41c-.62.45-.62.45-1.22.93l-1.68.36-.33-1.71s.2-.75.42-1.78l1.86-3.37c7.69-11.51,15.78-22.8,23.93-34-1.64-2.89-3.11-5.84-4.55-8.81l-1.56-3.33-.88-2-.4-1-.93-2.22c-.45-1.06-.68-1.58-.68-1.58l.2-.6a1.62,1.62,0,0,1,.84.62c1.05,1.83,2.4,4.34,2.4,4.34l1,2c1.75,3.86,3.39,7.74,5.3,11.54,6.19-8.52,12.4-17,18.47-25.56a118.367,118.367,0,0,0-.5-19.93s-.22-3.37-.46-5.63c0,0,.33-.65.56.43.44,2.16,1,5.19,1,5.19a112.767,112.767,0,0,1,.69,18.1Z" transform="translate(-24.42 -27.45)" fill="#f59e00" fill-rule="evenodd"/>
    </g>
    <path id="Path_636" data-name="Path 636" d="M77.61,281c-12.45,26.61,23,44,52,17.67,17.17-15.62,19.1-52-10-48.29s5.39-28.68-21.7-29.64-16.67-2-25.74-17c-3.16-5.21-10.42-9.38-19.42-4.9-9.63,4.8-9.52,17.73-5.1,22.8,11.49,13.2,15.65,3.59,8.31,29.68S90.06,254.42,77.61,281Z" transform="translate(-24.42 -27.45)" fill="#fad57b" fill-rule="evenodd"/>
    <g id="Group_268" data-name="Group 268" clip-path="url(#clip-path-2)">
      <path id="Path_637" data-name="Path 637" d="M93,253.35l-1.37-1.93c-4.71-6.69-9.59-13.29-14.76-19.71l-.33-.41L72.11,226l-1.6-1.85c-4.1-4.75-8.29-9.44-12-14.47l-.94-.26-.21.79c3.42,5.37,7.29,10.44,11.06,15.59l1.44,2,3.48,4.65.66.88,2.26,2.9q6.12,7.905,11.78,15.93c-2.17-.3-4.43-.38-6.61-.58-3.21-.27-6.43-.51-9.64-.77,0,0-4.78-.26-8.3-.52,0,0-.42,0-.11.38,7.53,1,15,1.66,22.78,2.41.95.1,1.89.21,2.81.39,7.85,11.07,15.36,22.26,23.34,33.41l.41.57q-1-.13-2.1-.22h-.19c-7.61-.22-15.41.75-23,.46l-.92.58.5.65c7.5.45,15.22-.35,22.8-.05,0,0,1.79,0,3.94.08,6.83,9.58,13.59,19.21,20.08,29l2.73,3.41c.62.45.62.45,1.22.93l1.68.36.33-1.71s-.2-.75-.42-1.78l-1.86-3.37c-7.69-11.51-15.78-22.8-23.93-34,1.64-2.89,3.11-5.84,4.55-8.81l1.56-3.33.88-2,.4-1,.93-2.22c.45-1.06.68-1.58.68-1.58l-.2-.6a1.62,1.62,0,0,0-.84.62c-1.05,1.83-2.4,4.34-2.4,4.34l-1,2c-1.75,3.86-3.39,7.74-5.3,11.54-6.19-8.52-12.4-17-18.47-25.56a118.371,118.371,0,0,1,.5-19.93s.22-3.37.46-5.63c0,0-.33-.65-.56.43-.44,2.16-1,5.19-1,5.19a112.768,112.768,0,0,0-.77,18.1Z" transform="translate(-24.42 -27.45)" fill="#f59e00" fill-rule="evenodd"/>
    </g>
    <path id="Path_639" data-name="Path 639" d="M278.53,315.61a77,77,0,0,1-.15-14.55,51.743,51.743,0,0,1,1-6.72l.13-.27c.09-.22.23-.54.49-.1,0,0,.06.56.12,1,.65,4.6,1.55,9.17,2,13.8.34,3.44.21,7.35-1.3,10.23l.11-.1a82.223,82.223,0,0,0,6.34-6.43,12,12,0,0,0,.38-4c-.24-5.25-1.71-10.41-2.15-15.67-.22-2.7-.39-5.5.82-7.53l.29-.24c.82-.47.68.69.88,1.36.67,2.22,1.23,4.49,1.8,6.76,1,4,2.11,8.24,1.74,12.4a17.86,17.86,0,0,1-.77,3.41c1.64-2,3.23-4.09,4.79-6.2.87-3.79-.25-7.66-.65-11.5a74.1,74.1,0,0,1-.34-13.55,9.57,9.57,0,0,1,.44-2.33,1,1,0,0,1,.4-.68c.59-.64.63.38.79.89a71.725,71.725,0,0,1,3.06,10.58v.15c.65,4.25.6,8.73-.94,12.58,1.6-2.24,3.18-4.52,4.76-6.78h0c-.13,0,0-.07.17-.15l.64-.91c1.28-6.55-2-13.41-1.45-20.22a13.47,13.47,0,0,1,1.13-5s.6-1.09.9-.27a27.837,27.837,0,0,1,1.12,4.68c1.1,6.13,1.93,12.49.4,17.85q.9-1.27,1.81-2.53a26.132,26.132,0,0,1,3.46-6.12,41.67,41.67,0,0,1,18-14.29c2.2-.9,1.55-.48,1.71-.18a1,1,0,0,1-.11.52,13.812,13.812,0,0,1-1.8,2.26,80.281,80.281,0,0,1-11.48,9.48c-1.81,1.3-3.66,2.54-5.37,4q-1,1.26-1.94,2.54c-1.85,2.46-3.67,5-5.48,7.48a16.618,16.618,0,0,1,5.08-2c4.7-1,9.41-.38,14.09-.12l1.86.1c.08,0,.58-.19.9,0,.65.39-.44.95-1.09,1.13a44.6,44.6,0,0,1-10.89,1.88c-2.82.06-5.65-.38-8.45-.25h-.27a11.452,11.452,0,0,0-1.16.06c-.13,0-.17-.09-.62.2l-.22.09c-2.37,3.31-4.73,6.63-7.14,9.89a10.37,10.37,0,0,1,2.48-1.47,18.929,18.929,0,0,1,5.06-1.15c6-.58,12.17.64,18.28,1.69a12.752,12.752,0,0,1,2.42.29c.39.17.29.06.24.47a1,1,0,0,1-.31.35c-2,1.22-4.62,1.3-7.1,1.32-3,0-6,0-9-.1-4.23-.17-8.4-.88-12.42-.18-.89.15-.66.12-.7.11l-1.33,1.77c-1.73,2.29-3.56,4.56-5.48,6.75a5,5,0,0,1,.58-.26c3.62-1.41,7.68-.56,11.54.3a90.271,90.271,0,0,1,9.56,3.06,28.645,28.645,0,0,0,3.26,1c.82.15.55.6.27.86l-.08.07-.12.09-.18.1a10.182,10.182,0,0,1-1.14.24,34.091,34.091,0,0,1-10.2-.86c-5.06-1-9.78-3.6-14.55-3a.83.83,0,0,1-.33,0h-.06a77.883,77.883,0,0,1-6.61,6.43,15.071,15.071,0,0,1,2.12.48,26.29,26.29,0,0,1,9.63,5.72c3.29,2.92,5.88,6.26,9.13,9l.13.11.3.28c.26.57-.73.68-1.51.48,0,0-.78-.31-1.3-.53-5-2.16-9.13-6.23-13.14-10.25-1.77-1.78-3.59-3.86-5.91-4.83l-.91.75a2.136,2.136,0,0,0-.08.24l-.3.19v-.09a43.29,43.29,0,0,1-15.9,8.31,5.357,5.357,0,0,0-.54,0s-.69.27.29-.38l.23-.11A45.19,45.19,0,0,0,278.56,321,20.289,20.289,0,0,0,278.53,315.61Zm.84-21.27Z" transform="translate(-24.42 -27.45)" fill="#f59e00"/>
    <path id="Path_640" data-name="Path 640" d="M80.87,294.19A59.63,59.63,0,0,0,81,280.87a39.762,39.762,0,0,0-1.08-6.11l-.14-.24c-.1-.19-.25-.49-.53-.07,0,0-.06.52-.12.92-.69,4.23-1.66,8.46-2.14,12.72-.36,3.16-.21,6.74,1.44,9.31l-.12-.09a78.918,78.918,0,0,1-6.89-5.61A9.26,9.26,0,0,1,71,288c.25-4.82,1.83-9.6,2.29-14.43.24-2.48.41-5.05-.91-6.85l-.32-.2c-.9-.4-.73.66-1,1.28-.72,2.06-1.32,4.16-1.93,6.26-1.07,3.7-2.27,7.63-1.85,11.42a13.841,13.841,0,0,0,.84,3.08c-1.79-1.77-3.51-3.6-5.21-5.46-.95-3.43.25-7,.67-10.56a57.53,57.53,0,0,0,.33-12.42,7.38,7.38,0,0,0-.49-2.12.85.85,0,0,0-.44-.61c-.64-.56-.68.38-.86.85a60.07,60.07,0,0,0-3.29,9.82v.14c-.69,3.92-.62,8,1.05,11.47-1.74-2-3.46-4-5.18-6h0c.14,0,0-.07-.18-.13l-.69-.8c-1.41-5.94,2.14-12.36,1.52-18.57a10.46,10.46,0,0,0-1.23-4.54s-.65-1-1-.21A22.91,22.91,0,0,0,52,253.77c-1.18,5.66-2.06,11.52-.38,16.35l-2-2.23a22.07,22.07,0,0,0-3.77-5.45c-5-5.82-12.32-10.08-19.59-12.3-2.39-.73-1.68-.38-1.86-.09a.74.74,0,0,0,.12.47,12.58,12.58,0,0,0,2,2A81.27,81.27,0,0,0,39,260.68c2,1.11,4,2.16,5.83,3.41q1.07,1.11,2.11,2.24c2,2.17,4,4.39,6,6.61a19.39,19.39,0,0,0-5.51-1.65c-5.1-.74-10.2.06-15.27.5l-2,.17a1.8,1.8,0,0,0-1,0c-.71.39.47.85,1.18,1a55.69,55.69,0,0,0,11.8,1.25c3.05-.07,6.13-.6,9.15-.59h1.54c.14,0,.18-.09.67.16l.24.07c2.58,2.92,5.15,5.86,7.76,8.74a11.341,11.341,0,0,0-2.69-1.23,23.309,23.309,0,0,0-5.49-.83c-6.5-.27-13.19,1.12-19.81,2.34a16.47,16.47,0,0,0-2.62.37c-.42.17-.31.07-.26.44a1,1,0,0,0,.33.31c2.21,1,5,1,7.7.9,3.24-.11,6.47-.25,9.7-.48,4.58-.34,9.1-1.17,13.46-.7,1,.1.72.08.76.07L64,285.37c1.89,2,3.87,4,6,5.94a5.79,5.79,0,0,0-.63-.21c-3.92-1.13-8.32-.18-12.51.78-3.53.81-6.93,2.09-10.36,3.22-1.35.45-3,1-3.53,1.1-.89.17-.6.58-.29.8l.09.06.13.07.19.09a11.98,11.98,0,0,0,1.24.17,44,44,0,0,0,11-1.23c5.48-1.15,10.59-3.72,15.76-3.41a1.061,1.061,0,0,0,.36,0h.07a75.551,75.551,0,0,0,7.18,5.6,19.358,19.358,0,0,0-2.29.53A31.36,31.36,0,0,0,66,304.5c-3.55,2.81-6.36,6-9.87,8.65l-.14.11-.33.27c-.28.53.8.59,1.63.37,0,0,.84-.32,1.41-.55,5.45-2.2,9.88-6.1,14.22-10,1.91-1.7,3.88-3.69,6.39-4.68l1,.65a1.68,1.68,0,0,1,.09.22l.33.16.05-.08A48.46,48.46,0,0,0,98,306.56a3.988,3.988,0,0,0,.58-.05s.74.22-.31-.34l-.24-.09A50.36,50.36,0,0,1,80.76,299a15.76,15.76,0,0,1,.11-4.81Zm-1-19.43Z" transform="translate(-24.42 -27.45)" fill="#f59e00"/>
    <circle id="Ellipse_136" data-name="Ellipse 136" cx="103.81" cy="103.81" r="103.81" transform="translate(59.64 161.11)" fill="#ffea82"/>
    <g id="Mask_Group_22" data-name="Mask Group 22" clip-path="url(#clip-path-3)">
      <path id="Path_641" data-name="Path 641" d="M176.91,246.6s6.49,1.84,8.5,10.8c5.84,26.08,6.59,38.6,9.89,43.6.7,1.07,25.76-4,26.13-3.21,1,2.14,7.15,10.92,6.26,11.25-2.79,1-35.58,12.72-43.83,5.47-7.6-6.67-8.46-20.56-7.87-27.91C176.74,277.32,167.3,247.55,176.91,246.6Z" transform="translate(-24.42 -27.45)" fill="#d2e8f4" fill-rule="evenodd"/>
      <path id="Path_642" data-name="Path 642" d="M145.07,328.09s-.42-70,4.31-77.89c5.92-9.86,20.56-13.82,25.42-6.61C186.51,261,191.21,347,191.21,347s-8.36,1.27-20.51,2.59c-13,1.42-26.21-5.61-26.21-5.61" transform="translate(-24.42 -27.45)" fill="#fff"/>
      <path id="Path_643" data-name="Path 643" d="M217,300.32a37.319,37.319,0,0,0,10.37-.62c1.48-.35.86,1.19.69,1.32-.87.72-4.2,1.78-4,2,.47.46,7.08.88,9.37.73.23,0,2.7-.27,2.74.11.1.89-1.18,1.16-1.78,1.28-2,.4-8.41.55-8.09.59.58.07,5.54.87,7.45,1.08.12,0,2.81.32,2.81.69,0,.76-2.08.78-2.56.76-1.89-.1-7-.3-7.68-.32a21.643,21.643,0,0,0,2.44.76c1.84.5,3.74.68,5.56,1.24.36.11,1.6.37,1.53,1,0,.42-1,.48-1.3.49-1.67.05-13-2-16-3.68a8.6,8.6,0,0,0-3.3-.63s-1.05-5.58,1.69-6.84" transform="translate(-24.42 -27.45)" fill="#ffaa72" fill-rule="evenodd"/>
      <path id="Path_644" data-name="Path 644" d="M158,242.93a34.44,34.44,0,0,1-2.67,17.52c-1.71,4.1-11,20.05-13.23,23.9-4.8,8.33-.64,9.79,8.23,12.54,1.25.39,10.7,2.21,10.69,3.06,0,2.38-.77,13.46-4.38,13.19-4.41-.33-26.87-4.2-31.12-14.38-3.91-9.37,1.69-22.17,5.61-28.48,5-8,17.61-30.8,26.88-27.34" transform="translate(-24.42 -27.45)" fill="#f3f9fc" fill-rule="evenodd"/>
      <path id="Path_645" data-name="Path 645" d="M159.23,241.58a67.607,67.607,0,0,0,1.8-7.84l1.22-7.42a7.63,7.63,0,0,1,8.68-6.39,8.32,8.32,0,0,1,7,7.87l-2.6,33c-2.7,2.49-16.35-18.4-16.11-19.25" transform="translate(-24.42 -27.45)" fill="#ffaa72"/>
      <path id="Path_646" data-name="Path 646" d="M160.9,299.52c-1.26-.4-3.25,2.32-4.44,6.07s-1.14,7.12.13,7.52,3.25-2.32,4.44-6.07,1.14-7.12-.12-7.52" transform="translate(-24.42 -27.45)" fill="#c4d4dd" fill-rule="evenodd"/>
      <path id="Path_647" data-name="Path 647" d="M186.06,226.55l1-8.24s3.36-2,4.78,1.71-2.35,7.29-5.81,6.53" transform="translate(-24.42 -27.45)" fill="#ffbf93"/>
      <path id="Path_648" data-name="Path 648" d="M187.71,202.94c-.26,0,.51.6.6.7a7.77,7.77,0,0,1,1.29,1.88,15.54,15.54,0,0,1,1.43,5.77,29.78,29.78,0,0,1-4.38,17.5c-.59.9-2.49,4-3.79,3.95-1.52,0-1-5.65-1-6.24,0-6.81-1-14.14,1.29-20.69" transform="translate(-24.42 -27.45)" fill="#341c30" fill-rule="evenodd"/>
      <path id="Path_649" data-name="Path 649" d="M189.26,215.8c-.67,15.53-1.46,25.82-12.34,26.73S151,232.37,149.85,219.06s6.75-24.83,17.63-25.73,20.63,9.16,21.78,22.47" transform="translate(-24.42 -27.45)" fill="#ffbf93"/>
      <path id="Path_650" data-name="Path 650" d="M159.8,236.26s-7.63-.32-11.27-11.17,2.56-17.23,2.56-17.23-5.57-9.37,6.81-15.45,21.44,2.46,30.19-3.41,17.91,12.08-.76,18.53-25.51-2.09-28.54,1.69c0,0,7.35,11-.21,18.43-1.66,1.65,1.23,8.6,1.23,8.6" transform="translate(-24.42 -27.45)" fill="#341c30"/>
      <path id="Path_651" data-name="Path 651" d="M161,230.54l-4.16-7.84s-4.73-1.24-5.08,2.77,5.4,6.61,9.25,5.07" transform="translate(-24.42 -27.45)" fill="#ffbf93"/>
      <path id="Path_652" data-name="Path 652" d="M178.76,219.39c.35,1,0,2.24.48,3.24s1.26,1.79,1.78,2.73c1,1.89-1.18,4.33-2.94,2.75a5.89,5.89,0,0,1-1.78-4.6c0-1.4-.18-3.3.89-4.39a.91.91,0,0,1,1.57.27" transform="translate(-24.42 -27.45)" fill="#ff895f"/>
      <rect id="Rectangle_206" data-name="Rectangle 206" width="228.96" height="85.85" transform="translate(54.84 281.97)" fill="#0085b5"/>
      <rect id="Rectangle_207" data-name="Rectangle 207" width="228.96" height="52.05" transform="translate(54.84 328.42)" fill="#009ad0"/>
      <rect id="Rectangle_208" data-name="Rectangle 208" width="245.81" height="37.3" transform="translate(46.42 281.97)" fill="#7ab8d7"/>
      <rect id="Rectangle_209" data-name="Rectangle 209" width="245.81" height="11.84" transform="translate(46.42 307.43)" fill="#007398"/>
    </g>
    <path id="Path_653" data-name="Path 653" d="M175.36,319.84l-5.57-10,8.81,3.82Z" transform="translate(-24.42 -27.45)" fill="#63c4f0" fill-rule="evenodd"/>
    <rect id="Rectangle_210" data-name="Rectangle 210" width="63.86" height="4.94" transform="translate(150.94 287.44)" fill="#bae3f8"/>
    <path id="Path_654" data-name="Path 654" d="M214.81,282.33H145.38l5.56,5.11h69.43Z" fill="#3aa8d6" fill-rule="evenodd"/>
    <path id="Path_655" data-name="Path 655" d="M287.79,241.61l-87.72-2.37s-8-1-7.19,6.88l4.54,52.07s0,5.9,9,5.08l73.06.39s6,1.92,7.83-4.95l7.07-48.17S296.49,241.81,287.79,241.61Z" transform="translate(-24.42 -27.45)" fill="#63c4f0" fill-rule="evenodd"/>
    <path id="Path_656" data-name="Path 656" d="M288.07,245.25,204,243s-7.65-1-6.89,6.48l4.35,49s0,5.56,8.61,4.78l70.06.37s5.72,1.8,7.51-4.66l6.78-45.36S296.41,245.43,288.07,245.25Z" transform="translate(-24.42 -27.45)" fill="#3aa8d6" fill-rule="evenodd"/>
    <path id="Path_657" data-name="Path 657" d="M236,283.88a5.62,5.62,0,0,1,5.62-5.62h11.23a5.62,5.62,0,0,1,5.62,5.62v31.9a5.62,5.62,0,0,1-5.62,5.62H241.58a5.62,5.62,0,0,1-5.62-5.62Z" transform="translate(-24.42 -27.45)" fill="#bae3f8" fill-rule="evenodd"/>
    <path id="Path_658" data-name="Path 658" d="M237.74,283.88a5.62,5.62,0,0,1,5.62-5.62h11.23a5.62,5.62,0,0,1,5.62,5.62v31.9a5.62,5.62,0,0,1-5.62,5.62H243.36a5.62,5.62,0,0,1-5.62-5.62Z" transform="translate(-24.42 -27.45)" fill="#63c4f0" fill-rule="evenodd"/>
    <path id="Path_659" data-name="Path 659" d="M254.59,313.39,232.12,313l-26.92,8.4-.54,4.17,73.55,2.22.52-3.73Z" transform="translate(-24.42 -27.45)" fill="#63c4f0" fill-rule="evenodd"/>
    <g id="Group_270" data-name="Group 270" clip-path="url(#clip-path-4)">
      <path id="Path_660" data-name="Path 660" d="M203.74,320.46c2.85.7,6,.46,9.06.85,0,0,1.1.26,1.73.48,0,0,3.4-.48,1.43,1.15-.67.55,1.92,1.6,1.92,1.6.09.74-1,.71-1.86.64s-.71,1.22-.71,1.22c1.2.1,1.34-.68,1.72.58a1.08,1.08,0,0,1-1,1.33c-2.09.22,1.15-1,1.61.38.62,1.83-2.1,1.05-2.1,1.05-4.53-.1-9.13-.37-13.66-.76-.86-.18-.17-2.19-.17-2.19-2.08-.27-1.58-2.1-.75-2.21s3.34,0,1.42-.3c-.84-.15-2,.39-1.53-1.28,0,0-.79-1.42,0-1.53C202.63,321.33,201.84,320,203.74,320.46Zm13.19,8.38h0l-8.07-6.29c2.51.28,5.42.72,5.42.72a32.081,32.081,0,0,0-5.4-.72Zm-7.94-.76" transform="translate(-24.42 -27.45)" fill="#bbe3f8"/>
    </g>
    <path id="Path_662" data-name="Path 662" d="M260.2,313.39,237.74,313l-26.92,8.44-.54,4.17,73.55,2.22.52-3.73Z" transform="translate(-24.42 -27.45)" fill="#3aa8d6" fill-rule="evenodd"/>
    <path id="Path_663" data-name="Path 663" d="M160.58,303a36.769,36.769,0,0,0,9.93-.88c1.41-.37.86,1.08.7,1.22-.82.7-4,1.79-3.75,2,.47.41,6.82.62,9,.41.22,0,2.58-.33,2.64,0,.13.82-1.1,1.12-1.67,1.24-1.94.43-8.05.76-7.74.79.56,0,5.34.65,7.17.8.12,0,2.71.22,2.71.56,0,.71-2,.79-2.43.78-1.82,0-6.75-.08-7.38-.07a21.229,21.229,0,0,0,2.37.64c1.78.41,3.61.53,5.37,1,.35.09,1.54.3,1.49.9,0,.39-1,.48-1.23.5-1.6.1-12.5-1.51-15.43-3a8.461,8.461,0,0,0-3.19-.49s-1.18-5.18,1.42-6.43" transform="translate(-24.42 -27.45)" fill="#ffbf93" fill-rule="evenodd"/>
    <path id="Path_664" data-name="Path 664" d="M102.31,197.55l26.5.89a2.62,2.62,0,0,1,2.53,2.7l-.54,16.27a2.62,2.62,0,0,1-2.7,2.53l-15.83-.53L103.62,227l.26-7.9-2.29-.08a2.62,2.62,0,0,1-2.53-2.7l.54-16.27a2.62,2.62,0,0,1,2.7-2.53" transform="translate(-24.42 -27.45)" fill="#ffb31b"/>
    <path id="Path_665" data-name="Path 665" d="M135.25,206.56l-23.15-.77a2.29,2.29,0,0,0-2.36,2.21l-.48,14.21a2.29,2.29,0,0,0,2.21,2.36l13.83.46,7.09,7.15.23-6.9,2,.07a2.29,2.29,0,0,0,2.36-2.21l.48-14.21a2.29,2.29,0,0,0-2.21-2.36" transform="translate(-24.42 -27.45)" fill="#fff"/>
    <path id="Path_666" data-name="Path 666" d="M118.41,215.37a1.71,1.71,0,1,1-.458-1.227,1.71,1.71,0,0,1,.458,1.227" transform="translate(-24.42 -27.45)" fill="#ffb31b"/>
    <path id="Path_667" data-name="Path 667" d="M125.17,215.59a1.71,1.71,0,1,1-.458-1.227,1.71,1.71,0,0,1,.458,1.227" transform="translate(-24.42 -27.45)" fill="#ffb31b"/>
    <path id="Path_668" data-name="Path 668" d="M131.93,215.82a1.71,1.71,0,1,1-.458-1.227,1.71,1.71,0,0,1,.458,1.227" transform="translate(-24.42 -27.45)" fill="#ffb31b"/>
    <path id="Path_669" data-name="Path 669" d="M194.73,481.17c-7-7.64-.15-35.12,5.2-34.71,3.27.25-1.29,9.66,7.8,23.37,4.57,6.91,22.25,13.34,15.45,15C216,486.68,202,489,194.73,481.17Z" transform="translate(-24.42 -27.45)" fill="#00b7e8"/>
    <path id="Path_670" data-name="Path 670" d="M281.82,336.61a86.432,86.432,0,0,0-3.11,10.12h-2.49s-.17-7-.08-7.1S281.82,336.61,281.82,336.61Z" transform="translate(-24.42 -27.45)" fill="#007398"/>
    <path id="Path_671" data-name="Path 671" d="M264.11,355.88s12.5-.46,19.5,12.58c-4.29-11.92-6.16-11.8-4.89-21.73h-9.19Z" transform="translate(-24.42 -27.45)" fill="#0085b5"/>
    <path id="Path_672" data-name="Path 672" d="M99.23,335H59.35s-4.78,51,46.39,57.33c-20.67-22.67-23.83-33.5-23.83-33.5l24.33-9.67Z" transform="translate(-24.42 -27.45)" fill="#007398"/>
    <path id="Path_673" data-name="Path 673" d="M128.13,393.46s-22.88-10.59-25-22,5-15.62,27-15.62-.62-6.62-.62-6.62l-24.5-2.5H76.38s-5.5,41.34,27.63,45.46a141.169,141.169,0,0,0,24.12,1.28Z" transform="translate(-24.42 -27.45)" fill="#0085b5"/>
    <path id="Path_674" data-name="Path 674" d="M87,309.42H62.32a120.82,120.82,0,0,0-3,25.48H97.89Z" transform="translate(-24.42 -27.45)" fill="#7ab8d7" fill-rule="evenodd"/>
    <path id="Path_675" data-name="Path 675" d="M107.73,226.33S73.9,262.5,62.32,309.42H91.07l7-67.75Z" transform="translate(-24.42 -27.45)" fill="#ffea82" fill-rule="evenodd"/>
    <path id="Path_676" data-name="Path 676" d="M90.81,306.38H84a3.11,3.11,0,0,1-3.11-3.11v-12.6A3.11,3.11,0,0,1,84,287.56h6.79a3.11,3.11,0,0,1,3.11,3.11v12.6a3.11,3.11,0,0,1-3.09,3.11ZM84,290.22a.45.45,0,0,0-.44.44v12.6a.45.45,0,0,0,.44.44h6.79a.45.45,0,0,0,.44-.44v-12.6a.45.45,0,0,0-.44-.44Z" transform="translate(-24.42 -27.45)" fill="#e9be49"/>
    <rect id="Rectangle_211" data-name="Rectangle 211" width="19.86" height="25.3" rx="3" transform="translate(62.99 256.32)" fill="#e9be49"/>
    <rect id="Rectangle_212" data-name="Rectangle 212" width="4.35" height="19.22" rx="2" transform="translate(75.6 256.32)" fill="#fff" opacity="0.2"/>
    <path id="Path_677" data-name="Path 677" d="M94.75,305.08a2.18,2.18,0,0,1-2.18-2.18V283.77h-3a2.18,2.18,0,0,0-2.18,2.18v20.94a2.18,2.18,0,0,0,2.18,2.18h15.5a2.18,2.18,0,0,0,2.18-2.18v-1.81Z" transform="translate(-24.42 -27.45)" fill="#272425" opacity="0.1"/>
  </g>
</svg>
