<svg xmlns="http://www.w3.org/2000/svg" width="16.69" height="16.687" viewBox="0 0 16.69 16.687">
  <g id="edit_4_" data-name="edit (4)" transform="translate(0.251 0.222)">
    <path id="Path_430" data-name="Path 430" d="M15.14,1.076a3.57,3.57,0,0,0-5.053,0L.822,10.337a.463.463,0,0,0-.131.266L0,15.687a.462.462,0,0,0,.131.39.471.471,0,0,0,.328.138.375.375,0,0,0,.062,0L3.589,15.8a.466.466,0,0,0-.124-.924L1.009,15.2l.479-3.546L5.22,15.39a.471.471,0,0,0,.328.138.457.457,0,0,0,.328-.138L15.14,6.129a3.568,3.568,0,0,0,0-5.053ZM10.266,2.214,11.822,3.77,3.368,12.224,1.812,10.668ZM5.551,14.4,4.03,12.883l8.454-8.454L14.005,5.95Zm9.1-9.12L10.932,1.562a2.644,2.644,0,0,1,3.722,3.722Z" fill="#23cba7" stroke="#23cba7" stroke-width="0.5"/>
  </g>
</svg>
