<svg xmlns="http://www.w3.org/2000/svg" width="14.64" height="11.141" viewBox="0 0 14.64 11.141">
  <g id="envelope" transform="translate(0 -57.75)">
    <g id="Group_84" data-name="Group 84" transform="translate(0 57.75)">
      <path id="Path_14" data-name="Path 14" d="M12.852,57.75H1.79A1.792,1.792,0,0,0,0,59.54V67.1a1.792,1.792,0,0,0,1.79,1.79H12.849a1.792,1.792,0,0,0,1.79-1.79V59.543A1.79,1.79,0,0,0,12.852,57.75Zm.972,9.351a.973.973,0,0,1-.972.972H1.79A.973.973,0,0,1,.818,67.1V59.543a.973.973,0,0,1,.972-.972H12.849a.973.973,0,0,1,.972.972V67.1Z" transform="translate(0 -57.75)" fill="#fe5049"/>
      <path id="Path_15" data-name="Path 15" d="M63.3,112.829l3.58-3.211a.41.41,0,0,0-.548-.609l-4.937,4.432-.963-.86s-.006-.006-.006-.009a.607.607,0,0,0-.067-.058l-3.92-3.508a.41.41,0,1,0-.545.612l3.623,3.238-3.608,3.377a.411.411,0,0,0-.018.579.418.418,0,0,0,.3.13.41.41,0,0,0,.279-.109l3.662-3.426.994.888a.408.408,0,0,0,.545,0l1.021-.915,3.641,3.459a.41.41,0,0,0,.579-.015.411.411,0,0,0-.015-.579Z" transform="translate(-54.064 -107.353)" fill="#fe5049"/>
    </g>
  </g>
</svg>
