<svg id="exclamation-mark" xmlns="http://www.w3.org/2000/svg" width="18.271" height="18.271" viewBox="0 0 18.271 18.271">
  <path id="Path_296" data-name="Path 296" d="M9.135,0a9.135,9.135,0,1,0,9.135,9.135A9.136,9.136,0,0,0,9.135,0Zm0,16.558a7.422,7.422,0,1,1,7.422-7.422A7.422,7.422,0,0,1,9.135,16.558Zm0-12.551c-.654,0-1.149.341-1.149.893V9.958c0,.552.495.892,1.149.892.638,0,1.149-.355,1.149-.892V4.9C10.285,4.361,9.774,4.006,9.136,4.006Zm0,7.984a1.14,1.14,0,1,0,1.14,1.141A1.142,1.142,0,0,0,9.136,11.99Z" fill="#e2574c"/>
</svg>
