<svg xmlns="http://www.w3.org/2000/svg" width="15.034" height="15.371" viewBox="0 0 15.034 15.371">
  <path id="filter_3_" data-name="filter (3)" d="M14.286,0H1.116A.619.619,0,0,0,.565.336.627.627,0,0,0,.614.989l4.825,6.8,0,.007a1.379,1.379,0,0,1,.271.818v5.541a.616.616,0,0,0,.616.62.634.634,0,0,0,.243-.049l2.711-1.034a.587.587,0,0,0,.4-.579V8.61a1.379,1.379,0,0,1,.27-.818l0-.007,4.825-6.8a.627.627,0,0,0,.049-.653A.619.619,0,0,0,14.286,0ZM9.354,7.348A2.134,2.134,0,0,0,8.938,8.61v4.408l-2.474.943V8.61a2.134,2.134,0,0,0-.416-1.262L1.364.75H14.038Zm0,0" transform="translate(-0.184 0.3)" fill="#fff" stroke="#fff" stroke-width="0.6"/>
</svg>
