<svg xmlns="http://www.w3.org/2000/svg" width="158.189" height="158.189" viewBox="0 0 158.189 158.189">
  <g id="checked_2_" data-name="checked (2)" transform="translate(7 303)">
    <g id="Check_Circle" transform="translate(-7 -303)">
      <path id="Path_318" data-name="Path 318" d="M79.094,0a79.094,79.094,0,1,0,79.094,79.094A79.092,79.092,0,0,0,79.094,0Zm0,148.3A69.207,69.207,0,1,1,148.3,79.094,69.207,69.207,0,0,1,79.094,148.3Z" fill="#23cba7"/>
      <path id="Path_319" data-name="Path 319" d="M164.837,122.958l-50.858,50.4L92.817,152.618a5.021,5.021,0,0,0-7.059,0,4.9,4.9,0,0,0,0,6.99l24.712,24.218a5.116,5.116,0,0,0,7.059,0L171.9,129.948a4.911,4.911,0,0,0,0-6.99A5.036,5.036,0,0,0,164.837,122.958Z" transform="translate(-49.656 -71.581)" fill="#23cba7"/>
    </g>
  </g>
</svg>
