<svg xmlns="http://www.w3.org/2000/svg" width="249.923" height="59.5" viewBox="0 0 249.923 59.5">
  <g id="gig-logo" transform="translate(0 -0.2)">
    <g id="Group_154" data-name="Group 154">
      <path id="Path_378" data-name="Path 378" d="M205.9,43.6h0L194.1,16.5h0l-2.4-5.6-1-2-1-2.7-2.6-6C168,1.5,153.6,9.3,153,20c-.8,13.1,19.2,25.7,44.7,28a90.97,90.97,0,0,0,10.4.3l-2.2-4.7Zm-5.3,0s-20-.4-29.8-7.3c-9.8-7-11.1-13.9-8.8-18.4.1-.1.1-.2.2-.3a10.732,10.732,0,0,1,1.9-2.6c7.2-7.6,18.6-7.3,22.8-7.6h0V12a32.743,32.743,0,0,0-13.4,1.7c-7.6,2.4-8.2,6.5-8,7.8v.2c.5,2.7,2.8,5.5,6.8,7.9,9.3,5.6,22.6,5.2,22.6,5.2l-3.5-9.1h-6.3l-1.6-3.9,9.6-.3,7.6,17.3h0v4.8Z" fill="#a4181c"/>
      <path id="Path_379" data-name="Path 379" d="M205.3,5.9a100.557,100.557,0,0,0-10.9-.3h-4.9l.2.6,1,2.7,1,2h5.1L211,43.6h-5.1l2,4.7,2.3,5.4h5.2c19.3-.1,33.8-7.8,34.5-19.8C250.7,22,230.8,8.3,205.3,5.9Zm35.6,30.9c-.1.1-.1.2-.2.3a10.732,10.732,0,0,1-1.9,2.6c-7.2,7.6-18.6,7.3-22.8,7.6h0V42.7A32.743,32.743,0,0,0,229.4,41c7.6-2.4,8.2-6.5,8-7.8V33c-.5-2.7-2.8-5.5-6.8-7.9-9.3-5.6-22.6-5.2-22.6-5.2l3.5,9.1h6.3l1.6,3.9-9.6.3-7.6-17.3h0V11.2s20,.4,29.8,7.3S243.2,32.3,240.9,36.8Z" fill="#929497"/>
      <path id="Path_380" data-name="Path 380" d="M194.1,16.6l11.8,27-11.7-27Z" fill="#929497"/>
      <path id="Path_381" data-name="Path 381" d="M232.1,18.4c-9.8-7-29.8-7.3-29.8-7.3v4.7c.6,0,14.6-.4,25,3.7,9.4,3.7,16.9,10.8,13.4,17.7.1-.1.1-.2.2-.3C243.2,32.3,241.8,25.4,232.1,18.4Z" fill="#d0d2d3"/>
      <path id="Path_382" data-name="Path 382" d="M237.5,33v.2c.1,1.3-.5,5.4-8,7.8a34.993,34.993,0,0,1-13.4,1.7v4.6h.1c6-1.4,13.3-2.4,18.5-7.3C237,37.9,238,35.4,237.5,33Z" fill="#d0d2d3"/>
      <path id="Path_383" data-name="Path 383" d="M227.3,19.5c-10.4-4.1-24.5-3.7-25-3.7h0l7.6,17.3,9.6-.3-1.6-3.9h-6.3l-3.5-9.1s13.3-.4,22.6,5.2c4,2.4,6.3,5.2,6.8,7.9.5,2.5-.5,4.9-2.8,7-5.3,4.8-12.5,5.9-18.5,7.3h-.1c4.2-.3,15.6,0,22.8-7.6a14.292,14.292,0,0,0,1.9-2.6C244.2,30.3,236.7,23.1,227.3,19.5Z" fill="#fff"/>
      <g id="Group_153" data-name="Group 153">
        <path id="Path_384" data-name="Path 384" d="M206.2,43.2,192.3,11.3h4.3l13.8,31.9Z" fill="#fff" fill-rule="evenodd"/>
        <path id="Path_385" data-name="Path 385" d="M196.3,11.7l13.5,31.1h-3.3L194.9,16.2l-2-4.5h3.4m.5-.8h-5.1l2.4,5.6,11.8,27.1H211L196.8,10.9Z" fill="#fff"/>
      </g>
      <path id="Path_386" data-name="Path 386" d="M175.5,35.2c-9.4-3.7-16.9-10.8-13.4-17.7-.1.1-.1.2-.2.3-2.3,4.5-.9,11.4,8.8,18.4,9.8,7,29.8,7.3,29.8,7.3V38.8C200,38.9,185.9,39.3,175.5,35.2Z" fill="#bbbdbf"/>
      <path id="Path_387" data-name="Path 387" d="M165.4,21.7v-.2c-.1-1.3.5-5.4,8-7.8A34.993,34.993,0,0,1,186.8,12V7.5h-.1c-6,1.4-13.3,2.4-18.5,7.3C165.8,16.8,164.9,19.3,165.4,21.7Z" fill="#d0d2d3"/>
      <path id="Path_388" data-name="Path 388" d="M193,21.6l-9.6.3,1.6,3.9h6.3l3.5,9.1s-13.3.4-22.6-5.2c-4-2.4-6.3-5.2-6.8-7.9-.5-2.5.5-4.9,2.8-7,5.3-4.8,12.5-5.9,18.5-7.3h.1c-4.2.3-15.6,0-22.8,7.6a14.292,14.292,0,0,0-1.9,2.6c-3.5,6.8,4,14,13.4,17.7,10.4,4.1,24.5,3.7,25,3.7h0Z" fill="#fff"/>
      <path id="Path_389" data-name="Path 389" d="M188,47.5a71.41,71.41,0,0,1-17.2-5.6c-8.1-3.9-15.6-9.8-17.9-17.3a28.57,28.57,0,0,0,3.9,8.9c2.8,4,7.8,9.7,20.3,14.5s32.1,5.7,32.1,5.7l-1.8-4.4C207.1,49.1,198.2,49.6,188,47.5Z" fill="#d0d2d3"/>
      <path id="Path_390" data-name="Path 390" d="M236.3,51c-10.6,4.1-25.8,3.7-25.8,3.7v5s14.6-.6,23.3-3.8A28.063,28.063,0,0,0,248,44.5c1.1-1.9,1.9-6.6,1.9-6.6C250,37.9,246.9,46.9,236.3,51Z" fill="#d0d2d3"/>
    </g>
    <g id="Group_155" data-name="Group 155">
      <path id="Path_391" data-name="Path 391" d="M89.1,11.9a3.039,3.039,0,0,0-.7.5,2.177,2.177,0,0,0-.5.8V11.9H86.7l.1.2a4.4,4.4,0,0,1,.2,1V18a2.768,2.768,0,0,1-.3,1.3h1.5l-.2-.4a3.6,3.6,0,0,1-.2-1.1V14.2a1.5,1.5,0,0,1,.4-1.1.975.975,0,0,1,.9-.4c.2,0,.3,0,.4.1l.2.1v-.6c0-.2.1-.4.1-.6h-.1A1.421,1.421,0,0,0,89.1,11.9Z" fill="#d64c43"/>
      <path id="Path_392" data-name="Path 392" d="M75.4,12.7a.756.756,0,0,1,.1-.4l.2-.5H74.2a2.663,2.663,0,0,1,.3,1.2v3.9a1.445,1.445,0,0,1-.2.7,1.7,1.7,0,0,1-.6.6.367.367,0,0,1-.3.1c-.1,0-.2.1-.3.1h-.4a1.246,1.246,0,0,1-1.1-.4,1.609,1.609,0,0,1-.3-1.1V12.4a4.331,4.331,0,0,1,.1-.5l.1-.2H70V12a2.959,2.959,0,0,1,.2,1v4.4a1.612,1.612,0,0,0,.6,1.3,2.456,2.456,0,0,0,1.5.5h.6a3.091,3.091,0,0,0,.8-.2c.1-.2.2-.3.3-.5.1-.1.2-.3.4-.4v1.1h1.2a2.768,2.768,0,0,1-.3-1.3V13A.367.367,0,0,1,75.4,12.7Z" fill="#d64c43"/>
      <path id="Path_393" data-name="Path 393" d="M80.3,15.5a5.582,5.582,0,0,0-.8-.5l-.4-.2a1.024,1.024,0,0,1-.6-.5,1.222,1.222,0,0,1-.4-.9.961.961,0,0,1,.6-.9,1.854,1.854,0,0,1,.7-.2h.5a3.379,3.379,0,0,1,1,.4l.2.1V11.7a2.279,2.279,0,0,0-1.1-.3h-.4a2.86,2.86,0,0,0-1.7.5,1.816,1.816,0,0,0-.6,1.4,1.952,1.952,0,0,0,.1.7c.1.6.6,1,1.3,1.4l.3.1.2.1a2.178,2.178,0,0,1,.9.7,1.136,1.136,0,0,1,.3.8,1,1,0,0,1-.6,1,1.445,1.445,0,0,1-.7.2,2.668,2.668,0,0,1-1.7-.8l-.1-.1v1.2a1.421,1.421,0,0,0,.6.2.9.9,0,0,0,.5.1h.8a2.269,2.269,0,0,0,1.3-.3,1.856,1.856,0,0,0,1-1.7,1.922,1.922,0,0,0-.4-1.2C80.7,15.9,80.5,15.7,80.3,15.5Z" fill="#d64c43"/>
      <path id="Path_394" data-name="Path 394" d="M98.4,13.7a2.456,2.456,0,0,0-.5-1.5,1.721,1.721,0,0,0-1.5-.5,1.952,1.952,0,0,0-.7.1,4.179,4.179,0,0,0-1,.4v.2a3.091,3.091,0,0,1-.2.8l.4-.2.5-.2c.2-.1.3-.1.5-.2h.5a1.884,1.884,0,0,1,.8.2c.2.2.3.3.3.5a1.268,1.268,0,0,0,.1.6v.4a1.165,1.165,0,0,1-.2.7,3.679,3.679,0,0,1-1,.4l-.7.2a1.421,1.421,0,0,1-.6.2c-.2.1-.3.1-.4.2a1.344,1.344,0,0,0-.6.7,2.92,2.92,0,0,0-.2.9,1.268,1.268,0,0,0,.1.6c.1.2.2.3.3.5a1.794,1.794,0,0,0,.7.5,2.92,2.92,0,0,0,.9.2h.6l.6-.5.6-.4v.9h1.2a2.768,2.768,0,0,1-.3-1.3Zm-2.3,4.8h-.4a1.17,1.17,0,0,1-1-1.2V17a1.506,1.506,0,0,1,.4-.8,2.389,2.389,0,0,1,.7-.3h1.7v1.5" fill="#d64c43"/>
      <path id="Path_395" data-name="Path 395" d="M84.8,18.5c-.3,0-.5,0-.6-.1a.588.588,0,0,1-.2-.5V12.6h1.7v-.7H84V10.2a5.67,5.67,0,0,1-.8,1.3,10.949,10.949,0,0,1-1,1.1H83V18a1.445,1.445,0,0,0,.2.7,1.84,1.84,0,0,0,1.6.6h.5l.2-.5.3-.4a1.909,1.909,0,0,1-.8.3Z" fill="#d64c43"/>
      <path id="Path_396" data-name="Path 396" d="M92,17.9V12.5c0-.2.1-.4.1-.6l.1-.2H90.7a2.663,2.663,0,0,1,.3,1.2v4.8a3.6,3.6,0,0,1-.2,1.1l-.1.2h1.5l-.1-.2A2.483,2.483,0,0,1,92,17.9Z" fill="#d64c43"/>
      <path id="Path_397" data-name="Path 397" d="M143.6,13.1a2.342,2.342,0,0,0-2-1.4,2.62,2.62,0,0,0-1.9.9l-.2.3V11.8h-1.2a2.663,2.663,0,0,1,.3,1.2v7.2a1.483,1.483,0,0,1-.1.7,1.421,1.421,0,0,1-.2.6h1.5l-.1-.2a3.6,3.6,0,0,1-.2-1.1V18.5a1.555,1.555,0,0,0,.8.6,2.92,2.92,0,0,0,.9.2,2.334,2.334,0,0,0,2-1,4.374,4.374,0,0,0,.9-2.9A7.13,7.13,0,0,0,143.6,13.1Zm-.6,3.2a2.718,2.718,0,0,1-.8,1.6,1.76,1.76,0,0,1-1.3.6,1.136,1.136,0,0,1-.8-.3l-.4-.3-.2-.1V13.5c0-.1,0-.1.1-.2a1.381,1.381,0,0,1,.4-.3,1.922,1.922,0,0,1,1.2-.4,1.769,1.769,0,0,1,1.6,1.2,4.146,4.146,0,0,1,.3,1.6A2.768,2.768,0,0,0,143,16.3Z" fill="#d64c43"/>
      <path id="Path_398" data-name="Path 398" d="M101.7,18.4V9.2a4.331,4.331,0,0,0,.1-.5l.1-.2h-1.5l.1.3a1.268,1.268,0,0,1,.1.6v9.1a4.331,4.331,0,0,0-.1.5l-.1.2h1.5l-.1-.2C101.8,18.7,101.7,18.6,101.7,18.4Z" fill="#d64c43"/>
      <path id="Path_399" data-name="Path 399" d="M126,11.7a3.751,3.751,0,0,0-1,.1,2.689,2.689,0,0,0-1.8,1.3,3.793,3.793,0,0,0-.7,2.4,4.925,4.925,0,0,0,.5,1.8,3.738,3.738,0,0,0,1.3,1.5,2.618,2.618,0,0,0,1.7.5,2.663,2.663,0,0,0,1.2-.3,2.836,2.836,0,0,0,1.1-.8A2.4,2.4,0,0,0,129,17a3.887,3.887,0,0,0,.2-1.5,3.857,3.857,0,0,0-1-2.8A2.574,2.574,0,0,0,126,11.7Zm2.3,4.4a.6.6,0,0,1-.1.4c-.1.3-.1.6-.2.8a1.538,1.538,0,0,1-.4.6,5.923,5.923,0,0,1-.6.4,1.7,1.7,0,0,1-.7.1,2.663,2.663,0,0,1-1.2-.3,2.539,2.539,0,0,1-1-.8,5.349,5.349,0,0,1-.6-1.3l-.1-.6v-.7a1.483,1.483,0,0,1,.1-.7v-.3l.1-.2a1.38,1.38,0,0,1,.3-.4,1.628,1.628,0,0,1,.6-.3l.3-.1a1.7,1.7,0,0,1,.7-.1,2.92,2.92,0,0,1,.9.2,2.836,2.836,0,0,1,1.1.8,3.506,3.506,0,0,1,.6,1.4.756.756,0,0,0,.1.4v.4C128.3,15.8,128.3,15.9,128.3,16.1Z" fill="#d64c43"/>
      <path id="Path_400" data-name="Path 400" d="M117.4,13.7h-1.7l.2.5a1,1,0,0,1,.1.4V18h-.1l-.3.1c-.4.1-.8.2-1.1.3a3.4,3.4,0,0,1-1,.1,4.156,4.156,0,0,1-3.3-1.3,4.938,4.938,0,0,1-1.3-3.4,4.446,4.446,0,0,1,1.3-3.3,4.07,4.07,0,0,1,3-1.2,5.067,5.067,0,0,1,1.3.2,6.117,6.117,0,0,1,1.2.5,4.129,4.129,0,0,1,1.1.7V9.2l-.3-.1a9.485,9.485,0,0,0-3.2-.6,5.287,5.287,0,0,0-3.4,1,5.055,5.055,0,0,0-1.9,2.8,5.663,5.663,0,0,0-.3,1.8,4.8,4.8,0,0,0,1.7,3.7,6.817,6.817,0,0,0,4.4,1.4h1.1a10.548,10.548,0,0,0,2.4-.6,6.267,6.267,0,0,1-.2-1.6V15A1.517,1.517,0,0,1,117.4,13.7Z" fill="#d64c43"/>
      <path id="Path_401" data-name="Path 401" d="M121.4,11.9a3.039,3.039,0,0,0-.7.5,2.177,2.177,0,0,0-.5.8V11.9H119l.1.2a4.4,4.4,0,0,1,.2,1V18a2.768,2.768,0,0,1-.3,1.3h1.5l-.1-.2a3.6,3.6,0,0,1-.2-1.1V14.4a1.5,1.5,0,0,1,.4-1.1.975.975,0,0,1,.9-.4c.2,0,.3,0,.4.1l.2.1v-.6c0-.2.1-.4.1-.6h-.1C121.9,11.7,121.7,11.8,121.4,11.9Z" fill="#d64c43"/>
      <path id="Path_402" data-name="Path 402" d="M136.2,12.7a.756.756,0,0,1,.1-.4l.2-.5H135a2.663,2.663,0,0,1,.3,1.2v3.9a1.445,1.445,0,0,1-.2.7,1.7,1.7,0,0,1-.6.6.367.367,0,0,1-.3.1c-.1,0-.2.1-.3.1h-.4a1.246,1.246,0,0,1-1.1-.4,1.609,1.609,0,0,1-.3-1.1V12.4a4.331,4.331,0,0,1,.1-.5l.1-.2h-1.5l.1.2a2.958,2.958,0,0,1,.2,1v4.4a1.612,1.612,0,0,0,.6,1.3,2.456,2.456,0,0,0,1.5.5h.6a3.091,3.091,0,0,0,.8-.2c.1-.2.2-.3.3-.5.1-.1.2-.3.4-.4v1.1h1.2a2.768,2.768,0,0,1-.3-1.3V13A.188.188,0,0,1,136.2,12.7Z" fill="#d64c43"/>
      <path id="Path_403" data-name="Path 403" d="M14.4,11.7a3.4,3.4,0,0,0-1,.1,2.689,2.689,0,0,0-1.8,1.3,3.793,3.793,0,0,0-.7,2.4,4.925,4.925,0,0,0,.5,1.8,3.738,3.738,0,0,0,1.3,1.5,2.618,2.618,0,0,0,1.7.5,2.663,2.663,0,0,0,1.2-.3,2.836,2.836,0,0,0,1.1-.8,2.4,2.4,0,0,0,.7-1.2,3.887,3.887,0,0,0,.2-1.5,3.857,3.857,0,0,0-1-2.8A2.352,2.352,0,0,0,14.4,11.7Zm2.4,4.4a.6.6,0,0,1-.1.4c-.1.3-.1.6-.2.8a1.538,1.538,0,0,1-.4.6,5.922,5.922,0,0,1-.6.4,1.483,1.483,0,0,1-.7.1,2.663,2.663,0,0,1-1.2-.3,2.539,2.539,0,0,1-1-.8A5.349,5.349,0,0,1,12,16V14.8a1.483,1.483,0,0,1,.1-.7v-.3l.1-.2a1.38,1.38,0,0,1,.3-.4,1.628,1.628,0,0,1,.6-.3l.3-.1a1.7,1.7,0,0,1,.7-.1,2.92,2.92,0,0,1,.9.2,2.836,2.836,0,0,1,1.1.8,3.506,3.506,0,0,1,.6,1.4c0,.1.1.2.1.4v.4C16.8,15.8,16.8,15.9,16.8,16.1Z" fill="#d64c43"/>
      <path id="Path_404" data-name="Path 404" d="M20.5,18.4V9.2a4.331,4.331,0,0,0,.1-.5l.1-.2H19.2l.1.3a1.268,1.268,0,0,1,.1.6v9.1a4.331,4.331,0,0,0-.1.5l-.1.2h1.5l-.1-.2C20.6,18.7,20.5,18.6,20.5,18.4Z" fill="#d64c43"/>
      <path id="Path_405" data-name="Path 405" d="M25,11.9a3.039,3.039,0,0,0-.7.5,2.177,2.177,0,0,0-.5.8V11.9H22.6l.1.2a4.4,4.4,0,0,1,.2,1V18a2.768,2.768,0,0,1-.3,1.3h1.5l-.1-.4a3.6,3.6,0,0,1-.2-1.1V14.2a1.5,1.5,0,0,1,.4-1.1.975.975,0,0,1,.9-.4c.2,0,.3,0,.4.1l.2.1v-.6c0-.2.1-.4.1-.6h-.1A1.445,1.445,0,0,0,25,11.9Z" fill="#d64c43"/>
      <path id="Path_406" data-name="Path 406" d="M9.7,13.7H8l.2.5a1,1,0,0,1,.1.4V18H8.2l-.3.1c-.4.1-.8.2-1.1.3a3.4,3.4,0,0,1-1,.1,4.156,4.156,0,0,1-3.3-1.3,4.938,4.938,0,0,1-1.3-3.4,4.446,4.446,0,0,1,1.3-3.3,4.07,4.07,0,0,1,3-1.2,5.067,5.067,0,0,1,1.3.2A6.117,6.117,0,0,1,8,10a4.129,4.129,0,0,1,1.1.7V9.2l-.3-.1a9.485,9.485,0,0,0-3.2-.6,5.287,5.287,0,0,0-3.4,1A5.055,5.055,0,0,0,.3,12.3,5.663,5.663,0,0,0,0,14.1a4.8,4.8,0,0,0,1.7,3.7,6.817,6.817,0,0,0,4.4,1.4H7.2a10.548,10.548,0,0,0,2.4-.6A6.267,6.267,0,0,1,9.4,17V15A1.943,1.943,0,0,1,9.7,13.7Z" fill="#d64c43"/>
      <path id="Path_407" data-name="Path 407" d="M91.5,10.4c.2,0,.3-.1.5-.2a.764.764,0,0,0,.2-.5c0-.2-.1-.3-.2-.5a.764.764,0,0,0-.5-.2c-.2,0-.3.1-.5.2a.764.764,0,0,0-.2.5c0,.2.1.3.2.5S91.3,10.4,91.5,10.4Z" fill="#d64c43"/>
      <path id="Path_408" data-name="Path 408" d="M38.3,17.9V13.4c0-1.1-.6-1.7-1.9-1.7h-.7a1.33,1.33,0,0,0-.8.3l-.2.3c-.1.1-.2.3-.3.4a1.38,1.38,0,0,1-.3.4V11.8H32.8l.2.2a3.553,3.553,0,0,1,.2,1v4.8a3.6,3.6,0,0,1-.2,1.1l-.1.2h1.5a2.745,2.745,0,0,1-.2-1.3v-4a1.689,1.689,0,0,1,.2-.5c.1-.2.4-.4.6-.6a.31.31,0,0,1,.2-.1c.1,0,.1-.1.2-.1a1.7,1.7,0,0,1,.7-.1,1.061,1.061,0,0,1,1.2,1.2v4.2a4.438,4.438,0,0,1-.2,1.3h1.5a1.421,1.421,0,0,1-.2-.6C38.3,18.4,38.3,18.2,38.3,17.9Z" fill="#d64c43"/>
      <path id="Path_409" data-name="Path 409" d="M30.8,13.7a2.456,2.456,0,0,0-.5-1.5,1.721,1.721,0,0,0-1.5-.5,1.952,1.952,0,0,0-.7.1,4.179,4.179,0,0,0-1,.4v.2a3.091,3.091,0,0,1-.2.8l.4-.2.5-.2c.2-.1.3-.1.5-.2h.5a1.884,1.884,0,0,1,.8.2c.2.2.3.3.3.5a1.268,1.268,0,0,0,.1.6v.4a1.165,1.165,0,0,1-.2.7,3.679,3.679,0,0,1-1,.4l-.7.2a1.421,1.421,0,0,1-.6.2c-.2.1-.3.1-.4.2a1.344,1.344,0,0,0-.6.7,2.92,2.92,0,0,0-.2.9,1.268,1.268,0,0,0,.1.6c.1.2.2.3.3.5a1.794,1.794,0,0,0,.7.5,2.92,2.92,0,0,0,.9.2h.6l.6-.5.6-.4v.9h1.2a2.768,2.768,0,0,1-.3-1.3Zm-.9,3.7a.909.909,0,0,1-.4.8,1.4,1.4,0,0,1-.9.3h-.4a1.17,1.17,0,0,1-1-1.2V17a1.506,1.506,0,0,1,.4-.8,2.389,2.389,0,0,1,.7-.3H30v1.5Z" fill="#d64c43"/>
      <path id="Path_410" data-name="Path 410" d="M60.3,17.9V13.4c0-1.1-.6-1.7-1.9-1.7h-.7a1.33,1.33,0,0,0-.8.3l-.2.3c-.1.1-.2.3-.3.4a1.38,1.38,0,0,1-.3.4V11.8H54.8l.2.2a3.553,3.553,0,0,1,.2,1v4.8a3.6,3.6,0,0,1-.2,1.1l-.1.2h1.5a2.745,2.745,0,0,1-.2-1.3v-4a1.689,1.689,0,0,1,.2-.5c.1-.2.4-.4.6-.6a.31.31,0,0,1,.2-.1c.1,0,.1-.1.2-.1a1.7,1.7,0,0,1,.7-.1,1.061,1.061,0,0,1,1.2,1.2v4.2a4.438,4.438,0,0,1-.2,1.3h1.5a1.421,1.421,0,0,1-.2-.6C60.3,18.4,60.3,18.2,60.3,17.9Z" fill="#d64c43"/>
      <path id="Path_411" data-name="Path 411" d="M53,8.5H51.3l.1.2a5.16,5.16,0,0,1,.2,1.1v8a3.194,3.194,0,0,1-.3,1.4H53l-.2-.4a3.083,3.083,0,0,1-.1-1V9.9a4.253,4.253,0,0,1,.2-1.1Z" fill="#d64c43"/>
      <path id="Path_412" data-name="Path 412" d="M68,9.2a6.373,6.373,0,0,1,.2-.7H66.7a1.854,1.854,0,0,1,.2.7v2.9a1.8,1.8,0,0,0-1-.2,3.445,3.445,0,0,0-.9.1,3.569,3.569,0,0,0-2.4,1.8,4.418,4.418,0,0,0-.6,1.6v.7a3.069,3.069,0,0,0,.7,2.2A2.652,2.652,0,0,0,66,19a1.765,1.765,0,0,0,.9-.8v1h1.2a2.768,2.768,0,0,1-.3-1.3V10.2C67.9,9.8,67.9,9.5,68,9.2Zm-1,8a.749.749,0,0,1-.1.5,1.538,1.538,0,0,1-.6.4,1.929,1.929,0,0,1-1,.3,2.106,2.106,0,0,1-1.3-.5,1.955,1.955,0,0,1-.8-1.3,2.769,2.769,0,0,1-.1-.9,2.485,2.485,0,0,1,.1-.8,1.929,1.929,0,0,1,.3-1,2.146,2.146,0,0,1,.4-.7,1.538,1.538,0,0,1,.6-.4,2.279,2.279,0,0,1,1.1-.3,1.922,1.922,0,0,1,1.2.4l.2.2v4.1Z" fill="#d64c43"/>
      <path id="Path_413" data-name="Path 413" d="M46.1,12.2H44.4a4.875,4.875,0,0,0-.7-.3,2.2,2.2,0,0,0-.8-.1,2.769,2.769,0,0,0-.9.1,2.134,2.134,0,0,0-1.2.7,3.458,3.458,0,0,0-.7,1.2,1.7,1.7,0,0,0-.1.7,2.663,2.663,0,0,0,.3,1.2,2.047,2.047,0,0,0,.8.8l.3.1a5.5,5.5,0,0,1-.9.7l-.4.1v.2a1.445,1.445,0,0,0,.2.7,1.628,1.628,0,0,0,.6.3h.2a5.241,5.241,0,0,1-1.1,1v.5a1.246,1.246,0,0,0,.4,1.1,2.108,2.108,0,0,0,1.4.4h.4a1.949,1.949,0,0,0,.8-.1,3.387,3.387,0,0,0,1.5-.6,2.539,2.539,0,0,0,.8-1,2.354,2.354,0,0,0,.2-.8c0-.9-.8-1.3-2.4-1.3H41.9c-.3,0-.5,0-.6-.1a.367.367,0,0,1-.1-.3v-.1c0-.1.1-.1.1-.2l.4-.4.1-.1.4.1h.4a2.489,2.489,0,0,0,1.9-.7,2.06,2.06,0,0,0,.7-1.7V14c0-.2,0-.3-.1-.4a3.128,3.128,0,0,0-.5-1h1.3v-.4Zm-4.6,6.4h.8a4.512,4.512,0,0,1,1.3.1.845.845,0,0,1,.6.2c.4.2.5.4.5.7a.864.864,0,0,1-.3.6,3.039,3.039,0,0,1-.7.5,3.42,3.42,0,0,1-1.1.1h-.3c-.8-.1-1.2-.3-1.2-.8a5.072,5.072,0,0,1,.2-.9Zm2.6-2.9a.975.975,0,0,1-.9.4h-.4A1.774,1.774,0,0,1,41,14.4v-.7a1.865,1.865,0,0,1,.5-1,1.493,1.493,0,0,1,1-.3,1.952,1.952,0,0,1,.7.1,1.709,1.709,0,0,1,1.2,1.7A2.81,2.81,0,0,1,44.1,15.7Z" fill="#d64c43"/>
    </g>
    <circle id="Ellipse_86" data-name="Ellipse 86" cx="1.4" cy="1.4" r="1.4" transform="translate(85.6 26.7)" fill="#d64c43"/>
    <path id="Path_414" data-name="Path 414" d="M63.7,29.6a1.568,1.568,0,0,0,1.4-.9,1.461,1.461,0,0,0,1.4.9,1.4,1.4,0,1,0,0-2.8,1.693,1.693,0,0,0-1.4.9,1.461,1.461,0,0,0-1.4-.9,1.367,1.367,0,0,0-1.4,1.4A1.43,1.43,0,0,0,63.7,29.6Z" fill="#d64c43"/>
    <path id="Path_415" data-name="Path 415" d="M100,31.9a19.677,19.677,0,0,0-4,2.8V32.3a1.222,1.222,0,0,0-.3-.9c-.7-.8-2.6-.4-2.6.6v2a2.891,2.891,0,0,1-.4,1.4,1.94,1.94,0,0,1-1.7.7H88.4V32.7a1.8,1.8,0,0,0-.3-1.1,1.366,1.366,0,0,0-1.1-.4,1.5,1.5,0,0,0-1.1.4,1.433,1.433,0,0,0-.5,1.1v2.4a.919.919,0,0,1-.9,1h-7a.367.367,0,0,1-.3-.1,1.077,1.077,0,0,1-.8-1v-.2a1,1,0,0,1,1-1h2.3a.764.764,0,0,0,.2-.5c.3-6.4-9.9-6.4-9.8-.5a1.175,1.175,0,0,0,.4,1h2.1a1,1,0,0,1,1,1V35a1,1,0,0,1-1,1H68.2V32.6a1.8,1.8,0,0,0-.3-1.1,1.594,1.594,0,0,0-1.2-.4,1.384,1.384,0,0,0-1.5,1.5v2.6a.86.86,0,0,1-.8.8H55.3a2.08,2.08,0,0,0-1.7,2.2c-.1,1.2.3,1.9,1.1,2.2L56,41c.3.2.5.3.5.5,0,1-2.1,1-2.8,1a5.356,5.356,0,0,1-2.4-.5,1.46,1.46,0,0,1-1-1.4V37.2c0-1.6-2.9-1.7-2.9.2v5.1a2.323,2.323,0,0,0,.9,1.9,7.03,7.03,0,0,0,2.3,1.1,7.347,7.347,0,0,1,.8.2c.2,0,.4.1.8.1a10.869,10.869,0,0,0,1.8.1,14.843,14.843,0,0,0,3.3-.3c1.7-.4,3.4-1.2,3.6-3.1,0-.4-.1-.7-.3-.7s-1.2-.2-1.2-.5h6.2a2.768,2.768,0,0,0,1.3-.3c.2.1.3.1.5.2l.4.1h7l.7-.1A5.267,5.267,0,0,0,77,40a2.879,2.879,0,0,0,2.3,1.3h6.4A2.768,2.768,0,0,0,87,41a8,8,0,0,0,3.1.3,3.344,3.344,0,0,0,3.1-1.8,2.372,2.372,0,0,0,.9,1.2,2.15,2.15,0,0,0,1.3.6h8.5c2.7,0,3.9-2.9,4-4.8a5.89,5.89,0,0,0-1.1-3.6C105.1,30.4,102.2,30.8,100,31.9Zm-2,4.3a11.137,11.137,0,0,1,2.4-1.6,6.051,6.051,0,0,1,2.4-.4c1,0,1.7.7,2,2Z" fill="#d64c43"/>
    <path id="Path_416" data-name="Path 416" d="M46,25.2h-.2l-2.9,1-2.6,1-1.4.6-1.2.5a1.205,1.205,0,0,0-.5.5,1.486,1.486,0,0,0-.2.9v.4l.1.4a1.628,1.628,0,0,0,.3.6l1.9,1.6,1.2,1,.9.8c.7.6,1,1.1,1,1.4,0,.2-.2.2-.4.2H36.5l-.1-11a.909.909,0,0,0-.4-.8,5.388,5.388,0,0,0-1-.3,1.689,1.689,0,0,0-1,.3,1.05,1.05,0,0,0-.5.9v9.7a.975.975,0,0,1-.4.9,1.689,1.689,0,0,1-1,.3H29.5V32.3a1.5,1.5,0,1,0-3-.2V41a1.269,1.269,0,0,1-.7,1.1l-.5.3a2.186,2.186,0,0,1-.5.3.675.675,0,0,0-.4.6,2.26,2.26,0,0,0,.5,1.5c.4.5.7.8,1.1.8,1.6,0,3.5-1.6,3.5-3.2V41.1h4.7a2.388,2.388,0,0,0,.9-.2,2.745,2.745,0,0,0,1.3.2H43a2.289,2.289,0,0,0,1.7-.8,3.139,3.139,0,0,0,.7-2.1v-.8a9.052,9.052,0,0,0-.8-2.3A25.644,25.644,0,0,0,42,31.7l-.3-.3-.3-.3-.4-.2-.3-.2a3.807,3.807,0,0,0-.6-.5l1.1-.5,1-.4,3.2-1.2,1.1-.4a1.23,1.23,0,0,0,.7-1.1,1.433,1.433,0,0,0-.4-1A.909.909,0,0,0,46,25.2Z" fill="#d64c43"/>
    <path id="Path_417" data-name="Path 417" d="M25.6,39.2V32.9a1.411,1.411,0,1,0-2.8-.1l-.1,2.4a.6.6,0,0,1-.1.4l-.2.3a.908.908,0,0,1-.7.3h-7c-.3-.1-.5-.2-.5-.3a17.386,17.386,0,0,0-2-3,13.009,13.009,0,0,0-2.7-2.6L10,30l.6-.2c.6-.2,1-.4,1.3-.5l2.6-.9,1.3-.5,1-.4.9-.4a1.622,1.622,0,0,0,.9-1.1,1.689,1.689,0,0,0-.3-1,1.284,1.284,0,0,0-1-.4H17l-.3.1-1.8.6-1.5.5-1.2.4-2,.8-1.7.7L7,28.4a2.181,2.181,0,0,0-.5.4,3.091,3.091,0,0,0-.2.8v.5l.1.4a1.628,1.628,0,0,0,.3.6l1.9,1.5,1.1,1a5.716,5.716,0,0,1,.7.8c.6.7.9,1.1.8,1.5h0a5.073,5.073,0,0,1-.9.2c-1.8,0-2.7.1-4.5,0-1.6,0-4.5.3-5.7-.9v4.2c0,1.1.9,1.8,2.4,1.8H12.9a3.848,3.848,0,0,0,1.1-.8,2.747,2.747,0,0,0,2.3.8H23a2.792,2.792,0,0,0,1.8-.6A1.723,1.723,0,0,0,25.6,39.2Z" fill="#d64c43"/>
    <circle id="Ellipse_87" data-name="Ellipse 87" cx="1.4" cy="1.4" r="1.4" transform="translate(22.7 26.7)" fill="#d64c43"/>
    <path id="Path_418" data-name="Path 418" d="M10.8,36l.4-.1h0Z" fill="#d64c43"/>
    <path id="Path_419" data-name="Path 419" d="M40.9,25.9l.6-.3,2.1-.7.7-.3a.755.755,0,0,0,.4-.7,1.421,1.421,0,0,0-.2-.6.864.864,0,0,0-.6-.3h-.1l-1.8.6-1.7.7-.9.4-.8.3c-.6.3-.5,1.3-.2,1.8Z" fill="#d64c43"/>
    <path id="Path_420" data-name="Path 420" d="M10.1,26.1l.4-.1c.4-.1.6-.3.8-.3l1.6-.6.9-.3.7-.3.6-.2c.4-.2.6-.4.6-.7a1.421,1.421,0,0,0-.2-.6c-.2-.2-.4-.3-.6-.2h-.2l-.2.1-1.1.4-1,.3-.8.3-1.3.5-1.1.5-1,.5c-.6.1-.3,1-.2,1.6Z" fill="#d64c43"/>
    <path id="Path_421" data-name="Path 421" d="M116,31.7h-3.2a3.2,3.2,0,0,0-3.2,3.1v3.7a2.775,2.775,0,0,0,2.8,2.7h2.4a2.775,2.775,0,0,0,2.8-2.7V33.3A1.58,1.58,0,0,0,116,31.7Zm-1.1,5.2a.987.987,0,0,1-.9,1h-.7a.923.923,0,0,1-.9-1v-.8a.987.987,0,0,1,.9-1h1.2a.43.43,0,0,1,.4.4Z" fill="#d64c43"/>
    <path id="Path_422" data-name="Path 422" d="M125.2,31.6h-4a2.775,2.775,0,0,0-2.8,2.7v2.3a2.712,2.712,0,0,0,2.8,2.7h2.4v2a1.751,1.751,0,0,1-1,1.5c-1.3.9-1.1,2.9.8,2.9a3.118,3.118,0,0,0,2.1-.9,2.9,2.9,0,0,0,1.2-2.1V33.1A1.415,1.415,0,0,0,125.2,31.6Zm-2.5,4.9H122a.882.882,0,0,1-.9-.8V35a.882.882,0,0,1,.9-.8h1.2c.1,0,.2.1.3.2V36A.953.953,0,0,1,122.7,36.5Z" fill="#d64c43"/>
    <path id="Path_423" data-name="Path 423" d="M143.3,25.6c-.3-.3-.6-.5-.9-.4h-.2l-2.9,1-2.6,1-1.4.6-1.2.5a1.205,1.205,0,0,0-.5.5,3.091,3.091,0,0,0-.2.8V30l.1.4a1.628,1.628,0,0,0,.3.6l1.9,1.6,1.2,1,.9.8c.7.6,1,1.1,1,1.4,0,.2-.2.2-.4.2h-5.8V32.2c0-2.2-3.1-2.1-3.1-.2v8.9a1.781,1.781,0,0,1-1,1.6c-1.3.9-1.1,3.1.8,3.1a2.814,2.814,0,0,0,2.1-1,3.263,3.263,0,0,0,1.2-2.3V41h6.9a1.943,1.943,0,0,0,1.6-.8,3.139,3.139,0,0,0,.7-2.1v-.8A9.052,9.052,0,0,0,141,35a16.192,16.192,0,0,0-2.6-3.4l-.3-.3-.3-.3-.3-.3-.3-.2a3.808,3.808,0,0,0-.6-.5l1.1-.5,1-.4,3.2-1.2,1.1-.4a1.23,1.23,0,0,0,.7-1.1A2.849,2.849,0,0,0,143.3,25.6Z" fill="#d64c43"/>
    <path id="Path_424" data-name="Path 424" d="M137.3,25.8l.6-.3,2.1-.7.7-.3a.755.755,0,0,0,.4-.7,1.421,1.421,0,0,0-.2-.6.864.864,0,0,0-.6-.3h-.1l-1.9.6-1.7.7-.9.4-.7.4c-.6.3-.5,1.3-.2,1.8Z" fill="#d64c43"/>
  </g>
</svg>
