<svg xmlns="http://www.w3.org/2000/svg" xmlns:xlink="http://www.w3.org/1999/xlink" width="357.719" height="71.516" viewBox="0 0 357.719 71.516">
  <defs>
    <linearGradient id="linear-gradient" x1="0.5" x2="0.546" y2="1.157" gradientUnits="objectBoundingBox">
      <stop offset="0" stop-color="#e74c3c"/>
      <stop offset="1" stop-color="#f59740"/>
    </linearGradient>
    <clipPath id="clip-path">
      <path id="Path_447" data-name="Path 447" d="M-536.659,243.387s-5.968,7.055-.31,14.316a17.508,17.508,0,0,1,1.109,1.438c2.651,3.411,11.624,15.644,21.078,27.359H-446.3c0-12.909.016-66.268.016-71.516-15.724,0-67.281.019-68.5.019C-520.534,222.359-536.659,243.387-536.659,243.387Z" transform="translate(812 84)" fill="url(#linear-gradient)"/>
    </clipPath>
  </defs>
  <g id="Group_172" data-name="Group 172" transform="translate(-8 -296.984)">
    <rect id="hr_blog" width="357.5" height="71.5" rx="4" transform="translate(8 297)" fill="#f5f5f5"/>
    <path id="Path_448" data-name="Path 448" d="M140.094,21.261a6.463,6.463,0,0,1-1.309-.122,3.754,3.754,0,0,1-1.065-.387,3.306,3.306,0,0,1-.852-.678,4.31,4.31,0,0,1-.661-1q-2.391,2.209-7.157,2.209a13.4,13.4,0,0,1-4.5-.674,4.973,4.973,0,0,1-2.622-2.022,4.58,4.58,0,0,1-.5-1.357,5.136,5.136,0,0,1-.1-1.026q0-.2.03-.652a5,5,0,0,1,.248-1.135,6.373,6.373,0,0,1,.574-1.291l1.678,1.052a5.607,5.607,0,0,0-.417.835,3.148,3.148,0,0,0-.209.835,2.832,2.832,0,0,0-.017.313,3.221,3.221,0,0,0,.065.6,2.2,2.2,0,0,0,.326.748,2,2,0,0,0,.739.7,4.788,4.788,0,0,0,1.2.47,10.548,10.548,0,0,0,1.6.27q.887.087,1.913.087.93,0,1.765-.07a12.493,12.493,0,0,0,1.552-.222,7.551,7.551,0,0,0,1.3-.391,3.807,3.807,0,0,0,1-.587,2.474,2.474,0,0,0,.617-.687,4.747,4.747,0,0,0,.391-.822,7.542,7.542,0,0,0,.261-.883q.1-.452.226-.87l2,.539a6.636,6.636,0,0,0-.261.939,4.3,4.3,0,0,0-.087.843v.283a2.2,2.2,0,0,0,.122.626,1.766,1.766,0,0,0,.391.678,1.817,1.817,0,0,0,.709.457,3.064,3.064,0,0,0,1.074.165h.313v2.226Zm-9.113,2.826-1.67,1.67-1.661-1.67,1.661-1.661Zm8.856-5.052h.661a2.446,2.446,0,0,0,.791-.109.991.991,0,0,0,.487-.343,1.415,1.415,0,0,0,.239-.6,5.219,5.219,0,0,0,.065-.891q0-.2,0-.478t0-.752q0-.474-.039-1.2t-.113-1.822q-.035-.93-.078-1.783t-.083-1.522q-.039-.67-.07-1.1t-.039-.53l2.191-.47q.1,1.026.178,2.391t.152,2.939q.035,1.183.061,1.943t.048,1.261q.022.5.03.817t.009.613A5.356,5.356,0,0,1,144.106,19a3.117,3.117,0,0,1-.7,1.217,3.082,3.082,0,0,1-1.191.77,4.926,4.926,0,0,1-1.722.27h-.661Zm10.482,2.226h-.348a3.7,3.7,0,0,1-2.678-.887,3.6,3.6,0,0,1-.922-2.678q0-.278.017-.917t.017-1.561q0-.548-.009-1.178t-.026-1.287q-.017-.657-.048-1.313t-.074-1.27q-.043-.613-.1-1.148t-.139-.943l2.183-.652q.1.5.174,1.23t.139,1.552q.061.826.091,1.683t.03,1.613q0,.461.009.978t.009.909q0,.33,0,.622t-.009.561q0,.27-.009.53t0,.53v.139a2.157,2.157,0,0,0,.065.557.863.863,0,0,0,.23.4.946.946,0,0,0,.422.23,2.287,2.287,0,0,0,.6.07h.391Zm-.588-2.226h1.322l.061-.113q.148-.261.422-.691t.691-.978q.078-.548.13-1.383t.061-1.809q0-.53-.017-1.091t-.07-1.291q-.052-.73-.143-1.709t-.23-2.335l2.287-.591q.226,1.67.343,3.426t.117,3.478v.7q.47-.4.978-.765a7.956,7.956,0,0,1,1.061-.643A6.227,6.227,0,0,1,157.9,12.8a4.7,4.7,0,0,1,1.252-.165,3.735,3.735,0,0,1,1.252.209,3.188,3.188,0,0,1,1.8,1.565,3.442,3.442,0,0,1,.365,1.27q.009.13.009.252a4.673,4.673,0,0,1-.3,1.687,4.422,4.422,0,0,1-.883,1.417h2.452v2.226H161.53q-.687,0-1.53-.061a10.817,10.817,0,0,1-1.87-.322,10.546,10.546,0,0,1-1.5.291,12.8,12.8,0,0,1-1.526.091H149.73Zm4.565,0q.53,0,1.222-.026t1.422-.122a10.375,10.375,0,0,0,1.422-.287,4.982,4.982,0,0,0,1.23-.513,2.538,2.538,0,0,0,.852-.809,1.787,1.787,0,0,0,.27-.991q0-.078-.009-.165a.975.975,0,0,0-.17-.487,1.313,1.313,0,0,0-.417-.387,2.367,2.367,0,0,0-.63-.257,3.125,3.125,0,0,0-.678-.07h-.148a3.764,3.764,0,0,0-1.035.222,5.272,5.272,0,0,0-1.287.683,9.353,9.353,0,0,0-1.426,1.261,11.483,11.483,0,0,0-1.443,1.948Zm9.134,0a2.4,2.4,0,0,0,1.1-.239,3.012,3.012,0,0,0,.83-.622,4.528,4.528,0,0,0,.635-.861q.274-.478.517-.957.243-.5.53-1a5,5,0,0,1,.652-.891,3.1,3.1,0,0,1,.835-.643,2.3,2.3,0,0,1,1.087-.248,2.964,2.964,0,0,1,1.022.17,2.876,2.876,0,0,1,.835.47,3.439,3.439,0,0,1,.648.7,4.165,4.165,0,0,1,.461.852,5.03,5.03,0,0,1,.274.943,5.229,5.229,0,0,1,.091.965,4.929,4.929,0,0,1-.074.861,4.506,4.506,0,0,1-.222.809,3.031,3.031,0,0,1-.43.757,2.851,2.851,0,0,1-.6.578,2.8,2.8,0,0,1-.73.37,2.568,2.568,0,0,1-.817.13,3.5,3.5,0,0,1-.77-.091,6.283,6.283,0,0,1-.822-.248q-.183-.078-.409-.187t-.461-.239q-.235-.13-.465-.274t-.43-.283a5.24,5.24,0,0,1-1.474,1.043,4.263,4.263,0,0,1-1.813.365h-.174V19.035Zm4.591-1.017q.235.157.587.348a7.439,7.439,0,0,0,.735.348,4.355,4.355,0,0,0,.757.235,1.588,1.588,0,0,0,.383.052.856.856,0,0,0,.252-.035.41.41,0,0,0,.187-.109.9.9,0,0,0,.183-.248,1.628,1.628,0,0,0,.135-.365,1.955,1.955,0,0,0,.035-.383v-.087a2.525,2.525,0,0,0-.5-1.487,1.652,1.652,0,0,0-.557-.47,1.071,1.071,0,0,0-.47-.1,1.285,1.285,0,0,0-.252.026.515.515,0,0,0-.239.135,1.982,1.982,0,0,0-.283.365q-.165.257-.391.687T168.021,18.017Zm17.5,9.226a7.057,7.057,0,0,1-2.435-.4,5.278,5.278,0,0,1-1.874-1.148,5.093,5.093,0,0,1-1.2-1.822,6.52,6.52,0,0,1-.426-2.422,9.587,9.587,0,0,1,1.617-5.313l1.713,1.243a6.248,6.248,0,0,0-.387.643,7.917,7.917,0,0,0-.439.983,9.921,9.921,0,0,0-.361,1.2,5.611,5.611,0,0,0-.152,1.3,3.037,3.037,0,0,0,.326,1.409A3.418,3.418,0,0,0,182.784,24a4.2,4.2,0,0,0,1.291.713,5,5,0,0,0,1.552.274h.087a6.082,6.082,0,0,0,1.2-.117,5.182,5.182,0,0,0,1.117-.357,4.707,4.707,0,0,0,.965-.578,3.8,3.8,0,0,0,.739-.757,3.358,3.358,0,0,0,.47-.9,2.9,2.9,0,0,0,.13-.87v-.148a4.762,4.762,0,0,0-.135-.891q-.117-.491-.283-1t-.352-.987q-.187-.483-.352-.857t-.278-.6a1.651,1.651,0,0,0-.122-.226l2.043-1.139q.026.043.187.439t.413.987a5.71,5.71,0,0,0,.648,1.17,2.585,2.585,0,0,0,.622.609,1.417,1.417,0,0,0,.6.23,4.734,4.734,0,0,0,.561.035h.287v2.226h-.287a3.676,3.676,0,0,1-.852-.091,2.554,2.554,0,0,1-.661-.248q.009.165.009.33a7.605,7.605,0,0,1-.122,1.317,5.454,5.454,0,0,1-.457,1.4,5.308,5.308,0,0,1-.883,1.3,5.37,5.37,0,0,1-1.317,1.039A6.872,6.872,0,0,1,187.81,27,9.683,9.683,0,0,1,185.523,27.243Zm1.957-11.87-1.67,1.67-1.661-1.67,1.661-1.661Zm6.117,3.661h1.852a8.825,8.825,0,0,0,.883-.048,3.474,3.474,0,0,0,.878-.2,1.719,1.719,0,0,0,.67-.439,1.083,1.083,0,0,0,.265-.765,3,3,0,0,0-.1-.635q-.1-.409-.252-.9t-.37-1.026q-.213-.53-.448-.991l2.009-.991q.217.5.435,1.052t.387,1.143a11.348,11.348,0,0,1,.274,1.178,6.648,6.648,0,0,1,.1,1.157,3.613,3.613,0,0,1-.374,1.713,3.134,3.134,0,0,1-1.022,1.143,4.458,4.458,0,0,1-1.513.639,8.189,8.189,0,0,1-1.848.2H193.6Zm3.235,4.8-1.478,1.478-1.5-1.487,1.478-1.487Zm3.287.009L198.64,25.33l-1.5-1.5,1.478-1.478Zm7.96-2.583h-.27a3.926,3.926,0,0,1-.57-.052,1.987,1.987,0,0,1-.752-.313,5.451,5.451,0,0,1-.67,2.1,9.125,9.125,0,0,1-1.4,1.883,12.432,12.432,0,0,1-1.887,1.609,16.877,16.877,0,0,1-2.152,1.278l-.974-2.009q.609-.313,1.222-.678a13.248,13.248,0,0,0,1.17-.783,12.4,12.4,0,0,0,1.039-.87,6.313,6.313,0,0,0,.835-.948,4.744,4.744,0,0,0,.557-1.017,2.909,2.909,0,0,0,.2-1.07,3.756,3.756,0,0,0-.113-.865q-.113-.474-.287-.987t-.374-1.039q-.2-.526-.365-1.022l2.087-.87q.339,1.017.622,1.683a5.738,5.738,0,0,0,.557,1.052,1.651,1.651,0,0,0,.574.539,1.488,1.488,0,0,0,.683.152h.27Zm8.96-2.226v2.226H208.8V19.035Zm-.588,0h1.887a12.189,12.189,0,0,0,2.2-.2,20.144,20.144,0,0,0,2.222-.539q1.1-.335,2.157-.77t1.991-.9a7.893,7.893,0,0,1-1.391-.439q-.644-.274-1.217-.535t-1.1-.452a3.086,3.086,0,0,0-1.052-.191,1.487,1.487,0,0,0-.57.109,2.32,2.32,0,0,0-.491.274,2.573,2.573,0,0,0-.4.365,4.837,4.837,0,0,0-.313.387q-.135.187-.222.335l-.122.209-1.809-1.174a6.92,6.92,0,0,1,.7-1.013,5.784,5.784,0,0,1,.909-.878A4.412,4.412,0,0,1,220.9,13a3.327,3.327,0,0,1,1.235-.23,5.088,5.088,0,0,1,1.33.178,10.137,10.137,0,0,1,1.309.452q.648.274,1.3.587t1.317.587a11.674,11.674,0,0,0,1.343.461,5.465,5.465,0,0,0,1.391.2l-.183,2.243q-1.217.583-2.539,1.235t-2.765,1.2a24.471,24.471,0,0,1-3.013.93,15.334,15.334,0,0,1-3.291.413H216.45Zm7.3-9.035-1.67,1.67L220.416,10l1.661-1.661Zm10.743-1.287q.183,1.3.278,2.63t.1,2.735q.009,1.122.009,2.1t-.013,2.248q-.013,1.265-.057,2.43l-2.278.339q.1-1.791.122-3.33.009-.383.009-.757,0-1.1-.043-2.1-.148-3.5-.365-5.6ZM229.95,7.7a2.636,2.636,0,0,1,.3-.835,3.108,3.108,0,0,1,.539-.7,2.543,2.543,0,0,1,.691-.483,1.807,1.807,0,0,1,.778-.178,2.518,2.518,0,0,1,.726.1,5.3,5.3,0,0,1,.6.217,2.862,2.862,0,0,0,.661.2,1.43,1.43,0,0,0,.217.017,1.157,1.157,0,0,0,.348-.061,1.177,1.177,0,0,0,.413-.261,3.921,3.921,0,0,0,.474-.53l1.191.765a.993.993,0,0,1-.1.148q-.087.122-.239.3a4.432,4.432,0,0,1-.37.37,3.556,3.556,0,0,1-.487.365,3.01,3.01,0,0,1-.583.283,2.086,2.086,0,0,1-.661.122h-.061a2.023,2.023,0,0,1-.587-.083q-.274-.083-.543-.187t-.548-.191a2.118,2.118,0,0,0-.548-.07h-.07a.534.534,0,0,0-.365.143.967.967,0,0,0-.217.317,1.927,1.927,0,0,0-.117.374,2.7,2.7,0,0,1-.074.3Z" transform="translate(9 316)" fill="#e74c3c"/>
    <g id="Mask_Group_17" data-name="Mask Group 17" transform="translate(0 -2)" clip-path="url(#clip-path)">
      <rect id="hr_blog-2" data-name="hr_blog" width="357.5" height="71.5" rx="4" transform="translate(8 299)" fill="url(#linear-gradient)"/>
    </g>
    <g id="folder_2_" data-name="folder (2)" transform="translate(311.081 316.081)">
      <path id="Path_443" data-name="Path 443" d="M32.4,15.215H30.431V11.683a1.542,1.542,0,0,0-1.54-1.54H27.05V8.783L26.771,8.5s0,0,0,0L22.659,4.392,18.266,0H4.508V6.2H1.54A1.542,1.542,0,0,0,0,7.738V32.358H0a1.439,1.439,0,0,0,1.442,1.454H26.669a1.431,1.431,0,0,0,1.381-1.022l5.763-15.8v-.1A1.509,1.509,0,0,0,32.4,15.215Zm-3.506-3.945a.413.413,0,0,1,.413.413v3.532H27.05V11.271ZM18.6,1.924l6.529,6.529H18.6Zm-12.961-.8H17.47V9.58h8.453v5.635H7.174a1.446,1.446,0,0,0-.238.02,1.421,1.421,0,0,0-1.143,1l-.158.435V1.127ZM1.127,7.738a.413.413,0,0,1,.413-.413H4.508V19.743L1.127,28.965ZM26.976,32.45a.319.319,0,0,1-.307.235H1.445a.311.311,0,0,1-.252-.125.305.305,0,0,1-.069-.23l3.385-9.283v0l2.344-6.427.015-.046a.319.319,0,0,1,.307-.235H32.4c.214,0,.269.308.283.462Z" fill="#fff" stroke="#fff" stroke-width="0.5"/>
      <path id="Path_444" data-name="Path 444" d="M15.564,16.127H21.2A.564.564,0,0,0,21.2,15H15.564a.564.564,0,1,0,0,1.127Z" transform="translate(-6.547 -6.547)" fill="#fff" stroke="#fff" stroke-width="0.5"/>
      <path id="Path_445" data-name="Path 445" d="M15.564,9.127H21.2A.564.564,0,0,0,21.2,8H15.564a.564.564,0,0,0,0,1.127Z" transform="translate(-6.547 -3.492)" fill="#fff" stroke="#fff" stroke-width="0.5"/>
      <path id="Path_446" data-name="Path 446" d="M15.564,23.127H29.088a.564.564,0,0,0,0-1.127H15.564a.564.564,0,0,0,0,1.127Z" transform="translate(-6.547 -9.602)" fill="#fff" stroke="#fff" stroke-width="0.5"/>
    </g>
  </g>
</svg>
