<svg xmlns="http://www.w3.org/2000/svg" xmlns:xlink="http://www.w3.org/1999/xlink" width="370.038" height="369.98" viewBox="0 0 370.038 369.98">
  <defs>
    <clipPath id="clip-path">
      <rect id="Rectangle_30" data-name="Rectangle 30" width="315.06" height="315.011"/>
    </clipPath>
    <clipPath id="clip-path-2">
      <rect id="Rectangle_32" data-name="Rectangle 32" width="315.06" height="315.011" fill="#fff"/>
    </clipPath>
    <clipPath id="clip-path-3">
      <rect id="Rectangle_33" data-name="Rectangle 33" width="315.06" height="315.011" fill="#f7f7f7"/>
    </clipPath>
    <clipPath id="clip-path-5">
      <rect id="Rectangle_35" data-name="Rectangle 35" width="370.038" height="369.98"/>
    </clipPath>
  </defs>
  <g id="Group_108" data-name="Group 108" transform="translate(-1091.511 -1671.948)">
    <path id="Path_285" data-name="Path 285" d="M125.632,0,45.9,261.1l205.168,3.248L168.819,0Z" transform="translate(1129.935 1719)" fill="#fff"/>
    <g id="_501919-PHUYWK-511" data-name="501919-PHUYWK-511" transform="translate(1120 1721.433)">
      <g id="OBJECTS" transform="translate(0 0)">
        <g id="Group_107" data-name="Group 107">
          <g id="Group_102" data-name="Group 102" clip-path="url(#clip-path-2)">
            <path id="Path_221" data-name="Path 221" d="M292.727,258.625H85.691L168.505-8.868h41.408Z" transform="translate(-31.704 3.281)" fill="#fff" opacity="0.66"/>
          </g>
          <g id="Group_103" data-name="Group 103" clip-path="url(#clip-path-3)">
            <ellipse id="Ellipse_48" data-name="Ellipse 48" cx="103.518" cy="24.607" rx="103.518" ry="24.607" transform="translate(53.987 238.997)" fill="#f7f7f7"/>
          </g>
          <g id="Group_104" data-name="Group 104" clip-path="url(#clip-path)">
            <ellipse id="Ellipse_49" data-name="Ellipse 49" cx="33.911" cy="8.061" rx="33.911" ry="8.061" transform="translate(126.745 255.542)" fill="#bcbcbc"/>
          </g>
          <g id="Group_106" data-name="Group 106" transform="translate(-28.489 -49.485)" clip-path="url(#clip-path-5)">
            <path id="Path_222" data-name="Path 222" d="M224.355,264.252l1.524,1.524-2.371,11.514-3.725-6.18Z" transform="translate(-57.152 -68.716)" fill="#c9a18e"/>
            <path id="Path_223" data-name="Path 223" d="M279.5,405.42s7.972,7.721,10.985,9.48,5.022,2.511,2.26,4.269-6.529,2.009-10.547,1-5.022-3.265-6.779-5.273-2.511-.753-2.511,0v.753L267.64,413.9a17.8,17.8,0,0,0-.565-4.708c-.69-3.076,2.825-3.829,5.587-4.583S279.5,405.42,279.5,405.42Z" transform="translate(-69.427 -105.16)" fill="#363636"/>
            <path id="Path_224" data-name="Path 224" d="M223.944,405.8s-7.831,7.585-10.791,9.311-4.933,2.466-2.22,4.193,6.413,1.973,10.359.986,4.933-3.206,6.66-5.18,2.466-.74,2.466,0v.74l5.18-1.726a17.476,17.476,0,0,1,.555-4.625c.679-3.021-2.775-3.761-5.488-4.5S223.944,405.8,223.944,405.8Z" transform="translate(-54.516 -105.264)" fill="#363636"/>
            <path id="Path_225" data-name="Path 225" d="M226.474,253.96l-.74,5.18s-3.515,17.2-3.515,22.569,2.775,22.2,3.885,27.749,1.85,7.4,1.11,12.764a94.969,94.969,0,0,0,.555,22.754,65.492,65.492,0,0,1,.185,16.094,12.074,12.074,0,0,0-.555,3.145,12.506,12.506,0,0,1-.185,2.22,26.892,26.892,0,0,1,4.995,1.665,37.7,37.7,0,0,0,7.215,2.035,53.205,53.205,0,0,0,2.22-8.325c.555-3.7-.555-8.695-.37-12.949s1.48-12.209,1.11-19.054-.555-11.284-.37-14.429,1.295-29.413,1.295-29.413l2.035-1.295s5.55,25.529,5.92,31.818-1.295,8.14.37,16.464a165.192,165.192,0,0,1,2.59,23.864c0,3.515-1.295,5.18-.925,7.215a56.684,56.684,0,0,0,2.035,6.475l12.531-4.349s-.692-6.011-1.247-8.416-.555-7.215-.555-14.614.37-25.344.555-33.483a244.6,244.6,0,0,0-2.59-35.333l-2.59-15.539-.37-5.365Z" transform="translate(-57.786 -65.895)" fill="#6790c3"/>
            <path id="Path_226" data-name="Path 226" d="M256.655,260.312v-4.193l2.22-.986.494,4.933a22.386,22.386,0,0,0,3.3-1.658l-.345-5-34.593.555-.667,4.674,5.662,1.677v-4.193l2.22.494.246,4.193s4.879,1.726,7,1.726,5.823.74,9.77-.246S256.655,260.312,256.655,260.312Z" transform="translate(-59.047 -65.896)" fill="#363636"/>
            <path id="Path_227" data-name="Path 227" d="M247.516,264.179a57.115,57.115,0,0,0,7.207.171v-4.611h-7.207Z" transform="translate(-64.364 -67.542)" fill="#fff"/>
            <path id="Path_228" data-name="Path 228" d="M280.993,190.762s10.975,36.98,11.1,37.844,1.233,4.933-.124,7.4-4.07,3.576-5.92,2.713-9.5-22.939-9.5-22.939S280.377,192.26,280.993,190.762Z" transform="translate(-71.915 -49.606)" fill="#f1e9e4"/>
            <path id="Path_229" data-name="Path 229" d="M282.87,197.324l-.775,15.763,1.292-5.427s-.776,12.662-.13,12.662,2.068-5.3,2.068-5.3,2.221,12.38,2.6,13.037,2.959-2.572,2.959-2.572-2.584-10.724-3.618-14.988S283.258,196.032,282.87,197.324Z" transform="translate(-73.356 -51.283)" fill="#fff"/>
            <path id="Path_230" data-name="Path 230" d="M276.553,218.316S281.5,232.6,284.4,238.635l2.082-9.713-2.4,4.81-4.255-15.909.74-15.539-1.85,13.319.846-15.089C278.243,207.922,276.553,218.316,276.553,218.316Z" transform="translate(-71.915 -52.142)" fill="#cfc3ba"/>
            <path id="Path_231" data-name="Path 231" d="M233.836,184.236l-12.5,4.57s4.436,39.859,4.3,41.606-1.075,1.882-.941,3.763a3.923,3.923,0,0,0,1.613,3.226c.807.672,7.862,2.479,14.315,2.748s8.537-.059,13.51-1.4,7.528-2.42,7.124-4.57-.941-6.049-.941-6.049l6.318-39.187-11.694-3.495a33.861,33.861,0,0,0-7.124-1.21C244.992,184.236,237.061,183.161,233.836,184.236Z" transform="translate(-57.556 -47.784)" fill="#f1e9e4"/>
            <path id="Path_232" data-name="Path 232" d="M256.952,188.275c-1.726,1.234-3.7,9.619-5.92,12.086s-9.373,3.946-14.059,2.22S235.8,187.9,232.349,187.9s-8.88,1.11-8.88,3.7c0,3.954,3.391,15.416,4.871,19.363a2.025,2.025,0,0,0,.166.332,5.063,5.063,0,0,0-.043.654,111.577,111.577,0,0,0,7.585,12.209c4.625,6.475,7.4,7.4,7.4,7.4s-4.625-6.475-6.1-11.839c-.483-1.752-.926-3.322-1.3-4.648,6.034,1.531,14.04,1.871,18.2-.655,6.906-4.193,11.452-21.724,11.593-23.925C265.832,190.495,258.679,187.042,256.952,188.275Z" transform="translate(-58.111 -48.863)" fill="#fff"/>
            <path id="Path_233" data-name="Path 233" d="M240.221,250.941s12.176-2.579,16.76-7.306,7.449-10.314,5.73-7.162-4.3,11.46-9.455,13.465S240.221,250.941,240.221,250.941Z" transform="translate(-62.467 -61.253)" fill="#fff"/>
            <path id="Path_234" data-name="Path 234" d="M242.09,178.729l14.855.052-2.7,6.025-10.18.1Z" transform="translate(-62.953 -46.477)" fill="#b9b4b0"/>
            <path id="Path_235" data-name="Path 235" d="M243.133,169.327s.135,6.452.4,8.066,3.764,5.78,3.764,5.78l2.42,5.78,1.882-6.318,4.57-4.57.269-8.737Z" transform="translate(-63.224 -44.032)" fill="#bd8d7a"/>
            <path id="Path_236" data-name="Path 236" d="M238.344,149.966s-.4-.672-1.345,0-.672,2.016-.4,3.495a16.627,16.627,0,0,0,.941,3.63c.269.4,1.478.538,1.478.538Z" transform="translate(-61.458 -38.919)" fill="#c9a18e"/>
            <path id="Path_237" data-name="Path 237" d="M264.236,150.023s2.15-.4,2.42,1.075,0,4.973-.538,5.78a2.3,2.3,0,0,1-1.748.807Z" transform="translate(-68.712 -38.999)" fill="#c9a18e"/>
            <path id="Path_238" data-name="Path 238" d="M238.228,143.378s.807,12.232.807,12.77,3.361,4.7,4.167,5.914,1.21,2.42,2.958,2.958,5.109.39,6.185-.282,3.359-4.019,4.435-5.633.941-4.839.941-5.78.269-8.6-.135-9.813-.269-6.318-1.344-7.931-4.7-3.495-8.334-3.495a9.416,9.416,0,0,0-8.2,4.167C238.093,138.808,238.228,143.378,238.228,143.378Z" transform="translate(-61.948 -34.348)" fill="#d7b9aa"/>
            <path id="Path_239" data-name="Path 239" d="M242.835,145.657s-1.03,1.116,0,1.888,5.578,1.116,5.92.773.515-2.4.858-2.059.687,1.63,1.2,1.2,1.127.073,1.722-.007,3.513,1.208,3.6.693-2.145-3.947-3.432-4.462-3.689.086-5.063.429A31.7,31.7,0,0,0,242.835,145.657Z" transform="translate(-63.028 -37.312)" fill="#ddc5b7"/>
            <path id="Path_240" data-name="Path 240" d="M249.721,171.7s1.973.086,2.832.086a4.434,4.434,0,0,0,1.716-.429,3.4,3.4,0,0,1-2.231.944A3.567,3.567,0,0,1,249.721,171.7Z" transform="translate(-64.937 -44.558)" fill="#bd8d7a"/>
            <path id="Path_241" data-name="Path 241" d="M251.642,154.606l-.767,6.234.863.479.959-.575Z" transform="translate(-65.237 -40.204)" fill="#ddc5b7"/>
            <path id="Path_242" data-name="Path 242" d="M238.932,143.915s1.607-1.7,5.716-2.727,6.392-3.2,6.848-4.223.685-1.712.685-1.712a5.617,5.617,0,0,0,.8,4A31.927,31.927,0,0,0,257,143.3s.179-.462.407-1.126c-.193-2.008-.3-5.342-1.133-6.591-1.075-1.613-4.7-3.495-8.334-3.495a10.311,10.311,0,0,0-5.3,1.393,23.72,23.72,0,0,0-2.9,2.774,11.92,11.92,0,0,0-1.391,4.981Z" transform="translate(-61.98 -34.348)" fill="#bd8d7a"/>
            <path id="Path_243" data-name="Path 243" d="M262.749,145.283s-.2-.445-1.951-3.268-3.495-6.049-3.495-7.662.4-3.092,1.748-2.823,4.839,1.075,5.377,4.167-.181,9.261-.725,9.517A2.2,2.2,0,0,1,262.749,145.283Z" transform="translate(-66.909 -34.195)" fill="#473e3d"/>
            <path id="Path_244" data-name="Path 244" d="M264.453,134.819a9.389,9.389,0,0,0-2.414-1.885c-.9-.3-1.207,0-.754,1.207a17.826,17.826,0,0,0,2.036,3.243l-.3-1.584a4.033,4.033,0,0,1,.98,1.584,16.555,16.555,0,0,1,.6,2.489,23.568,23.568,0,0,0,.3-3.168A3.029,3.029,0,0,0,264.453,134.819Z" transform="translate(-67.89 -34.54)" fill="#625b59"/>
            <path id="Path_245" data-name="Path 245" d="M255.372,128a22.4,22.4,0,0,1-4.033,5.108c-2.957,2.958-8.469,5.78-10.484,6.99s-2.958,1.478-2.958,2.42.4,2.554,0,2.688-.647-.326-.838-.6c-.092-.134-.09-.376-.248-.446a.931.931,0,0,0-.678.172s-1.059-5.712-1.6-8,.135-4.033,3.36-6.452,8.066-2.823,10.485-2.823S256.179,125.853,255.372,128Z" transform="translate(-60.945 -32.953)" fill="#473e3d"/>
            <path id="Path_246" data-name="Path 246" d="M241.888,128.649s-3.922,1.207-5.505,3.319-1.583,2.036-1.358,3.168.754,3.092.754,3.092l4.827-4.525s-1.282,1.961-2.036,3.168-1.282,1.885-1.282,1.885a35.465,35.465,0,0,0,4.827-3.62c1.584-1.583,3.469-3.168,3.469-3.168l-.9,3.092a34.9,34.9,0,0,0,3.469-3.017c1.282-1.358,3.243-3.017,3.243-3.017l-2.488,4.224s3.544-4.525,4-5.129.151-.754-.98-.754a39.9,39.9,0,0,0-6.863.528C243.169,128.348,241.888,128.649,241.888,128.649Z" transform="translate(-61.088 -33.121)" fill="#625b59"/>
            <path id="Path_247" data-name="Path 247" d="M245.5,190.485s3.453,4.686,4.316,4.81,5.18-5.056,5.18-5.056l.74,1.85-5.426,10.483,4.07,31.942-4.193,7.153-3.7-8.016,2.1-30.832-4.193-10.113Z" transform="translate(-63.55 -49.47)" fill="#a34e3b"/>
            <path id="Path_248" data-name="Path 248" d="M253.917,187.311l-1.882,6.318,1.986-1.069,3.885,4.625.185-3.885Z" transform="translate(-65.539 -48.708)" fill="#cbcbcb"/>
            <path id="Path_249" data-name="Path 249" d="M241.719,194.414l.555,4.625,5.18-6.845,1.9,1.623-2.42-5.78Z" transform="translate(-62.857 -48.897)" fill="#cbcbcb"/>
            <path id="Path_250" data-name="Path 250" d="M240.755,178.729a5.823,5.823,0,0,1-1.454,2.181,16.056,16.056,0,0,0-2.343,2.69l2.151,12.636,5.646-8.872.941-1.747Z" transform="translate(-61.618 -46.477)" fill="#fff"/>
            <path id="Path_251" data-name="Path 251" d="M254.578,185.1l4.839,10.619,4.839-11.56s-2.249-2.751-2.921-3.021-1.142-2.338-1.142-2.338Z" transform="translate(-66.2 -46.495)" fill="#fff"/>
            <path id="Path_252" data-name="Path 252" d="M211.687,190.581s-16.8,19.356-21.605,23.981-6.29,4.995-5.735,7.77,4.193,6.968,6.413,7.338,22.692-24.234,22.692-24.234Z" transform="translate(-47.909 -49.559)" fill="#f1e9e4"/>
            <path id="Path_253" data-name="Path 253" d="M212.976,197.7s0-5.815-.646-4.91-11.37,12.4-12.533,13.825-9.045,9.69-9.82,10.854-1.938.517-.775,1.163,7.365,3.23,7.882,2.067.388-3.489.388-5.169.516,4.781,1.292,2.972,8.528-10.466,10.595-12.662,2.843-4.135,2.584-4.651a26.883,26.883,0,0,1-.516-3.876l1.421,1.421Z" transform="translate(-49.072 -50.108)" fill="#fff"/>
            <path id="Path_254" data-name="Path 254" d="M192.469,222.1l7.326,2.548c6.722-7.181,15.8-18.088,15.8-18.088l-.832-7-1.018-4.655,1.295,10.174s-2.775-9.249-2.775-8.695,1.665,8.695,1.665,8.695l-14.244,18.129Z" transform="translate(-50.05 -50.683)" fill="#cfc3ba"/>
            <path id="Path_255" data-name="Path 255" d="M193.554,230.914s18.19,15.478,18.745,17.143,1.48,3.145,0,4.625-3.7,5.365-5.18,5.735-2.775-.185-4.07-1.665-17.266-19.178-18.005-20.842-1.665-3.7-.185-5.92" transform="translate(-47.866 -59.806)" fill="#f1e9e4"/>
            <path id="Path_256" data-name="Path 256" d="M210.714,246.882s-9.562-8.915-12.662-10.854-5.427-1.292-6.073-.517,6.2,3.359,5.169,3.489-4.781-1.55-4.393-.258,6.977,8.915,10.595,11.887,3.489,2.584,6.589,2.713,4.135-.258,3.877-2.2A6.552,6.552,0,0,0,210.714,246.882Z" transform="translate(-49.911 -61.045)" fill="#fff"/>
            <path id="Path_257" data-name="Path 257" d="M212.359,251.787s-4.19,2-5.515,2-6.539-3.133-9.326-7.149-10.925-11.965-9.978-12.722,3.407-1.7,1.514-1.7h-2.839c-.592,0-.721-1.27-1.021-2.187l-.334-.035c-1.48,2.22-.555,4.255.185,5.92s16.711,19.363,18.005,20.842,2.59,2.035,4.07,1.665c1.385-.346,3.418-3.77,4.886-5.421Z" transform="translate(-47.866 -59.806)" fill="#cfc3ba"/>
            <path id="Path_258" data-name="Path 258" d="M220.6,259.447l2.71,3.555-4.657,6.52-2.878-3.472Z" transform="translate(-56.111 -67.466)" fill="#ede3dd"/>
            <path id="Path_259" data-name="Path 259" d="M308.275,200.6s-.616-6.783-.124-8.51,2.713-2.836,3.823-4.686,1.234-3.7,1.726-4.81,1.974.246,1.974,1.973a10.73,10.73,0,0,1-1.11,4.07,2.372,2.372,0,0,0-.124,1.6s6.166-.246,8.016-.246,5.426-.864,5.3,0,2.713.494.986,1.973-6.906,3.453-9.62,4.563-4.07,1.356-5.056,2.22-1.726,4.07-1.726,4.07Z" transform="translate(-80.082 -47.378)" fill="#d7b9aa"/>
            <path id="Path_260" data-name="Path 260" d="M287.525,232.859s4.81-6.66,6.536-11.346,3.206-8.633,4.686-9.126,8.263,2.59,8.633,3.7-.246,3.453-1.356,6.413-8.633,16.526-10.483,19.609-4.686,4.81-6.413,3.576-3.576-3.7-3.576-6.166" transform="translate(-74.255 -55.215)" fill="#f1e9e4"/>
            <path id="Path_261" data-name="Path 261" d="M299.013,218.285c-1.7,2.839-4.731,14.383-6.057,17.6s-5.11,9.463-4.921,7,2.081-5.867.567-4.731a7.679,7.679,0,0,0-2.637,4.234,9.3,9.3,0,0,0,3.27,4.368c1.726,1.234,4.563-.494,6.413-3.576,1.375-2.291,5.88-10.368,8.561-15.583l.1-.42s2.839-6.056.946-8.517S300.716,215.446,299.013,218.285Z" transform="translate(-74.362 -56.289)" fill="#cfc3ba"/>
            <path id="Path_262" data-name="Path 262" d="M305.219,211.135l1.233-4.563,6.166,2.343-.986,4.81S306.452,212.245,305.219,211.135Z" transform="translate(-79.369 -53.717)" fill="#ede3dd"/>
            <path id="Path_263" data-name="Path 263" d="M316.008,198.934s5.673-1.11,6.166-2.466,2.22-7.77,1.6-8.756-4.193,7.77-4.193,7.77-6.783-.246-7.646.986-1.85,2.466-.864,3.453a1.772,1.772,0,0,0,2.22.124" transform="translate(-80.785 -48.792)" fill="#cda796"/>
            <path id="Path_264" data-name="Path 264" d="M328.84,194.876s2.836-7.523,2.466-8.386-1.356.864-2.1,2.1-1.48,4.933-2.22,6.043-.986,1.6,0,1.6S328.84,194.876,328.84,194.876Z" transform="translate(-84.861 -48.434)" fill="#cda796"/>
            <path id="Path_265" data-name="Path 265" d="M249.719,266.4l.74,18.006,3.947-4.933-.494-13.073Z" transform="translate(-64.937 -69.276)" fill="#6c94c5"/>
            <path id="Path_266" data-name="Path 266" d="M270.005,270.4l-2.77,2.059-6.85,5.094,7.153-3.206-5.18,5.426,8.88-5.426-3.453,1.233,2.22-3.453-4.75,2.446Z" transform="translate(-67.711 -70.316)" fill="#5580bb"/>
            <path id="Path_267" data-name="Path 267" d="M240.5,278.05l-2.754-2.081-6.811-5.146,5.084,5.966-6.662-3.449,7.7,7-2.153-2.969,3.937,1.162-3.681-3.873Z" transform="translate(-59.643 -70.425)" fill="#5580bb"/>
            <path id="Path_268" data-name="Path 268" d="M242.556,274.386s6.954,2.194,8.168,2.194,8.121-2.427,8.121-2.427a89.689,89.689,0,0,1-8.962,1.307A58.879,58.879,0,0,1,242.556,274.386Z" transform="translate(-63.074 -71.291)" fill="#5580bb"/>
            <path id="Path_269" data-name="Path 269" d="M254.01,291.515l9.743-7.276-7.4,6.906s6.783-2.343,5.8-2.1-8.263,4.44-8.263,4.44l.74-1.6Z" transform="translate(-66.02 -73.913)" fill="#5580bb"/>
            <g id="Group_105" data-name="Group 105" transform="translate(169.131 243.838)">
              <path id="Path_270" data-name="Path 270" d="M242.924,372.551c.185-4.255,1.48-12.209,1.11-19.054-.2-3.613-.338-6.55-.4-8.986-.24,1.845-.579,3.911-1.062,6.218a115.148,115.148,0,0,1-5.634,19.182s-3.22-15.023-3.22-10.732,2.146,13.011,1.609,13.011c-.306,0-3.81-6.481-6.757-12.038a75.459,75.459,0,0,0,.852,8.513,65.487,65.487,0,0,1,.185,16.094,12.077,12.077,0,0,0-.555,3.145,12.506,12.506,0,0,1-.185,2.22,26.894,26.894,0,0,1,4.995,1.665,37.693,37.693,0,0,0,7.215,2.035,53.207,53.207,0,0,0,2.22-8.325C243.848,381.8,242.739,376.806,242.924,372.551Z" transform="translate(-228.567 -333.425)" fill="#5580bb"/>
              <path id="Path_271" data-name="Path 271" d="M249.319,329.633l0-.043-.018-.061S249.31,329.57,249.319,329.633Z" transform="translate(-233.959 -329.529)" fill="#6790c3"/>
            </g>
            <path id="Path_272" data-name="Path 272" d="M277.515,381.416c-.555-2.4-.555-7.215-.555-14.614,0-4.838.158-14.181.319-22.346-1.314,5.468-4.577,19.118-5.744,24.636-1.476,6.976,1.475-12.878-.536-7.646s-2.147,7.512-3.22,10.463c-.645,1.774-2.307-1.007-3.531-3.509.57,5.291.873,10.082.873,12.092,0,3.515-1.295,5.18-.925,7.215a56.69,56.69,0,0,0,2.035,6.475l12.531-4.349S278.07,383.821,277.515,381.416Z" transform="translate(-68.684 -89.572)" fill="#5580bb"/>
            <path id="Path_273" data-name="Path 273" d="M286.294,410.495s-3.285,1.264-3.033,2.4,4.8,4.044,6.444,4.423,3.412.379,3.159-.884S286.294,410.495,286.294,410.495Z" transform="translate(-73.655 -106.745)" fill="#404040"/>
            <path id="Path_274" data-name="Path 274" d="M284.083,408.869l-3.032,1.643-2.907-2.275a29.8,29.8,0,0,1,3.285-1.516C282.314,406.468,282.946,407.227,284.083,408.869Z" transform="translate(-72.328 -105.751)" fill="#404040"/>
            <path id="Path_275" data-name="Path 275" d="M221.788,411.69s-4.8,4.3-5.812,5.055-.632,1.769,2.148,1.643,5.687-2.022,6.95-3.032a4.316,4.316,0,0,0,1.516-1.9Z" transform="translate(-56.029 -107.056)" fill="#404040"/>
            <path id="Path_276" data-name="Path 276" d="M224.864,410.081l5.055,1.769s3.159-2.022,2.653-2.653-2.653-1.264-3.917-1.264S224.864,410.081,224.864,410.081Z" transform="translate(-58.474 -106.079)" fill="#404040"/>
            <path id="Path_277" data-name="Path 277" d="M247.732,264.6a52.277,52.277,0,0,0,7.047.167V261.34Z" transform="translate(-64.42 -67.959)" fill="#949494"/>
            <path id="Path_278" data-name="Path 278" d="M246.872,152.086H243.11a.689.689,0,0,1-.69-.69h0a.689.689,0,0,1,.69-.69h3.763a.689.689,0,0,1,.69.69h0A.689.689,0,0,1,246.872,152.086Z" transform="translate(-63.039 -39.19)" fill="#473e3d"/>
            <path id="Path_279" data-name="Path 279" d="M258.326,151.818l-3.453-1.492a.689.689,0,0,1-.36-.906h0a.69.69,0,0,1,.907-.36l3.453,1.492a.689.689,0,0,1,.36.907h0A.689.689,0,0,1,258.326,151.818Z" transform="translate(-66.169 -38.746)" fill="#473e3d"/>
            <path id="Path_280" data-name="Path 280" d="M247.628,155.391s-.376-1.254-1-1.379a12.6,12.6,0,0,0-3.763,0c-.627.251-1,1.254-1,1.254a2.653,2.653,0,0,1,1.742-.8,11.756,11.756,0,0,1,2.361.139A10.794,10.794,0,0,1,247.628,155.391Z" transform="translate(-62.893 -40.012)" fill="#473e3d"/>
            <circle id="Ellipse_50" data-name="Ellipse 50" cx="0.695" cy="0.695" r="0.695" transform="translate(181.264 114.223)" fill="#473e3d"/>
            <path id="Path_281" data-name="Path 281" d="M259.769,155.391s-.376-1.254-1-1.379a12.6,12.6,0,0,0-3.762,0c-.628.251-1,1.254-1,1.254a2.653,2.653,0,0,1,1.742-.8,11.756,11.756,0,0,1,2.361.139A10.812,10.812,0,0,1,259.769,155.391Z" transform="translate(-66.05 -40.012)" fill="#473e3d"/>
            <circle id="Ellipse_51" data-name="Ellipse 51" cx="0.695" cy="0.695" r="0.695" transform="translate(190.201 114.223)" fill="#473e3d"/>
            <path id="Path_282" data-name="Path 282" d="M264.478,153.281l-.414-.442a1.889,1.889,0,0,1-.511-1.291v-4.31h.925Z" transform="translate(-68.534 -38.288)" fill="#473e3d"/>
            <path id="Path_283" data-name="Path 283" d="M253.277,163.822h-3.391a3.631,3.631,0,0,0,1.48.864C251.982,164.747,253.277,163.822,253.277,163.822Z" transform="translate(-64.98 -42.6)" fill="#bd8d7a"/>
            <path id="Path_284" data-name="Path 284" d="M253.434,167.335s-4.3,0-5.326.073a6.821,6.821,0,0,1-2.772-.949,16.067,16.067,0,0,0,2.261,2.554c.949.73,4.669.365,5.106.219a20.981,20.981,0,0,0,2.554-2.48Z" transform="translate(-63.797 -43.286)" fill="#fff"/>
          </g>
        </g>
      </g>
    </g>
  </g>
</svg>
