<svg xmlns="http://www.w3.org/2000/svg" width="64.79" height="25.974" viewBox="0 0 64.79 25.974">
  <g id="Group_146" data-name="Group 146" transform="translate(-320.391 -277.391)">
    <path id="Path_315" data-name="Path 315" d="M4.2,16.2H3.939A2.771,2.771,0,0,1,1.93,15.53a2.7,2.7,0,0,1-.691-2.009q0-.209.013-.688t.013-1.171q0-.411-.007-.884t-.02-.965q-.013-.492-.036-.985t-.055-.952q-.033-.46-.078-.861t-.1-.708L2.6,5.82q.072.378.13.923t.1,1.164q.046.62.068,1.262t.023,1.21q0,.346.007.734t.007.682q0,.248,0,.466t-.007.421q0,.2-.007.4t0,.4v.1A1.618,1.618,0,0,0,2.971,14a.647.647,0,0,0,.173.3.71.71,0,0,0,.316.173,1.715,1.715,0,0,0,.447.052H4.2Zm3.007-2.55q.215.091.554.228t.73.274q.391.137.792.245a4.09,4.09,0,0,0,.734.134q-.065-.274-.134-.571t-.153-.577a5.63,5.63,0,0,0-.189-.532,2.069,2.069,0,0,0-.245-.44,1.137,1.137,0,0,0-.323-.3A.776.776,0,0,0,8.563,12a.713.713,0,0,0-.466.17,1.9,1.9,0,0,0-.372.421,3.651,3.651,0,0,0-.293.538Q7.3,13.411,7.207,13.646Zm2.478,2.53a4.763,4.763,0,0,1-.8-.095,9.205,9.205,0,0,1-.929-.232,9.274,9.274,0,0,1-.907-.326,4.312,4.312,0,0,1-.734-.385,6.455,6.455,0,0,1-.5.45,2.891,2.891,0,0,1-.5.329,2.487,2.487,0,0,1-.564.205,3,3,0,0,1-.688.072h-.13v-1.67h.13a1.607,1.607,0,0,0,.8-.179,1.851,1.851,0,0,0,.548-.466,3.41,3.41,0,0,0,.4-.646q.173-.359.355-.717a8.175,8.175,0,0,1,.417-.757,3.944,3.944,0,0,1,.532-.682,2.544,2.544,0,0,1,.668-.492,1.814,1.814,0,0,1,.835-.189,2.223,2.223,0,0,1,1.021.212,1.985,1.985,0,0,1,.691.58,2.967,2.967,0,0,1,.44.864,8.714,8.714,0,0,1,.274,1.07q.065.333.124.59a2.82,2.82,0,0,0,.134.44.922.922,0,0,0,.163.277.279.279,0,0,0,.212.095h.2V16.2h-.248A1.125,1.125,0,0,1,11,16a2.2,2.2,0,0,1-.512-.512,1.97,1.97,0,0,0-.166.176q-.095.111-.2.218a2.2,2.2,0,0,1-.218.192A.517.517,0,0,1,9.685,16.176Zm6.8-1.65V16.2h-.13a2.606,2.606,0,0,1-1.079-.2,2.4,2.4,0,0,1-.753-.522,2.889,2.889,0,0,1-1.092.548,5.982,5.982,0,0,1-1.562.176h-.241v-1.67h.241a2.693,2.693,0,0,0,1.5-.342,1.158,1.158,0,0,0,.505-1.027,2.843,2.843,0,0,0-.091-.61q-.091-.388-.261-.968l1.6-.45q.085.287.134.512t.085.45q.036.225.059.483t.049.6q.02.209.062.447a1.634,1.634,0,0,0,.14.437.969.969,0,0,0,.264.333.671.671,0,0,0,.434.134ZM14.948,8.917,13.7,10.17,12.45,8.917,13.7,7.672Zm1.272,5.609h.124q.228,0,.388,0t.31-.013l.316-.02.408-.023a2.837,2.837,0,0,1-.473-.9,3.313,3.313,0,0,1-.075-1.712,2.99,2.99,0,0,1,.235-.675,2.876,2.876,0,0,1,.388-.593,2.508,2.508,0,0,1,.538-.476.838.838,0,0,1-.147-.059q-.095-.046-.3-.157l.972-1.585a.846.846,0,0,1,.183.075q.157.075.4.2l.564.284q.316.16.655.326t.678.329q.339.163.633.293l1.07.483q.463.209.825.417a5.061,5.061,0,0,1,.646.437,3.622,3.622,0,0,1,.538.541,2.675,2.675,0,0,1,.62,1.7,3.373,3.373,0,0,1-.085.665,2.564,2.564,0,0,1-.427.9,2.859,2.859,0,0,1-.9.828,2.02,2.02,0,0,1-.46.189,5.423,5.423,0,0,1-.567.13q-.3.052-.587.078t-.512.026q-.274,0-.61-.023t-.678-.075q-.342-.052-.668-.13a3.5,3.5,0,0,1-.58-.189,7.951,7.951,0,0,1-1.467.3,15.688,15.688,0,0,1-1.839.1H16.22Zm6.522-2.27a3.744,3.744,0,0,1-.2,1.2,3.509,3.509,0,0,1-.59,1.079q.111.013.215.02t.2.007a3,3,0,0,0,.773-.095,2.386,2.386,0,0,0,.616-.251,1.353,1.353,0,0,0,.411-.365.747.747,0,0,0,.15-.443.864.864,0,0,0-.127-.43,2.037,2.037,0,0,0-.342-.434,3.3,3.3,0,0,0-.509-.4,5.1,5.1,0,0,0-.626-.349q.013.111.02.232T22.741,12.257Zm-2.765-1.265a.841.841,0,0,0-.1-.007.8.8,0,0,0-.424.14,1.561,1.561,0,0,0-.414.4,2.034,2.034,0,0,0-.3.58,1.527,1.527,0,0,0-.085.483q0,.072.007.137a1.664,1.664,0,0,0,.114.424,1.946,1.946,0,0,0,.222.4,1.736,1.736,0,0,0,.3.326,1.039,1.039,0,0,0,.365.2,2.137,2.137,0,0,0,.5-.179,1.574,1.574,0,0,0,.43-.323,1.856,1.856,0,0,0,.329-.492,2.308,2.308,0,0,0,.189-.682,1.582,1.582,0,0,0,.013-.2,1.071,1.071,0,0,0-.091-.427,1.182,1.182,0,0,0-.271-.385,1.463,1.463,0,0,0-.395-.274A1.429,1.429,0,0,0,19.976,10.991ZM28.833,5.82Q29,7.065,29.061,8.2t.078,2.214q.013.92.01,1.7t-.016,1.458q-.013.675-.039,1.259t-.052,1.092l-1.709.261q.137-2.152.137-3.8,0-.665-.02-1.246Q27.4,9.8,27.333,8.621t-.176-2.253ZM33.4,11.859q.13.411.271.858t.254.9q.114.457.186.91a5.65,5.65,0,0,1,.072.884A3.716,3.716,0,0,1,34,16.558a5,5,0,0,1-.5,1.076,6.265,6.265,0,0,1-.75.988,9.378,9.378,0,0,1-.942.887,10.751,10.751,0,0,1-1.076.776,12.59,12.59,0,0,1-1.148.646l-.743-1.493q.463-.228.913-.505a10.12,10.12,0,0,0,.858-.59,7.975,7.975,0,0,0,.757-.659,4.774,4.774,0,0,0,.6-.717,3.54,3.54,0,0,0,.395-.763,2.277,2.277,0,0,0,.143-.789,3.876,3.876,0,0,0-.085-.783q-.085-.411-.205-.812t-.248-.773q-.127-.372-.212-.659Z" transform="translate(351 278)" fill="#e74c3c"/>
    <g id="information" transform="translate(320.391 277.391)">
      <path id="Path_312" data-name="Path 312" d="M12.987,0A12.987,12.987,0,1,0,25.974,12.987,13,13,0,0,0,12.987,0Zm0,23.613A10.626,10.626,0,1,1,23.613,12.987,10.638,10.638,0,0,1,12.987,23.613Z" fill="#e74c3c"/>
      <path id="Path_313" data-name="Path 313" d="M146.576,70a1.574,1.574,0,1,0,1.574,1.575A1.576,1.576,0,0,0,146.576,70Z" transform="translate(-133.589 -64.49)" fill="#e74c3c"/>
      <path id="Path_314" data-name="Path 314" d="M151.181,140A1.181,1.181,0,0,0,150,141.181v7.084a1.181,1.181,0,0,0,2.361,0v-7.084A1.181,1.181,0,0,0,151.181,140Z" transform="translate(-138.194 -128.981)" fill="#e74c3c"/>
    </g>
  </g>
</svg>
