<svg xmlns="http://www.w3.org/2000/svg" xmlns:xlink="http://www.w3.org/1999/xlink" width="357.719" height="71.516" viewBox="0 0 357.719 71.516">
  <defs>
    <linearGradient id="linear-gradient" x1="0.5" x2="0.546" y2="1.157" gradientUnits="objectBoundingBox">
      <stop offset="0" stop-color="#e74c3c"/>
      <stop offset="1" stop-color="#f59740"/>
    </linearGradient>
    <clipPath id="clip-path">
      <path id="Path_441" data-name="Path 441" d="M-536.659,243.387s-5.968,7.055-.31,14.316a17.508,17.508,0,0,1,1.109,1.438c2.651,3.411,11.624,15.644,21.078,27.359H-446.3c0-12.909.016-66.268.016-71.516-15.724,0-67.281.019-68.5.019C-520.534,222.359-536.659,243.387-536.659,243.387Z" transform="translate(812 84)" fill="url(#linear-gradient)"/>
    </clipPath>
  </defs>
  <g id="Group_173" data-name="Group 173" transform="translate(-8 -212.984)">
    <rect id="hr_blog" width="357.5" height="71.5" rx="4" transform="translate(8 213)" fill="#f5f5f5"/>
    <path id="Path_449" data-name="Path 449" d="M126.282,15.478q.174.548.361,1.143t.339,1.2q.152.609.248,1.213a7.533,7.533,0,0,1,.1,1.178,4.954,4.954,0,0,1-.239,1.526,6.67,6.67,0,0,1-.661,1.435,8.354,8.354,0,0,1-1,1.317,12.5,12.5,0,0,1-1.257,1.183,14.334,14.334,0,0,1-1.435,1.035,16.788,16.788,0,0,1-1.53.861l-.991-1.991q.617-.3,1.217-.674a13.492,13.492,0,0,0,1.143-.787,10.634,10.634,0,0,0,1.009-.878,6.366,6.366,0,0,0,.8-.957,4.721,4.721,0,0,0,.526-1.017,3.036,3.036,0,0,0,.191-1.052,5.168,5.168,0,0,0-.113-1.043q-.113-.548-.274-1.083t-.33-1.03q-.17-.5-.283-.878Zm6.951,5.783h-.348a3.7,3.7,0,0,1-2.678-.887,3.6,3.6,0,0,1-.922-2.678q0-.278.017-.917t.017-1.561q0-.548-.009-1.178t-.026-1.287q-.017-.657-.048-1.313t-.074-1.27q-.043-.613-.1-1.148t-.139-.943l2.183-.652q.1.5.174,1.23t.139,1.552q.061.826.091,1.683t.03,1.613q0,.461.009.978t.009.909q0,.33,0,.622t-.009.561q0,.27-.009.53t0,.53v.139a2.157,2.157,0,0,0,.065.557.863.863,0,0,0,.23.4.946.946,0,0,0,.422.23,2.287,2.287,0,0,0,.6.07h.391Zm7.647-2.226v2.226h-8.235V19.035Zm7.647,0v2.226h-8.235V19.035Zm5.89,0v2.226h-.174a3.475,3.475,0,0,1-1.439-.27,3.2,3.2,0,0,1-1-.7,3.852,3.852,0,0,1-1.457.73,7.977,7.977,0,0,1-2.083.235h-.322V19.035h.322a3.591,3.591,0,0,0,2-.457,1.544,1.544,0,0,0,.674-1.37,3.79,3.79,0,0,0-.122-.813q-.122-.517-.348-1.291l2.139-.6q.113.383.178.683t.113.6q.048.3.078.643t.065.8q.026.278.083.6a2.178,2.178,0,0,0,.187.583,1.292,1.292,0,0,0,.352.443.9.9,0,0,0,.578.178ZM152.7,24.087l-1.67,1.67-1.661-1.67,1.661-1.661Zm1.125-5.052h1.887a12.189,12.189,0,0,0,2.2-.2,20.144,20.144,0,0,0,2.222-.539q1.1-.335,2.157-.77t1.991-.9a7.893,7.893,0,0,1-1.391-.439q-.644-.274-1.217-.535t-1.1-.452a3.086,3.086,0,0,0-1.052-.191,1.487,1.487,0,0,0-.57.109,2.32,2.32,0,0,0-.491.274,2.573,2.573,0,0,0-.4.365,4.837,4.837,0,0,0-.313.387q-.135.187-.222.335l-.122.209-1.809-1.174a6.92,6.92,0,0,1,.7-1.013,5.784,5.784,0,0,1,.909-.878A4.412,4.412,0,0,1,158.282,13a3.327,3.327,0,0,1,1.235-.23,5.088,5.088,0,0,1,1.33.178,10.137,10.137,0,0,1,1.309.452q.648.274,1.3.587t1.317.587a11.674,11.674,0,0,0,1.343.461,5.465,5.465,0,0,0,1.391.2l-.183,2.243q-1.217.583-2.539,1.235t-2.765,1.2a24.471,24.471,0,0,1-3.013.93,15.334,15.334,0,0,1-3.291.413H153.83Zm7.3-9.035-1.67,1.67L157.795,10l1.661-1.661Zm9.847-2.574q.217,1.661.3,3.17t.1,2.952q.017,1.226.013,2.27t-.022,1.943q-.017.9-.052,1.678t-.07,1.457l-2.278.348q.183-2.87.183-5.07,0-.887-.026-1.661-.07-1.783-.157-3.352t-.235-3Zm13.216,19.817a7.057,7.057,0,0,1-2.435-.4,5.278,5.278,0,0,1-1.874-1.148,5.093,5.093,0,0,1-1.2-1.822,6.52,6.52,0,0,1-.426-2.422,9.587,9.587,0,0,1,1.617-5.313l1.713,1.243a6.248,6.248,0,0,0-.387.643,7.917,7.917,0,0,0-.439.983,9.921,9.921,0,0,0-.361,1.2,5.611,5.611,0,0,0-.152,1.3,3.037,3.037,0,0,0,.326,1.409A3.418,3.418,0,0,0,181.449,24a4.2,4.2,0,0,0,1.291.713,5,5,0,0,0,1.552.274h.087a6.082,6.082,0,0,0,1.2-.117,5.182,5.182,0,0,0,1.117-.357,4.707,4.707,0,0,0,.965-.578,3.8,3.8,0,0,0,.739-.757,3.358,3.358,0,0,0,.47-.9,2.9,2.9,0,0,0,.13-.87v-.148a4.762,4.762,0,0,0-.135-.891q-.117-.491-.283-1t-.352-.987q-.187-.483-.352-.857t-.278-.6a1.651,1.651,0,0,0-.122-.226l2.043-1.139q.026.043.187.439t.413.987a5.71,5.71,0,0,0,.648,1.17,2.585,2.585,0,0,0,.622.609,1.417,1.417,0,0,0,.6.23,4.734,4.734,0,0,0,.561.035h.287v2.226h-.287a3.676,3.676,0,0,1-.852-.091,2.554,2.554,0,0,1-.661-.248q.009.165.009.33a7.605,7.605,0,0,1-.122,1.317,5.454,5.454,0,0,1-.457,1.4,5.308,5.308,0,0,1-.883,1.3,5.37,5.37,0,0,1-1.317,1.039,6.872,6.872,0,0,1-1.787.687A9.683,9.683,0,0,1,184.188,27.243Zm1.957-11.87-1.67,1.67-1.661-1.67,1.661-1.661Zm6.117,3.661h1.852a8.825,8.825,0,0,0,.883-.048,3.474,3.474,0,0,0,.878-.2,1.719,1.719,0,0,0,.67-.439,1.083,1.083,0,0,0,.265-.765,3,3,0,0,0-.1-.635q-.1-.409-.252-.9t-.37-1.026q-.213-.53-.448-.991l2.009-.991q.217.5.435,1.052t.387,1.143a11.348,11.348,0,0,1,.274,1.178,6.648,6.648,0,0,1,.1,1.157,3.613,3.613,0,0,1-.374,1.713,3.134,3.134,0,0,1-1.022,1.143,4.458,4.458,0,0,1-1.513.639,8.189,8.189,0,0,1-1.848.2h-1.835Zm3.235,4.8-1.478,1.478-1.5-1.487L194,22.339Zm3.287.009L197.3,25.33l-1.5-1.5,1.478-1.478Zm7.96-2.583h-.27a3.926,3.926,0,0,1-.57-.052,1.987,1.987,0,0,1-.752-.313,5.451,5.451,0,0,1-.67,2.1,9.125,9.125,0,0,1-1.4,1.883,12.432,12.432,0,0,1-1.887,1.609,16.877,16.877,0,0,1-2.152,1.278l-.974-2.009q.609-.313,1.222-.678a13.248,13.248,0,0,0,1.17-.783,12.4,12.4,0,0,0,1.039-.87,6.313,6.313,0,0,0,.835-.948,4.744,4.744,0,0,0,.557-1.017,2.909,2.909,0,0,0,.2-1.07,3.756,3.756,0,0,0-.113-.865q-.113-.474-.287-.987t-.374-1.039q-.2-.526-.365-1.022l2.087-.87q.339,1.017.622,1.683a5.738,5.738,0,0,0,.557,1.052,1.651,1.651,0,0,0,.574.539,1.488,1.488,0,0,0,.683.152h.27Zm8.96-2.226v2.226h-8.235V19.035Zm-.588,0H217a12.189,12.189,0,0,0,2.2-.2,20.144,20.144,0,0,0,2.222-.539q1.1-.335,2.157-.77t1.991-.9a7.893,7.893,0,0,1-1.391-.439q-.644-.274-1.217-.535t-1.1-.452a3.086,3.086,0,0,0-1.052-.191,1.487,1.487,0,0,0-.57.109,2.32,2.32,0,0,0-.491.274,2.573,2.573,0,0,0-.4.365,4.837,4.837,0,0,0-.313.387q-.135.187-.222.335l-.122.209-1.809-1.174a6.92,6.92,0,0,1,.7-1.013,5.784,5.784,0,0,1,.909-.878A4.412,4.412,0,0,1,219.567,13a3.327,3.327,0,0,1,1.235-.23,5.088,5.088,0,0,1,1.33.178,10.137,10.137,0,0,1,1.309.452q.648.274,1.3.587t1.317.587a11.674,11.674,0,0,0,1.343.461,5.465,5.465,0,0,0,1.391.2l-.183,2.243q-1.217.583-2.539,1.235t-2.765,1.2a24.471,24.471,0,0,1-3.013.93,15.334,15.334,0,0,1-3.291.413h-1.887ZM222.41,10l-1.67,1.67L219.08,10l1.661-1.661Zm10.743-1.287q.183,1.3.278,2.63t.1,2.735q.009,1.122.009,2.1t-.013,2.248q-.013,1.265-.057,2.43L231.2,21.2q.1-1.791.122-3.33.009-.383.009-.757,0-1.1-.043-2.1-.148-3.5-.365-5.6ZM228.614,7.7a2.636,2.636,0,0,1,.3-.835,3.108,3.108,0,0,1,.539-.7,2.543,2.543,0,0,1,.691-.483,1.807,1.807,0,0,1,.778-.178,2.518,2.518,0,0,1,.726.1,5.3,5.3,0,0,1,.6.217,2.862,2.862,0,0,0,.661.2,1.43,1.43,0,0,0,.217.017,1.157,1.157,0,0,0,.348-.061,1.177,1.177,0,0,0,.413-.261,3.921,3.921,0,0,0,.474-.53l1.191.765a.993.993,0,0,1-.1.148q-.087.122-.239.3a4.432,4.432,0,0,1-.37.37,3.556,3.556,0,0,1-.487.365,3.01,3.01,0,0,1-.583.283,2.086,2.086,0,0,1-.661.122h-.061a2.023,2.023,0,0,1-.587-.083q-.274-.083-.543-.187t-.548-.191a2.118,2.118,0,0,0-.548-.07h-.07a.534.534,0,0,0-.365.143.967.967,0,0,0-.217.317,1.927,1.927,0,0,0-.117.374,2.7,2.7,0,0,1-.074.3Z" transform="translate(9 232)" fill="#e74c3c"/>
    <g id="Mask_Group_16" data-name="Mask Group 16" transform="translate(0 -86)" clip-path="url(#clip-path)">
      <rect id="hr_blog-2" data-name="hr_blog" width="357.5" height="71.5" rx="4" transform="translate(8 299)" fill="url(#linear-gradient)"/>
    </g>
    <g id="newspaper_7_" data-name="newspaper (7)" transform="translate(305.832 182.62)">
      <path id="Path_433" data-name="Path 433" d="M42.5,70.242a1.816,1.816,0,0,0-1.865.178l-12,7.555a.714.714,0,0,0,.761,1.209l12-7.555c.253-.16.392-.148.413-.136s.1.122.1.422a3.144,3.144,0,0,1-1.278,2.316L29,81.554a1.614,1.614,0,0,1-1.551.294,1.614,1.614,0,0,1-.578-1.469,7,7,0,0,1,2.891-5.236L43.008,66.8a.715.715,0,0,0,0-1.209L17.562,49.571a.714.714,0,0,0-.761,0L3.4,58.012A7.976,7.976,0,0,0,0,64.165v.381A7.976,7.976,0,0,0,3.4,70.7L23.333,83.252a.714.714,0,1,0,.761-1.209L4.158,69.49a6.607,6.607,0,0,1-2.729-4.944v-.381a6.607,6.607,0,0,1,2.729-4.944l13.023-8.2L41.286,66.2,29,73.933a8.355,8.355,0,0,0-3.558,6.445,2.909,2.909,0,0,0,1.316,2.72,2.281,2.281,0,0,0,1.115.282,3.59,3.59,0,0,0,1.888-.617L41.4,75.439a4.569,4.569,0,0,0,1.946-3.525A1.815,1.815,0,0,0,42.5,70.242Z" fill="#fff"/>
      <path id="Path_434" data-name="Path 434" d="M190.092,120.373a.714.714,0,0,0,.381-1.319l-16.508-10.395a.714.714,0,1,0-.761,1.209l16.508,10.395A.711.711,0,0,0,190.092,120.373Z" transform="translate(-156.404 -53.459)" fill="#fff"/>
      <path id="Path_435" data-name="Path 435" d="M250.662,197.474a.714.714,0,0,0,.38-1.32l-6.974-4.373a.714.714,0,1,0-.759,1.21l6.974,4.373A.71.71,0,0,0,250.662,197.474Z" transform="translate(-219.83 -128.665)" fill="#fff"/>
      <path id="Path_436" data-name="Path 436" d="M213.523,211.528a.714.714,0,0,0-.757,1.212l7.027,4.388a.714.714,0,1,0,.757-1.212Z" transform="translate(-192.195 -146.531)" fill="#fff"/>
      <path id="Path_437" data-name="Path 437" d="M85.647,128.287l-5.937,3.739a.714.714,0,0,0,0,1.211l7.081,4.4a.714.714,0,0,0,.765-.007l1.577-1.019a.714.714,0,0,0-.776-1.2l-1.2.773-5.727-3.561,4.591-2.891,5.643,3.538-.658.425a.714.714,0,1,0,.776,1.2l1.6-1.034a.714.714,0,0,0-.008-1.205l-6.974-4.373A.714.714,0,0,0,85.647,128.287Z" transform="translate(-71.815 -71.217)" fill="#fff"/>
      <path id="Path_438" data-name="Path 438" d="M190.284,236.658a.714.714,0,0,0-.229-.984l-7.081-4.4a.714.714,0,0,0-.754,1.213l7.081,4.4a.714.714,0,0,0,.984-.229Z" transform="translate(-164.557 -164.394)" fill="#fff"/>
      <path id="Path_439" data-name="Path 439" d="M52.5,189.66a.714.714,0,0,0,.229.984L70.21,201.51a.714.714,0,1,0,.754-1.213L53.487,189.43A.714.714,0,0,0,52.5,189.66Z" transform="translate(-47.404 -126.538)" fill="#fff"/>
    </g>
  </g>
</svg>
