<svg xmlns="http://www.w3.org/2000/svg" width="36" height="36" viewBox="0 0 36 36">
  <g id="Group_167" data-name="Group 167" transform="translate(-983 -394)">
    <circle id="_MG_8688" cx="18" cy="18" r="18" transform="translate(983 394)" fill="#23cba7"/>
    <g id="photo-camera_1_" data-name="photo-camera (1)" transform="translate(992 394.8)">
      <g id="Group_118" data-name="Group 118" transform="translate(0 10)">
        <path id="Path_295" data-name="Path 295" d="M9,15.4a2.7,2.7,0,1,0,2.7,2.7A2.7,2.7,0,0,0,9,15.4Zm7.2-2.7H14.04a.8.8,0,0,1-.711-.512l-.558-1.676A.8.8,0,0,0,12.06,10H5.94a.8.8,0,0,0-.711.512l-.558,1.676a.8.8,0,0,1-.711.512H1.8A1.805,1.805,0,0,0,0,14.5v8.1a1.805,1.805,0,0,0,1.8,1.8H16.2A1.805,1.805,0,0,0,18,22.6V14.5A1.805,1.805,0,0,0,16.2,12.7ZM9,22.6a4.5,4.5,0,1,1,4.5-4.5A4.5,4.5,0,0,1,9,22.6Zm6.57-6.841a.63.63,0,1,1,.63-.63A.63.63,0,0,1,15.57,15.759Z" transform="translate(0 -10)" fill="#fff"/>
      </g>
    </g>
  </g>
</svg>
