<svg xmlns="http://www.w3.org/2000/svg" width="42.39" height="11.849" viewBox="0 0 42.39 11.849">
  <g id="Group_175" data-name="Group 175" transform="translate(-1502.458 -764.608)">
    <path id="star_2_" data-name="star (2)" d="M6.794,1.419l1.4,2.832a.667.667,0,0,0,.5.365l3.125.454a.667.667,0,0,1,.37,1.138l-2.261,2.2A.667.667,0,0,0,9.736,9l.534,3.112a.667.667,0,0,1-.968.7L6.506,11.348a.668.668,0,0,0-.621,0L3.09,12.818a.667.667,0,0,1-.968-.7L2.656,9a.667.667,0,0,0-.192-.591L.2,6.207a.667.667,0,0,1,.37-1.138L3.7,4.615a.667.667,0,0,0,.5-.365L5.6,1.419A.667.667,0,0,1,6.794,1.419Z" transform="translate(1502.458 763.562)" fill="#ffc400"/>
    <path id="star_2_2" data-name="star (2)" d="M6.794,1.419l1.4,2.832a.667.667,0,0,0,.5.365l3.125.454a.667.667,0,0,1,.37,1.138l-2.261,2.2A.667.667,0,0,0,9.736,9l.534,3.112a.667.667,0,0,1-.968.7L6.506,11.348a.668.668,0,0,0-.621,0L3.09,12.818a.667.667,0,0,1-.968-.7L2.656,9a.667.667,0,0,0-.192-.591L.2,6.207a.667.667,0,0,1,.37-1.138L3.7,4.615a.667.667,0,0,0,.5-.365L5.6,1.419A.667.667,0,0,1,6.794,1.419Z" transform="translate(1517.458 763.562)" fill="#ffc400"/>
    <path id="star_2_3" data-name="star (2)" d="M6.794,1.419l1.4,2.832a.667.667,0,0,0,.5.365l3.125.454a.667.667,0,0,1,.37,1.138l-2.261,2.2A.667.667,0,0,0,9.736,9l.534,3.112a.667.667,0,0,1-.968.7L6.506,11.348a.668.668,0,0,0-.621,0L3.09,12.818a.667.667,0,0,1-.968-.7L2.656,9a.667.667,0,0,0-.192-.591L.2,6.207a.667.667,0,0,1,.37-1.138L3.7,4.615a.667.667,0,0,0,.5-.365L5.6,1.419A.667.667,0,0,1,6.794,1.419Z" transform="translate(1532.458 763.562)" fill="#ffc400"/>
  </g>
</svg>
