<svg xmlns="http://www.w3.org/2000/svg" width="35" height="35" viewBox="0 0 35 35">
  <g id="Group_166" data-name="Group 166" transform="translate(-376.47 -372.156)">
    <g id="Path_427" data-name="Path 427" transform="translate(376.47 407.156) rotate(-90)" fill="none">
      <path d="M17.5,0A17.5,17.5,0,1,1,0,17.5,17.5,17.5,0,0,1,17.5,0Z" stroke="none"/>
      <path d="M 17.5 1 C 13.09268951416016 1 8.949180603027344 2.716300964355469 5.832740783691406 5.832740783691406 C 2.716300964355469 8.949180603027344 1 13.09268951416016 1 17.5 C 1 21.90731048583984 2.716300964355469 26.05081939697266 5.832740783691406 29.16725921630859 C 8.949180603027344 32.28369903564453 13.09268951416016 34 17.5 34 C 21.90731048583984 34 26.05081939697266 32.28369903564453 29.16725921630859 29.16725921630859 C 32.28369903564453 26.05081939697266 34 21.90731048583984 34 17.5 C 34 13.09268951416016 32.28369903564453 8.949180603027344 29.16725921630859 5.832740783691406 C 26.05081939697266 2.716300964355469 21.90731048583984 1 17.5 1 M 17.5 0 C 27.16497993469238 0 35 7.835020065307617 35 17.5 C 35 27.16497993469238 27.16497993469238 35 17.5 35 C 7.835020065307617 35 0 27.16497993469238 0 17.5 C 0 7.835020065307617 7.835020065307617 0 17.5 0 Z" stroke="none" fill="#f49341"/>
    </g>
    <path id="search" d="M16.148,14.573l-3.8-3.961A6.433,6.433,0,1,0,7.424,12.92a6.357,6.357,0,0,0,3.689-1.169l3.825,3.991a.838.838,0,0,0,1.187.023A.845.845,0,0,0,16.148,14.573ZM7.424,1.685A4.775,4.775,0,1,1,2.664,6.46,4.773,4.773,0,0,1,7.424,1.685Z" transform="translate(385.17 381.372)" fill="#dc3752"/>
  </g>
</svg>
