<svg xmlns="http://www.w3.org/2000/svg" xmlns:xlink="http://www.w3.org/1999/xlink" width="58" height="58" viewBox="0 0 58 58">
  <defs>
    <filter id="Ellipse_12" x="0" y="0" width="58" height="58" filterUnits="userSpaceOnUse">
      <feOffset dy="3" input="SourceAlpha"/>
      <feGaussianBlur stdDeviation="3" result="blur"/>
      <feFlood flood-color="#fe5049" flood-opacity="0.639"/>
      <feComposite operator="in" in2="blur"/>
      <feComposite in="SourceGraphic"/>
    </filter>
  </defs>
  <g id="insta-icon" transform="translate(-567 -580)">
    <g transform="matrix(1, 0, 0, 1, 567, 580)" filter="url(#Ellipse_12)">
      <circle id="Ellipse_12-2" data-name="Ellipse 12" cx="20" cy="20" r="20" transform="translate(9 6)" fill="#fe5049"/>
    </g>
    <path id="instagram_8_" data-name="instagram (8)" d="M9.463,18.562H9.279c-1.455,0-2.8-.033-4.107-.113a5.489,5.489,0,0,1-3.164-1.2A5.079,5.079,0,0,1,.3,14.5a12.209,12.209,0,0,1-.28-2.915C.012,10.9,0,10.1,0,9.283s.012-1.623.021-2.3A12.211,12.211,0,0,1,.3,4.068,5.079,5.079,0,0,1,2.008,1.312,5.489,5.489,0,0,1,5.172.115C6.48.035,7.824,0,9.282,0s2.8.034,4.107.113a5.489,5.489,0,0,1,3.164,1.2,5.078,5.078,0,0,1,1.707,2.755,12.21,12.21,0,0,1,.28,2.915c.009.678.019,1.481.021,2.3v0c0,.817-.012,1.619-.021,2.3a12.2,12.2,0,0,1-.28,2.915,5.078,5.078,0,0,1-1.707,2.755,5.489,5.489,0,0,1-3.164,1.2c-1.252.076-2.538.113-3.925.113Zm-.185-1.45c1.431,0,2.745-.033,4.022-.11a3.994,3.994,0,0,0,2.336-.874,3.661,3.661,0,0,0,1.218-1.99,11.108,11.108,0,0,0,.235-2.577c.009-.673.019-1.47.021-2.279S17.1,7.676,17.09,7a11.11,11.11,0,0,0-.235-2.577,3.661,3.661,0,0,0-1.218-1.99A4,4,0,0,0,13.3,1.562c-1.277-.078-2.591-.114-4.019-.11s-2.745.033-4.022.11a4,4,0,0,0-2.336.874,3.661,3.661,0,0,0-1.218,1.99A11.109,11.109,0,0,0,1.471,7c-.009.674-.019,1.471-.021,2.281s.012,1.6.021,2.277a11.108,11.108,0,0,0,.235,2.577,3.661,3.661,0,0,0,1.218,1.99A4,4,0,0,0,5.26,17C6.537,17.079,7.851,17.115,9.279,17.112Zm-.035-3.3a4.531,4.531,0,1,1,4.531-4.531A4.537,4.537,0,0,1,9.244,13.813Zm0-7.613a3.081,3.081,0,1,0,3.081,3.081A3.085,3.085,0,0,0,9.244,6.2Zm5.039-2.9a1.088,1.088,0,1,0,1.088,1.088A1.088,1.088,0,0,0,14.283,3.3Zm0,0" transform="translate(586.991 596.999)" fill="#fff" stroke="#fff" stroke-width="1"/>
  </g>
</svg>
