<svg xmlns="http://www.w3.org/2000/svg" width="54.472" height="48.239" viewBox="0 0 54.472 48.239">
  <g id="Group_32" data-name="Group 32" transform="translate(0)">
    <g id="Group_30" data-name="Group 30" transform="translate(0 0)">
      <g id="Group_29" data-name="Group 29">
        <path id="Path_156" data-name="Path 156" d="M188.951,360.5v22.132a1.814,1.814,0,0,1-.782,1.5c-.022.011-.044.033-.066.044l-7.234,4.459-14.942,9.2a.7.7,0,0,1-.782-.011l-2.929-1.806a.854.854,0,0,1-.418-.738V373.894a2.383,2.383,0,0,1,1.145-2.048L184.9,358.3a.9.9,0,0,1,.925-.011l2.786,1.7a.45.45,0,0,1,.1.055A.558.558,0,0,1,188.951,360.5Z" transform="translate(-134.479 -349.717)" fill="#779a0a"/>
        <path id="Path_157" data-name="Path 157" d="M188.674,360.341v22.132a1.814,1.814,0,0,1-.782,1.5c-.022.011-.044.033-.066.044l-7.234,4.459-14.942,9.2a.7.7,0,0,1-.782-.011.724.724,0,0,1-.33-.606v-21.57a2.287,2.287,0,0,1,1.068-1.927l22.231-13.7a.534.534,0,0,1,.5-.044.444.444,0,0,1,.1.055A.558.558,0,0,1,188.674,360.341Z" transform="translate(-134.202 -349.554)" fill="#c3d600"/>
        <path id="Path_158" data-name="Path 158" d="M161.123,351.052v22.132a1.814,1.814,0,0,1-.782,1.5c-.022.011-.044.033-.066.044l-7.234,4.459L138.1,388.39a.7.7,0,0,1-.782-.011.724.724,0,0,1-.33-.606V366.2a2.287,2.287,0,0,1,1.068-1.927l22.231-13.7a.534.534,0,0,1,.5-.044.449.449,0,0,1,.1.055A.558.558,0,0,1,161.123,351.052Z" transform="translate(-136.987 -350.493)" fill="#c3d600" opacity="0.3"/>
      </g>
    </g>
    <g id="Group_31" data-name="Group 31" transform="translate(35.797 19.605)">
      <path id="Path_159" data-name="Path 159" d="M183.858,368.3v1.537l-7.172,8.417-7.188.548v-1.529Z" transform="translate(-169.498 -368.298)" fill="#fff"/>
      <path id="Path_160" data-name="Path 160" d="M176.686,378.922l7.172-8.418v7.856l-14.36,8.973V379.47Z" transform="translate(-169.498 -368.075)" fill="#fff"/>
    </g>
  </g>
</svg>
