<svg xmlns="http://www.w3.org/2000/svg" width="52.181" height="52.27" viewBox="0 0 52.181 52.27">
  <g id="Group_166" data-name="Group 166" transform="translate(-820.839 -255.337)">
    <path id="Path_427" data-name="Path 427" d="M426.833,215.755v22.132a1.814,1.814,0,0,1-.782,1.5c-.022.011-.044.033-.066.044l-7.234,4.459-14.942,9.205a.7.7,0,0,1-.782-.011l-2.929-1.806a.854.854,0,0,1-.418-.738V229.145a2.383,2.383,0,0,1,1.145-2.048l21.956-13.543a.9.9,0,0,1,.925-.011l2.786,1.7a.447.447,0,0,1,.1.055A.558.558,0,0,1,426.833,215.755Z" transform="translate(421.159 41.917)" fill="#00e0c1"/>
    <path id="Path_428" data-name="Path 428" d="M426.556,215.592v22.132a1.814,1.814,0,0,1-.782,1.5c-.022.011-.044.033-.066.044l-7.234,4.459-14.942,9.205a.7.7,0,0,1-.782-.011.724.724,0,0,1-.33-.606v-21.57a2.287,2.287,0,0,1,1.068-1.927l22.231-13.7a.534.534,0,0,1,.5-.044.446.446,0,0,1,.1.055A.558.558,0,0,1,426.556,215.592Z" transform="translate(421.436 43.08)" fill="#02f5d0"/>
    <path id="Path_429" data-name="Path 429" d="M449.713,220.394v26.39a2.163,2.163,0,0,1-.933,1.786c-.026.013-.053.04-.079.053l-8.626,5.317L422.26,264.915a.83.83,0,0,1-.933-.013.863.863,0,0,1-.394-.722V238.46a2.726,2.726,0,0,1,1.274-2.3l26.507-16.332a.641.641,0,0,1,.591-.053.5.5,0,0,1,.118.066A.662.662,0,0,1,449.713,220.394Z" transform="translate(423.307 42.555)" fill="#fff" opacity="0.2"/>
    <ellipse id="Ellipse_94" data-name="Ellipse 94" cx="1.826" cy="2.105" rx="1.826" ry="2.105" transform="translate(828.918 278.361)" fill="#fff"/>
    <ellipse id="Ellipse_95" data-name="Ellipse 95" cx="1.826" cy="2.105" rx="1.826" ry="2.105" transform="translate(834.754 274.726)" fill="#fff"/>
    <ellipse id="Ellipse_96" data-name="Ellipse 96" cx="1.826" cy="2.105" rx="1.826" ry="2.105" transform="translate(840.59 271.092)" fill="#fff"/>
  </g>
</svg>
