<svg xmlns="http://www.w3.org/2000/svg" width="85.545" height="183.168" viewBox="0 0 85.545 183.168">
  <g id="Group_18" data-name="Group 18" transform="translate(0 0)" opacity="0.4">
    <g id="Group_13" data-name="Group 13" transform="translate(26.092 10.008)">
      <path id="Path_65" data-name="Path 65" d="M125.258,237.184l-.954.573c-1.414.849-2.434.112-2.049-1.48v0l-.006,0c.178-.8.081-1.521-1.041-1.721a1.738,1.738,0,0,0-1.2.308,4.765,4.765,0,0,0-2.163,3.537,1.9,1.9,0,0,0,.065.481l-.006,0h0c.389,1.127-.633,3.1-2.048,3.945l-.954.573a4.214,4.214,0,0,0-1.972,3.158v.369l14.3-8.59v-.369C127.23,236.882,126.347,236.53,125.258,237.184Zm-5.175,1.028c-.645.388-1.165.179-1.165-.459a2.482,2.482,0,0,1,1.165-1.865c.645-.388,1.165-.179,1.165.465A2.482,2.482,0,0,1,120.083,238.212Z" transform="translate(-102.697 -233.457)" fill="#bcbcbc"/>
      <path id="Path_66" data-name="Path 66" d="M138.409,237.164l-34.772,20.893v-.892c0-2.65,2.148-6.089,4.8-7.681l25.176-15.128c2.65-1.592,4.8-.734,4.8,1.915v.893Z" transform="translate(-103.637 -233.556)" fill="#d3d3d3"/>
    </g>
    <g id="Group_14" data-name="Group 14">
      <path id="Path_67" data-name="Path 67" d="M164.41,225.468l-2.144-.876-.007.013a1.83,1.83,0,0,0-1.659.134l-78.17,48.043a5.228,5.228,0,0,0-2.491,4.455V404.632a2.154,2.154,0,0,0,1.113,1.9h0a2.2,2.2,0,0,0,.48.2l1.635.671.651-1.259,77.6-47.69a4.283,4.283,0,0,0,2.039-3.648V226.333a1.838,1.838,0,0,0-.128-.649l.823.233Z" transform="translate(-79.94 -224.467)" fill="#0b4656"/>
      <path id="Path_68" data-name="Path 68" d="M165.3,227.083V355.551a4.282,4.282,0,0,1-2.039,3.648L85.1,407.234a2.177,2.177,0,0,1-3.316-1.854V277.985a5.228,5.228,0,0,1,2.491-4.455l78.171-48.043A1.873,1.873,0,0,1,165.3,227.083Z" transform="translate(-79.754 -224.392)" fill="#063444"/>
      <path id="Path_69" data-name="Path 69" d="M162.184,229.927V354.445a1.6,1.6,0,0,1-.764,1.366L85.488,402.479a.73.73,0,0,1-1.112-.622V277.529a2.331,2.331,0,0,1,1.111-1.986l75.4-46.341A.851.851,0,0,1,162.184,229.927Z" transform="translate(-79.492 -224.001)" fill="#4de4e8"/>
    </g>
    <g id="Group_17" data-name="Group 17" transform="translate(10.564 11.151)">
      <path id="Path_70" data-name="Path 70" d="M118.556,259.729v46.445a.6.6,0,0,1-.285.51L89.949,324.091a.272.272,0,0,1-.415-.232V277.485a.87.87,0,0,1,.414-.741l28.124-17.285A.317.317,0,0,1,118.556,259.729Z" transform="translate(-89.534 -232.086)" fill="#0fb1b5"/>
      <path id="Path_71" data-name="Path 71" d="M118.556,309.869v4.452a.6.6,0,0,1-.285.51L89.949,332.238a.272.272,0,0,1-.415-.232v-4.381a.87.87,0,0,1,.414-.741L118.072,309.6A.318.318,0,0,1,118.556,309.869Z" transform="translate(-89.534 -227.018)" fill="#0fb1b5"/>
      <path id="Path_72" data-name="Path 72" d="M115.317,296.555V300.1a.476.476,0,0,1-.227.405L92.558,314.351a.217.217,0,0,1-.33-.185v-3.485a.691.691,0,0,1,.329-.589l22.374-13.751A.252.252,0,0,1,115.317,296.555Z" transform="translate(-89.262 -228.357)" fill="#1cc6c6"/>
      <path id="Path_73" data-name="Path 73" d="M118.556,318.256v4.452a.6.6,0,0,1-.285.51L89.949,340.625a.272.272,0,0,1-.415-.232v-4.381a.87.87,0,0,1,.414-.741l28.124-17.285A.318.318,0,0,1,118.556,318.256Z" transform="translate(-89.534 -226.17)" fill="#0fb1b5"/>
      <path id="Path_74" data-name="Path 74" d="M112.114,330.235v4.452a.6.6,0,0,1-.285.51l-21.88,13.452a.272.272,0,0,1-.415-.232v-4.381a.869.869,0,0,1,.414-.741l21.681-13.33A.318.318,0,0,1,112.114,330.235Z" transform="translate(-89.534 -224.959)" fill="#0fb1b5"/>
      <path id="Path_75" data-name="Path 75" d="M146.036,304.644V309.1a.6.6,0,0,1-.285.51l-21.88,13.452a.272.272,0,0,1-.415-.232v-4.381a.87.87,0,0,1,.414-.741l21.681-13.33A.318.318,0,0,1,146.036,304.644Z" transform="translate(-86.105 -227.546)" fill="#0fb1b5"/>
      <path id="Path_76" data-name="Path 76" d="M146.036,316.558v4.452a.6.6,0,0,1-.285.51l-21.88,13.452a.272.272,0,0,1-.415-.232v-4.381a.869.869,0,0,1,.414-.741l21.681-13.33A.318.318,0,0,1,146.036,316.558Z" transform="translate(-86.105 -226.341)" fill="#0fb1b5"/>
      <path id="Path_77" data-name="Path 77" d="M118.556,335.03v4.452a.6.6,0,0,1-.285.51L89.949,357.4a.272.272,0,0,1-.415-.232v-4.381a.87.87,0,0,1,.414-.741l28.124-17.285A.318.318,0,0,1,118.556,335.03Z" transform="translate(-89.534 -224.474)" fill="#0fb1b5"/>
      <path id="Path_78" data-name="Path 78" d="M98.488,360.541v6.453a.868.868,0,0,1-.413.739l-6.005,3.648a.394.394,0,0,1-.6-.336v-6.351a1.26,1.26,0,0,1,.6-1.075l5.718-3.472A.46.46,0,0,1,98.488,360.541Z" transform="translate(-89.338 -221.91)" fill="#0fb1b5"/>
      <path id="Path_79" data-name="Path 79" d="M107.512,355.026v6.454a.866.866,0,0,1-.413.739l-6.005,3.648a.4.4,0,0,1-.6-.337v-6.351a1.26,1.26,0,0,1,.6-1.074l5.718-3.472A.461.461,0,0,1,107.512,355.026Z" transform="translate(-88.426 -222.467)" fill="#ffdc79"/>
      <path id="Path_80" data-name="Path 80" d="M116.536,349.512v6.453a.867.867,0,0,1-.413.739l-6.005,3.648a.394.394,0,0,1-.6-.337v-6.351a1.26,1.26,0,0,1,.6-1.074l5.718-3.472A.46.46,0,0,1,116.536,349.512Z" transform="translate(-87.514 -223.025)" fill="#fe5c99"/>
      <path id="Path_81" data-name="Path 81" d="M141.257,245.623v1.693a.6.6,0,0,1-.285.51L122,259.491a.272.272,0,0,1-.415-.232v-1.623a.87.87,0,0,1,.414-.741l18.769-11.543A.319.319,0,0,1,141.257,245.623Z" transform="translate(-86.294 -233.512)" fill="#0fb1b5"/>
      <path id="Path_82" data-name="Path 82" d="M134.291,253.972v1.693a.6.6,0,0,1-.285.51L122,263.6a.272.272,0,0,1-.415-.232v-1.623A.87.87,0,0,1,122,261l11.8-7.3A.318.318,0,0,1,134.291,253.972Z" transform="translate(-86.294 -232.668)" fill="#0fb1b5"/>
      <path id="Path_83" data-name="Path 83" d="M150.611,249.4v1.693a.6.6,0,0,1-.285.51L122,269.01a.272.272,0,0,1-.415-.232v-1.623a.87.87,0,0,1,.414-.741l28.124-17.285A.318.318,0,0,1,150.611,249.4Z" transform="translate(-86.294 -233.13)" fill="#0fb1b5"/>
      <path id="Path_84" data-name="Path 84" d="M148.087,255.263v1.693a.6.6,0,0,1-.285.51l-25.8,15.9a.272.272,0,0,1-.415-.232v-1.623a.87.87,0,0,1,.414-.741l25.6-15.778A.318.318,0,0,1,148.087,255.263Z" transform="translate(-86.294 -232.537)" fill="#0fb1b5"/>
      <path id="Path_85" data-name="Path 85" d="M136.831,266.07v1.693a.6.6,0,0,1-.285.51L122,277.225a.272.272,0,0,1-.415-.232v-1.622a.87.87,0,0,1,.414-.741l14.345-8.83A.317.317,0,0,1,136.831,266.07Z" transform="translate(-86.294 -231.445)" fill="#0fb1b5"/>
      <path id="Path_86" data-name="Path 86" d="M150.611,262.887v1.693a.6.6,0,0,1-.285.51L122,282.5a.272.272,0,0,1-.415-.232v-1.623A.87.87,0,0,1,122,279.9l28.124-17.285A.318.318,0,0,1,150.611,262.887Z" transform="translate(-86.294 -231.767)" fill="#0fb1b5"/>
      <path id="Path_87" data-name="Path 87" d="M150.611,267.383v1.693a.6.6,0,0,1-.285.51L122,286.993a.272.272,0,0,1-.415-.232v-1.623A.87.87,0,0,1,122,284.4l28.124-17.285A.318.318,0,0,1,150.611,267.383Z" transform="translate(-86.294 -231.312)" fill="#0fb1b5"/>
      <path id="Path_88" data-name="Path 88" d="M143.816,275.7v1.694a.6.6,0,0,1-.285.51L122,291.1a.272.272,0,0,1-.415-.232v-1.622a.87.87,0,0,1,.414-.741l21.328-13.082A.318.318,0,0,1,143.816,275.7Z" transform="translate(-86.294 -230.472)" fill="#0fb1b5"/>
      <path id="Path_89" data-name="Path 89" d="M150.611,276.374v1.693a.6.6,0,0,1-.285.51L122,295.984a.272.272,0,0,1-.415-.232v-1.623a.869.869,0,0,1,.414-.741L150.127,276.1A.319.319,0,0,1,150.611,276.374Z" transform="translate(-86.294 -230.403)" fill="#0fb1b5"/>
      <path id="Path_90" data-name="Path 90" d="M150.611,280.87v1.693a.6.6,0,0,1-.285.51L122,300.48a.272.272,0,0,1-.415-.232v-1.622a.869.869,0,0,1,.414-.741L150.127,280.6A.318.318,0,0,1,150.611,280.87Z" transform="translate(-86.294 -229.949)" fill="#0fb1b5"/>
      <g id="Group_15" data-name="Group 15" transform="translate(2.966 45.402)">
        <path id="Path_91" data-name="Path 91" d="M107.92,278.473c0,2.634-2.135,8.021-4.769,9.668s-4.769-1.074-4.769-3.707,2.135-6.1,4.769-7.749S107.92,275.839,107.92,278.473Z" transform="translate(-91.606 -275.828)" fill="#fff"/>
        <path id="Path_92" data-name="Path 92" d="M115.317,292.222V293L92.228,307.424v-.775c0-6.376,5.168-14.774,11.545-18.758,3.19-1.993,6.075-2.5,8.163-1.721S115.317,289.036,115.317,292.222Z" transform="translate(-92.228 -274.818)" fill="#fff"/>
      </g>
      <g id="Group_16" data-name="Group 16" transform="translate(17.909)">
        <path id="Path_93" data-name="Path 93" d="M140.571,238.2,105.8,259.094V258.2c0-2.65,2.148-6.089,4.8-7.681l25.176-15.127c2.65-1.592,4.8-.734,4.8,1.915v.892Z" transform="translate(-105.799 -234.594)" fill="#fff"/>
        <path id="Path_94" data-name="Path 94" d="M127.419,238.222l-.954.573c-1.414.849-2.434.112-2.049-1.48v0l-.006,0c.178-.8.081-1.522-1.039-1.721a1.736,1.736,0,0,0-1.2.308,4.765,4.765,0,0,0-2.163,3.537,1.9,1.9,0,0,0,.065.481l-.005,0h0c.389,1.128-.633,3.1-2.048,3.945l-.954.574A4.213,4.213,0,0,0,115.1,247.6v.369l14.3-8.59v-.369C129.392,237.919,128.509,237.567,127.419,238.222Zm-5.175,1.028c-.645.388-1.165.179-1.165-.459a2.482,2.482,0,0,1,1.165-1.865c.645-.388,1.165-.179,1.165.465A2.482,2.482,0,0,1,122.244,239.25Z" transform="translate(-104.859 -234.495)" fill="#eaeaea"/>
      </g>
      <path id="Path_95" data-name="Path 95" d="M149.079,258.33v1.693a.6.6,0,0,1-.285.51l-11.632,7.224a.272.272,0,0,1-.415-.232V265.9a.87.87,0,0,1,.414-.741l11.434-7.1A.32.32,0,0,1,149.079,258.33Z" transform="translate(-84.762 -232.227)" fill="#0fb1b5"/>
    </g>
  </g>
</svg>
