<svg xmlns="http://www.w3.org/2000/svg" width="85.546" height="183.169" viewBox="0 0 85.546 183.169">
  <g id="Group_12" data-name="Group 12" transform="translate(0 0)" opacity="0.6">
    <g id="Group_7" data-name="Group 7" transform="translate(26.093 10.008)">
      <path id="Path_34" data-name="Path 34" d="M342.14,104.358l-.953.573c-1.414.849-2.435.112-2.049-1.48v0l-.006,0c.178-.8.082-1.521-1.039-1.721a1.736,1.736,0,0,0-1.2.308,4.765,4.765,0,0,0-2.163,3.537,1.9,1.9,0,0,0,.065.481l-.005,0h0c.389,1.128-.633,3.1-2.048,3.946l-.954.573a4.215,4.215,0,0,0-1.973,3.158v.369l14.3-8.59v-.369C344.113,104.056,343.23,103.7,342.14,104.358Zm-5.175,1.028c-.645.388-1.165.179-1.165-.459a2.485,2.485,0,0,1,1.165-1.865c.645-.388,1.165-.179,1.165.465A2.482,2.482,0,0,1,336.965,105.386Z" transform="translate(-319.579 -100.631)" fill="#bcbcbc"/>
      <path id="Path_35" data-name="Path 35" d="M355.291,104.338l-34.772,20.893v-.892c0-2.65,2.148-6.089,4.8-7.681l25.176-15.128c2.65-1.592,4.8-.734,4.8,1.915v.893Z" transform="translate(-320.519 -100.73)" fill="#d3d3d3"/>
    </g>
    <g id="Group_8" data-name="Group 8">
      <path id="Path_36" data-name="Path 36" d="M381.293,92.642l-2.144-.876-.007.013a1.83,1.83,0,0,0-1.659.134l-78.171,48.043a5.228,5.228,0,0,0-2.491,4.455V271.806a2.154,2.154,0,0,0,1.113,1.9h0a2.2,2.2,0,0,0,.48.2l1.635.671.651-1.259,77.6-47.69a4.281,4.281,0,0,0,2.039-3.648V93.507a1.837,1.837,0,0,0-.128-.649l.823.235Z" transform="translate(-296.821 -91.641)" fill="#0b4656"/>
      <path id="Path_37" data-name="Path 37" d="M382.181,94.257V222.726a4.283,4.283,0,0,1-2.039,3.648l-78.159,48.036a2.177,2.177,0,0,1-3.316-1.854V145.16a5.231,5.231,0,0,1,2.491-4.455l78.171-48.043A1.873,1.873,0,0,1,382.181,94.257Z" transform="translate(-296.635 -91.566)" fill="#063444"/>
      <path id="Path_38" data-name="Path 38" d="M379.066,97.1V221.619a1.6,1.6,0,0,1-.764,1.366L302.37,269.653a.73.73,0,0,1-1.113-.622V144.7a2.331,2.331,0,0,1,1.111-1.986l75.4-46.341A.852.852,0,0,1,379.066,97.1Z" transform="translate(-296.373 -91.175)" fill="#4de4e8"/>
    </g>
    <g id="Group_11" data-name="Group 11" transform="translate(10.565 11.15)">
      <path id="Path_39" data-name="Path 39" d="M335.438,126.9v46.445a.6.6,0,0,1-.285.51l-28.322,17.407a.272.272,0,0,1-.415-.232V144.658a.87.87,0,0,1,.414-.741l28.124-17.285A.318.318,0,0,1,335.438,126.9Z" transform="translate(-306.416 -99.259)" fill="#0fb1b5"/>
      <path id="Path_40" data-name="Path 40" d="M335.438,177.043v4.452a.6.6,0,0,1-.285.51l-28.322,17.407a.272.272,0,0,1-.415-.232V194.8a.869.869,0,0,1,.414-.741l28.124-17.285A.318.318,0,0,1,335.438,177.043Z" transform="translate(-306.416 -94.19)" fill="#0fb1b5"/>
      <path id="Path_41" data-name="Path 41" d="M332.2,163.729v3.542a.475.475,0,0,1-.227.405l-22.533,13.848a.217.217,0,0,1-.33-.185v-3.485a.691.691,0,0,1,.329-.589l22.374-13.751A.253.253,0,0,1,332.2,163.729Z" transform="translate(-306.144 -95.53)" fill="#1cc6c6"/>
      <path id="Path_42" data-name="Path 42" d="M335.438,185.43v4.452a.6.6,0,0,1-.285.51L306.831,207.8a.272.272,0,0,1-.415-.232v-4.381a.869.869,0,0,1,.414-.741l28.124-17.285A.318.318,0,0,1,335.438,185.43Z" transform="translate(-306.416 -93.343)" fill="#0fb1b5"/>
      <path id="Path_43" data-name="Path 43" d="M329,197.409v4.452a.6.6,0,0,1-.285.51l-21.88,13.452a.272.272,0,0,1-.415-.232v-4.381a.869.869,0,0,1,.414-.741l21.681-13.33A.318.318,0,0,1,329,197.409Z" transform="translate(-306.416 -92.132)" fill="#0fb1b5"/>
      <path id="Path_44" data-name="Path 44" d="M362.918,171.818v4.452a.6.6,0,0,1-.285.51l-21.88,13.452a.272.272,0,0,1-.415-.232v-4.381a.87.87,0,0,1,.414-.741l21.681-13.33A.318.318,0,0,1,362.918,171.818Z" transform="translate(-302.987 -94.719)" fill="#0fb1b5"/>
      <path id="Path_45" data-name="Path 45" d="M362.918,183.732v4.452a.6.6,0,0,1-.285.51l-21.88,13.452a.272.272,0,0,1-.415-.232v-4.381a.87.87,0,0,1,.414-.741l21.681-13.33A.318.318,0,0,1,362.918,183.732Z" transform="translate(-302.987 -93.514)" fill="#0fb1b5"/>
      <path id="Path_46" data-name="Path 46" d="M335.438,202.2v4.452a.6.6,0,0,1-.285.51l-28.322,17.407a.272.272,0,0,1-.415-.232v-4.381a.87.87,0,0,1,.414-.741l28.124-17.285A.318.318,0,0,1,335.438,202.2Z" transform="translate(-306.416 -91.647)" fill="#0fb1b5"/>
      <path id="Path_47" data-name="Path 47" d="M315.37,227.715v6.453a.866.866,0,0,1-.413.739l-6.005,3.648a.4.4,0,0,1-.6-.336v-6.351a1.26,1.26,0,0,1,.6-1.075l5.718-3.472A.461.461,0,0,1,315.37,227.715Z" transform="translate(-306.22 -89.083)" fill="#0fb1b5"/>
      <path id="Path_48" data-name="Path 48" d="M324.394,222.2v6.453a.867.867,0,0,1-.413.739l-6.005,3.648a.394.394,0,0,1-.6-.336v-6.351a1.26,1.26,0,0,1,.6-1.074l5.718-3.472A.46.46,0,0,1,324.394,222.2Z" transform="translate(-305.308 -89.64)" fill="#ffdc79"/>
      <path id="Path_49" data-name="Path 49" d="M333.418,216.685v6.453a.867.867,0,0,1-.413.739L327,227.526a.4.4,0,0,1-.6-.337v-6.351a1.263,1.263,0,0,1,.6-1.075l5.718-3.472A.462.462,0,0,1,333.418,216.685Z" transform="translate(-304.396 -90.198)" fill="#fe5c99"/>
      <path id="Path_50" data-name="Path 50" d="M358.139,112.8v1.693a.6.6,0,0,1-.285.51l-18.968,11.665a.272.272,0,0,1-.415-.232V124.81a.87.87,0,0,1,.414-.741l18.769-11.543A.319.319,0,0,1,358.139,112.8Z" transform="translate(-303.176 -100.684)" fill="#0fb1b5"/>
      <path id="Path_51" data-name="Path 51" d="M351.173,121.146v1.693a.6.6,0,0,1-.285.51l-12,7.422a.272.272,0,0,1-.415-.232v-1.623a.87.87,0,0,1,.414-.741l11.8-7.3A.318.318,0,0,1,351.173,121.146Z" transform="translate(-303.176 -99.841)" fill="#0fb1b5"/>
      <path id="Path_52" data-name="Path 52" d="M367.493,116.574v1.693a.6.6,0,0,1-.285.51l-28.322,17.407a.272.272,0,0,1-.415-.232V134.33a.87.87,0,0,1,.414-.741L367.009,116.3A.317.317,0,0,1,367.493,116.574Z" transform="translate(-303.176 -100.303)" fill="#0fb1b5"/>
      <path id="Path_53" data-name="Path 53" d="M364.969,122.437v1.693a.6.6,0,0,1-.285.51l-25.8,15.9a.272.272,0,0,1-.415-.232v-1.623a.87.87,0,0,1,.414-.741l25.6-15.778A.318.318,0,0,1,364.969,122.437Z" transform="translate(-303.176 -99.71)" fill="#0fb1b5"/>
      <path id="Path_54" data-name="Path 54" d="M353.713,133.244v1.693a.6.6,0,0,1-.285.51L338.885,144.4a.272.272,0,0,1-.415-.232v-1.622a.87.87,0,0,1,.414-.741l14.345-8.83A.318.318,0,0,1,353.713,133.244Z" transform="translate(-303.176 -98.618)" fill="#0fb1b5"/>
      <path id="Path_55" data-name="Path 55" d="M367.493,130.061v1.693a.6.6,0,0,1-.285.51l-28.322,17.407a.272.272,0,0,1-.415-.232v-1.622a.87.87,0,0,1,.414-.741l28.124-17.285A.317.317,0,0,1,367.493,130.061Z" transform="translate(-303.176 -98.939)" fill="#0fb1b5"/>
      <path id="Path_56" data-name="Path 56" d="M367.493,134.557v1.693a.6.6,0,0,1-.285.51l-28.322,17.407a.272.272,0,0,1-.415-.232v-1.622a.87.87,0,0,1,.414-.741l28.124-17.285A.317.317,0,0,1,367.493,134.557Z" transform="translate(-303.176 -98.485)" fill="#0fb1b5"/>
      <path id="Path_57" data-name="Path 57" d="M360.7,142.87v1.693a.6.6,0,0,1-.285.51l-21.527,13.2a.272.272,0,0,1-.415-.232v-1.623a.87.87,0,0,1,.414-.741L360.213,142.6A.318.318,0,0,1,360.7,142.87Z" transform="translate(-303.176 -97.645)" fill="#0fb1b5"/>
      <path id="Path_58" data-name="Path 58" d="M367.493,143.548v1.693a.6.6,0,0,1-.285.51l-28.322,17.407a.272.272,0,0,1-.415-.232V161.3a.87.87,0,0,1,.414-.741l28.124-17.285A.318.318,0,0,1,367.493,143.548Z" transform="translate(-303.176 -97.576)" fill="#0fb1b5"/>
      <path id="Path_59" data-name="Path 59" d="M367.493,148.044v1.693a.6.6,0,0,1-.285.51l-28.322,17.407a.272.272,0,0,1-.415-.232V165.8a.87.87,0,0,1,.414-.741l28.124-17.285A.317.317,0,0,1,367.493,148.044Z" transform="translate(-303.176 -97.122)" fill="#0fb1b5"/>
      <g id="Group_9" data-name="Group 9" transform="translate(2.966 45.403)">
        <path id="Path_60" data-name="Path 60" d="M324.8,145.647c0,2.634-2.135,8.021-4.769,9.667s-4.769-1.074-4.769-3.707,2.135-6.1,4.769-7.749S324.8,143.013,324.8,145.647Z" transform="translate(-308.488 -143.002)" fill="#fff"/>
        <path id="Path_61" data-name="Path 61" d="M332.2,159.4v.775L309.11,174.6v-.775c0-6.376,5.168-14.774,11.545-18.758,3.19-1.993,6.075-2.5,8.163-1.721S332.2,156.21,332.2,159.4Z" transform="translate(-309.11 -141.992)" fill="#fff"/>
      </g>
      <g id="Group_10" data-name="Group 10" transform="translate(17.909)">
        <path id="Path_62" data-name="Path 62" d="M357.453,105.375l-34.772,20.893v-.892c0-2.65,2.148-6.089,4.8-7.681l25.176-15.128c2.65-1.592,4.8-.734,4.8,1.915v.893Z" transform="translate(-322.681 -101.767)" fill="#fff"/>
        <path id="Path_63" data-name="Path 63" d="M344.3,105.395l-.954.573c-1.414.849-2.434.112-2.049-1.48v0l-.006,0c.178-.8.081-1.521-1.039-1.721a1.74,1.74,0,0,0-1.2.307,4.765,4.765,0,0,0-2.163,3.537,1.9,1.9,0,0,0,.065.481l-.006,0h0c.389,1.128-.633,3.1-2.048,3.945l-.954.574a4.216,4.216,0,0,0-1.972,3.158v.369l14.3-8.59v-.369C346.274,105.093,345.391,104.741,344.3,105.395Zm-5.176,1.03c-.645.388-1.165.179-1.165-.459a2.482,2.482,0,0,1,1.165-1.865c.645-.388,1.165-.179,1.165.465A2.481,2.481,0,0,1,339.126,106.424Z" transform="translate(-321.741 -101.668)" fill="#eaeaea"/>
      </g>
      <path id="Path_64" data-name="Path 64" d="M365.961,125.5V127.2a.6.6,0,0,1-.285.51l-11.631,7.224a.272.272,0,0,1-.415-.232v-1.622a.873.873,0,0,1,.414-.741l11.433-7.1A.317.317,0,0,1,365.961,125.5Z" transform="translate(-301.644 -99.4)" fill="#0fb1b5"/>
    </g>
  </g>
</svg>
