<svg xmlns="http://www.w3.org/2000/svg" width="222.756" height="366.087" viewBox="0 0 222.756 366.087">
  <g id="_495070-PHE69V-864" data-name="495070-PHE69V-864" transform="translate(-46.794)">
    <g id="Group_19" data-name="Group 19" transform="translate(0 18.241)">
      <g id="Group_6" data-name="Group 6" transform="translate(100.772 28.643)">
        <g id="Group_1" data-name="Group 1" transform="translate(37.726 14.471)">
          <path id="Path_3" data-name="Path 3" d="M236.983,136.041l-1.379.828c-2.044,1.228-3.52.162-2.963-2.139v-.007l-.008,0c.258-1.153.118-2.2-1.5-2.487a2.511,2.511,0,0,0-1.732.445,6.891,6.891,0,0,0-3.127,5.113,2.748,2.748,0,0,0,.094.7l-.008,0h0c.562,1.63-.916,4.476-2.962,5.7l-1.379.828a6.094,6.094,0,0,0-2.852,4.565v.533l20.668-12.419v-.533C239.834,135.6,238.558,135.1,236.983,136.041Zm-7.482,1.488c-.933.56-1.685.26-1.685-.665a3.59,3.59,0,0,1,1.685-2.7c.933-.56,1.685-.26,1.685.673A3.59,3.59,0,0,1,229.5,137.529Z" transform="translate(-204.365 -130.654)" fill="#bcbcbc"/>
          <path id="Path_4" data-name="Path 4" d="M256,136.013,205.724,166.22v-1.289c0-3.832,3.106-8.8,6.937-11.105l36.4-21.871c3.832-2.3,6.937-1.063,6.937,2.769Z" transform="translate(-205.724 -130.797)" fill="#d3d3d3"/>
        </g>
        <g id="Group_2" data-name="Group 2">
          <path id="Path_5" data-name="Path 5" d="M293.59,119.1l-3.1-1.267-.01.019a2.648,2.648,0,0,0-2.4.194L175.063,187.508a7.561,7.561,0,0,0-3.6,6.44V378.134a3.117,3.117,0,0,0,1.61,2.746h0a3.2,3.2,0,0,0,.694.284l2.364.969.941-1.819,112.187-68.95a6.191,6.191,0,0,0,2.949-5.274V120.354a2.683,2.683,0,0,0-.184-.937l1.189.338Z" transform="translate(-171.461 -117.654)" fill="#0b4656"/>
          <path id="Path_6" data-name="Path 6" d="M294.873,121.438V307.177a6.189,6.189,0,0,1-2.949,5.273l-113,69.451a3.147,3.147,0,0,1-4.794-2.681V195.033a7.557,7.557,0,0,1,3.6-6.44L290.75,119.132A2.706,2.706,0,0,1,294.873,121.438Z" transform="translate(-171.191 -117.546)" fill="#063444"/>
          <path id="Path_7" data-name="Path 7" d="M290.369,125.55V305.577a2.319,2.319,0,0,1-1.1,1.975L179.483,375.023a1.056,1.056,0,0,1-1.609-.9V194.372a3.37,3.37,0,0,1,1.605-2.872l109.014-67A1.231,1.231,0,0,1,290.369,125.55Z" transform="translate(-170.813 -116.981)" fill="#4de4e8"/>
        </g>
        <g id="Group_5" data-name="Group 5" transform="translate(15.274 16.123)">
          <path id="Path_8" data-name="Path 8" d="M227.293,168.636v67.149a.866.866,0,0,1-.412.737l-40.948,25.166a.394.394,0,0,1-.6-.336V194.306a1.258,1.258,0,0,1,.6-1.071l40.662-24.99A.46.46,0,0,1,227.293,168.636Z" transform="translate(-185.333 -128.67)" fill="#0fb1b5"/>
          <path id="Path_9" data-name="Path 9" d="M227.293,241.129v6.437a.866.866,0,0,1-.412.737l-40.948,25.166a.394.394,0,0,1-.6-.336V266.8a1.258,1.258,0,0,1,.6-1.071l40.662-24.99A.459.459,0,0,1,227.293,241.129Z" transform="translate(-185.333 -121.343)" fill="#0fb1b5"/>
          <path id="Path_10" data-name="Path 10" d="M222.61,221.88V227a.687.687,0,0,1-.328.586L189.7,247.606a.313.313,0,0,1-.478-.266V242.3a1,1,0,0,1,.477-.852l32.349-19.881A.366.366,0,0,1,222.61,221.88Z" transform="translate(-184.939 -123.279)" fill="#1cc6c6"/>
          <path id="Path_11" data-name="Path 11" d="M227.293,253.255v6.437a.866.866,0,0,1-.412.737L185.933,285.6a.394.394,0,0,1-.6-.336v-6.333a1.258,1.258,0,0,1,.6-1.071l40.662-24.99A.459.459,0,0,1,227.293,253.255Z" transform="translate(-185.333 -120.117)" fill="#0fb1b5"/>
          <path id="Path_12" data-name="Path 12" d="M217.979,270.575v6.437a.866.866,0,0,1-.412.737L185.933,297.2a.394.394,0,0,1-.6-.336v-6.333a1.258,1.258,0,0,1,.6-1.071l31.348-19.272A.459.459,0,0,1,217.979,270.575Z" transform="translate(-185.333 -118.366)" fill="#0fb1b5"/>
          <path id="Path_13" data-name="Path 13" d="M267.024,233.575v6.437a.866.866,0,0,1-.412.737L234.978,260.2a.394.394,0,0,1-.6-.336v-6.333a1.258,1.258,0,0,1,.6-1.071l31.348-19.272A.459.459,0,0,1,267.024,233.575Z" transform="translate(-180.376 -122.106)" fill="#0fb1b5"/>
          <path id="Path_14" data-name="Path 14" d="M267.024,250.8v6.437a.866.866,0,0,1-.412.737l-31.634,19.448a.394.394,0,0,1-.6-.336v-6.333a1.258,1.258,0,0,1,.6-1.071l31.348-19.272A.459.459,0,0,1,267.024,250.8Z" transform="translate(-180.376 -120.365)" fill="#0fb1b5"/>
          <path id="Path_15" data-name="Path 15" d="M227.293,277.507v6.437a.866.866,0,0,1-.412.737l-40.948,25.166a.394.394,0,0,1-.6-.336v-6.333a1.258,1.258,0,0,1,.6-1.071l40.662-24.99A.459.459,0,0,1,227.293,277.507Z" transform="translate(-185.333 -117.665)" fill="#0fb1b5"/>
          <path id="Path_16" data-name="Path 16" d="M198.279,314.39v9.331a1.253,1.253,0,0,1-.6,1.068L189,330.063a.571.571,0,0,1-.87-.487v-9.182a1.823,1.823,0,0,1,.869-1.553l8.267-5.019A.665.665,0,0,1,198.279,314.39Z" transform="translate(-185.05 -113.958)" fill="#0fb1b5"/>
          <path id="Path_17" data-name="Path 17" d="M211.326,306.417v9.331a1.253,1.253,0,0,1-.6,1.068l-8.682,5.274a.571.571,0,0,1-.87-.487v-9.182a1.823,1.823,0,0,1,.869-1.553l8.267-5.019A.665.665,0,0,1,211.326,306.417Z" transform="translate(-183.731 -114.764)" fill="#ffdc79"/>
          <path id="Path_18" data-name="Path 18" d="M224.373,298.444v9.331a1.253,1.253,0,0,1-.6,1.068l-8.682,5.274a.571.571,0,0,1-.87-.487v-9.182a1.823,1.823,0,0,1,.869-1.553l8.267-5.019A.665.665,0,0,1,224.373,298.444Z" transform="translate(-182.413 -115.57)" fill="#fe5c99"/>
          <path id="Path_19" data-name="Path 19" d="M260.112,148.243v2.449a.866.866,0,0,1-.412.737l-27.424,16.864a.394.394,0,0,1-.6-.336v-2.345a1.258,1.258,0,0,1,.6-1.071l27.137-16.688A.459.459,0,0,1,260.112,148.243Z" transform="translate(-180.649 -130.732)" fill="#0fb1b5"/>
          <path id="Path_20" data-name="Path 20" d="M250.043,160.313v2.449a.866.866,0,0,1-.412.737L232.278,174.23a.394.394,0,0,1-.6-.336v-2.345a1.258,1.258,0,0,1,.6-1.071l17.067-10.555A.459.459,0,0,1,250.043,160.313Z" transform="translate(-180.648 -129.511)" fill="#0fb1b5"/>
          <path id="Path_21" data-name="Path 21" d="M273.638,153.7v2.449a.866.866,0,0,1-.412.737l-40.948,25.166a.394.394,0,0,1-.6-.336v-2.345a1.258,1.258,0,0,1,.6-1.071l40.662-24.99A.459.459,0,0,1,273.638,153.7Z" transform="translate(-180.648 -130.18)" fill="#0fb1b5"/>
          <path id="Path_22" data-name="Path 22" d="M269.988,162.18v2.449a.866.866,0,0,1-.412.737l-37.3,22.989a.394.394,0,0,1-.6-.336v-2.345a1.258,1.258,0,0,1,.6-1.071l37.012-22.813A.459.459,0,0,1,269.988,162.18Z" transform="translate(-180.649 -129.323)" fill="#0fb1b5"/>
          <path id="Path_23" data-name="Path 23" d="M253.716,177.805v2.449a.866.866,0,0,1-.412.737l-21.026,12.942a.394.394,0,0,1-.6-.336v-2.345a1.258,1.258,0,0,1,.6-1.071l20.74-12.766A.459.459,0,0,1,253.716,177.805Z" transform="translate(-180.648 -127.743)" fill="#0fb1b5"/>
          <path id="Path_24" data-name="Path 24" d="M273.638,173.2v2.449a.866.866,0,0,1-.412.737l-40.948,25.166a.394.394,0,0,1-.6-.336v-2.345a1.258,1.258,0,0,1,.6-1.071l40.662-24.99A.459.459,0,0,1,273.638,173.2Z" transform="translate(-180.648 -128.209)" fill="#0fb1b5"/>
          <path id="Path_25" data-name="Path 25" d="M273.638,179.7v2.449a.866.866,0,0,1-.412.737l-40.948,25.166a.394.394,0,0,1-.6-.336v-2.345a1.258,1.258,0,0,1,.6-1.071l40.662-24.99A.459.459,0,0,1,273.638,179.7Z" transform="translate(-180.648 -127.552)" fill="#0fb1b5"/>
          <path id="Path_26" data-name="Path 26" d="M263.813,191.722v2.449a.866.866,0,0,1-.412.737L232.278,214a.394.394,0,0,1-.6-.336v-2.345a1.258,1.258,0,0,1,.6-1.071l30.837-18.913A.459.459,0,0,1,263.813,191.722Z" transform="translate(-180.648 -126.337)" fill="#0fb1b5"/>
          <path id="Path_27" data-name="Path 27" d="M273.638,192.7v2.449a.866.866,0,0,1-.412.737l-40.948,25.166a.394.394,0,0,1-.6-.336v-2.345a1.258,1.258,0,0,1,.6-1.071l40.662-24.99A.459.459,0,0,1,273.638,192.7Z" transform="translate(-180.648 -126.237)" fill="#0fb1b5"/>
          <path id="Path_28" data-name="Path 28" d="M273.638,199.2v2.449a.866.866,0,0,1-.412.737l-40.948,25.166a.394.394,0,0,1-.6-.336v-2.345a1.258,1.258,0,0,1,.6-1.071l40.662-24.99A.459.459,0,0,1,273.638,199.2Z" transform="translate(-180.648 -125.58)" fill="#0fb1b5"/>
          <g id="Group_3" data-name="Group 3" transform="translate(4.289 65.642)">
            <path id="Path_29" data-name="Path 29" d="M211.915,195.736c0,3.808-3.087,11.6-6.895,13.976s-6.895-1.551-6.895-5.359,3.087-8.824,6.895-11.2S211.915,191.928,211.915,195.736Z" transform="translate(-188.329 -191.913)" fill="#fff"/>
            <path id="Path_30" data-name="Path 30" d="M222.609,215.615v1.121l-33.381,20.859v-1.121c0-9.218,7.473-21.36,16.691-27.121,4.612-2.882,8.783-3.62,11.8-2.487S222.609,211.009,222.609,215.615Z" transform="translate(-189.228 -190.453)" fill="#fff"/>
          </g>
          <g id="Group_4" data-name="Group 4" transform="translate(25.893)">
            <path id="Path_31" data-name="Path 31" d="M259.122,137.513,208.849,167.72V166.43c0-3.832,3.106-8.8,6.937-11.105l36.4-21.871c3.832-2.3,6.937-1.063,6.937,2.769Z" transform="translate(-208.849 -132.297)" fill="#fff"/>
            <path id="Path_32" data-name="Path 32" d="M240.108,137.541l-1.379.828c-2.044,1.228-3.52.162-2.963-2.139v-.007l-.008,0c.258-1.153.118-2.2-1.5-2.487a2.511,2.511,0,0,0-1.732.445A6.891,6.891,0,0,0,229.4,139.3a2.749,2.749,0,0,0,.094.7l-.008,0h0c.562,1.63-.916,4.476-2.962,5.7l-1.379.828a6.094,6.094,0,0,0-2.852,4.565v.533l20.668-12.419v-.533C242.959,137.1,241.683,136.6,240.108,137.541Zm-7.482,1.488c-.933.56-1.685.26-1.685-.665a3.59,3.59,0,0,1,1.685-2.7c.933-.56,1.685-.26,1.685.673A3.59,3.59,0,0,1,232.626,139.029Z" transform="translate(-207.49 -132.154)" fill="#eaeaea"/>
          </g>
          <path id="Path_33" data-name="Path 33" d="M271.423,166.615v2.449a.866.866,0,0,1-.412.737l-16.817,10.445a.394.394,0,0,1-.6-.336v-2.345a1.258,1.258,0,0,1,.6-1.071l16.529-10.269A.459.459,0,0,1,271.423,166.615Z" transform="translate(-178.433 -128.874)" fill="#0fb1b5"/>
        </g>
      </g>
    </g>
    <g id="Group_20" data-name="Group 20" transform="translate(145.094 284.893)">
      <path id="Path_96" data-name="Path 96" d="M310.767,377.732,264.539,405.6a5.32,5.32,0,0,1-5.521-.017l-46.452-28.378a1.778,1.778,0,0,1,.009-3.039l47.191-28.452a4.586,4.586,0,0,1,4.759.014l46.253,28.257A2.19,2.19,0,0,1,310.767,377.732Z" transform="translate(-211.714 -332.677)" fill="#076d6d" opacity="0.5"/>
      <path id="Path_97" data-name="Path 97" d="M311.809,364.47a2.155,2.155,0,0,0-1.031-1.728l-46.253-28.256a4.586,4.586,0,0,0-4.759-.014l-47.192,28.451a1.76,1.76,0,0,0-.857,1.544h0v7.73l.04.006a1.745,1.745,0,0,0,.811,1.193l46.452,28.378a5.323,5.323,0,0,0,5.521.017l46.228-27.871a2.16,2.16,0,0,0,1.041-2.021h.018v-7.432Z" transform="translate(-211.714 -333.814)" fill="#ededed"/>
      <path id="Path_98" data-name="Path 98" d="M310.767,366.486l-46.228,27.87a5.32,5.32,0,0,1-5.521-.016l-46.452-28.378a1.778,1.778,0,0,1,.009-3.039l47.191-28.451a4.586,4.586,0,0,1,4.759.014l46.253,28.257A2.189,2.189,0,0,1,310.767,366.486Z" transform="translate(-211.714 -333.814)" fill="#fff"/>
    </g>
    <g id="Group_21" data-name="Group 21" transform="translate(135.153 311.105)">
      <path id="Path_99" data-name="Path 99" d="M202.686,387.5l30.22,18.474,6.364-3.843-30.22-18.474Z" transform="translate(-202.686 -354.988)" fill="#076d6d" opacity="0.5"/>
      <path id="Path_100" data-name="Path 100" d="M236.5,374.4V399.57l-6.364,3.832v-25.16Z" transform="translate(-199.912 -355.924)" fill="#063444"/>
      <path id="Path_101" data-name="Path 101" d="M209.05,357.62v25.171l-6.364,3.832v-25.16Z" transform="translate(-202.686 -357.62)" fill="#022636"/>
      <path id="Path_102" data-name="Path 102" d="M236.5,374.4V399.57l-6.364,3.832v-25.16Z" transform="translate(-199.912 -355.924)" fill="#063444"/>
      <path id="Path_103" data-name="Path 103" d="M202.686,361.463l30.22,18.475,6.364-3.843L209.05,357.62Z" transform="translate(-202.686 -357.62)" fill="#0b4656"/>
      <path id="Path_104" data-name="Path 104" d="M232.911,404.745l-30.22-18.475V361.11l30.22,18.475Z" transform="translate(-202.686 -357.267)" fill="#022636"/>
      <path id="Path_105" data-name="Path 105" d="M202.686,361.11l15.11,21.817,15.11-3.342Z" transform="translate(-202.686 -357.267)" fill="#063444"/>
      <path id="Path_106" data-name="Path 106" d="M226.04,366.82v4.955a.816.816,0,0,1-.54.771.827.827,0,0,1-.286.055.818.818,0,0,1-.826-.826V366.82a1.364,1.364,0,0,0-.65-1.156l-7.564-4.625a.523.523,0,0,0-.551-.011.4.4,0,0,0-.11.077.135.135,0,0,1-.033.022.556.556,0,0,0-.132.374v3.744a.831.831,0,0,1-.517.76.739.739,0,0,1-.308.066.825.825,0,0,1-.826-.826V361.5a2.147,2.147,0,0,1,1.123-1.916,1.713,1.713,0,0,1,.54-.209,2.1,2.1,0,0,1,1.674.253l7.564,4.625A3.009,3.009,0,0,1,226.04,366.82Z" transform="translate(-201.573 -357.45)" fill="#82441d"/>
      <path id="Path_107" data-name="Path 107" d="M218.017,380.116v2.571l-.57.343v-2.569Z" transform="translate(-201.194 -355.346)" fill="#f7aa57"/>
      <path id="Path_108" data-name="Path 108" d="M214.646,378.75l3.084,1.884.57-.345-3.084-1.883Z" transform="translate(-201.477 -355.519)" fill="#f4b77a"/>
      <path id="Path_109" data-name="Path 109" d="M217.73,383.171l-3.084-1.885v-2.568l3.084,1.884Z" transform="translate(-201.477 -355.487)" fill="#eca140"/>
      <path id="Path_110" data-name="Path 110" d="M225.887,366.82v4.955a.816.816,0,0,1-.54.771V367.58a3.392,3.392,0,0,0-.738-2.477l-9.4-5.726a2.1,2.1,0,0,1,1.674.253l7.564,4.625A3.009,3.009,0,0,1,225.887,366.82Z" transform="translate(-201.42 -357.45)" fill="#9b5934"/>
      <path id="Path_111" data-name="Path 111" d="M215.377,360.961a.556.556,0,0,0-.132.374v3.744a.831.831,0,0,1-.518.76v-3.81A1.273,1.273,0,0,1,215.377,360.961Z" transform="translate(-201.469 -357.282)" fill="#9b5934"/>
    </g>
    <g id="Group_22" data-name="Group 22" transform="translate(170.944 137.64)">
      <path id="Path_112" data-name="Path 112" d="M238.543,363.7s.479,1.9.754,3.51.361,3.664.545,5.362a23.035,23.035,0,0,0,2.5,6.762,6.584,6.584,0,0,0,3.554,2.529,11.487,11.487,0,0,0,5.472-.109,2.646,2.646,0,0,0,1.4-1.4" transform="translate(-234.853 -183.54)" fill="#190b05"/>
      <path id="Path_113" data-name="Path 113" d="M278.678,358.475c0,1.057-1.575,1.795-3.193,1.927a16.189,16.189,0,0,1-5.24-.732,25.984,25.984,0,0,1-4.064-1.536,5.233,5.233,0,0,0-2.984-.264s0,.176-.011.374a13.726,13.726,0,0,1-7.278-1.222c-.011,0-.011-.011-.022-.011s-.033-.837.022-1.553c.033-.617.143-1.519.143-1.519l22.627,3.777v.76Z" transform="translate(-233.101 -184.527)" fill="#190b05"/>
      <path id="Path_114" data-name="Path 114" d="M253.42,378.637c-.022.2-.055.4-.088.584a2.843,2.843,0,0,1-1.949,2.29c-2.125.727-6.056.341-7.994-1.762s-3.314-7.52-3.314-10.758a14.415,14.415,0,0,0-1.7-6.232h8.809a2.149,2.149,0,0,1,.209.286c1.519,2.125,5.472,10.207,5.858,12.817A12.413,12.413,0,0,1,253.42,378.637Z" transform="translate(-234.869 -183.635)" fill="#7f391b"/>
      <path id="Path_115" data-name="Path 115" d="M252.646,378.61a.443.443,0,0,1-.088-.22c-.385-2.1-2.4-6.155-3.468-8.291s-3.061-6.023-3.061-6.023.264-.462.595-1.057c1.52,2.125,5.472,10.207,5.858,12.817A12.411,12.411,0,0,1,252.646,378.61Z" transform="translate(-234.096 -183.609)" fill="#934b32"/>
      <path id="Path_116" data-name="Path 116" d="M253.333,379.216a2.843,2.843,0,0,1-1.949,2.29c-2.125.727-6.056.341-7.994-1.762s-3.314-7.52-3.314-10.758a14.415,14.415,0,0,0-1.7-6.232h3.579l.286,1.861s.1,7.52,1.883,11.242a7.2,7.2,0,0,0,6.474,4.4c1.42-.1,2.323-.286,2.72-1.035A.011.011,0,0,1,253.333,379.216Z" transform="translate(-234.869 -183.636)" fill="#682c17"/>
      <path id="Path_117" data-name="Path 117" d="M278.692,358.439a1.394,1.394,0,0,1-.793,1.134c-1.475.672-4.569.451-6.452,0s-5.384-2.114-7.234-2.312-5.45-.517-6.353-.771a2.56,2.56,0,0,1-2.048-2.5,5.6,5.6,0,0,1,.683-3.182l1.453.088,8.566.551.2.011,4.371,1.564c1.4.484,4.316.936,6.232,2.72a5.88,5.88,0,0,1,.771.859l.011.011A2.631,2.631,0,0,1,278.692,358.439Z" transform="translate(-233.11 -184.843)" fill="#7f391b"/>
      <path id="Path_118" data-name="Path 118" d="M277.1,356.542c-1.4-1.2-4.327-2.092-6.717-2.709-2.411-.628-4.757-1.376-4.757-1.376s-.055-.462-.1-1.068l.2.011,4.371,1.564c1.4.484,4.316.936,6.232,2.72A5.872,5.872,0,0,1,277.1,356.542Z" transform="translate(-232.125 -184.785)" fill="#934b32"/>
      <path id="Path_119" data-name="Path 119" d="M278.693,358.435a1.394,1.394,0,0,1-.793,1.134c-1.475.672-4.569.451-6.452,0s-5.384-2.114-7.234-2.312-5.45-.517-6.353-.771a2.56,2.56,0,0,1-2.048-2.5,5.6,5.6,0,0,1,.683-3.182l1.453.088-.044.462s-1.343,1.861-.451,3.27,4.228,1.2,6.265,1.442,4.955,1.894,7.774,2.378,6.2.892,7.19,0Z" transform="translate(-233.11 -184.844)" fill="#682c17"/>
      <path id="Path_120" data-name="Path 120" d="M272.161,312.093c-.352,1.431-.639,2.83-.881,4.173a.352.352,0,0,0-.011.077c-.231,1.321-.418,2.588-.595,3.777-.011.044-.011.077-.022.121-.022.132-.055.341-.1.65s-.088.606-.132.892c-.374,2.433-1.057,7.454-1.652,14.281a.723.723,0,0,0-.011.154c-.242,2.268-.451,5.34-.628,8.6-.044.749-.088,1.508-.121,2.279-.209,4.261-.374,8.611-.473,11.793a2.221,2.221,0,0,1-1.178,1.894,4,4,0,0,1-1.861.5,13.449,13.449,0,0,1-4.581-.606,9.705,9.705,0,0,1-2.577-1.31,2.441,2.441,0,0,1-.98-2.059c.077-2.7.242-9.844-.044-16.99-.352-9.062-1.057-26.118-1.057-26.118l3.193-28.6,5.935-1.321c-.308-1.663-.639-3.568-.87-4.911-.176-1.035-.3-1.74-.3-1.74h11.616s.011.165.022.484C275,281.163,275.607,298.274,272.161,312.093Z" transform="translate(-233.163 -192.24)" fill="#3a3a3a"/>
      <path id="Path_121" data-name="Path 121" d="M270.69,312.048c-.352,1.431-.639,2.83-.881,4.173.11-.98,1.178-10.427,1.663-15.25.507-5.1-.319-21.02-.319-21.02s1.013-.859,2.235-1.883C273.531,281.119,274.136,298.23,270.69,312.048Z" transform="translate(-231.692 -192.196)" fill="#595959" opacity="0.5"/>
      <path id="Path_122" data-name="Path 122" d="M267.092,281.885a178,178,0,0,1-4.25,33.418c-2.411,10.24-2.907,30.654-2.929,45.21a9.7,9.7,0,0,1-2.577-1.31,2.441,2.441,0,0,1-.98-2.059c.077-2.7.242-9.844-.044-16.99-.352-9.062-1.057-26.118-1.057-26.118l3.193-28.6,5.935-1.321c-.308-1.663-.639-3.568-.87-4.911Z" transform="translate(-233.163 -192.08)" fill="#2d2d2d"/>
      <path id="Path_123" data-name="Path 123" d="M263.909,283.07a130.316,130.316,0,0,1-6.816,43.46v.022c-1.453,3.634-2.577,6.573-2.885,7.818-.65,2.566-3.59,28.32-4.294,34.541a6.729,6.729,0,0,1-.98,2.852,5.361,5.361,0,0,1-5.4,2.9,12.823,12.823,0,0,1-2.345-.462,17.284,17.284,0,0,1-2.995-1.211,2.254,2.254,0,0,1-1.233-2.081c.2-6.662,1.068-35.884,1.619-39.529.617-4.118,3.149-13.1,4.338-29.586a17.767,17.767,0,0,0-.738-7.058A18.894,18.894,0,0,1,242,283.258s.738.275,1.729.65c-.033-1.564-.1-2.268-.1-2.268l.562.011,20.337.429Z" transform="translate(-235.012 -191.835)" fill="#3a3a3a"/>
      <path id="Path_124" data-name="Path 124" d="M250.74,295.4c.606,5.792-6,31.524-6.695,38.13S241.2,374.2,241.2,374.2h-.011a17.287,17.287,0,0,1-2.995-1.211,2.254,2.254,0,0,1-1.233-2.081c.2-6.662,1.068-35.884,1.619-39.529.617-4.118,3.149-13.1,4.338-29.586a17.767,17.767,0,0,0-.738-7.058A18.894,18.894,0,0,1,242,283.258s.738.275,1.729.65c-.033-1.564-.1-2.268-.1-2.268l.562.011c3.689,2.037,6.816,3.986,6.816,3.986A34.344,34.344,0,0,0,250.74,295.4Z" transform="translate(-235.012 -191.835)" fill="#2d2d2d"/>
      <path id="Path_125" data-name="Path 125" d="M241.458,283.25a12.5,12.5,0,0,0-.324,1.584.774.774,0,0,0,.325.758,22.337,22.337,0,0,0,4.386,2.086,22.712,22.712,0,0,0,9.348.992c1.148-.106,12.381-2.585,19.093-6.831a5.03,5.03,0,0,0,2.24-5.079l-.007-.04C276.3,275.4,241.458,283.25,241.458,283.25Z" transform="translate(-234.591 -192.347)" fill="#845424"/>
      <path id="Path_126" data-name="Path 126" d="M285.3,255.153a12.068,12.068,0,0,1-1.42.991c-.022,0-.033.011-.055.022a.943.943,0,0,0-.154.1,25.566,25.566,0,0,1-8.159,2.654c-.036,1.241-.073,2.493-.108,3.741a41.163,41.163,0,0,0,.61,8.337c.412,2.333.905,5.2,1.227,7.267.639,4.107-.473,7.091-2.521,8.313v.011a.083.083,0,0,0-.044.022c-6.584,4.074-14.2,5.935-18.278,6.706a19.713,19.713,0,0,1-1.971.264,17.062,17.062,0,0,1-4.239-.176,13.675,13.675,0,0,1-1.718-.374l-.529-.165a7.468,7.468,0,0,1-1.775-.82c-2.684-1.71-2.894-3.01-3.081-4.531-.154-1.321,1.6-7.95,1.883-10.174.077-.562.121-.9.121-.9.022-.165.044-.341.066-.507a13.248,13.248,0,0,0,.055-2.257.462.462,0,0,0-.011-.077,5.95,5.95,0,0,0-.253-1.409c-.044-.132-.088-.264-.143-.407a.041.041,0,0,0-.011-.033c-.011-.044-.033-.1-.044-.154-2.676-1.211-5-4.376-7.578-10.244-2.5-5.693-2.211-17.635-1.407-22.358a10.218,10.218,0,0,1,.374-1.6,12.019,12.019,0,0,1,3.347-4.129v-.011A38.45,38.45,0,0,1,244,229.817c.055-.033.1-.066.154-.1a35.083,35.083,0,0,1,3.457-2c1.167-.584,2.654-1.255,4.757-2.081.749-.3,1.52-.562,2.3-.8,1.442-.44,2.918-.8,4.415-1.112,2.3-.484,4.636-.859,6.871-1.288q.578,0,1.156.033a16.387,16.387,0,0,1,13.356,9.15c2.125,4.228,5.087,10.658,5.715,14.865C286.953,251.586,286.6,253.843,285.3,255.153Z" transform="translate(-235.191 -197.82)" fill="#fff"/>
      <path id="Path_127" data-name="Path 127" d="M270.91,258.731c-2.334,2.158-7.168,6.232-12.475,8.357a28.048,28.048,0,0,1-11.132,2.026,4.638,4.638,0,0,1-2.268-.2c-1.564-.727-3.871-3.3-6.075-10.218-1.823-5.726-1.259-15.307-.266-21.329a12.88,12.88,0,0,1,8.708-6.528v-.008a10.869,10.869,0,0,0,6.014-.217,7.161,7.161,0,0,1,5,.168,36.4,36.4,0,0,0,3.892,1.377l1.465,1.068.991,15.668,1.7-3.931-1.3-13.323-4.988-6.375-5.505-.661c-.782.242-1.553.507-2.3.8a43.836,43.836,0,0,0-6.572,3.069l-.145.086c-.179.107-.355.214-.527.32-.2.123-.4.25-.6.375l-.371.236c-.055.033-.1.066-.154.1a38.448,38.448,0,0,0-4.514,3.435v.011a12.017,12.017,0,0,0-3.347,4.129c-.029.08-.058.174-.088.279a12.328,12.328,0,0,0-.286,1.318l.007,0c-.806,4.731-1.1,16.663,1.4,22.357,2.577,5.869,4.9,9.032,7.578,10.244,0,0,14.061,1.96,26.646-12.629C271.251,258.742,271.086,258.731,270.91,258.731Z" transform="translate(-235.191 -197.599)" fill="#e2e2e2" opacity="0.39"/>
      <path id="Path_128" data-name="Path 128" d="M251.818,217.814v6.191s6.333,4.571,9.7,3.909c1.448-.285,2.207-2.137,1.9-4.751l-3.061-.619Z" transform="translate(-233.511 -198.286)" fill="#edcdab"/>
      <path id="Path_129" data-name="Path 129" d="M261.416,227.09l2.51,3.366s1.228-4.215-1.181-6.807c-2.344-2.523-2.443-.345-2.443-.345S262.522,225.868,261.416,227.09Z" transform="translate(-232.653 -197.82)" fill="#fff"/>
      <path id="Path_130" data-name="Path 130" d="M269.484,211.157a35.784,35.784,0,0,1-.555,9.922c-1.07,4.739-1.4,5.809-3.305,6.651s-3.63.933-6.84-1.131a16.132,16.132,0,0,1-4.968-5.427s-.458.3-1.605-.993c-1.8-2.026-2.141-3.038-2.141-5.791a19.174,19.174,0,0,1,2.829-9.8c2.141-3.593,8.714-2.446,11.695-.917S268.917,208.084,269.484,211.157Z" transform="translate(-233.687 -199.864)" fill="#ffe1bd"/>
      <path id="Path_131" data-name="Path 131" d="M272.175,211.6c-3.281,5.8-11.462,1.982-11.462,1.982-.606,2.521-2.367,2.753-3.215,3.215s-1.024,2.907-1.024,2.907H255.7a17.564,17.564,0,0,0-.418-3.678,2.168,2.168,0,0,0-3.821-.374c-1.035,1.608.154,3.4.837,4.735a6.068,6.068,0,0,1-.209,2.995,10.058,10.058,0,0,1-2.081-3.755,26,26,0,0,1,0-13.455,6.118,6.118,0,0,1,.672-1.63c2.51-4.239,9.668-5.065,12.475-4.107,2.422.826,8.423,3.557,9.546,7.432A4.722,4.722,0,0,1,272.175,211.6Z" transform="translate(-233.782 -200.079)" fill="#713e23"/>
      <path id="Path_132" data-name="Path 132" d="M270.292,315.613q-.066.462-.132.892Q270.226,315.976,270.292,315.613Z" transform="translate(-231.657 -188.401)" fill="#3a3a3a"/>
      <path id="Path_133" data-name="Path 133" d="M270.392,314.913c-.011.044-.011.077-.022.121C270.381,314.957,270.392,314.913,270.392,314.913Z" transform="translate(-231.635 -188.471)" fill="#3a3a3a"/>
      <path id="Path_134" data-name="Path 134" d="M247.382,250.352a39.306,39.306,0,0,1-1.083-8.775c.184-3.487,2.111-.367,2.294,2.477a67.354,67.354,0,0,0,1.859,8.993" transform="translate(-234.07 -196.04)" fill="#efefef" opacity="0.39"/>
      <path id="Path_135" data-name="Path 135" d="M251.924,222.865a5.93,5.93,0,0,0-.688,1.282,12.719,12.719,0,0,0-.439,1.437s3.357,3.94,10.468,6.233l.048-4.367S255.074,226.6,251.924,222.865Z" transform="translate(-233.614 -197.776)" fill="#fff"/>
      <path id="Path_136" data-name="Path 136" d="M256.739,253.6s-2.61-.264-7.531,1.839a29.633,29.633,0,0,1-1.927-5.9.835.835,0,0,1,.1-.2c1.376-2.2,8.8-.826,8.8-.826Z" transform="translate(-233.969 -195.226)" fill="#ffe1bd"/>
      <path id="Path_137" data-name="Path 137" d="M271.751,245.958c-1.453.033-3.391.264-5.12.5.132-.418.3-5.684,4.25-6.144.33,1.707.562,3.248.7,4.294.033.242.055.451.077.639s.044.33.055.451C271.74,245.858,271.751,245.958,271.751,245.958Z" transform="translate(-232.013 -196.013)" fill="#ffe1bd"/>
      <path id="Path_138" data-name="Path 138" d="M274.789,255.569a26.361,26.361,0,0,1-1.762,2.312v.011a46.833,46.833,0,0,1-8.886,8.148c-1.079.771-2.246,1.53-3.5,2.257-.077.044-.154.088-.22.132a20.163,20.163,0,0,0-9.932,15.536,14.709,14.709,0,0,0-.033,4.305c.507,1.376,2.235,1.817,3.248,1.96a17.065,17.065,0,0,1-4.239-.176,13.68,13.68,0,0,1-1.718-.374l-.529-.165a7.509,7.509,0,0,1-1.784-.826c-2.676-1.707-2.885-3.006-3.072-4.525-.154-1.321,1.6-7.95,1.883-10.174.077-.562.121-.9.121-.9a13.554,13.554,0,0,0,.121-2.764.46.46,0,0,0-.011-.077,5.954,5.954,0,0,0-.253-1.409c-.044-.132-.088-.264-.143-.407a.041.041,0,0,0-.011-.033c-.011-.044-.033-.1-.044-.154,0,0,8.721,1.211,18.575-5.406a40.049,40.049,0,0,0,8.071-7.223s.143.011.374.011A26.525,26.525,0,0,0,274.789,255.569Z" transform="translate(-234.468 -194.47)" fill="#ededed"/>
      <path id="Path_139" data-name="Path 139" d="M244.607,270.78s-3.925,10.723-3.788,13.476,8.8,4.261,8.8,4.261l-3.707-9.9Z" transform="translate(-234.623 -192.933)" fill="#ededed"/>
      <path id="Path_140" data-name="Path 140" d="M268.314,232.408s.555-.688,1.724.9,5.368,11.424,5.437,13.558-12.594,1.033-12.594,1.033a91.06,91.06,0,0,1,9.25-1.124S271,236.054,268.314,232.408Z" transform="translate(-232.392 -196.826)" fill="#efefef" opacity="0.39"/>
      <path id="Path_141" data-name="Path 141" d="M249.134,254.935s-1.359,1.565-1.083,2.482,1.789-.509,5.139-1.241,12.984-.595,12.984-.595-7.771-1.721-9.382-1.629l-.126-.857A15.181,15.181,0,0,0,249.134,254.935Z" transform="translate(-233.895 -194.721)" fill="#e2e2e2" opacity="0.39"/>
      <path id="Path_142" data-name="Path 142" d="M260.351,227.065l-.048,4.367,1.508,1.392,2.116-.677v-2.12l-2.51-3.366A1.777,1.777,0,0,1,260.351,227.065Z" transform="translate(-232.653 -197.392)" fill="#3a3a3a"/>
      <path id="Path_143" data-name="Path 143" d="M262.089,248.188c-.176-8.588-.418-15.867-.418-15.867l2.114-.683c.7,3.226,1.7,9.337,2.654,15.789C266.439,247.428,264.644,247.715,262.089,248.188Z" transform="translate(-232.515 -196.889)" fill="#3a3a3a"/>
      <path id="Path_144" data-name="Path 144" d="M269.478,268.742l-2.147,5.626a.463.463,0,0,1-.738.2l-4-3.3A1.648,1.648,0,0,1,262,269.9c.066-1.09.121-2.422.154-3.931.033-1.321.055-2.786.055-4.338v-.011c.264-.2.529-.4.793-.617.244-.187.489-.405.732-.607.492-.414,1.038-.89,1.609-1.413.309-.29.62-.567.929-.876.176-.154.352-.341.529-.517.3-.3.584-.606.881-.925.121-.121.242-.242.352-.374.209,1.486.407,2.9.584,4.2.473,3.512.837,6.2.969,7.267A2.019,2.019,0,0,1,269.478,268.742Z" transform="translate(-232.482 -194.397)" fill="#3a3a3a"/>
      <path id="Path_145" data-name="Path 145" d="M268.6,260.484a47.3,47.3,0,0,1-6.463,5.483c.033-1.321.055-2.786.055-4.338v-.011c.264-.2.529-.4.793-.617,1.068-.974,2.18-1.806,3.27-2.9.176-.154.352-.341.529-.517.3-.3.584-.606.881-.925.121-.121.242-.242.352-.374C268.23,257.775,268.428,259.185,268.6,260.484Z" transform="translate(-232.467 -194.397)" fill="#ededed"/>
      <path id="Path_146" data-name="Path 146" d="M272.175,211.193c-3.281,5.8-11.462,1.982-11.462,1.982-.606,2.521-2.367,2.753-3.215,3.215s-1.024,2.907-1.024,2.907H255.7a17.565,17.565,0,0,0-.418-3.678,2.168,2.168,0,0,0-3.821-.374c-1.035,1.608.154,3.4.837,4.735a6.068,6.068,0,0,1-.209,2.995,10.058,10.058,0,0,1-2.081-3.755,26,26,0,0,1,0-13.455,6.118,6.118,0,0,1,.672-1.63,40.14,40.14,0,0,0,9.469,6.122c5.142,2.158,9.128,1.7,10.416.595a5,5,0,0,0,2.125-3.38l.011-.011A4.722,4.722,0,0,1,272.175,211.193Z" transform="translate(-233.782 -199.669)" fill="#442312"/>
    </g>
    <g id="Group_23" data-name="Group 23" transform="translate(95.949 226.281)">
      <path id="Path_147" data-name="Path 147" d="M167.081,282.175q.066-.429.132-.892Q167.147,281.646,167.081,282.175Z" transform="translate(-167.081 -280.512)" fill="#442312"/>
      <path id="Path_148" data-name="Path 148" d="M167.291,280.7c.011-.044.011-.077.022-.121C167.313,280.583,167.3,280.627,167.291,280.7Z" transform="translate(-167.06 -280.583)" fill="#442312"/>
    </g>
    <g id="Group_39" data-name="Group 39" transform="translate(46.794 0)">
      <g id="Group_25" data-name="Group 25" transform="translate(182.474 103.178)">
        <g id="Group_24" data-name="Group 24">
          <path id="Path_149" data-name="Path 149" d="M328.443,172.246v32.833a2.693,2.693,0,0,1-1.159,2.222c-.033.017-.065.048-.1.065l-10.732,6.615-22.167,13.656a1.031,1.031,0,0,1-1.159-.017l-4.345-2.679a1.269,1.269,0,0,1-.621-1.094V192.109a3.537,3.537,0,0,1,1.7-3.039l32.572-20.091a1.336,1.336,0,0,1,1.372-.016l4.132,2.516a.7.7,0,0,1,.148.081A.829.829,0,0,1,328.443,172.246Z" transform="translate(-288.161 -168.78)" fill="#ffd05a"/>
          <path id="Path_150" data-name="Path 150" d="M328.032,172v32.833a2.693,2.693,0,0,1-1.159,2.222c-.033.017-.065.048-.1.065l-10.732,6.615L293.875,227.4a1.031,1.031,0,0,1-1.159-.017,1.074,1.074,0,0,1-.49-.9v-32a3.394,3.394,0,0,1,1.584-2.858l32.981-20.32a.792.792,0,0,1,.736-.065.7.7,0,0,1,.147.082A.831.831,0,0,1,328.032,172Z" transform="translate(-287.75 -168.538)" fill="#ffdc79"/>
        </g>
        <path id="Path_151" data-name="Path 151" d="M310.837,190.506l2.2,3.283a.5.5,0,0,0,.6.188l4.762-1.84a.5.5,0,0,1,.6.742l-3.8,5.717a.5.5,0,0,0-.075.369l.979,5.186a.5.5,0,0,1-.488.592l-5.09.031a.5.5,0,0,0-.36.156l-4.65,4.917a.5.5,0,0,1-.857-.421l.818-5.2a.5.5,0,0,0-.291-.534l-3.6-1.6a.5.5,0,0,1-.078-.871l5.725-3.876a.5.5,0,0,0,.185-.232l2.547-6.514A.5.5,0,0,1,310.837,190.506Z" transform="translate(-286.835 -166.607)" fill="#fff"/>
      </g>
      <g id="Group_28" data-name="Group 28" transform="translate(43.338 237.397)">
        <g id="Group_26" data-name="Group 26">
          <path id="Path_152" data-name="Path 152" d="M188.951,293.013v22.132a1.814,1.814,0,0,1-.782,1.5c-.022.011-.044.033-.066.044l-7.234,4.459-14.942,9.2a.7.7,0,0,1-.782-.011l-2.929-1.806a.854.854,0,0,1-.418-.738V306.4a2.383,2.383,0,0,1,1.145-2.048L184.9,290.811a.9.9,0,0,1,.925-.011l2.786,1.7a.448.448,0,0,1,.1.055A.558.558,0,0,1,188.951,293.013Z" transform="translate(-161.798 -290.678)" fill="#73aae0"/>
          <path id="Path_153" data-name="Path 153" d="M188.674,292.85v22.132a1.814,1.814,0,0,1-.782,1.5c-.022.011-.044.033-.066.044l-7.234,4.459-14.942,9.2a.7.7,0,0,1-.782-.011.724.724,0,0,1-.33-.606V308a2.287,2.287,0,0,1,1.068-1.927l22.231-13.7a.534.534,0,0,1,.5-.044.449.449,0,0,1,.1.055A.558.558,0,0,1,188.674,292.85Z" transform="translate(-161.521 -290.515)" fill="#acd3ff"/>
        </g>
        <g id="Group_27" data-name="Group 27" transform="translate(8.14 13.088)">
          <path id="Path_154" data-name="Path 154" d="M179.164,304.359a6.772,6.772,0,0,1-3.17,5.075c-1.751,1.051-3.17.486-3.17-1.265a6.772,6.772,0,0,1,3.17-5.075C177.746,302.041,179.164,302.608,179.164,304.359Z" transform="translate(-168.824 -302.564)" fill="#fff"/>
          <path id="Path_155" data-name="Path 155" d="M183.538,312.467l-14.347,8.62c.016-3.957,3.21-9.07,7.174-11.451,1.974-1.186,3.771-1.463,5.072-.945S183.538,310.492,183.538,312.467Z" transform="translate(-169.191 -301.97)" fill="#fff"/>
        </g>
      </g>
      <g id="Group_37" data-name="Group 37">
        <g id="Group_35" data-name="Group 35">
          <g id="Group_34" data-name="Group 34">
            <g id="Group_33" data-name="Group 33">
              <path id="Path_161" data-name="Path 161" d="M149.591,196.958V219.09a1.814,1.814,0,0,1-.782,1.5c-.022.011-.044.033-.066.044l-7.234,4.459L126.567,234.3a.7.7,0,0,1-.782-.011l-2.929-1.806a.854.854,0,0,1-.418-.738V210.348a2.383,2.383,0,0,1,1.145-2.048l21.956-13.543a.9.9,0,0,1,.925-.011l2.786,1.7a.446.446,0,0,1,.1.055A.558.558,0,0,1,149.591,196.958Z" transform="translate(-122.438 -62.99)" fill="#8ba6fc"/>
              <path id="Path_162" data-name="Path 162" d="M149.314,196.8v22.132a1.814,1.814,0,0,1-.782,1.5c-.022.011-.044.033-.066.044l-7.234,4.459-14.942,9.205a.7.7,0,0,1-.782-.011.724.724,0,0,1-.33-.606v-21.57a2.287,2.287,0,0,1,1.068-1.927l22.231-13.7a.534.534,0,0,1,.5-.044.445.445,0,0,1,.1.055A.558.558,0,0,1,149.314,196.8Z" transform="translate(-122.161 -62.827)" fill="#c9d4fe"/>
              <path id="Path_163" data-name="Path 163" d="M166.848,163.506v15.48a1.269,1.269,0,0,1-.546,1.047c-.015.008-.031.023-.046.031l-5.059,3.119-10.451,6.438a.487.487,0,0,1-.547-.008.507.507,0,0,1-.231-.424V174.1a1.6,1.6,0,0,1,.747-1.348l15.549-9.581a.374.374,0,0,1,.347-.031.312.312,0,0,1,.069.039A.394.394,0,0,1,166.848,163.506Z" transform="translate(-119.655 -66.175)" fill="#c9d4fe" opacity="0.3"/>
              <path id="Path_164" data-name="Path 164" d="M266.3,102.321V117.8a1.268,1.268,0,0,1-.547,1.047c-.015.008-.031.023-.046.031L260.645,122l-10.452,6.438a.487.487,0,0,1-.547-.008.507.507,0,0,1-.231-.424V112.919a1.6,1.6,0,0,1,.747-1.348l15.549-9.581a.374.374,0,0,1,.347-.031.312.312,0,0,1,.069.039A.385.385,0,0,1,266.3,102.321Z" transform="translate(-109.603 -72.36)" fill="#c9d4fe" opacity="0.3"/>
              <path id="Path_165" data-name="Path 165" d="M296.164,75.66V98.818a1.9,1.9,0,0,1-.818,1.567c-.023.012-.046.034-.069.046l-7.57,4.666-15.634,9.632a.729.729,0,0,1-.818-.011.757.757,0,0,1-.346-.634V91.513a2.391,2.391,0,0,1,1.118-2.016l23.262-14.333a.559.559,0,0,1,.519-.046.442.442,0,0,1,.1.057A.581.581,0,0,1,296.164,75.66Z" transform="translate(-107.43 -75.074)" fill="#fff" opacity="0.1"/>
              <path id="Path_166" data-name="Path 166" d="M150.773,372.016v23.158a1.9,1.9,0,0,1-.818,1.567c-.023.011-.046.034-.069.046l-7.57,4.666-15.634,9.632a.73.73,0,0,1-.818-.011.757.757,0,0,1-.346-.634V387.869a2.391,2.391,0,0,1,1.118-2.016L149.9,371.52a.559.559,0,0,1,.519-.046.442.442,0,0,1,.1.057A.584.584,0,0,1,150.773,372.016Z" transform="translate(-122.127 -45.119)" fill="#fff" opacity="0.1"/>
            </g>
          </g>
        </g>
        <g id="Group_36" data-name="Group 36" transform="translate(7.469 139.402)">
          <path id="Path_167" data-name="Path 167" d="M136.139,224.094l-6.461-2.579c-.609-.242-.609-1.23,0-2.2s1.6-1.568,2.2-1.324l3.677,1.467,7.2-15.981a2.862,2.862,0,0,1,2.145-1.795c.732.012.959.836.506,1.84Z" transform="translate(-129.221 -201.679)" fill="#fff"/>
        </g>
      </g>
      <g id="Group_38" data-name="Group 38" transform="translate(170.684 5.588)">
        <path id="Path_171" data-name="Path 171" d="M319.3,80.816v26.39a2.163,2.163,0,0,1-.933,1.786c-.026.013-.053.04-.079.053l-8.626,5.317-17.815,10.976a.83.83,0,0,1-.933-.013.863.863,0,0,1-.394-.722V98.882a2.727,2.727,0,0,1,1.274-2.3L318.3,80.251a.641.641,0,0,1,.591-.053.506.506,0,0,1,.118.066A.662.662,0,0,1,319.3,80.816Z" transform="translate(-276.132 -80.149)" fill="#fff" opacity="0.2"/>
        <path id="Path_172" data-name="Path 172" d="M306.233,262.8v26.39a2.163,2.163,0,0,1-.933,1.786c-.026.013-.053.04-.079.053l-8.626,5.317L278.78,307.321a.83.83,0,0,1-.933-.013.863.863,0,0,1-.394-.722v-25.72a2.726,2.726,0,0,1,1.274-2.3l26.507-16.332a.641.641,0,0,1,.591-.053.506.506,0,0,1,.118.066A.665.665,0,0,1,306.233,262.8Z" transform="translate(-277.453 -61.754)" fill="#fff" opacity="0.2"/>
      </g>
    </g>
  </g>
</svg>
