<svg xmlns="http://www.w3.org/2000/svg" xmlns:xlink="http://www.w3.org/1999/xlink" width="58" height="58" viewBox="0 0 58 58">
  <defs>
    <filter id="Ellipse_11" x="0" y="0" width="58" height="58" filterUnits="userSpaceOnUse">
      <feOffset dy="3" input="SourceAlpha"/>
      <feGaussianBlur stdDeviation="3" result="blur"/>
      <feFlood flood-color="#f49341" flood-opacity="0.639"/>
      <feComposite operator="in" in2="blur"/>
      <feComposite in="SourceGraphic"/>
    </filter>
  </defs>
  <g id="Group_266" data-name="Group 266" transform="translate(-762 -610)">
    <g transform="matrix(1, 0, 0, 1, 762, 610)" filter="url(#Ellipse_11)">
      <circle id="Ellipse_11-2" data-name="Ellipse 11" cx="20" cy="20" r="20" transform="translate(9 6)" fill="#f49341"/>
    </g>
    <g id="linkedin_4_" data-name="linkedin (4)" transform="translate(783 625)">
      <rect id="Rectangle_7" data-name="Rectangle 7" width="4.151" height="12.761" transform="translate(0 5.8)" fill="#fff"/>
      <path id="Path_188" data-name="Path 188" d="M169.656,160.15c-.044-.014-.086-.029-.132-.042s-.111-.023-.168-.032a3.72,3.72,0,0,0-.745-.075h0a5.767,5.767,0,0,0-4.46,2.44V160H160v12.761h4.151V165.8s3.137-4.369,4.46-1.16v8.12h4.15V164.15A4.139,4.139,0,0,0,169.656,160.15Z" transform="translate(-154.2 -154.2)" fill="#fff"/>
      <circle id="Ellipse_13" data-name="Ellipse 13" cx="2.03" cy="2.03" r="2.03" fill="#fff"/>
    </g>
  </g>
</svg>
