<svg xmlns="http://www.w3.org/2000/svg" width="10.821" height="13.417" viewBox="0 0 10.821 13.417">
  <g id="Location" transform="translate(-47.05 0.15)">
    <g id="Group_98" data-name="Group 98" transform="translate(47.2)">
      <path id="Path_200" data-name="Path 200" d="M52.458,0A5.265,5.265,0,0,0,47.2,5.258a5.174,5.174,0,0,0,.093.987c0,.019.014.077.036.176a5.178,5.178,0,0,0,.352,1.037,14.739,14.739,0,0,0,4.545,5.577.372.372,0,0,0,.467,0A14.767,14.767,0,0,0,57.24,7.458a5.12,5.12,0,0,0,.352-1.037c.022-.1.033-.157.036-.176a5.407,5.407,0,0,0,.093-.987A5.273,5.273,0,0,0,52.458,0ZM56.89,6.116c0,.005,0,.011,0,.016s-.011.055-.025.118v.005a4.365,4.365,0,0,1-.305.9s0,.008-.005.011a13.755,13.755,0,0,1-4.095,5.1,13.755,13.755,0,0,1-4.095-5.1s0-.008-.006-.011a4.657,4.657,0,0,1-.305-.9V6.25c-.016-.063-.022-.1-.025-.118s0-.011,0-.019a4.515,4.515,0,1,1,8.865,0Z" transform="translate(-47.2)" fill="#f59042" stroke="#f59042" stroke-width="0.3"/>
      <path id="Path_201" data-name="Path 201" d="M120.338,71.9a3.338,3.338,0,1,0,3.338,3.338A3.343,3.343,0,0,0,120.338,71.9Zm0,5.934a2.6,2.6,0,1,1,2.6-2.6A2.6,2.6,0,0,1,120.338,77.834Z" transform="translate(-115.081 -69.923)" fill="#f59042" stroke="#f59042" stroke-width="0.3"/>
    </g>
  </g>
</svg>
