<?xml version="1.0" encoding="utf-8"?>
<!-- Generator: Adobe Illustrator 21.0.0, SVG Export Plug-In . SVG Version: 6.00 Build 0)  -->
<svg version="1.1" id="Layer_1" xmlns="http://www.w3.org/2000/svg" xmlns:xlink="http://www.w3.org/1999/xlink" x="0px" y="0px"
	 viewBox="0 0 319 373" style="enable-background:new 0 0 319 373;" xml:space="preserve">
<style type="text/css">
	.st0{opacity:0.32;}
	.st1{fill:#D3D3D3;}
	.st2{fill:#FFE91D;}
	.st3{fill:#FFB41F;}
	.st4{fill:url(#SVGID_1_);}
	.st5{fill:url(#SVGID_2_);}
	.st6{fill:url(#SVGID_3_);}
	.st7{fill:#FFFFFF;}
	.st8{fill:#F9FBFC;}
	.st9{fill:#EDEDED;}
	.st10{fill:url(#SVGID_4_);}
	.st11{fill:none;}
	.st12{fill:#A4181C;}
	.st13{fill:#EFEFEF;}
	.st14{fill:#FF9D6F;}
	.st15{fill:#113C7A;}
	.st16{fill:url(#SVGID_5_);}
	.st17{fill:url(#SVGID_6_);}
	.st18{fill:#FF7C40;}
	.st19{fill:#843837;}
	.st20{opacity:0.57;}
</style>
<g id="OBJECTS">
	<g>
		<g>
			<g class="st0">
				<path class="st1" d="M150.2,294.4c-2.7,1.5-2.7,4,0,5.5l88.2,51.3c2.6,1.5,6.9,1.5,9.6,0l20.7-9.7c2.7-1.5,2.7-4,0-5.5
					l-88.2-51.3c-2.6-1.5-6.9-1.5-9.6,0L150.2,294.4z"/>
			</g>
			<g>
				<g>
					<path class="st2" d="M108.9,72.1l0,2.2c0,1.3,1.4,2.1,2.5,1.5l10.4-6c0.5-0.3,0.8-0.9,0.8-1.5l0-2.2c0-1.3-1.4-2.1-2.5-1.5
						l-10.4,6C109.2,71,108.9,71.5,108.9,72.1z"/>
				</g>
				<g>
					<path class="st2" d="M76.1,102.1l0,2.2c0,1.3,1.4,2.1,2.5,1.5l43.3-25c0.5-0.3,0.8-0.9,0.8-1.5l0-2.2c0-1.3-1.4-2.1-2.5-1.5
						l-43.3,25C76.4,100.9,76.1,101.5,76.1,102.1z"/>
				</g>
				<g>
					<path class="st3" d="M94,113.7l0,2.2c0,1.3,1.4,2.1,2.5,1.5l25.4-14.7c0.5-0.3,0.8-0.9,0.8-1.5l0-2.2c0-1.3-1.4-2.1-2.5-1.5
						l-25.4,14.7C94.3,112.5,94,113.1,94,113.7z"/>
				</g>
				<g>
					<path class="st2" d="M82.8,109.2l0,2.2c0,1.3,1.4,2.1,2.5,1.5l36.6-21.1c0.5-0.3,0.8-0.9,0.8-1.5l0-2.2c0-1.3-1.4-2.1-2.5-1.5
						l-36.6,21.1C83.1,108,82.8,108.6,82.8,109.2z"/>
				</g>
			</g>
			<g>
				<g>
					<g>
						<path class="st2" d="M309.2,105.5c0.5,0.3,0.9,0.9,0.9,1.5l0,15c0,0.5-0.4,0.8-0.9,0.5l-19-11c-0.5-0.3-0.9-0.9-0.9-1.5l0-15
							c0-0.5,0.4-0.8,0.9-0.5L309.2,105.5z"/>
					</g>
				</g>
				<g>
					<g>
						<path class="st3" d="M316.1,132.2c0.5,0.3,0.9,0.9,0.9,1.5l0,15c0,0.5-0.4,0.8-0.9,0.5l-19-11c-0.5-0.3-0.9-0.9-0.9-1.5l0-15
							c0-0.5,0.4-0.8,0.9-0.5L316.1,132.2z"/>
					</g>
				</g>
			</g>
			<g>
				<g>
					<g>
						<path class="st2" d="M123,146.3c0.3,0.2,0.6,0.6,0.6,1l0,9.7c0,0.4-0.3,0.5-0.6,0.3l-12.3-7.1c-0.3-0.2-0.6-0.6-0.6-1l0-9.7
							c0-0.4,0.3-0.5,0.6-0.3L123,146.3z"/>
					</g>
				</g>
				<g>
					<g>
						<path class="st3" d="M127.5,163.6c0.3,0.2,0.6,0.6,0.6,1l0,9.7c0,0.4-0.3,0.5-0.6,0.3l-12.3-7.1c-0.3-0.2-0.6-0.6-0.6-1l0-9.7
							c0-0.4,0.3-0.5,0.6-0.3L127.5,163.6z"/>
					</g>
				</g>
			</g>
			<g>
				<g>
					
						<linearGradient id="SVGID_1_" gradientUnits="userSpaceOnUse" x1="147.404" y1="324.3065" x2="278.1301" y2="324.3065" gradientTransform="matrix(1 0 0 -1 0 374)">
						<stop  offset="0" style="stop-color:#392836"/>
						<stop  offset="0.2012" style="stop-color:#402936"/>
						<stop  offset="0.495" style="stop-color:#542E36"/>
						<stop  offset="0.844" style="stop-color:#733437"/>
						<stop  offset="1" style="stop-color:#843837"/>
					</linearGradient>
					<path class="st4" d="M252.8,64c0.1,0.1,0.1,0.1,0.2,0.2c0.6,0.5,1.2,1,1.7,1.5c0.1,0.1,0.1,0.1,0.2,0.2
						c0.6,0.5,1.1,1.1,1.7,1.7c0,0,0.1,0.1,0.1,0.1c0.6,0.6,1.2,1.3,1.7,1.9c0,0,0,0,0,0c0.6,0.7,1.1,1.4,1.7,2.1l0,0
						c0.5,0.7,1,1.3,1.4,2c0.3,0.4,0.6,0.9,0.8,1.3c0.2,0.4,0.5,0.7,0.7,1.1c0.1,0.2,0.2,0.4,0.3,0.5c0.4,0.6,0.7,1.3,1,1.9
						c0,0.1,0.1,0.1,0.1,0.2c0.4,0.8,0.8,1.6,1.1,2.4c0,0,0,0.1,0.1,0.1c2.2,5,3.4,10.2,3.4,15l9.1-5.3c0-4.3-1-8.8-2.7-13.3l0,0
						c-0.1-0.3-0.3-0.7-0.4-1c-0.1-0.2-0.2-0.5-0.3-0.7c0,0,0-0.1-0.1-0.1c0,0,0-0.1-0.1-0.1c-0.1-0.3-0.3-0.7-0.4-1
						c-0.2-0.4-0.3-0.7-0.5-1.1c0-0.1-0.1-0.1-0.1-0.2c0-0.1-0.1-0.1-0.1-0.2c-0.1-0.3-0.3-0.6-0.4-0.8c-0.2-0.4-0.4-0.7-0.6-1
						c-0.1-0.2-0.2-0.4-0.3-0.5c0-0.1-0.1-0.1-0.1-0.2c-0.2-0.3-0.4-0.6-0.6-0.9c-0.3-0.4-0.5-0.9-0.8-1.3c0-0.1-0.1-0.1-0.1-0.2
						c-0.4-0.6-0.8-1.2-1.3-1.8v0v0c-0.3-0.4-0.6-0.8-0.9-1.2c-0.2-0.3-0.5-0.6-0.8-0.9c0,0,0,0,0,0c0,0,0,0,0,0
						c-0.3-0.3-0.5-0.6-0.8-0.9c-0.3-0.3-0.5-0.6-0.8-0.9c0,0-0.1-0.1-0.1-0.1c0,0-0.1-0.1-0.1-0.1c-0.2-0.2-0.4-0.4-0.6-0.6
						c-0.3-0.3-0.6-0.6-0.9-0.8c-0.1-0.1-0.2-0.2-0.3-0.3c-0.1-0.1-0.1-0.1-0.2-0.2c-0.1-0.1-0.3-0.3-0.4-0.4
						c-0.3-0.3-0.6-0.5-0.9-0.8c-0.1-0.1-0.3-0.2-0.4-0.3c-0.1-0.1-0.1-0.1-0.2-0.2c-0.1-0.1-0.2-0.2-0.3-0.2
						c-0.3-0.2-0.6-0.5-0.9-0.7c-0.2-0.2-0.4-0.3-0.7-0.5c0,0-0.1-0.1-0.1-0.1c0,0-0.1-0.1-0.1-0.1c-0.3-0.2-0.6-0.4-0.9-0.6
						c-0.3-0.2-0.6-0.4-0.9-0.5c-0.1,0-0.1-0.1-0.2-0.1L171,5.8c-0.2-0.1-0.4-0.2-0.6-0.4c-0.3-0.2-0.6-0.3-0.8-0.4
						c-0.2-0.1-0.4-0.2-0.5-0.3c0,0-0.1,0-0.1-0.1c-0.1,0-0.1-0.1-0.2-0.1c-0.3-0.1-0.5-0.2-0.8-0.3c-0.3-0.1-0.5-0.2-0.8-0.3
						c0,0-0.1,0-0.1,0c0,0-0.1,0-0.1,0c-0.2-0.1-0.4-0.1-0.6-0.2c-0.3-0.1-0.6-0.2-0.8-0.2c-0.1,0-0.3-0.1-0.4-0.1
						c-0.1,0-0.1,0-0.2,0c-0.1,0-0.2,0-0.3-0.1c-0.3-0.1-0.6-0.1-0.9-0.1c-0.2,0-0.4,0-0.5-0.1c-0.1,0-0.1,0-0.2,0
						c-0.1,0-0.1,0-0.2,0c-0.3,0-0.6,0-1,0c-0.1,0-0.3,0-0.4,0c-0.1,0-0.2,0-0.3,0c-0.1,0-0.2,0-0.3,0c-0.4,0-0.8,0.1-1.2,0.2
						c0,0,0,0,0,0c-0.1,0-0.2,0-0.3,0.1c-0.4,0.1-0.8,0.2-1.2,0.3c0,0-0.1,0-0.1,0.1c-0.1,0-0.1,0.1-0.2,0.1
						c-0.5,0.2-0.9,0.4-1.3,0.6l-9.1,5.3c0.4-0.2,0.9-0.5,1.3-0.6c0.1,0,0.1-0.1,0.2-0.1c0.4-0.2,0.8-0.3,1.3-0.4
						c0.1,0,0.2-0.1,0.2-0.1c0.5-0.1,1-0.2,1.5-0.2c0.1,0,0.2,0,0.3,0c0.5,0,1,0,1.5,0c0.1,0,0.1,0,0.2,0c0.6,0.1,1.1,0.1,1.7,0.3
						c0.1,0,0.1,0,0.2,0c0.6,0.1,1.2,0.3,1.8,0.5c0,0,0.1,0,0.1,0c0.6,0.2,1.3,0.5,1.9,0.8c0,0,0.1,0,0.1,0.1c0.7,0.3,1.3,0.7,2,1
						l86.9,50.2c0.7,0.4,1.4,0.8,2,1.3c0,0,0.1,0.1,0.1,0.1C251.5,63.1,252.1,63.5,252.8,64z"/>
					
						<linearGradient id="SVGID_2_" gradientUnits="userSpaceOnUse" x1="270.3164" y1="45.166" x2="270.3164" y2="269.8626" gradientTransform="matrix(1 0 0 -1 0 374)">
						<stop  offset="0" style="stop-color:#61535E"/>
						<stop  offset="0.3122" style="stop-color:#674E57"/>
						<stop  offset="0.7669" style="stop-color:#794144"/>
						<stop  offset="1" style="stop-color:#843837"/>
					</linearGradient>
					<path class="st5" d="M278.1,90.2c0-0.3,0-0.7,0-1c0-0.3,0-0.7-0.1-1c0-0.3-0.1-0.7-0.1-1c0-0.3-0.1-0.7-0.1-1
						c-0.1-0.3-0.1-0.7-0.2-1c-0.1-0.4-0.1-0.7-0.2-1.1c-0.1-0.4-0.2-0.7-0.2-1.1c-0.1-0.4-0.2-0.7-0.3-1.1
						c-0.1-0.4-0.2-0.7-0.3-1.1c-0.1-0.4-0.2-0.7-0.3-1.1c-0.1-0.3-0.2-0.7-0.4-1c-0.1-0.3-0.2-0.7-0.4-1l-9.1,5.3
						c0.1,0.3,0.3,0.7,0.4,1c0.1,0.3,0.2,0.7,0.4,1c0.1,0.3,0.2,0.7,0.3,1.1c0.1,0.4,0.2,0.7,0.3,1.1c0.1,0.4,0.2,0.7,0.3,1.1
						c0.1,0.4,0.2,0.7,0.2,1.1c0.1,0.4,0.1,0.7,0.2,1.1c0.1,0.3,0.1,0.7,0.2,1c0.1,0.3,0.1,0.7,0.1,1c0,0.3,0.1,0.7,0.1,1
						c0,0.3,0.1,0.7,0.1,1c0,0.3,0,0.7,0,1c0,0.3,0,0.6,0,0.9l-0.6,208.4c0,0.8,0,1.5-0.1,2.2c0,0.1,0,0.1,0,0.2
						c-0.1,0.7-0.2,1.3-0.3,1.9c0,0.1,0,0.2,0,0.2c-0.1,0.6-0.3,1.2-0.4,1.7c0,0.1-0.1,0.2-0.1,0.3c-0.2,0.5-0.4,1-0.6,1.5
						c0,0,0,0.1-0.1,0.2c-0.2,0.5-0.5,1-0.8,1.5c0,0.1-0.1,0.1-0.1,0.2c-0.2,0.4-0.5,0.7-0.8,1c-0.1,0.1-0.2,0.2-0.3,0.3
						c-0.2,0.3-0.5,0.5-0.8,0.7c-0.1,0.1-0.2,0.2-0.3,0.3c-0.4,0.3-0.8,0.6-1.2,0.8l9.1-5.3c0.4-0.2,0.8-0.5,1.2-0.8
						c0.1-0.1,0.2-0.2,0.3-0.3c0.3-0.2,0.5-0.5,0.8-0.7c0.1-0.1,0.2-0.2,0.3-0.3c0.3-0.3,0.5-0.7,0.8-1c0-0.1,0.1-0.1,0.1-0.2
						c0,0,0,0,0,0c0.3-0.4,0.5-0.9,0.8-1.4c0,0,0,0,0,0c0,0,0-0.1,0.1-0.2c0.1-0.3,0.3-0.6,0.4-1c0.1-0.2,0.1-0.3,0.2-0.5
						c0-0.1,0.1-0.2,0.1-0.3c0-0.1,0.1-0.2,0.1-0.3c0.1-0.3,0.2-0.7,0.3-1c0-0.1,0-0.3,0.1-0.4c0-0.1,0-0.2,0-0.2
						c0-0.1,0.1-0.2,0.1-0.4c0.1-0.3,0.1-0.6,0.1-1c0-0.2,0-0.4,0.1-0.6c0-0.1,0-0.1,0-0.2c0-0.1,0-0.2,0-0.2c0-0.3,0-0.6,0.1-1
						c0-0.3,0-0.6,0-1c0,0,0,0,0-0.1l0.6-208.4C278.1,90.8,278.1,90.5,278.1,90.2z"/>
					<g>
						
							<linearGradient id="SVGID_3_" gradientUnits="userSpaceOnUse" x1="244.8421" y1="-18.7641" x2="194.9298" y2="267.8022" gradientTransform="matrix(1 0 0 -1 0 374)">
							<stop  offset="0" style="stop-color:#392836"/>
							<stop  offset="0.2012" style="stop-color:#402936"/>
							<stop  offset="0.495" style="stop-color:#542E36"/>
							<stop  offset="0.844" style="stop-color:#733437"/>
							<stop  offset="1" style="stop-color:#843837"/>
						</linearGradient>
						<path class="st6" d="M248.8,61.2c11.2,6.5,20.3,22.2,20.3,35.1l-0.6,208.4c0,12.9-9.2,18.1-20.4,11.6l-86.9-50.2
							c-11.2-6.5-20.3-22.2-20.3-35.1l0.6-208.4c0-12.9,9.2-18.1,20.4-11.6L248.8,61.2z"/>
					</g>
					<g>
						<g>
							<path class="st7" d="M216.7,62.8c1.4,0.8,2.5,2.7,2.5,4.3c0,1.6-1.1,2.2-2.5,1.4l-22.4-12.9c-1.4-0.8-2.5-2.7-2.5-4.3
								c0-1.6,1.1-2.2,2.5-1.4L216.7,62.8z"/>
						</g>
						<g>
							<path class="st7" d="M204.9,261.4c3.7,2.1,6.6,7.3,6.6,11.5s-3,5.9-6.7,3.8s-6.6-7.3-6.6-11.5
								C198.3,260.9,201.3,259.2,204.9,261.4z"/>
						</g>
						<g>
							<path class="st8" d="M260.1,106.2c1.1,0.7,2,2.2,2,3.5l-0.5,174.2c0,1.3-0.9,1.8-2.1,1.2l-109.3-63.1c-1.1-0.7-2-2.2-2-3.5
								l0.5-174.2c0-1.3,0.9-1.8,2.1-1.2L260.1,106.2z"/>
						</g>
					</g>
					<path class="st8" d="M273.8,166.6L273.8,166.6c-0.7,0-1.3-0.6-1.3-1.3v-38.7c0-0.7,0.6-1.3,1.3-1.3l0,0c0.7,0,1.3,0.6,1.3,1.3
						v38.7C275.1,166,274.5,166.6,273.8,166.6z"/>
					<path class="st8" d="M273.8,214.8L273.8,214.8c-0.7,0-1.3-0.6-1.3-1.3v-38.7c0-0.7,0.6-1.3,1.3-1.3l0,0c0.7,0,1.3,0.6,1.3,1.3
						v38.7C275.1,214.2,274.5,214.8,273.8,214.8z"/>
					<path class="st7" d="M273.8,274L273.8,274c-0.7,0-1.3-0.6-1.3-1.3v-20.1c0-0.7,0.6-1.3,1.3-1.3l0,0c0.7,0,1.3,0.6,1.3,1.3v20.1
						C275.1,273.4,274.5,274,273.8,274z"/>
				</g>
				<g>
					<path class="st7" d="M204.2,118.4c5.6,3.2,10.1,11,10.2,17.5c0,0.1,0,0.1,0,0.2c-0.2,0.1-4.7,1.9-10.4-1.3
						c-0.1,0-0.1-0.1-0.2-0.1c-4.4-2.6-8.1-7.6-9.4-9.6c-0.3-0.5-0.5-0.8-0.5-0.8C194,117.7,198.5,115.1,204.2,118.4z"/>
				</g>
				<g>
					<path class="st9" d="M250.2,174.6c1.3,0.7,2.3,2.6,2.3,4l0,9.8c0,1.5-1.1,2.1-2.3,1.3l-89.8-51.9c-1.3-0.7-2.3-2.6-2.3-4l0-9.8
						c0-1.5,1.1-2.1,2.3-1.3L250.2,174.6z"/>
				</g>
				
					<linearGradient id="SVGID_4_" gradientUnits="userSpaceOnUse" x1="189.5199" y1="289.0118" x2="218.5638" y2="229.6333" gradientTransform="matrix(1 0 0 -1 0 374)">
					<stop  offset="0" style="stop-color:#FF9D6F"/>
					<stop  offset="0.2913" style="stop-color:#DF8360"/>
					<stop  offset="0.9281" style="stop-color:#8E403B"/>
					<stop  offset="1" style="stop-color:#843837"/>
				</linearGradient>
				<path class="st10" d="M219.5,116.1c0.5,1.7,0.9,3.5,1.1,5.2c0.1,1,0.2,2,0.2,3c0,0.3,0,0.6,0,0.9c0,0,0,0.1,0,0.1
					c0,0.3,0,0.6-0.1,0.8c0,0.1,0,0.1,0,0.2c0,0.3-0.1,0.5-0.1,0.8c-0.1,0.4-0.1,0.6-0.1,0.8c-0.1,0.3-0.1,0.6-0.2,0.8
					c0,0,0,0.1,0,0.1c-0.1,0.2-0.1,0.5-0.2,0.7c0,0,0,0.1,0,0.1c-0.1,0.2-0.2,0.4-0.2,0.7c-0.1,0.3-0.2,0.5-0.3,0.7
					c-0.1,0.3-0.2,0.5-0.3,0.7c0,0,0,0.1-0.1,0.1c-0.1,0.2-0.2,0.4-0.3,0.5c0,0,0,0.1-0.1,0.1c-0.1,0.2-0.2,0.4-0.4,0.5
					c-0.1,0.2-0.3,0.3-0.4,0.5c0,0,0,0-0.1,0.1c-0.1,0.1-0.3,0.3-0.4,0.4c0,0-0.1,0.1-0.1,0.1c-0.1,0.1-0.3,0.3-0.4,0.4
					c0,0,0,0-0.1,0.1c-0.1,0.1-0.3,0.2-0.5,0.3c-0.2,0.1-0.4,0.2-0.5,0.3c0,0-0.1,0-0.1,0.1c-0.2,0.1-0.3,0.2-0.5,0.3
					c0,0-0.1,0-0.1,0c-0.2,0.1-0.4,0.2-0.5,0.2c-0.1,0.1-0.2,0.1-0.3,0.1c-0.1-6.4-4.6-14.2-10.2-17.5c-5.6-3.3-10.2-0.6-10.3,5.8
					c0,0,0.2,0.3,0.5,0.7c-0.1-0.2-0.3-0.4-0.4-0.6c-0.3-0.4-0.4-0.6-0.6-0.9c0,0-0.1-0.1-0.1-0.1c-0.2-0.3-0.4-0.6-0.5-0.8
					c0-0.1-0.1-0.1-0.1-0.2c-0.2-0.3-0.3-0.6-0.5-0.9c-0.2-0.3-0.3-0.6-0.5-0.9c0-0.1-0.1-0.1-0.1-0.2c-0.2-0.3-0.3-0.6-0.5-0.9
					c0-0.1-0.1-0.1-0.1-0.2c-0.1-0.3-0.3-0.6-0.4-0.9c-0.2-0.4-0.3-0.7-0.5-1c0-0.1-0.1-0.1-0.1-0.2c-0.1-0.3-0.3-0.6-0.4-0.9
					c-0.2-0.4-0.3-0.7-0.4-1c0,0,0-0.1-0.1-0.1c-0.1-0.3-0.2-0.6-0.3-0.9c0-0.1,0-0.1-0.1-0.2c-0.2-0.6-0.4-1.3-0.6-1.9
					c0-0.1,0-0.1-0.1-0.2c-0.1-0.3-0.2-0.6-0.2-0.9c0-0.1,0-0.1,0-0.2c-0.1-0.3-0.1-0.6-0.2-0.9c-0.1-0.4-0.1-0.7-0.2-1
					c0-0.1,0-0.1,0-0.2c0-0.3-0.1-0.6-0.1-0.9c0-0.4-0.1-0.7-0.1-1c0-0.1,0-0.1,0-0.2c0-0.3,0-0.6-0.1-0.9c0-0.1,0-0.1,0-0.2
					c0-0.3,0-0.6,0-0.9c0-1,0.1-1.9,0.2-2.8c0.2-1.5,0.6-2.8,1.1-3.9c0.1-0.2,0.2-0.4,0.3-0.7c2.7-4.9,8.5-6,15.1-2.2
					c6,3.4,11.2,10.1,14.2,17.2c0.2,0.5,0.4,0.9,0.6,1.4C219.1,114.7,219.3,115.4,219.5,116.1z M204.4,116.6c3.4,2,6.2,0.4,6.3-3.6
					c0-4-2.8-8.8-6.2-10.8c-3.4-2-6.2-0.4-6.3,3.6C198.2,109.8,201,114.6,204.4,116.6"/>
				<path class="st11" d="M219.5,116.1c0.5,1.7,0.9,3.5,1.1,5.2c0.1,1,0.2,2,0.2,3c0,0.3,0,0.6,0,0.9c0,0,0,0.1,0,0.1
					c0,0.3,0,0.6-0.1,0.8c0,0.1,0,0.1,0,0.2c0,0.3-0.1,0.5-0.1,0.8c-0.1,0.4-0.1,0.6-0.1,0.8c-0.1,0.3-0.1,0.6-0.2,0.8
					c0,0,0,0.1,0,0.1c-0.1,0.2-0.1,0.5-0.2,0.7c0,0,0,0.1,0,0.1c-0.1,0.2-0.2,0.4-0.2,0.7c-0.1,0.3-0.2,0.5-0.3,0.7
					c-0.1,0.3-0.2,0.5-0.3,0.7c0,0,0,0.1-0.1,0.1c-0.1,0.2-0.2,0.4-0.3,0.5c0,0,0,0.1-0.1,0.1c-0.1,0.2-0.2,0.4-0.4,0.5
					c-0.1,0.2-0.3,0.3-0.4,0.5c0,0,0,0-0.1,0.1c-0.1,0.1-0.3,0.3-0.4,0.4c0,0-0.1,0.1-0.1,0.1c-0.1,0.1-0.3,0.3-0.4,0.4
					c0,0,0,0-0.1,0.1c-0.1,0.1-0.3,0.2-0.5,0.3c-0.2,0.1-0.4,0.2-0.5,0.3c0,0-0.1,0-0.1,0.1c-0.2,0.1-0.3,0.2-0.5,0.3
					c0,0-0.1,0-0.1,0c-0.2,0.1-0.4,0.2-0.5,0.2c-0.1,0.1-0.2,0.1-0.3,0.1c-0.1-6.4-4.6-14.2-10.2-17.5c-5.6-3.3-10.2-0.6-10.3,5.8
					c0,0,0.2,0.3,0.5,0.7c-0.1-0.2-0.3-0.4-0.4-0.6c-0.3-0.4-0.4-0.6-0.6-0.9c0,0-0.1-0.1-0.1-0.1c-0.2-0.3-0.4-0.6-0.5-0.8
					c0-0.1-0.1-0.1-0.1-0.2c-0.2-0.3-0.3-0.6-0.5-0.9c-0.2-0.3-0.3-0.6-0.5-0.9c0-0.1-0.1-0.1-0.1-0.2c-0.2-0.3-0.3-0.6-0.5-0.9
					c0-0.1-0.1-0.1-0.1-0.2c-0.1-0.3-0.3-0.6-0.4-0.9c-0.2-0.4-0.3-0.7-0.5-1c0-0.1-0.1-0.1-0.1-0.2c-0.1-0.3-0.3-0.6-0.4-0.9
					c-0.2-0.4-0.3-0.7-0.4-1c0,0,0-0.1-0.1-0.1c-0.1-0.3-0.2-0.6-0.3-0.9c0-0.1,0-0.1-0.1-0.2c-0.2-0.6-0.4-1.3-0.6-1.9
					c0-0.1,0-0.1-0.1-0.2c-0.1-0.3-0.2-0.6-0.2-0.9c0-0.1,0-0.1,0-0.2c-0.1-0.3-0.1-0.6-0.2-0.9c-0.1-0.4-0.1-0.7-0.2-1
					c0-0.1,0-0.1,0-0.2c0-0.3-0.1-0.6-0.1-0.9c0-0.4-0.1-0.7-0.1-1c0-0.1,0-0.1,0-0.2c0-0.3,0-0.6-0.1-0.9c0-0.1,0-0.1,0-0.2
					c0-0.3,0-0.6,0-0.9c0-1,0.1-1.9,0.2-2.8c0.2-1.5,0.6-2.8,1.1-3.9c0.1-0.2,0.2-0.4,0.3-0.7c2.7-4.9,8.5-6,15.1-2.2
					c6,3.4,11.2,10.1,14.2,17.2c0.2,0.5,0.4,0.9,0.6,1.4C219.1,114.7,219.3,115.4,219.5,116.1z M204.4,116.6c3.4,2,6.2,0.4,6.3-3.6
					c0-4-2.8-8.8-6.2-10.8c-3.4-2-6.2-0.4-6.3,3.6C198.2,109.8,201,114.6,204.4,116.6"/>
				<g>
					<path class="st7" d="M204.5,102.3c3.4,2,6.2,6.8,6.2,10.8c0,3.9-2.8,5.6-6.3,3.6c-3.4-2-6.2-6.8-6.2-10.8
						C198.2,101.9,201,100.3,204.5,102.3z"/>
				</g>
				<g>
					<path class="st9" d="M250.1,195.9c1.3,0.7,2.3,2.6,2.3,4l0,9.8c0,1.5-1.1,2.1-2.3,1.3l-89.8-51.9c-1.3-0.7-2.3-2.5-2.3-4l0-9.8
						c0-1.5,1.1-2.1,2.3-1.3L250.1,195.9z"/>
				</g>
				<path class="st12" d="M215.1,211.9c3.1,1.8,5.5,6.1,5.5,9.6l0,2.3c0,3.5-2.5,4.9-5.6,3.2L186,210.1c-3.1-1.8-5.5-6.1-5.5-9.6
					l0-2.3c0-3.5,2.5-4.9,5.6-3.2L215.1,211.9z"/>
			</g>
			<ellipse class="st13" cx="152.4" cy="348.2" rx="33" ry="19.6"/>
			<g>
				<path class="st14" d="M185.9,214.9c0,0,2-1.3,2.5-2c0.5-0.7,1.1-4.4,0.5-4.6s-1.1,2.5-1.1,2.5s-0.2-6.9-1-7.9
					c-0.8-1-3.4,3.9-3.6,4.8c-0.2,0.8-0.8,4.3-0.8,4.3S183.3,214.9,185.9,214.9z"/>
				<path class="st15" d="M135.7,234.7c0,0-5.2,5.2-1.5,11.4c3.6,6.2,28.3-9.2,30.9-11.5c2.6-2.3,19.9-17.7,20.9-19.7
					c1-2-1.1-3.9-3.8-3.6c-2.6,0.3-13.1,11.5-21.4,16.8C160.8,228.1,141.2,232.5,135.7,234.7z"/>
				<path class="st15" d="M138.7,344c0,0-0.4,3.1,0.1,4.4c0.6,1.1,2.8,2,4.4,0.8c1.6-1.1,4.2-4,4.2-4s4.5-2.4,4.9-3.7
					c0.4-1.3-1.1-2.4-2.4-2.1c-1.3,0.3-4.9,2.5-6.6,2.5C141.7,342,139.3,342.4,138.7,344z"/>
				
					<linearGradient id="SVGID_5_" gradientUnits="userSpaceOnUse" x1="143.4584" y1="92.6878" x2="135.0594" y2="27.3214" gradientTransform="matrix(1 0 0 -1 0 374)">
					<stop  offset="0" style="stop-color:#6851F5"/>
					<stop  offset="1" style="stop-color:#00CFFF"/>
				</linearGradient>
				<path class="st16" d="M134.1,277.8c0,0,4,65.3,4.4,67.2c0.5,1.9,5.6,3,6.6,0c0.6-1.9,2.1-62.3,2.1-62.3L134.1,277.8z"/>
				<path class="st15" d="M151.8,347.9c-0.2,0.2-0.3,0.5-0.3,0.8c0,0.9,0,2.9,0.5,3.7c0.7,1,2.7,2.1,4.9,0.9c1.8-1,7.5-5.2,8.6-6.1
					c0.7-0.6,1-1.3,1.1-1.8c0.1-0.5-0.1-1-0.6-1.2c-0.8-0.4-2.2-0.8-3.4-0.4c-1.9,0.6-4.2,2.6-6.8,2.5
					C154,346.2,152.5,347.3,151.8,347.9z"/>
				
					<linearGradient id="SVGID_6_" gradientUnits="userSpaceOnUse" x1="139.1302" y1="61.0186" x2="160.554" y2="61.0186" gradientTransform="matrix(1 0 0 -1 0 374)">
					<stop  offset="0" style="stop-color:#6851F5"/>
					<stop  offset="1" style="stop-color:#00CFFF"/>
				</linearGradient>
				<path class="st17" d="M160.6,278.5c-0.3-2.7-3.5-3.6-6.5-2.7c-5.7-0.3-14.5-0.1-14.9,4.4c-0.5,6.6,2.6,11.2,5.6,14.4
					c2.2,2.4,3.6,6.9,4.3,9c0.5,17.3,1.7,41.7,2.4,44.1c1.2,3.8,6.8,3.6,7.1-0.1C159.6,335.3,160.6,278.5,160.6,278.5z"/>
				<path class="st15" d="M160.6,280.5c-0.7,3.4-10.2,5-15.8,4.1c-5.6-0.9-11.6-3.6-11.4-10.1c0,0,1.1-15.5,0.6-18.2
					c-0.4-2.8-1.5-7.6-1.5-12.7c0-5.1,3.2-8.9,3.2-8.9s3.1-3.6,13-1.6c0,0,8,1.7,11.7,7.7c0,0,2.5,6.5,1.7,20.1
					C161.2,274.5,160.6,280.5,160.6,280.5z"/>
				<path class="st18" d="M141,226c0,0,0.8,4.9,0,7.2c-0.1,1.1,4.8,4.9,9.2,4c2.5-0.6,2.4-1.8,2.4-1.8s-2.1-3.5-1.8-6.9
					C151,225,144,225.3,141,226z"/>
				<g>
					<circle class="st14" cx="145.9" cy="216" r="11.7"/>
					<path class="st14" d="M157.5,216.8c0,0,0.1,11.7-2.4,14c-2.5,2.4-6.5-2.2-12.7-3.7c-6.2-1.6,5.1-13.8,5.1-13.8L157.5,216.8z"/>
				</g>
				<path class="st14" d="M183.4,234.1c0,0-1.1-4.6-0.7-4.9c0.4-0.4,1.8,1.6,1.8,1.6s0.7-4.7,1.4-5.2c0.6-0.5,3.1,2,3.4,3.3
					c0.4,1.4-1.5,6.8-2.2,6.9C186.4,235.9,183.8,236.3,183.4,234.1z"/>
				<path class="st15" d="M156.9,239.5c0,0-5.2,2.5-3,8.9c2.2,6.4,18.7,8.9,20.7,6.9s10.6-12.1,13.1-19.7c0,0-1-3-4.9-1.7
					c0,0-9.4,11.8-10.8,13.1C170.5,248.1,159.4,239,156.9,239.5z"/>
				<path class="st19" d="M135.9,207.1c0,0,3.6-4.4,9.9-4.8c6.3-0.4,9.3,1.6,11.7,1.4s4.6,1.8,3.8,4.8c-0.8,3-2.6,6.1-6.7,6.1
					s-5-0.6-5-0.6s3.2,1.4,3.6,4.2c0.4,2.8,0.4,7.1,0.4,7.1h-1c0,0-0.8-4.6-2.4-4.6c-1.6,0-1.6,5-0.2,5.9c1.4,0.8,1.4,0.8,1.4,0.8
					s-2.7,5-4.2,5.2c-1.5,0.2-6.3-3.4-6.3-3.4s-8.1-3.8-8.9-10.1C131.2,212.8,135.9,207.1,135.9,207.1z"/>
			</g>
			<g>
				<g class="st20">
					<path class="st2" d="M64.9,191.6c-1.5,0.9-2.7,3-2.7,4.7l0.2,63.7c0,4.1,2.9,5.7,6.4,3.7l37.9-21.9c1.5-0.9,2.7-3,2.7-4.7
						l-0.2-63.7c0-4.1-2.9-5.7-6.4-3.7L64.9,191.6z"/>
				</g>
				<g>
					<g>
						<g>
							<path class="st7" d="M70.7,214.7c-0.4,0.3-0.8,0.9-0.8,1.4l0,3.4c0,0.5,0.4,0.7,0.8,0.5l30.9-17.9c0.4-0.3,0.8-0.9,0.8-1.4
								l0-3.4c0-0.5-0.4-0.7-0.8-0.5L70.7,214.7z"/>
						</g>
						<g>
							<path class="st7" d="M70.7,222c-0.4,0.3-0.8,0.9-0.8,1.4l0,3.4c0,0.5,0.4,0.7,0.8,0.5l30.9-17.9c0.4-0.3,0.8-0.9,0.8-1.4
								l0-3.4c0-0.5-0.4-0.7-0.8-0.5L70.7,222z"/>
						</g>
					</g>
					<path class="st7" d="M82.8,227.5c-1.1,0.6-1.9,2.1-1.9,3.3l0,0.8c0,1.2,0.9,1.7,1.9,1.1l10-5.8c1.1-0.6,1.9-2.1,1.9-3.3l0-0.8
						c0-1.2-0.9-1.7-1.9-1.1L82.8,227.5z"/>
				</g>
			</g>
		</g>
	</g>
</g>
<g id="DESIGNED_BY_FREEPIK">
</g>
</svg>
