<svg xmlns="http://www.w3.org/2000/svg" width="18.972" height="19" viewBox="0 0 18.972 19">
  <g id="phone-call_1_" data-name="phone-call (1)" transform="translate(-0.344 0)">
    <g id="Group_110" data-name="Group 110" transform="translate(0.344 0)">
      <path id="Path_289" data-name="Path 289" d="M15.347,38.077a1.869,1.869,0,0,0-1.355-.622,1.932,1.932,0,0,0-1.371.618l-1.267,1.263c-.1-.056-.209-.108-.309-.16-.144-.072-.281-.14-.4-.213a13.773,13.773,0,0,1-3.3-3.008,8.125,8.125,0,0,1-1.083-1.708c.329-.3.634-.614.93-.914.112-.112.225-.229.337-.341a1.84,1.84,0,0,0,0-2.775L6.436,29.122c-.124-.124-.253-.253-.373-.381-.241-.249-.493-.505-.754-.746a1.9,1.9,0,0,0-1.343-.589A1.964,1.964,0,0,0,2.6,28L2.595,28,1.231,29.379a2.934,2.934,0,0,0-.87,1.865,7.03,7.03,0,0,0,.513,2.975,17.266,17.266,0,0,0,3.068,5.117,18.871,18.871,0,0,0,6.284,4.92A9.79,9.79,0,0,0,13.755,45.3c.084,0,.172.008.253.008a3.022,3.022,0,0,0,2.314-.995c0-.008.012-.012.016-.02a9.117,9.117,0,0,1,.7-.726c.172-.164.349-.337.521-.517a2,2,0,0,0,.606-1.387,1.927,1.927,0,0,0-.618-1.375ZM16.782,42.3s0,0,0,0c-.156.168-.317.321-.489.489a10.544,10.544,0,0,0-.774.8,1.933,1.933,0,0,1-1.508.638c-.06,0-.124,0-.184,0a8.7,8.7,0,0,1-3.128-.938A17.813,17.813,0,0,1,4.78,38.65a16.28,16.28,0,0,1-2.887-4.808,5.726,5.726,0,0,1-.449-2.51A1.841,1.841,0,0,1,2,30.141l1.367-1.367a.912.912,0,0,1,.61-.285.858.858,0,0,1,.585.281l.012.012c.245.229.477.465.722.718.124.128.253.257.381.389l1.095,1.095a.765.765,0,0,1,0,1.243c-.116.116-.229.233-.345.345-.337.345-.658.666-1.007.978-.008.008-.016.012-.02.02a.818.818,0,0,0-.209.91l.012.036a8.789,8.789,0,0,0,1.3,2.113l0,0a14.719,14.719,0,0,0,3.561,3.24,5.475,5.475,0,0,0,.493.269c.144.072.281.14.4.213.016.008.032.02.048.028a.869.869,0,0,0,.4.1.857.857,0,0,0,.61-.277l1.371-1.371a.907.907,0,0,1,.606-.3.817.817,0,0,1,.577.293l.008.008,2.21,2.21A.793.793,0,0,1,16.782,42.3Z" transform="translate(-0.344 -26.307)" fill="#fe5049"/>
      <path id="Path_290" data-name="Path 290" d="M245.389,87a5.161,5.161,0,0,1,4.2,4.2.538.538,0,0,0,.533.449.716.716,0,0,0,.092-.008.542.542,0,0,0,.445-.626,6.24,6.24,0,0,0-5.085-5.085.544.544,0,0,0-.626.441A.536.536,0,0,0,245.389,87Z" transform="translate(-235.135 -82.48)" fill="#fe5049"/>
      <path id="Path_291" data-name="Path 291" d="M257.777,8.382A10.276,10.276,0,0,0,249.4.008a.541.541,0,1,0-.176,1.067,9.178,9.178,0,0,1,7.483,7.483.538.538,0,0,0,.533.449A.716.716,0,0,0,257.336,9,.531.531,0,0,0,257.777,8.382Z" transform="translate(-238.813 0)" fill="#fe5049"/>
    </g>
  </g>
</svg>
