<svg xmlns="http://www.w3.org/2000/svg" width="15.24" height="19" viewBox="0 0 15.24 19">
  <g id="placeholder_3_" data-name="placeholder (3)" transform="translate(-47.2)">
    <g id="Group_109" data-name="Group 109" transform="translate(47.2)">
      <path id="Path_286" data-name="Path 286" d="M54.816,0A7.626,7.626,0,0,0,47.2,7.616a7.5,7.5,0,0,0,.135,1.43c0,.028.02.112.052.255a7.5,7.5,0,0,0,.51,1.5,21.35,21.35,0,0,0,6.584,8.078.539.539,0,0,0,.677,0A21.39,21.39,0,0,0,61.743,10.8a7.416,7.416,0,0,0,.51-1.5c.032-.143.048-.227.052-.255a7.832,7.832,0,0,0,.135-1.43A7.638,7.638,0,0,0,54.816,0Zm6.421,8.859c0,.008,0,.016,0,.024s-.016.08-.036.171v.008a6.324,6.324,0,0,1-.442,1.3s0,.012-.008.016a19.925,19.925,0,0,1-5.931,7.393,19.925,19.925,0,0,1-5.931-7.393s0-.012-.008-.016a6.746,6.746,0,0,1-.442-1.3V9.054c-.024-.092-.032-.151-.036-.171s0-.016,0-.028a6.54,6.54,0,1,1,12.842,0Z" transform="translate(-47.2)" fill="#fe5049"/>
      <path id="Path_287" data-name="Path 287" d="M121.836,71.9a4.836,4.836,0,1,0,4.836,4.836A4.843,4.843,0,0,0,121.836,71.9Zm0,8.6a3.76,3.76,0,1,1,3.76-3.76A3.765,3.765,0,0,1,121.836,80.5Z" transform="translate(-114.22 -69.036)" fill="#fe5049"/>
    </g>
  </g>
</svg>
