<svg xmlns="http://www.w3.org/2000/svg" width="16.054" height="17.559" viewBox="0 0 16.054 17.559">
  <g id="refresh-2" transform="translate(-20.982 0)">
    <g id="Group_171" data-name="Group 171" transform="translate(20.982 0)">
      <path id="Path_431" data-name="Path 431" d="M24.252,3.482a7,7,0,0,1,9.1-.24l-2.083.079a.484.484,0,0,0,.018.968H31.3l3.2-.118a.483.483,0,0,0,.466-.484V3.629h0L34.85.466A.484.484,0,0,0,33.882.5l.075,1.983a7.961,7.961,0,0,0-10.355.28,7.964,7.964,0,0,0-2.4,7.784.482.482,0,0,0,.47.369.42.42,0,0,0,.115-.014.485.485,0,0,0,.355-.584A7,7,0,0,1,24.252,3.482Z" transform="translate(-20.982 0)" fill="#e74c3c"/>
      <path id="Path_432" data-name="Path 432" d="M91.106,185.583a.484.484,0,0,0-.939.229A6.995,6.995,0,0,1,78.9,192.844l2.108-.19a.484.484,0,0,0-.09-.965l-3.188.287a.484.484,0,0,0-.437.527l.287,3.188a.483.483,0,0,0,.48.441.175.175,0,0,0,.043,0,.484.484,0,0,0,.437-.527l-.172-1.94a7.908,7.908,0,0,0,4.6,1.753c.136.007.273.011.405.011a7.962,7.962,0,0,0,7.727-9.842Z" transform="translate(-75.277 -178.573)" fill="#e74c3c"/>
    </g>
  </g>
</svg>
