<svg xmlns="http://www.w3.org/2000/svg" width="19.47" height="22.035" viewBox="0 0 19.47 22.035">
  <g id="reload" transform="translate(-29.805)">
    <g id="Group_96" data-name="Group 96" transform="translate(29.805)">
      <path id="Path_108" data-name="Path 108" d="M49.275,9.735a9.735,9.735,0,1,0-19.47,0,.577.577,0,1,0,1.155,0,8.58,8.58,0,1,1,8.58,8.58h-1l1.432-1.6a.577.577,0,1,0-.861-.769l-2.048,2.292a.987.987,0,0,0,0,1.316l2.048,2.292a.577.577,0,1,0,.861-.769l-1.432-1.6h1A9.746,9.746,0,0,0,49.275,9.735Z" transform="translate(-29.805)" fill="#fe5049"/>
    </g>
  </g>
</svg>
