<svg id="Layer_1" data-name="Layer 1" xmlns="http://www.w3.org/2000/svg" viewBox="0 0 293.41 247.52"><defs><style>.cls-1{fill:#5793ce;}.cls-2{fill:#c4d9e8;}.cls-3{fill:#d4ecff;}.cls-4{fill:#173d7a;}.cls-5{fill:#fff;}.cls-6{fill:#396caa;}.cls-7{fill:#d3d0cf;}.cls-8{fill:#f2f2f2;}.cls-9{fill:#ffc2b0;}.cls-10{fill:#ea9c92;}.cls-11{fill:#ff2c9c;}.cls-12{fill:#274f89;}.cls-13{fill:#d3008d;}</style></defs><title>reset-password</title><rect class="cls-1" x="251.93" y="219.83" width="1.91" height="5.54" transform="translate(405.19 -78.69) rotate(75.62)"/><rect class="cls-1" x="249.19" y="222.51" width="1.91" height="5.54" transform="translate(405.73 -74.02) rotate(75.63)"/><rect class="cls-1" x="246.45" y="225.18" width="1.91" height="5.54" transform="translate(406.26 -69.36) rotate(75.63)"/><rect class="cls-1" x="243.71" y="227.85" width="1.91" height="5.54" transform="translate(406.78 -64.71) rotate(75.62)"/><path class="cls-2" d="M137,56.13,86.59,85.7C73.81,81.78,57.53,83,46.79,89.29c-13.07,7.67-13,20,.19,27.44a40.16,40.16,0,0,0,9.91,3.89A52.85,52.85,0,0,0,64.78,122c10.48,1,21.67-.85,29.73-5.58,9.77-5.73,12.18-14,7.28-21l7-4.08-.2-4.41,7.32-.05-.18-4.13,7.32-.05-.18-4.13,7.32-.05-.18-4.13,7.32-.05-.18-4.13,7.81-.05,2.38-1.4,2.63-10.86ZM66.07,112.71a13.68,13.68,0,0,1-12.37.09c-3.43-1.95-3.45-5.15-.05-7.14A13.67,13.67,0,0,1,66,105.56C69.45,107.51,69.47,110.71,66.07,112.71Z" transform="translate(-0.54 -1.07)"/><path class="cls-2" d="M164.55,243.17l-68-39.08c-4.58-2.64-4-7.26,1.28-10.31l66-38.09c5.28-3.05,13.28-3.38,17.85-.74l68,39.08c4.58,2.64,4,7.26-1.28,10.31l-66,38.09C177.12,245.48,169.13,245.81,164.55,243.17Z" transform="translate(-0.54 -1.07)"/><path class="cls-1" d="M244.24,154.57l-11.75-6.78,43.32-25c2-1.18,2-3.1,0-4.29L231.55,92.93a8.21,8.21,0,0,0-7.42,0l-43.32,25-11.75-6.78,43.32-25c8.52-4.92,22.4-4.92,30.92,0l44.26,25.55c8.53,4.92,8.53,12.93,0,17.85Z" transform="translate(-0.54 -1.07)"/><path class="cls-3" d="M263.2,157.55c0-6.28-3.82-13.58-8.53-16.3L176.17,95.94c-2.11-1.22-4-1.3-5.53-.47h0L76.92,149.92l90.63,68.29,92.33-53.59a4.28,4.28,0,0,0,.82-.47h0C262.24,163,263.2,160.69,263.2,157.55Z" transform="translate(-0.54 -1.07)"/><path class="cls-4" d="M167.55,218.22l92.33-53.59a4.27,4.27,0,0,0,.82-.47h0c1.54-1.17,2.5-3.46,2.5-6.6a20.93,20.93,0,0,0-2.3-9.08L155.64,209.25Z" transform="translate(-0.54 -1.07)"/><path class="cls-1" d="M161.65,218,83.15,172.66c-4.71-2.72-8.53-10-8.53-16.3h0c0-6.28,3.82-9.17,8.53-6.45l78.49,45.32c4.71,2.72,8.53,10,8.53,16.3h0C170.18,217.81,166.36,220.7,161.65,218Z" transform="translate(-0.54 -1.07)"/><path class="cls-5" d="M149.89,202.69l-9.44-5.44a4.07,4.07,0,0,1-1.7-3.25h0c0-1.25.76-1.83,1.7-1.29l9.44,5.44a4.07,4.07,0,0,1,1.7,3.25h0C151.59,202.66,150.83,203.23,149.89,202.69Z" transform="translate(-0.54 -1.07)"/><polygon class="cls-6" points="78.49 42.04 94.62 51.2 111.07 41.54 111.03 37.34 110.89 37.43 110.87 37.13 118.19 37.08 118.15 32.94 125.33 32.89 125.28 28.76 132.46 28.71 132.42 24.57 139.59 24.52 139.55 20.39 147.22 20.33 149.61 18.93 152.24 8.08 152.19 3.88 150.93 7.9 139.31 6.35 78.49 42.04"/><polygon class="cls-3" points="94.57 47 111.03 37.34 110.83 32.93 118.15 32.88 117.96 28.74 125.28 28.69 125.1 24.56 132.42 24.51 132.23 20.37 139.55 20.32 139.37 16.19 147.18 16.13 149.56 14.73 152.19 3.88 139.27 2.15 78.44 37.84 94.57 47"/><path class="cls-6" d="M106.07,41.64a22.67,22.67,0,0,0-7.47-6.44,38.56,38.56,0,0,0-7.73-3.26L79,38.9l16.13,9.16Z" transform="translate(-0.54 -1.07)"/><polygon class="cls-1" points="151.75 5.7 152.19 3.88 150.03 3.59 98.64 33.74 101.34 35.28 151.75 5.7"/><polygon class="cls-7" points="39.51 55.29 39.33 49.32 41.24 53.35 39.51 55.29"/><path class="cls-6" d="M50,69.79c13.18,7.49,34.45,7.34,47.52-.33,6.55-3.84,9.8-8.85,9.74-13.83h0l-.18-6.33L106,50.5c-1.52-3.12-4.4-6.05-8.68-8.48-13.18-7.48-34.45-7.34-47.52.33S36.81,62.3,50,69.79ZM69,58.62c3.43,1.95,3.45,5.15.05,7.14a13.67,13.67,0,0,1-12.37.09c-3.43-1.95-3.45-5.15-.05-7.14A13.67,13.67,0,0,1,69,58.62Z" transform="translate(-0.54 -1.07)"/><path class="cls-8" d="M49.81,63.82C63,71.3,84.26,71.15,97.33,63.49s13-20-.19-27.44-34.45-7.34-47.52.33S36.63,56.33,49.81,63.82Zm19-11.17c3.43,1.95,3.45,5.15.05,7.14a13.67,13.67,0,0,1-12.37.09c-3.43-1.95-3.45-5.15-.05-7.14A13.67,13.67,0,0,1,68.84,52.65Z" transform="translate(-0.54 -1.07)"/><path class="cls-1" d="M65.08,67.09a13.49,13.49,0,0,1-8.39-1.24c-2.46-1.4-3.16-3.44-2.11-5.21l-6-4.73-6.21-7c-4.81,7-2.28,15.3,7.57,20.9a41.52,41.52,0,0,0,14.74,4.68Z" transform="translate(-0.54 -1.07)"/><path class="cls-3" d="M49.81,63.82a40.12,40.12,0,0,0,9.91,3.89,52.87,52.87,0,0,0,7.88,1.36c10.48,1,21.67-.85,29.73-5.58,13.07-7.67,13-20-.19-27.44s-34.45-7.34-47.52.33S36.63,56.33,49.81,63.82Zm19-11.17c3.43,1.95,3.45,5.15.05,7.14a13.67,13.67,0,0,1-12.37.09c-3.43-1.95-3.45-5.15-.05-7.14A13.67,13.67,0,0,1,68.84,52.65Z" transform="translate(-0.54 -1.07)"/><path class="cls-6" d="M43.58,50.22c.64-3.82,3.48-7.56,8.52-10.52,11.63-6.82,30.56-7,42.28-.3,5.83,3.31,8.77,7.67,8.84,12.06.84-5-2.06-10.12-8.7-13.89-11.72-6.66-30.65-6.53-42.28.3C46.4,41.31,43.51,45.78,43.58,50.22Z" transform="translate(-0.54 -1.07)"/><path class="cls-6" d="M35.65,104.53a13.19,13.19,0,0,1-6.59-1.7c-4.72-2.68-7.35-8.06-7.4-15.16-.09-12.95,8.92-28.81,20.09-35.37,6.12-3.59,12.09-4.09,16.81-1.41a13.21,13.21,0,0,1,4.89,4.89A20.36,20.36,0,0,1,66,66.05C66.05,79,57,94.87,45.87,101.42A20.42,20.42,0,0,1,35.65,104.53ZM52,53.95a15.74,15.74,0,0,0-7.8,2.45c-9.86,5.79-17.82,19.8-17.74,31.24,0,5.33,1.81,9.26,5,11.06s7.46,1.32,12.06-1.38c9.87-5.79,17.82-19.8,17.74-31.24a15.94,15.94,0,0,0-1.86-7.9h0A8.25,8.25,0,0,0,52,53.95Z" transform="translate(-0.54 -1.07)"/><path class="cls-3" d="M58.16,64.46l9.38,2.3,1.35-7a13.67,13.67,0,0,1-12.37.09Z" transform="translate(-0.54 -1.07)"/><path class="cls-3" d="M49.81,63.82a40.12,40.12,0,0,0,9.91,3.89,52.87,52.87,0,0,0,7.88,1.36c10.48,1,21.67-.85,29.73-5.58l-38.2-.86Z" transform="translate(-0.54 -1.07)"/><path class="cls-6" d="M63.92,68.64a55.43,55.43,0,0,1-8.3-2.14v5.86a45.44,45.44,0,0,0,8.2,2.1C72.57,75.62,63.92,68.64,63.92,68.64Z" transform="translate(-0.54 -1.07)"/><path class="cls-1" d="M57.83,67.21a38.86,38.86,0,0,1-5.4-2c-5.11-2.39,1.35,6.47,1.35,6.47s1.74.69,4.05,1.4Z" transform="translate(-0.54 -1.07)"/><polygon class="cls-1" points="153.13 169.12 136.41 179.9 128.28 178.58 148.15 168.97 153.13 169.12"/><path class="cls-4" d="M133.46,224.62s-4.81-2.43-7.77,1.19-7.18,12.15-7.31,17.92,4.56,5.38,7.35,4,10.94-13.19,11.44-15.51-.58-5.45-1.37-6.06S133.46,224.62,133.46,224.62Z" transform="translate(-0.54 -1.07)"/><path class="cls-1" d="M134.51,223.46l.22,5a2.83,2.83,0,0,1-1.41,2.59,5.55,5.55,0,0,1-3.71.58c-3.63-.58-4-1.62-4.21-6.61S134.51,223.46,134.51,223.46Z" transform="translate(-0.54 -1.07)"/><path class="cls-4" d="M115.84,215s-4.81-2.43-7.77,1.19-7.18,12.15-7.31,17.92,4.56,5.38,7.35,4S119,225,119.54,222.64s-.58-5.45-1.37-6.06S115.84,215,115.84,215Z" transform="translate(-0.54 -1.07)"/><path class="cls-1" d="M116.89,213.87l.22,5a2.83,2.83,0,0,1-1.41,2.59A5.55,5.55,0,0,1,112,222c-3.63-.58-4-1.62-4.21-6.61S116.89,213.87,116.89,213.87Z" transform="translate(-0.54 -1.07)"/><path class="cls-3" d="M159.85,122.29c-1.42-23.19-25.11,3.41-25.11,3.41l-16.21,15.89-14.6,16a14.39,14.39,0,0,0-3.63,11.56l5.91,45a4.42,4.42,0,0,0,4.43,3.84,15,15,0,0,0,2.19-.19,5.49,5.49,0,0,0,4.88-5.83l-1.08-42.05,30.66-18.48S161.27,145.47,159.85,122.29Z" transform="translate(-0.54 -1.07)"/><path class="cls-1" d="M128.34,162l-4.36-1.6c-.1,0-7.42,7.07-7.35,9.55l3.28,1.05,8.24-8Z" transform="translate(-0.54 -1.07)"/><path class="cls-1" d="M153.67,170.19s18.22-10.4,20.4-14.76c.85-1.71,2.18-3.49-3.14-6.07l-24.3,17.32,1.05,6Z" transform="translate(-0.54 -1.07)"/><path class="cls-3" d="M177.47,131.24c-1.52-23.18-25.11,3.41-25.11,3.41l-16.21,15.89-14.6,16a14.39,14.39,0,0,0-3.63,11.56l5.91,45a4.42,4.42,0,0,0,4.43,3.84,15,15,0,0,0,2.19-.19,5.49,5.49,0,0,0,4.88-5.83l-1.08-42.05,30.66-18.48S178.86,152.43,177.47,131.24Z" transform="translate(-0.54 -1.07)"/><path class="cls-1" d="M163.46,56.69c18,7.44,17.6,18.06,17.6,18.06s-3.52,38.91-2.32,64.9c.5,10.86-57.72,11.69-49-17.29,10.24-34.18,6.4-61.84,11.19-66S158.82,54.77,163.46,56.69Z" transform="translate(-0.54 -1.07)"/><ellipse class="cls-9" cx="160.27" cy="63.8" rx="6.82" ry="9.26" transform="translate(57.97 202.02) rotate(-75.56)"/><path class="cls-5" d="M161.6,71.65a13,13,0,0,1-3.25-.42,12,12,0,0,1-6.3-3.86,6.86,6.86,0,0,1-1.59-6.1c1.05-4.1,6.31-6.3,11.71-4.91a11.94,11.94,0,0,1,6.29,3.86,6.86,6.86,0,0,1,1.59,6.1C169.23,69.58,165.72,71.65,161.6,71.65Zm-2.7-14c-3.34,0-6.12,1.55-6.77,4a5.2,5.2,0,0,0,1.26,4.59,10.23,10.23,0,0,0,5.39,3.28c4.49,1.15,8.8-.49,9.62-3.67a5.2,5.2,0,0,0-1.26-4.59A10.22,10.22,0,0,0,161.76,58,11.51,11.51,0,0,0,158.9,57.66Z" transform="translate(-0.54 -1.07)"/><path class="cls-9" d="M156.26,55.88a44.26,44.26,0,0,1-.16,6.41c-.1,1.79,6.17,3.46,7.78,1.84s1-3.3,1.36-9.39S156.26,55.88,156.26,55.88Z" transform="translate(-0.54 -1.07)"/><path class="cls-10" d="M165.25,54.74s-1.54,5.64-9.15,7.81l.12-5.13Z" transform="translate(-0.54 -1.07)"/><circle class="cls-9" cx="156.69" cy="43.86" r="13.82" transform="matrix(0.97, -0.25, 0.25, 0.97, -6.53, 39.55)"/><path class="cls-10" d="M159.86,44.37s-7.61,3.26-12.88,3.3-4.11-4.38-4.11-4.38L158.51,41Z" transform="translate(-0.54 -1.07)"/><path class="cls-11" d="M145.41,45.23s6.63-2.81,12.44-1.64a6.1,6.1,0,0,1,3.51,2.09,2.07,2.07,0,0,0,1.06.77c1,.23,2.72-4,4.72-4.14s3.34,1.32,1.7,4-1.09,5.58-.33,6,8.78-5.72,1.7-19.74-25-6.47-27.84-3.63c0,0-2.94,2.57-5.34.28C137,29.17,134.36,49.28,145.41,45.23Z" transform="translate(-0.54 -1.07)"/><path class="cls-9" d="M171,103.18V113.7a4.28,4.28,0,0,1-1.4,3.17L148,136.56l2.45,3.75L179,119.62a5.8,5.8,0,0,0,2.36-4.09l1.93-18.34Z" transform="translate(-0.54 -1.07)"/><path class="cls-1" d="M179.54,69.49s6.55,9.86,9,35.8c0,0-11.19,3.62-17.55,1.57S179.54,69.49,179.54,69.49Z" transform="translate(-0.54 -1.07)"/><path class="cls-6" d="M169.79,82s-2.57,13.73-2.71,20.18a4.12,4.12,0,0,0,2.71,4h0Z" transform="translate(-0.54 -1.07)"/><path class="cls-4" d="M164.18,150.23l-4.77-.63-30.82-17.79a4.28,4.28,0,0,0-3.85.16l-21.84,12.6-2.89-.38v2.87h0a1.12,1.12,0,0,0,.66,1l34.93,20.16a4.28,4.28,0,0,0,3.85-.16l23.78-13.73a1.56,1.56,0,0,0,.94-1.3h0Z" transform="translate(-0.54 -1.07)"/><path class="cls-6" d="M141,139l-2.19-1.26H114.77l-11.87,6.85-2.89-.38v2.87h0a1.12,1.12,0,0,0,.66,1l34.93,20.16a3.61,3.61,0,0,0,2,.37Z" transform="translate(-0.54 -1.07)"/><path class="cls-1" d="M101.29,144.36l-1.28-.17v2.87h0a1.12,1.12,0,0,0,.66,1l.62.36Z" transform="translate(-0.54 -1.07)"/><path class="cls-12" d="M136,168.4a4.47,4.47,0,0,0,3.28-.2v-4.89H136Z" transform="translate(-0.54 -1.07)"/><path class="cls-5" d="M135.6,165.37,100.68,145.2c-1-.57-.86-1.57.28-2.23l23.78-13.73a4.28,4.28,0,0,1,3.85-.16l34.93,20.16c1,.57.86,1.57-.28,2.23l-23.78,13.73A4.28,4.28,0,0,1,135.6,165.37Z" transform="translate(-0.54 -1.07)"/><path class="cls-3" d="M135,162.31l-29-16.77c-.82-.47-.72-1.3.23-1.85l12.74-7.17a3.56,3.56,0,0,1,3.21-.13l29,16.77c.82.47.72,1.3-.23,1.85l-12.74,7.17A3.56,3.56,0,0,1,135,162.31Z" transform="translate(-0.54 -1.07)"/><path class="cls-9" d="M126.09,128.59l-.36,2.41a17.82,17.82,0,0,0,.16,6.18l.43,2.12a3,3,0,0,0,2.39,2.35h0a1.65,1.65,0,0,0,1.93-1.44l.58-5.15s1.32,1.73,2,1.73-.71-5.16-2.15-8.08S126.09,128.59,126.09,128.59Z" transform="translate(-0.54 -1.07)"/><path class="cls-9" d="M137.93,90.29l-3.75,7.42a14.55,14.55,0,0,0-1.53,5.63L131,128.71l-4.93-.12-2.24-28.49a10.43,10.43,0,0,1,.13-2.63L126.53,83Z" transform="translate(-0.54 -1.07)"/><path class="cls-4" d="M134.42,167.3l-2.93-3.82-30.8-17.83a4.28,4.28,0,0,1-1.78-3.42l0-25.21-1.77-2.31,1.66-1h0a1.12,1.12,0,0,1,1.21.07L134.94,134a4.28,4.28,0,0,1,1.78,3.42l0,27.46a1.56,1.56,0,0,1-.65,1.46h0Z" transform="translate(-0.54 -1.07)"/><path class="cls-6" d="M113.12,152.85l-2.19-1.27-12-20.86V117l-1.77-2.31,1.66-1h0a1.12,1.12,0,0,1,1.21.07L134.94,134a3.61,3.61,0,0,1,1.32,1.54Z" transform="translate(-0.54 -1.07)"/><path class="cls-1" d="M98,115.73l-.79-1,1.66-1h0a1.12,1.12,0,0,1,1.21.07l.62.36Z" transform="translate(-0.54 -1.07)"/><path class="cls-12" d="M135.26,134.24a4.47,4.47,0,0,1,1.46,2.94l-3.41,2-1.63-2.84Z" transform="translate(-0.54 -1.07)"/><path class="cls-1" d="M133.28,135l-34.9-20.21c-1-.57-1.79,0-1.79,1.35l0,27.46A4.28,4.28,0,0,0,98.34,147l34.9,20.21c1,.57,1.79,0,1.79-1.35l0-27.46A4.28,4.28,0,0,0,133.28,135Z" transform="translate(-0.54 -1.07)"/><path class="cls-9" d="M150.44,140.31l-.56,1.16A7.76,7.76,0,0,1,147,144.7l-3.47,2.14a3.45,3.45,0,0,1-3.54.08l-.12-.07a2.09,2.09,0,0,1-.29-3.2l3.62-3.72s-2,1.56-2.61.93c-.42-.46,2-2.71,3.81-2.78a7.25,7.25,0,0,0,3.61-1.52Z" transform="translate(-0.54 -1.07)"/><path class="cls-1" d="M141.25,56.3S128,70.75,122.62,84A27.11,27.11,0,0,0,138.27,95.4C149.39,98.61,141.25,56.3,141.25,56.3Z" transform="translate(-0.54 -1.07)"/><path class="cls-6" d="M135.77,94.54l2.15-20.79-5.07,19.48A29.09,29.09,0,0,0,135.77,94.54Z" transform="translate(-0.54 -1.07)"/><path class="cls-5" d="M151.2,53.38l-3.57-1a8.61,8.61,0,0,0,4.19,3.36c2.49.68,2.87-1.42,2.87-1.42Z" transform="translate(-0.54 -1.07)"/><path class="cls-3" d="M83.47,21.43a10,10,0,1,1,10-10A10,10,0,0,1,83.47,21.43Zm0-17.81a7.81,7.81,0,1,0,7.81,7.81A7.82,7.82,0,0,0,83.47,3.62Z" transform="translate(-0.54 -1.07)"/><path class="cls-1" d="M285.55,93.47a7.09,7.09,0,1,1,7.09-7.09A7.1,7.1,0,0,1,285.55,93.47Zm0-12a4.91,4.91,0,1,0,4.91,4.91A4.91,4.91,0,0,0,285.55,81.47Z" transform="translate(-0.54 -1.07)"/><path class="cls-1" d="M53.14,221.53l-4.81-9.79,9.79-4.81,4.81,9.79Zm-1.89-8.79,2.89,5.87L60,215.72l-2.89-5.87Z" transform="translate(-0.54 -1.07)"/><path class="cls-1" d="M195.17,69.85l-4.81-9.79,9.79-4.81L205,65Zm-1.89-8.79,2.89,5.87L202,64l-2.89-5.87Z" transform="translate(-0.54 -1.07)"/><rect class="cls-1" x="36.35" y="162.7" width="5.01" height="5.01" transform="translate(-69.44 33.02) rotate(-26.18)"/><path class="cls-13" d="M216.31,16.75,189.57,1.32a1.37,1.37,0,0,0-1.38-.11v0l-2.59,1.5,1.82.67V22.83a5.15,5.15,0,0,0,2.15,4.11l25.56,14.76V44l2.62-1.51h0a1.91,1.91,0,0,0,.73-1.72V20.87A5.15,5.15,0,0,0,216.31,16.75Z" transform="translate(-0.54 -1.07)"/><path class="cls-11" d="M213.67,43.9,186.93,28.46a5.15,5.15,0,0,1-2.15-4.11V4.47c0-1.58,1-2.31,2.15-1.63l26.74,15.44a5.15,5.15,0,0,1,2.15,4.11V42.27C215.82,43.85,214.86,44.58,213.67,43.9Z" transform="translate(-0.54 -1.07)"/><path class="cls-5" d="M195.92,21.61c0,1.15-.81,1.62-1.8,1a4,4,0,0,1-1.8-3.12c0-1.15.81-1.62,1.8-1A4,4,0,0,1,195.92,21.61Z" transform="translate(-0.54 -1.07)"/><path class="cls-5" d="M201.39,24.76c0,1.15-.81,1.62-1.8,1a4,4,0,0,1-1.8-3.12c0-1.15.81-1.62,1.8-1A4,4,0,0,1,201.39,24.76Z" transform="translate(-0.54 -1.07)"/><path class="cls-5" d="M206.86,27.92c0,1.15-.81,1.62-1.8,1a4,4,0,0,1-1.8-3.12c0-1.15.81-1.62,1.8-1A4,4,0,0,1,206.86,27.92Z" transform="translate(-0.54 -1.07)"/><path class="cls-1" d="M31.47,185.91,5.24,170.76a1.34,1.34,0,0,0-1.36-.11v0l-2.54,1.47,1.79.65v19.1a5.05,5.05,0,0,0,2.11,4l25.07,14.48v2.24l2.57-1.48h0a1.87,1.87,0,0,0,.71-1.68v-19.5A5.05,5.05,0,0,0,31.47,185.91Z" transform="translate(-0.54 -1.07)"/><path class="cls-3" d="M28.88,212.53,2.65,197.39a5.05,5.05,0,0,1-2.11-4v-19.5c0-1.55.94-2.27,2.11-1.6L28.88,187.4a5.05,5.05,0,0,1,2.11,4v19.5C31,212.49,30,213.21,28.88,212.53Z" transform="translate(-0.54 -1.07)"/><path class="cls-5" d="M11.47,190.67c0,1.13-.79,1.59-1.77,1a3.91,3.91,0,0,1-1.77-3.07c0-1.13.79-1.59,1.77-1A3.91,3.91,0,0,1,11.47,190.67Z" transform="translate(-0.54 -1.07)"/><path class="cls-5" d="M16.83,193.76c0,1.13-.79,1.59-1.77,1a3.91,3.91,0,0,1-1.77-3.07c0-1.13.79-1.59,1.77-1A3.91,3.91,0,0,1,16.83,193.76Z" transform="translate(-0.54 -1.07)"/><path class="cls-5" d="M22.2,196.86c0,1.13-.79,1.59-1.77,1a3.91,3.91,0,0,1-1.77-3.07c0-1.13.79-1.59,1.77-1A3.91,3.91,0,0,1,22.2,196.86Z" transform="translate(-0.54 -1.07)"/></svg>