<svg xmlns="http://www.w3.org/2000/svg" xmlns:xlink="http://www.w3.org/1999/xlink" viewBox="0 0 648.407 594.219">
  <defs>
    <style>
      .cls-1 {
        fill: url(#linear-gradient);
      }

      .cls-2 {
        fill: #41517b;
      }

      .cls-3 {
        fill: url(#linear-gradient-2);
      }

      .cls-4 {
        fill: #fff;
      }

      .cls-24, .cls-5 {
        fill: none;
        stroke-miterlimit: 10;
      }

      .cls-5 {
        stroke: #ec7e7e;
      }

      .cls-6 {
        fill: #010101;
        opacity: 0.2;
      }

      .cls-7 {
        fill: #212326;
      }

      .cls-8 {
        fill: #3a3795;
      }

      .cls-9 {
        fill: #d99393;
      }

      .cls-10 {
        fill: #9a9fb3;
      }

      .cls-11 {
        fill: #fee7da;
      }

      .cls-12 {
        fill: #31aedf;
      }

      .cls-13 {
        fill: #f8acad;
      }

      .cls-14 {
        fill: #484da0;
      }

      .cls-15 {
        fill: url(#linear-gradient-3);
      }

      .cls-16 {
        fill: url(#linear-gradient-4);
      }

      .cls-17 {
        fill: url(#linear-gradient-5);
      }

      .cls-18 {
        fill: url(#linear-gradient-6);
      }

      .cls-19 {
        fill: url(#linear-gradient-7);
      }

      .cls-20 {
        fill: url(#linear-gradient-8);
      }

      .cls-21 {
        fill: #a77171;
      }

      .cls-22 {
        fill: url(#linear-gradient-9);
      }

      .cls-23 {
        fill: #402c2d;
      }

      .cls-24 {
        stroke: #9a9fb3;
      }

      .cls-25 {
        fill: #ec7e7e;
      }

      .cls-26 {
        fill: url(#linear-gradient-10);
      }

      .cls-27 {
        fill: url(#linear-gradient-11);
      }
    </style>
    <linearGradient id="linear-gradient" x1="1.134" y1="0.5" x2="2.134" y2="0.5" gradientUnits="objectBoundingBox">
      <stop offset="0" stop-color="#fee7da"/>
      <stop offset="0.295" stop-color="#fee4d9"/>
      <stop offset="0.505" stop-color="#fdddd3"/>
      <stop offset="0.688" stop-color="#fcd1ca"/>
      <stop offset="0.854" stop-color="#fac0bc"/>
      <stop offset="1" stop-color="#f8acad"/>
    </linearGradient>
    <linearGradient id="linear-gradient-2" x1="-0.001" y1="0.5" x2="1" y2="0.5" xlink:href="#linear-gradient"/>
    <linearGradient id="linear-gradient-3" x1="7.691" y1="0.5" x2="8.69" y2="0.5" gradientUnits="objectBoundingBox">
      <stop offset="0" stop-color="#fee7da"/>
      <stop offset="0.428" stop-color="#fee9de"/>
      <stop offset="0.732" stop-color="#fff0e8"/>
      <stop offset="0.996" stop-color="#fffffe"/>
      <stop offset="1" stop-color="#fff"/>
    </linearGradient>
    <linearGradient id="linear-gradient-4" x1="8.82" y1="0.5" x2="9.819" y2="0.5" xlink:href="#linear-gradient-3"/>
    <linearGradient id="linear-gradient-5" x1="20.977" y1="1.885" x2="20.827" y2="2.739" gradientUnits="objectBoundingBox">
      <stop offset="0" stop-color="#402c2d"/>
      <stop offset="0.472" stop-color="#694949"/>
      <stop offset="0.819" stop-color="#865c5c"/>
      <stop offset="1" stop-color="#926363"/>
    </linearGradient>
    <linearGradient id="linear-gradient-6" x1="141.159" y1="-1.598" x2="141.009" y2="-0.743" xlink:href="#linear-gradient-5"/>
    <linearGradient id="linear-gradient-7" x1="17.768" y1="1.932" x2="17.618" y2="2.787" xlink:href="#linear-gradient-5"/>
    <linearGradient id="linear-gradient-8" x1="141.096" y1="-1.646" x2="140.946" y2="-0.792" xlink:href="#linear-gradient-5"/>
    <linearGradient id="linear-gradient-9" x1="11.135" y1="0.955" x2="11.135" y2="0.02" xlink:href="#linear-gradient-5"/>
    <linearGradient id="linear-gradient-10" x1="6.877" y1="0.955" x2="6.877" y2="0.02" xlink:href="#linear-gradient-5"/>
    <linearGradient id="linear-gradient-11" x1="58.506" y1="1.412" x2="58.506" y2="0.477" xlink:href="#linear-gradient-5"/>
  </defs>
  <g id="BG_main" transform="translate(80.98 -86.673)">
    <g id="Group_17" data-name="Group 17" transform="translate(-80.98 86.673)">
      <path id="Path_65" data-name="Path 65" class="cls-1" d="M43.145,44.382h0a147.538,147.538,0,0,1,208.437,0L550.4,342.762a147.011,147.011,0,0,1,0,208.129h0a147.538,147.538,0,0,1-208.437,0L43.145,252.51A147.012,147.012,0,0,1,43.145,44.382Z" transform="translate(0.025 0.222)"/>
      <path id="Path_64" data-name="Path 64" class="cls-2" d="M90.846,43.082h0a147.538,147.538,0,0,1,208.438,0L597.989,341.346a147.012,147.012,0,0,1,0,208.129h0a147.538,147.538,0,0,1-208.438,0L90.846,251.211A147.012,147.012,0,0,1,90.846,43.082Z" transform="translate(7.248 0.025)"/>
      <ellipse id="Ellipse_2" data-name="Ellipse 2" class="cls-3" cx="41.451" cy="41.452" rx="41.451" ry="41.452" transform="translate(510.783 230.541)"/>
    </g>
    <g id="Group_46" data-name="Group 46">
      <g id="Group_20" data-name="Group 20" transform="translate(314.188 314.845)">
        <path id="Path_66" data-name="Path 66" class="cls-4" d="M379.5,213.03a19.227,19.227,0,1,1,34.082,12.205,17.057,17.057,0,0,0-3.685,9.327l-.345,4.145H387.79l-.345-4.145a16.568,16.568,0,0,0-3.569-9.211A19.619,19.619,0,0,1,379.5,213.03Z" transform="translate(-330.219 -193.796)"/>
        <path id="Path_67" data-name="Path 67" class="cls-5" d="M392.442,215.2c.461,0,.806.806,1.036,1.151a.7.7,0,0,0,.921,0c.345-.345.691-1.151,1.036-1.151s.806.806,1.036,1.151a.7.7,0,0,0,.921,0c.345-.345.691-1.151,1.036-1.151.461,0,.806.806,1.036,1.151a.7.7,0,0,0,.921,0c.345-.345.691-1.151,1.036-1.151.921,0,1.727,1.612,1.727,2.763l-2.3,17.5H392.9l-2.3-17.5C390.715,216.7,391.521,215.2,392.442,215.2Z" transform="translate(-328.538 -190.555)"/>
        <path id="Path_68" data-name="Path 68" class="cls-6" d="M408.838,229.6l-.345,3.685H386.845L386.5,229.6Z" transform="translate(-329.159 -188.374)"/>
        <path id="Path_69" data-name="Path 69" class="cls-7" d="M350.391,299.1s9.1,2.073,10.133,4.03H345.9l1.842-4.03Z" transform="translate(-335.307 -177.849)"/>
        <path id="Path_70" data-name="Path 70" class="cls-7" d="M342.342,316.7l3.569,8.175a3.491,3.491,0,0,1,2.763,2.188l-7.715-.806-4.26-6.678,1.727-2.879Z" transform="translate(-336.7 -175.184)"/>
        <path id="Path_71" data-name="Path 71" class="cls-8" d="M356.744,255.3s15.659,23.6,14.163,29.016-19.459,22.108-19.459,22.108h-4.836s8.751-21.992,14.278-23.489L345,263.36l2.073-8.06h9.672Z" transform="translate(-335.443 -184.482)"/>
        <path id="Path_72" data-name="Path 72" class="cls-6" d="M349.263,260.5l20.5,25.216c-4.145,6.793-18.423,19.92-18.423,19.92H346.5s8.751-21.992,14.278-23.489L346.96,265.106Z" transform="translate(-335.216 -183.695)"/>
        <path id="Path_73" data-name="Path 73" class="cls-8" d="M355.363,257.048l-3.109,8.521-2.3,27.289-7.139,34.083H337.4s-.345-28.671,3.8-36.616L338.207,254.4Z" transform="translate(-336.595 -184.619)"/>
        <path id="Path_74" data-name="Path 74" class="cls-6" d="M348.263,255.436h9.557s.806,1.267,2.073,3.224c-3.339,2.073-11.745,6.218-21.3,3.915L337.9,254.4l10.133,1.5Z" transform="translate(-336.518 -184.619)"/>
        <path id="Path_75" data-name="Path 75" class="cls-7" d="M364.01,214.8s5.066-2.994,6.1-4.951-.576-1.612-.576-1.612,2.418-3.569,1.267-4.721-5.527,1.036-5.527,1.036,1.5-2.763.461-3.339c-1.036-.461-2.188,1.151-4.951,2.188-1.957.691-6.793,1.957-6.678,4.375a5.21,5.21,0,0,0-2.763,6.563c1.036,2.648,2.994,7.369,2.994,7.369Z" transform="translate(-334.533 -192.686)"/>
        <path id="Path_76" data-name="Path 76" class="cls-9" d="M369.7,237.4l5.872,5.527,18.193-7.024,2.994-2.3,1.382.576-1.612,2.073,5.3.576-.921,4.03-8.06-.115-18.883,8.981-9.557-8.06Z" transform="translate(-332.505 -187.769)"/>
        <g id="Group_19" data-name="Group 19" transform="translate(57.226 43.645)">
          <path id="Path_77" data-name="Path 77" class="cls-7" d="M394.415,235.1h5.3a3.883,3.883,0,0,1,3.915,3.915v8.06a3.883,3.883,0,0,1-3.915,3.915h-5.3a3.883,3.883,0,0,1-3.915-3.915v-8.06A3.883,3.883,0,0,1,394.415,235.1Z" transform="translate(-385.779 -231.186)"/>
          <rect id="Rectangle_4" data-name="Rectangle 4" class="cls-10" width="22.453" height="16.581" transform="translate(0.102 0)"/>
          <g id="Group_18" data-name="Group 18" transform="translate(0 1.841)">
            <path id="Path_78" data-name="Path 78" class="cls-6" d="M386.4,234.221l22.453,2.073v-1.036L386.4,233.3Z" transform="translate(-386.4 -233.3)"/>
            <path id="Path_79" data-name="Path 79" class="cls-6" d="M386.4,237.121l22.453,2.073v-1.036L386.4,236.2Z" transform="translate(-386.4 -232.861)"/>
            <path id="Path_80" data-name="Path 80" class="cls-6" d="M386.4,240.136l22.453,1.957v-.921L386.4,239.1Z" transform="translate(-386.4 -232.422)"/>
            <path id="Path_81" data-name="Path 81" class="cls-6" d="M386.4,243.036l22.453,1.957v-.921L386.4,242Z" transform="translate(-386.4 -231.983)"/>
          </g>
        </g>
        <path id="Path_82" data-name="Path 82" class="cls-11" d="M364.536,228.7l8.405,10.363-7.369,5.412-5.872-6.563Z" transform="translate(-333.217 -188.511)"/>
        <path id="Path_83" data-name="Path 83" class="cls-12" d="M357.88,222.118c-3.454-.691-10.017,1.151-12.781,6.793-2.879,5.642-9.1,22.453-8.29,32.471,0,0,12.205,5.642,22.453,1.5,0,0,1.036-12.436,2.533-17.732s4.375-5.412,6.333-15.429C368.013,229.718,363.407,223.27,357.88,222.118Z" transform="translate(-336.694 -189.528)"/>
        <path id="Path_84" data-name="Path 84" class="cls-6" d="M358.06,257.665,346.2,233.6l14.047,9.787A92.511,92.511,0,0,0,358.06,257.665Z" transform="translate(-335.261 -187.769)"/>
        <path id="Path_85" data-name="Path 85" class="cls-13" d="M359.23,236.516l6.909,7.83,21.992-5.3s5.757-4.606,6.333-4.145-1.612,3.224-1.612,3.224l5.3.921,3.569-.23-2.188,4.951-4.145.576-6.448-.806-24.64,8.636-12.9-10.363Z" transform="translate(-334.474 -187.576)"/>
        <path id="Path_86" data-name="Path 86" class="cls-11" d="M347.518,227c3.109-2.073,6.333.23,8.866,3.109a89.315,89.315,0,0,1,5.987,7.83l-9.211,7.83s-6.793-8.981-7.484-11.284C344.409,230.92,345.33,228.387,347.518,227Z" transform="translate(-335.428 -188.888)"/>
        <path id="Path_87" data-name="Path 87" class="cls-13" d="M364.46,209.8l1.036,5.412H364s.23,2.648.23,3.8-.691,2.3-3.454,1.957l-.576,7.484s-3.685,1.612-6.909-4.26l1.382-7.139a2.55,2.55,0,0,1-2.073-2.3c-.115-1.957,2.3-1.036,2.3-1.036l.576,3.8,1.842.345-.115-6.448s4.145.806,5.3-.23a7.6,7.6,0,0,0,1.036-1.382h.921Z" transform="translate(-334.293 -191.373)"/>
      </g>
      <g id="Group_22" data-name="Group 22" transform="translate(275.449 403.503)">
        <path id="Path_88" data-name="Path 88" class="cls-14" d="M346.6,282.363h31.319l.806-2.763H347.406Z" transform="translate(-297.204 -266.934)"/>
        <path id="Path_89" data-name="Path 89" class="cls-14" d="M343.5,293.663h31.319l.806-2.763H344.306Z" transform="translate(-297.673 -265.223)"/>
        <path id="Path_90" data-name="Path 90" class="cls-14" d="M340.3,304.963h31.319l.806-2.763H341.106Z" transform="translate(-298.158 -263.512)"/>
        <path id="Path_91" data-name="Path 91" class="cls-14" d="M337.2,316.263h31.319l.691-2.763H337.891Z" transform="translate(-298.627 -261.8)"/>
        <path id="Path_92" data-name="Path 92" class="cls-14" d="M334,327.563h31.319l.806-2.763H334.806Z" transform="translate(-299.112 -260.089)"/>
        <path id="Path_93" data-name="Path 93" class="cls-14" d="M330.8,338.979h31.434l.691-2.879H331.606Z" transform="translate(-299.596 -258.378)"/>
        <path id="Path_94" data-name="Path 94" class="cls-14" d="M327.7,350.279h31.319l.806-2.879H328.506Z" transform="translate(-300.066 -256.667)"/>
        <path id="Path_95" data-name="Path 95" class="cls-14" d="M324.5,361.564h31.319l.806-2.763H325.306Z" transform="translate(-300.55 -254.94)"/>
        <path id="Path_96" data-name="Path 96" class="cls-14" d="M321.4,372.863h31.319l.806-2.763H322.091Z" transform="translate(-301.02 -253.229)"/>
        <path id="Path_97" data-name="Path 97" class="cls-14" d="M318.2,384.163h31.319l.806-2.763H319.006Z" transform="translate(-301.504 -251.518)"/>
        <path id="Path_98" data-name="Path 98" class="cls-14" d="M315.1,395.463h31.319l.691-2.763H315.791Z" transform="translate(-301.974 -249.807)"/>
        <path id="Path_99" data-name="Path 99" class="cls-14" d="M311.9,406.763h31.319l.806-2.763H312.706Z" transform="translate(-302.458 -248.095)"/>
        <path id="Path_100" data-name="Path 100" class="cls-14" d="M308.7,418.063h31.319l.806-2.763H309.506Z" transform="translate(-302.943 -246.384)"/>
        <g id="Group_21" data-name="Group 21">
          <path id="Path_101" data-name="Path 101" class="cls-15" d="M330.9,454.787h3.569L386.4,268.6h-3.454Z" transform="translate(-299.581 -268.6)"/>
          <path id="Path_102" data-name="Path 102" class="cls-16" d="M303.7,454.787h3.454L359.2,268.6h-3.454Z" transform="translate(-303.7 -268.6)"/>
        </g>
      </g>
      <g id="Group_23" data-name="Group 23" transform="translate(333.616 535.74)">
        <path id="Path_103" data-name="Path 103" class="cls-17" d="M431.566,383l4.03,50.318a2.207,2.207,0,0,1-1.957,2.418,2.382,2.382,0,0,1-2.533-1.842L422.7,384.151Z" transform="translate(-342.666 -383)"/>
        <path id="Path_104" data-name="Path 104" class="cls-18" d="M357.231,383l-4.03,50.318a2.207,2.207,0,0,0,1.957,2.418,2.382,2.382,0,0,0,2.533-1.842l8.405-49.742Z" transform="translate(-353.192 -383)"/>
      </g>
      <g id="Group_24" data-name="Group 24" transform="translate(354.509 530.698)">
        <path id="Path_105" data-name="Path 105" class="cls-19" d="M449.366,378.7l4.03,50.318a2.207,2.207,0,0,1-1.957,2.418,2.382,2.382,0,0,1-2.533-1.842L440.5,379.851Z" transform="translate(-360.466 -378.7)"/>
        <path id="Path_106" data-name="Path 106" class="cls-20" d="M375.031,378.7,371,429.018a2.207,2.207,0,0,0,1.957,2.418,2.382,2.382,0,0,0,2.533-1.842l8.405-49.742Z" transform="translate(-370.992 -378.7)"/>
      </g>
      <rect id="Rectangle_5" data-name="Rectangle 5" class="cls-21" width="99.598" height="144.045" transform="translate(330.353 398.564)"/>
      <rect id="Rectangle_6" data-name="Rectangle 6" class="cls-22" width="20.495" height="144.045" transform="translate(430.608 398.664)"/>
      <rect id="Rectangle_7" data-name="Rectangle 7" class="cls-23" width="92.805" height="137.827" transform="translate(333.658 401.647)"/>
      <g id="Group_25" data-name="Group 25" transform="translate(335.359 478.224)">
        <path id="Path_107" data-name="Path 107" class="cls-4" d="M360.972,365.334a25.578,25.578,0,0,0,1.036,4.26l-5.066,2.763a27.111,27.111,0,0,0,3.569,6.448l5.066-2.763a27.261,27.261,0,0,0,3.109,3.224l-2.994,4.951a24.335,24.335,0,0,0,6.218,3.8l2.994-4.951a26.017,26.017,0,0,0,4.26,1.267l-.115,5.757a19.054,19.054,0,0,0,3.685.345c1.267,0,2.418,0,3.685-.115l.115-5.757a25.578,25.578,0,0,0,4.26-1.036l2.763,5.066a27.108,27.108,0,0,0,6.448-3.569l-2.763-5.066a27.256,27.256,0,0,0,3.224-3.109l4.951,2.994a24.332,24.332,0,0,0,3.8-6.218l-4.951-2.994a26.018,26.018,0,0,0,1.267-4.26l5.757.115a19.055,19.055,0,0,0,.345-3.685c0-1.267,0-2.418-.115-3.685L405.763,359a25.578,25.578,0,0,0-1.036-4.26l5.066-2.763a27.109,27.109,0,0,0-3.569-6.448l-5.066,2.763a27.253,27.253,0,0,0-3.109-3.224l2.994-4.951a24.331,24.331,0,0,0-6.218-3.8l-2.994,4.951A26.013,26.013,0,0,0,387.57,340l.115-5.757A19.057,19.057,0,0,0,384,333.9c-1.267,0-2.418,0-3.685.115l-.115,5.757a25.577,25.577,0,0,0-4.26,1.036l-2.763-5.066a27.109,27.109,0,0,0-6.448,3.569l2.763,5.066a27.254,27.254,0,0,0-3.224,3.109l-4.951-2.994a24.333,24.333,0,0,0-3.8,6.218l4.951,2.994a26.022,26.022,0,0,0-1.267,4.26l-5.757-.115a19.058,19.058,0,0,0-.345,3.685c0,1.267,0,2.418.115,3.685Zm17.041-3.224a5.183,5.183,0,1,1,5.066,5.3A5.16,5.16,0,0,1,378.013,362.11Z" transform="translate(-355.1 -333.9)"/>
        <path id="Path_108" data-name="Path 108" class="cls-24" d="M369.1,359.83a11.98,11.98,0,1,0,12.32-11.63A11.967,11.967,0,0,0,369.1,359.83Z" transform="translate(-352.98 -331.735)"/>
        <path id="Path_109" data-name="Path 109" class="cls-24" d="M364.7,360.4a17.162,17.162,0,1,0,17.617-16.7A16.986,16.986,0,0,0,364.7,360.4Z" transform="translate(-353.647 -332.417)"/>
      </g>
      <g id="Group_26" data-name="Group 26" transform="translate(350.606 407.366)">
        <path id="Path_110" data-name="Path 110" class="cls-4" d="M375.845,315.1a31.322,31.322,0,0,0,1.5,5.642l-6.563,3.8a37.2,37.2,0,0,0,4.836,8.29l6.563-3.8a35.232,35.232,0,0,0,4.145,4.145l-3.8,6.563a37.2,37.2,0,0,0,8.29,4.836l3.8-6.563a31.314,31.314,0,0,0,5.642,1.5v7.6a32.561,32.561,0,0,0,4.721.345,31.416,31.416,0,0,0,4.721-.345v-7.6a31.319,31.319,0,0,0,5.642-1.5l3.8,6.563a37.2,37.2,0,0,0,8.29-4.836l-3.8-6.563a35.234,35.234,0,0,0,4.145-4.145l6.563,3.8a37.2,37.2,0,0,0,4.836-8.29l-6.563-3.8a31.321,31.321,0,0,0,1.5-5.642h7.6a32.562,32.562,0,0,0,.345-4.721,31.413,31.413,0,0,0-.345-4.721h-7.6a31.322,31.322,0,0,0-1.5-5.642l6.563-3.8a37.2,37.2,0,0,0-4.836-8.29l-6.563,3.8a35.232,35.232,0,0,0-4.145-4.145l3.8-6.563a37.2,37.2,0,0,0-8.29-4.836l-3.8,6.563a31.315,31.315,0,0,0-5.642-1.5v-7.6a32.557,32.557,0,0,0-4.721-.345,31.408,31.408,0,0,0-4.721.345v7.6a31.316,31.316,0,0,0-5.642,1.5l-3.8-6.563a37.2,37.2,0,0,0-8.29,4.836l3.8,6.563a35.234,35.234,0,0,0-4.145,4.145l-6.563-3.8a37.2,37.2,0,0,0-4.836,8.29l6.563,3.8a31.318,31.318,0,0,0-1.5,5.642h-7.6a32.558,32.558,0,0,0-.345,4.721,31.409,31.409,0,0,0,.345,4.721Zm22.223-4.836a6.793,6.793,0,1,1,6.793,6.793A6.733,6.733,0,0,1,398.067,310.261Z" transform="translate(-367.9 -273.3)"/>
        <circle id="Ellipse_3" data-name="Ellipse 3" class="cls-24" cx="15.659" cy="15.659" r="15.659" transform="translate(14.789 36.953) rotate(-45)"/>
        <circle id="Ellipse_4" data-name="Ellipse 4" class="cls-24" cx="22.453" cy="22.453" r="22.453" transform="translate(5.182 36.953) rotate(-45)"/>
      </g>
      <g id="Group_27" data-name="Group 27" transform="translate(386.165 406.305)">
        <path id="Path_111" data-name="Path 111" class="cls-23" d="M477.575,422.8l3.569,9.9H461.8s5.3-4.721,10.708-5.642l1.382-2.879Z" transform="translate(-386.612 -248.012)"/>
        <path id="Path_112" data-name="Path 112" class="cls-23" d="M442.4,422.8l2.648,9.9H425.7s5.3-4.721,10.708-5.642l1.382-2.879Z" transform="translate(-392.078 -248.012)"/>
        <path id="Path_113" data-name="Path 113" class="cls-4" d="M442.193,337.7,435.4,437.875h6.793s8.981-35,7.83-44.676l12.205-55.5Z" transform="translate(-390.61 -260.899)"/>
        <path id="Path_114" data-name="Path 114" class="cls-6" d="M459.235,349.93l-9.211,42.027c1.151,9.672-7.83,44.676-7.83,44.676H435.4l3.569-52.506L452.441,345.9Z" transform="translate(-390.61 -259.657)"/>
        <path id="Path_115" data-name="Path 115" class="cls-4" d="M447.076,338.9l28.095,98.793h6.563s-4.491-41.8-10.248-49.4l-3.915-49.4H446.5" transform="translate(-388.929 -260.717)"/>
        <path id="Path_116" data-name="Path 116" class="cls-13" d="M438.987,298.98l-28.555-21.532L402.948,271l-4.951.345-1.5,2.073,5.872,2.879s-4.375,1.036-4.375,1.5,6.793,1.727,9.211,1.842L429.661,302.2l9.787,5.757Z" transform="translate(-396.5 -271)"/>
        <path id="Path_117" data-name="Path 117" class="cls-8" d="M442.011,297.882,432.8,292.7s-3.454,6.218-3.8,11.745L444.659,317.8Z" transform="translate(-391.579 -267.714)"/>
        <path id="Path_118" data-name="Path 118" class="cls-6" d="M438.8,313.314,440.642,298h0l2.533,19Z" transform="translate(-390.095 -266.911)"/>
        <path id="Path_119" data-name="Path 119" class="cls-13" d="M479.578,337.539,474.972,326.6l-5.872,3.109,3.8,9.672Z" transform="translate(-385.507 -262.58)"/>
        <path id="Path_120" data-name="Path 120" class="cls-13" d="M452.315,284.521l-3.915,6.333,1.957.921s-1.382,3.8-.691,5.181c.576,1.382,2.648,2.188,2.648,3.569a26.764,26.764,0,0,1-.576,3.915l7.369,2.994s1.036-6.563,1.957-7.254,6.793-3.339,6.218-7.945L456.46,283.6Z" transform="translate(-388.641 -269.092)"/>
        <path id="Path_121" data-name="Path 121" class="cls-23" d="M457.094,296.6c1.036.115,2.073-.23,2.763-1.957s-.345-2.418-1.151-2.533-2.3,3.224-2.763,2.879c-.576-.461.345-4.721.345-4.721-1.267-1.727-.345-4.145-.345-4.145l1.612-.921,8.636,6.909c.691,4.606-5.181,7.254-6.218,7.945a3.435,3.435,0,0,0-.806,1.842A4.942,4.942,0,0,1,457.094,296.6Z" transform="translate(-387.548 -268.85)"/>
        <path id="Path_122" data-name="Path 122" class="cls-8" d="M472.537,311.478c-7.484-5.527-26.253-10.593-32.01-14.278,0,0,1.612,39.725-1.727,52.621,0,0,13.357,2.994,32.585,1.842C471.385,351.548,467.7,323.568,472.537,311.478Z" transform="translate(-390.095 -267.032)"/>
        <path id="Path_123" data-name="Path 123" class="cls-6" d="M453.519,306.2s-5.757,23.95-2.073,37.767C447.647,331.3,450.295,314.26,453.519,306.2Z" transform="translate(-388.463 -265.669)"/>
        <path id="Path_124" data-name="Path 124" class="cls-6" d="M462.9,320.5l3.454,2.188c-.115,3.569-.115,7.254.115,10.478Z" transform="translate(-386.445 -263.504)"/>
        <path id="Path_125" data-name="Path 125" class="cls-8" d="M468.9,309.6c3.915,3.109,10.248,21.417,10.248,21.417l-12.205,4.606L462.8,322.266C462.915,322.151,464.757,312.248,468.9,309.6Z" transform="translate(-386.461 -265.154)"/>
        <path id="Path_126" data-name="Path 126" class="cls-6" d="M455.479,322.824a6.714,6.714,0,0,0,.23,2.648l-2.763,1.382a15.015,15.015,0,0,0,1.842,3.569l2.763-1.382a7.541,7.541,0,0,0,2.073,1.727l-.921,2.879a8.912,8.912,0,0,0,1.842.806,12.04,12.04,0,0,0,1.957.461l.921-2.879a6.714,6.714,0,0,0,2.648-.23l1.382,2.763a15.015,15.015,0,0,0,3.569-1.842l-1.382-2.763a7.541,7.541,0,0,0,1.727-2.073l2.879.921a8.914,8.914,0,0,0,.806-1.842,12.049,12.049,0,0,0,.461-1.957l-2.879-.921a6.714,6.714,0,0,0-.23-2.648l2.763-1.382a15.015,15.015,0,0,0-1.842-3.569l-2.763,1.382a7.54,7.54,0,0,0-2.073-1.727l.921-2.879a8.912,8.912,0,0,0-1.842-.806,12.046,12.046,0,0,0-1.957-.461l-.921,2.879a6.714,6.714,0,0,0-2.648.23l-1.382-2.763a15.016,15.016,0,0,0-3.569,1.842l1.382,2.763a7.541,7.541,0,0,0-1.727,2.073l-2.879-.921a8.915,8.915,0,0,0-.806,1.842,12.049,12.049,0,0,0-.461,1.957Zm6.218-.115a2.476,2.476,0,1,1,1.612,3.109A2.412,2.412,0,0,1,461.7,322.708Z" transform="translate(-388.005 -264.791)"/>
        <path id="Path_127" data-name="Path 127" class="cls-4" d="M454.479,321.823a6.714,6.714,0,0,0,.23,2.648l-2.763,1.382a15.013,15.013,0,0,0,1.842,3.569l2.763-1.382a7.541,7.541,0,0,0,2.073,1.727l-.921,2.879a8.914,8.914,0,0,0,1.842.806,12.039,12.039,0,0,0,1.957.461l.921-2.879a6.714,6.714,0,0,0,2.648-.23l1.382,2.763a15.016,15.016,0,0,0,3.569-1.842l-1.382-2.763a7.541,7.541,0,0,0,1.727-2.073l2.879.921a8.918,8.918,0,0,0,.806-1.842,12.048,12.048,0,0,0,.461-1.957l-2.879-.921a6.714,6.714,0,0,0-.23-2.648l2.763-1.382a15.016,15.016,0,0,0-1.842-3.569l-2.763,1.382a7.54,7.54,0,0,0-2.073-1.727l.921-2.879a8.917,8.917,0,0,0-1.842-.806,12.05,12.05,0,0,0-1.957-.461l-.921,2.879a6.714,6.714,0,0,0-2.648.23l-1.382-2.763a15.014,15.014,0,0,0-3.569,1.842l1.382,2.763a7.54,7.54,0,0,0-1.727,2.073l-2.879-.921a8.911,8.911,0,0,0-.806,1.842,12.05,12.05,0,0,0-.461,1.957Zm6.218-.115a2.476,2.476,0,1,1,1.612,3.109A2.412,2.412,0,0,1,460.7,321.708Z" transform="translate(-388.157 -264.942)"/>
        <path id="Path_128" data-name="Path 128" class="cls-12" d="M458.691,302.3s-1.382,1.151-4.491.806v3.685l5.066-1.612Z" transform="translate(-387.763 -266.26)"/>
        <path id="Path_129" data-name="Path 129" class="cls-12" d="M454.881,303.469l-2.648,2.763-2.533-4.721,1.957-1.612A8.581,8.581,0,0,0,454.881,303.469Z" transform="translate(-388.444 -266.623)"/>
        <path id="Path_130" data-name="Path 130" class="cls-6" d="M451.982,284.521l4.03-.921,10.823,8.751L450.6,286.824Z" transform="translate(-388.308 -269.092)"/>
        <path id="Path_131" data-name="Path 131" class="cls-25" d="M467.516,292.92s-21.532-10.133-21.416-10.593c.115-.345,6.1,1.842,6.1,1.842s2.533-4.951,6.793-4.26,8.866,5.181,9.211,7.369C468.668,289.35,467.516,292.92,467.516,292.92Z" transform="translate(-388.989 -269.661)"/>
        <path id="Path_132" data-name="Path 132" class="cls-13" d="M482.991,341.34c-1.036,2.648-6.218,2.648-23.95-9.672,0,0-4.26-.345-5.987-1.842s-3.454-5.3-3.454-5.3l.691-.461s4.951,2.763,5.872,2.418-1.5-3.454-1.151-3.685,4.26,2.648,5.642,5.181c0,0,12.205,4.836,16.926,6.909C482.416,336.964,484.028,339.037,482.991,341.34Z" transform="translate(-388.459 -263.157)"/>
      </g>
      <path id="Path_133" data-name="Path 133" class="cls-26" d="M439.9,328.9v67.474H394.3Z" transform="translate(-13.136 143.608)"/>
      <path id="Path_134" data-name="Path 134" class="cls-27" d="M353.3,318.794V267.9h34.312Z" transform="translate(-20.324 132.874)"/>
      <g id="Group_28" data-name="Group 28" transform="translate(371.649 385.435)">
        <rect id="Rectangle_8" data-name="Rectangle 8" class="cls-10" width="29.246" height="11.399" transform="translate(0 0)"/>
        <rect id="Rectangle_9" data-name="Rectangle 9" class="cls-6" width="29.246" height="3.8" transform="translate(0 7.59)"/>
      </g>
    </g>
  </g>
</svg>
