<svg xmlns="http://www.w3.org/2000/svg" width="435.021" height="386.964" viewBox="0 0 435.021 386.964">
  <g id="Group_2650" data-name="Group 2650" transform="translate(-283.12 -218.533)">
    <g id="Group_264" data-name="Group 264">
      <g id="Group_226" data-name="Group 226" transform="translate(61 -43)">
        <g id="Group_202" data-name="Group 202" transform="translate(116.298 138.295)">
          <g id="Group_201" data-name="Group 201" transform="translate(110.822 105.791)">
            <g id="Group_181" data-name="Group 181">
              <g id="Group_180" data-name="Group 180" transform="translate(100.635 48.404)" opacity="0.35">
                <g id="Group_179" data-name="Group 179" transform="translate(24.723 35.51)">
                  <path id="Path_453" data-name="Path 453" d="M452.821,358.374c.778-16.344,13.08-36.809,12.452-42.442-1.809-16.226-5.007-20.749-17.122-28.207-7.264-4.472-14.18-15.065-21.792-21.88-20.179-15.624-31.472-8.463-43.324-31.9-8.969-16.6-24.85-42.773-64.078-39.015-24.673,2.363-44.666,39.405-69.526,42.706-81.678,13.345-52.489,57.3-60.446,100.174-5.118,27.573-32.689,74.6-17.9,89.629,19.976,18.453,42.115-3.914,62,1.582,33.057,8.687,36.171,12.278,57.073,18.189,28.862,8.163,49.664-9.905,73.677-12.366,38.489-3.944,41.78-4.2,66.672-34.294C443.789,384.5,450.486,393.434,452.821,358.374Z" transform="translate(-166.773 -194.568)" fill="#23cba7"/>
                </g>
              </g>
              <circle id="Ellipse_101" data-name="Ellipse 101" cx="14.743" cy="14.743" r="14.743" transform="translate(394.526 103.664) rotate(-76.66)" fill="#e74c3c" opacity="0.31"/>
              <circle id="Ellipse_122" data-name="Ellipse 122" cx="18.243" cy="18.243" r="18.243" transform="translate(100.715 295.049) rotate(-76.66)" fill="#23cba7" opacity="0.31"/>
              <circle id="Ellipse_123" data-name="Ellipse 123" cx="10.743" cy="10.743" r="10.743" transform="translate(354.176 399.454) rotate(-76.66)" fill="#e74c3c" opacity="0.54"/>
              <circle id="Ellipse_124" data-name="Ellipse 124" cx="6.743" cy="6.743" r="6.743" transform="translate(108.96 75.3) rotate(-76.66)" fill="#707070" opacity="0.54"/>
              <circle id="Ellipse_102" data-name="Ellipse 102" cx="17.096" cy="17.096" r="17.096" transform="translate(100.288 41.625) rotate(-45)" fill="#fff" opacity="0.69"/>
              <circle id="Ellipse_103" data-name="Ellipse 103" cx="22.08" cy="22.08" r="22.08" transform="translate(-5 340.938)" fill="#fff" opacity="0.63"/>
            </g>
          </g>
        </g>
      </g>
      <g id="Group_235" data-name="Group 235" transform="translate(40 -21)">
        <g id="Group_233" data-name="Group 233" transform="translate(-89 -56.743)">
          <g id="Group_231" data-name="Group 231" transform="translate(654.716 468.857)">
            <g id="Group_204" data-name="Group 204" transform="translate(0 0)">
              <g id="Group_203" data-name="Group 203">
                <path id="Path_521" data-name="Path 521" d="M558.777,261.333s21.14-7.506,28.6-22.035c8.817-17.164,15.168-48.448,45.5-46.87,0,0-7.7,14.165-9.451,29.693C621.374,240.4,612.868,274.177,558.777,261.333Z" transform="translate(-558.777 -192.371)" fill="#23cba7"/>
                <path id="Path_522" data-name="Path 522" d="M633.121,192.777a25.944,25.944,0,0,0-12.624,8.7c-10.971,13.737-7.286,26.164-19.826,42.187-9.9,12.646-29.807,16.906-41.18,17.934,53.733,12.583,62.213-21.065,64.267-39.3C625.4,207.751,632.267,194.394,633.121,192.777Z" transform="translate(-559.102 -192.555)" fill="#23cba7" opacity="0.41"/>
              </g>
              <path id="Path_523" data-name="Path 523" d="M630.7,194.167a26.7,26.7,0,0,0-6.322,4.49,46.5,46.5,0,0,0-4.719,4.994c-10.971,13.737-6.444,24.243-18.983,40.266-9.9,12.646-29.807,16.906-41.18,17.934" transform="translate(-559.102 -192.804)" fill="none" stroke="#97ffff" stroke-linecap="round" stroke-linejoin="round" stroke-miterlimit="10" stroke-width="2"/>
              <line id="Line_81" data-name="Line 81" x1="10.078" y2="6.423" transform="translate(52.927 19.859)" fill="none" stroke="#97ffff" stroke-linecap="round" stroke-miterlimit="10" stroke-width="2"/>
              <line id="Line_82" data-name="Line 82" x1="10.078" y2="6.423" transform="translate(56.7 10.874)" fill="none" stroke="#97ffff" stroke-linecap="round" stroke-miterlimit="10" stroke-width="2"/>
              <line id="Line_83" data-name="Line 83" x1="12.473" y2="7.949" transform="translate(49.933 28.985)" fill="none" stroke="#97ffff" stroke-linecap="round" stroke-miterlimit="10" stroke-width="2"/>
              <line id="Line_84" data-name="Line 84" x1="0.485" y2="25.525" transform="translate(43.329 22.851)" fill="none" stroke="#97ffff" stroke-linecap="round" stroke-miterlimit="10" stroke-width="2"/>
              <line id="Line_85" data-name="Line 85" x2="1.112" y2="16.743" transform="translate(50.092 15.041)" fill="none" stroke="#97ffff" stroke-linecap="round" stroke-miterlimit="10" stroke-width="2"/>
              <line id="Line_86" data-name="Line 86" x1="17.402" y2="9.825" transform="translate(41.353 41.489)" fill="none" stroke="#97ffff" stroke-linecap="round" stroke-miterlimit="10" stroke-width="2"/>
              <line id="Line_87" data-name="Line 87" x1="19.22" y2="5.474" transform="translate(29.033 55.693)" fill="none" stroke="#97ffff" stroke-linecap="round" stroke-miterlimit="10" stroke-width="2"/>
            </g>
            <g id="Group_205" data-name="Group 205" transform="translate(35.584 39.937)">
              <line id="Line_88" data-name="Line 88" x1="0.319" y2="16.777" fill="none" stroke="#97ffff" stroke-linecap="round" stroke-miterlimit="10" stroke-width="2"/>
            </g>
            <line id="Line_89" data-name="Line 89" x2="0.371" y2="8.993" transform="translate(55.255 8.556)" fill="none" stroke="#97ffff" stroke-linecap="round" stroke-miterlimit="10" stroke-width="2"/>
          </g>
          <g id="Group_230" data-name="Group 230" transform="translate(632.856 499.197)">
            <g id="Group_212" data-name="Group 212">
              <g id="Group_211" data-name="Group 211">
                <path id="Path_529" data-name="Path 529" d="M532.244,301.965s27.038-1.451,40.652-15.712c16.082-16.849,34.143-50.884,68.716-38.672,0,0-13.764,13.758-21.106,31.134C611.866,299.164,590.456,335.35,532.244,301.965Z" transform="translate(-532.244 -244.992)" fill="#14b8b2"/>
                <path id="Path_530" data-name="Path 530" d="M641.806,250.032a31.319,31.319,0,0,0-17.592,5.753c-17.4,12.144-17.392,27.79-37.392,42.043-15.785,11.249-40.289,9.363-53.8,6.66,57.887,32.961,79.221-3.083,87.84-23.482C627.74,264.72,640.264,251.611,641.806,250.032Z" transform="translate(-532.596 -247.283)" fill="#23cba7" opacity="0.41"/>
              </g>
              <path id="Path_531" data-name="Path 531" d="M639.2,250.292c-5.637,1.107-9.772,2.736-15.8,6.945-17.4,12.144-16.579,26.384-36.579,40.637-15.785,11.249-40.289,9.363-53.8,6.66" transform="translate(-532.596 -247.33)" fill="none" stroke="#97ffff" stroke-linecap="round" stroke-linejoin="round" stroke-miterlimit="10" stroke-width="2"/>
              <line id="Line_99" data-name="Line 99" x1="13.864" y2="3.984" transform="translate(75.874 21.708)" fill="none" stroke="#97ffff" stroke-linecap="round" stroke-miterlimit="10" stroke-width="2"/>
              <line id="Line_100" data-name="Line 100" x1="13.864" y2="3.984" transform="translate(83.318 12.599)" fill="none" stroke="#97ffff" stroke-linecap="round" stroke-miterlimit="10" stroke-width="2"/>
              <line id="Line_101" data-name="Line 101" x1="17.159" y2="4.931" transform="translate(68.761 32.066)" fill="none" stroke="#97ffff" stroke-linecap="round" stroke-miterlimit="10" stroke-width="2"/>
              <line id="Line_102" data-name="Line 102" x1="9.3" y2="29.379" transform="translate(57.201 18.601)" fill="none" stroke="#97ffff" stroke-linecap="round" stroke-miterlimit="10" stroke-width="2"/>
              <line id="Line_103" data-name="Line 103" x1="4.445" y2="19.761" transform="translate(71.996 11.71)" fill="none" stroke="#97ffff" stroke-linecap="round" stroke-miterlimit="10" stroke-width="2"/>
              <line id="Line_104" data-name="Line 104" x1="23.506" y2="5.414" transform="translate(53.908 45.289)" fill="none" stroke="#97ffff" stroke-linecap="round" stroke-miterlimit="10" stroke-width="2"/>
              <line id="Line_105" data-name="Line 105" x1="24.121" y1="0.245" transform="translate(36.275 57.89)" fill="none" stroke="#97ffff" stroke-linecap="round" stroke-miterlimit="10" stroke-width="2"/>
            </g>
            <g id="Group_213" data-name="Group 213" transform="translate(45.381 35.668)">
              <line id="Line_106" data-name="Line 106" x1="6.113" y2="19.31" fill="none" stroke="#97ffff" stroke-linecap="round" stroke-miterlimit="10" stroke-width="2"/>
            </g>
            <line id="Line_107" data-name="Line 107" x1="2.587" y2="11.5" transform="translate(82.05 5.971)" fill="none" stroke="#97ffff" stroke-linecap="round" stroke-miterlimit="10" stroke-width="1.632"/>
          </g>
          <g id="Group_232" data-name="Group 232" transform="translate(627.021 435.495)">
            <g id="Group_210" data-name="Group 210" transform="translate(0 0)">
              <g id="Group_208" data-name="Group 208">
                <g id="Group_207" data-name="Group 207">
                  <path id="Path_526" data-name="Path 526" d="M515.521,251s24.439-20.189,27.324-43.089c3.408-27.054-3.287-71.663,37.756-84.237,0,0-3.377,22.532,1.808,44C588.514,192.929,593.553,241.894,515.521,251Z" transform="translate(-515.521 -123.669)" fill="#0ba9b9"/>
                  <path id="Path_527" data-name="Path 527" d="M581.03,124.146a36.672,36.672,0,0,0-12.553,17.662c-7.925,23.544,2.977,38.264-5.926,65.6-7.026,21.577-31.4,36.86-46.007,43.725,77.432-9.274,72.42-58.052,66.331-83.253C578.015,147.763,580.677,126.706,581.03,124.146Z" transform="translate(-515.986 -123.886)" fill="#0ba9b9" opacity="0.6"/>
                </g>
                <path id="Path_528" data-name="Path 528" d="M578.988,126.991c-4.825,5.36-8.033,11.315-10.781,19.476-7.925,23.544,3.246,34.114-5.657,61.453-7.026,21.577-31.4,36.86-46.007,43.725" transform="translate(-515.986 -124.395)" fill="none" stroke="#97ffff" stroke-linecap="round" stroke-linejoin="round" stroke-miterlimit="10" stroke-width="2"/>
                <line id="Line_90" data-name="Line 90" x1="10.276" y2="13.401" transform="translate(49.637 31.662)" fill="none" stroke="#97ffff" stroke-linecap="round" stroke-miterlimit="10" stroke-width="2"/>
                <line id="Line_91" data-name="Line 91" x1="10.275" y2="13.401" transform="translate(50.303 17.907)" fill="none" stroke="#97ffff" stroke-linecap="round" stroke-miterlimit="10" stroke-width="2"/>
                <line id="Line_92" data-name="Line 92" x1="12.718" y2="16.586" transform="translate(50.813 44.068)" fill="none" stroke="#97ffff" stroke-linecap="round" stroke-miterlimit="10" stroke-width="2"/>
                <line id="Line_93" data-name="Line 93" x2="11.698" y2="34.127" transform="translate(35.879 44.913)" fill="none" stroke="#97ffff" stroke-linecap="round" stroke-miterlimit="10" stroke-width="2"/>
                <line id="Line_94" data-name="Line 94" x2="9.219" y2="21.045" transform="translate(40.438 31.507)" fill="none" stroke="#97ffff" stroke-linecap="round" stroke-miterlimit="10" stroke-width="2"/>
                <line id="Line_95" data-name="Line 95" x1="18.356" y2="21.46" transform="translate(46.374 62.436)" fill="none" stroke="#97ffff" stroke-linecap="round" stroke-miterlimit="10" stroke-width="2"/>
                <line id="Line_96" data-name="Line 96" x1="22.874" y2="16.562" transform="translate(34.78 86.374)" fill="none" stroke="#97ffff" stroke-linecap="round" stroke-miterlimit="10" stroke-width="2"/>
              </g>
              <g id="Group_209" data-name="Group 209" transform="translate(33.636 71.425)">
                <line id="Line_97" data-name="Line 97" x2="7.689" y2="22.431" fill="none" stroke="#97ffff" stroke-linecap="round" stroke-miterlimit="10" stroke-width="2"/>
              </g>
              <line id="Line_98" data-name="Line 98" x2="5.571" y2="12.626" transform="translate(44.158 20.4)" fill="none" stroke="#97ffff" stroke-linecap="round" stroke-miterlimit="10" stroke-width="1.911"/>
            </g>
          </g>
        </g>
        <g id="Group_234" data-name="Group 234" transform="translate(63.47 191.347)">
          <path id="Path_535" data-name="Path 535" d="M389.431,254.465s4.094,11.461-4.869,9.167c-13.048-3.34-15.529,8.557-8.337,16.443,5.805,6.366,9.5-1.073,7.558-5.039-3.311-6.76-13.633-13.9-20.644-4.583s.345,27.426,9.5,25.284c9.11-2.132-13.674-19-19.43-8.686-5.064,9.075,4.258,12.121,9.932,17.255,8.179,7.4-8.385,23.725-14.606,17.137-9.932-10.516,19.755-17.581,19.975-2.726.2,13.243-18.417,8.374-19.391,19.085s24.149,7.4,32.718,2.337" transform="translate(0 -22.479)" fill="none" stroke="#1e1724" stroke-linecap="round" stroke-miterlimit="10" stroke-width="2" stroke-dasharray="3"/>
          <g id="Group_220" data-name="Group 220" transform="translate(372.648 181.718)">
            <g id="Group_219" data-name="Group 219">
              <path id="Path_536" data-name="Path 536" d="M515.035,211.35a5.75,5.75,0,0,0-5.75,5.75v7.072a6.957,6.957,0,0,1-6.957,6.958H461a6.958,6.958,0,0,1-6.958-6.958V217.1a5.75,5.75,0,1,0-11.5,0v13.331a6.958,6.958,0,0,0,6.958,6.958,4.388,4.388,0,0,1,4.389,4.389v19.937h55.491V245.7l.06.031v-3.956a4.389,4.389,0,0,1,4.388-4.389,6.958,6.958,0,0,0,6.958-6.958V217.1A5.75,5.75,0,0,0,515.035,211.35Z" transform="translate(-402.324 -190.874)" fill="#f99900"/>
              <g id="Group_217" data-name="Group 217" transform="translate(1.189)">
                <g id="Group_216" data-name="Group 216">
                  <path id="Path_537" data-name="Path 537" d="M539.564,217.036c-1.287-4.641-5.211-9.008-8.451-12.367-21.041-21.819-54.9-25.089-83.467-21.916-13.365,1.484-26.487,4.339-38.248,11.15-8.27,4.791-19.616,13.244-22.356,23.133-1.3,4.708-2.679,15.392,5.65,17.2s21.006,1.539,27.706-3.622c5.491-4.23-2.354-13.943,12.495-17.927,9.7-2.6,20.014-4.649,30.238-4.724,10.37-.077,20.609,2.049,30.582,4.724,14.848,3.984,7,13.7,12.494,17.927,6.7,5.16,19.376,5.432,27.706,3.622S540.869,221.744,539.564,217.036Z" transform="translate(-386.061 -181.718)" fill="#fe5049"/>
                  <g id="Group_215" data-name="Group 215" transform="translate(9.889 0.008)" opacity="0.4">
                    <path id="Path_538" data-name="Path 538" d="M572.232,217.039c-1.287-4.641-5.212-9.008-8.451-12.367-18.283-18.959-46.242-23.9-72-22.8,21.851.923,43.873,6.96,59.144,22.8,3.239,3.359,7.165,7.725,8.451,12.367,1.3,4.708,2.679,15.392-5.65,17.2-1.025.223-2.119.413-3.257.567a48.506,48.506,0,0,0,16.112-.567C574.911,232.431,573.536,221.748,572.232,217.039Z" transform="translate(-428.618 -181.73)" fill="#fe5049"/>
                    <path id="Path_539" data-name="Path 539" d="M454.7,219.7c-10.224.075-20.542,2.123-30.238,4.724-14.849,3.984-7,13.7-12.495,17.927-2.98,2.295-7.158,3.581-11.594,4.189,8.105,1.1,18.573.336,24.448-4.189,5.491-4.23-2.354-13.943,12.495-17.927a133.736,133.736,0,0,1,24.5-4.422C459.45,219.81,457.079,219.684,454.7,219.7Z" transform="translate(-400.373 -193.463)" fill="#fe5049"/>
                  </g>
                </g>
                <path id="Path_540" data-name="Path 540" d="M429.26,194.876s-31.87,5-35.96,29.817c-.656,3.976,5.424,7.3,8.121.456C407.262,210.328,413.073,202.275,429.26,194.876Z" transform="translate(-388.283 -185.784)" fill="#fe5049" opacity="0.37"/>
              </g>
              <path id="Path_541" data-name="Path 541" d="M512.72,211.35a5.75,5.75,0,0,0-5.75,5.75v7.072a6.957,6.957,0,0,1-6.957,6.958H458.683a6.958,6.958,0,0,1-6.958-6.958V217.1a5.75,5.75,0,1,0-11.5,0v13.331a6.958,6.958,0,0,0,6.958,6.958,4.388,4.388,0,0,1,4.389,4.389v19.937h55.491V245.7l.06.031v-3.956a4.389,4.389,0,0,1,4.388-4.389,6.958,6.958,0,0,0,6.958-6.958V217.1A5.75,5.75,0,0,0,512.72,211.35Z" transform="translate(-401.609 -190.874)" fill="#ffc400"/>
              <path id="Path_542" data-name="Path 542" d="M541.327,334.9c-3.547-25.069-11.44-48.275-29.006-56-16.847-7.413-24.116-19.523-24.116-19.523H437.567s-7.269,12.11-24.117,19.523c-17.565,7.729-25.459,30.934-29.005,56a10.324,10.324,0,0,0,5.255,10.574c10.308,5.539,33.969,15.011,73.186,13.436,39.217,1.574,62.877-7.9,73.186-13.436A10.324,10.324,0,0,0,541.327,334.9Z" transform="translate(-384.34 -205.714)" fill="#ffc400"/>
              <path id="Path_543" data-name="Path 543" d="M558.378,334.9c-3.547-25.069-11.44-48.275-29.006-56-16.847-7.413-24.116-19.523-24.116-19.523H501.1c15.62,14.287,27.022,28.4,27.9,39.7,2.166,27.811-15.209,56.927-89.485,57.232a182.037,182.037,0,0,0,40.415,2.6c39.217,1.574,62.877-7.9,73.186-13.436A10.324,10.324,0,0,0,558.378,334.9Z" transform="translate(-401.392 -205.714)" fill="#ffc400" opacity="0.75"/>
              <ellipse id="Ellipse_104" data-name="Ellipse 104" cx="34.177" cy="24.704" rx="34.177" ry="24.704" transform="translate(43.036 45.473)" fill="#ffc400"/>
              <g id="Group_218" data-name="Group 218" transform="translate(42.289 43.191)">
                <path id="Path_544" data-name="Path 544" d="M480.59,247.117c-19.358,0-35.05,10.326-35.05,23.065s15.692,23.066,35.05,23.066,35.05-10.327,35.05-23.066S499.947,247.117,480.59,247.117Zm17.453,7.077c3.287,0,5.952,2.052,5.952,4.583s-2.665,4.583-5.952,4.583-5.952-2.052-5.952-4.583S494.756,254.194,498.043,254.194Zm-47.692,15.988c0-2.531,2.664-4.583,5.952-4.583s5.952,2.052,5.952,4.583-2.664,4.584-5.952,4.584S450.351,272.714,450.351,270.182Zm13.7,16.6c-3.288,0-5.952-2.052-5.952-4.584s2.665-4.583,5.952-4.583S470,279.665,470,282.2,467.338,286.78,464.051,286.78Zm0-23.419c-3.288,0-5.952-2.052-5.952-4.583s2.665-4.583,5.952-4.583S470,256.246,470,258.778,467.338,263.361,464.051,263.361ZM481.8,290.754c-3.287,0-5.952-2.052-5.952-4.583s2.665-4.583,5.952-4.583,5.952,2.052,5.952,4.583S485.084,290.754,481.8,290.754Zm0-31.976c-3.287,0-5.952-2.052-5.952-4.583s2.665-4.584,5.952-4.584,5.952,2.052,5.952,4.584S485.084,258.778,481.8,258.778Zm16.246,28c-3.287,0-5.952-2.052-5.952-4.584s2.665-4.583,5.952-4.583S504,279.665,504,282.2,501.33,286.78,498.043,286.78Zm7.623-12.014c-3.287,0-5.952-2.052-5.952-4.584s2.665-4.583,5.952-4.583,5.952,2.052,5.952,4.583S508.954,274.766,505.666,274.766Z" transform="translate(-445.54 -245.117)" fill="#ffd1b0"/>
                <path id="Path_545" data-name="Path 545" d="M480.59,244.223c-19.358,0-35.05,10.327-35.05,23.066s15.692,23.065,35.05,23.065,35.05-10.326,35.05-23.065S499.947,244.223,480.59,244.223Zm17.453,7.077c3.287,0,5.952,2.052,5.952,4.583s-2.665,4.584-5.952,4.584-5.952-2.052-5.952-4.584S494.756,251.3,498.043,251.3Zm-47.692,15.988c0-2.532,2.664-4.584,5.952-4.584s5.952,2.052,5.952,4.584-2.664,4.583-5.952,4.583S450.351,269.82,450.351,267.289Zm13.7,16.6c-3.288,0-5.952-2.052-5.952-4.584s2.665-4.583,5.952-4.583S470,276.771,470,279.3,467.338,283.886,464.051,283.886Zm0-23.419c-3.288,0-5.952-2.052-5.952-4.584s2.665-4.583,5.952-4.583S470,253.352,470,255.884,467.338,260.468,464.051,260.468ZM481.8,287.86c-3.287,0-5.952-2.052-5.952-4.584s2.665-4.583,5.952-4.583,5.952,2.052,5.952,4.583S485.084,287.86,481.8,287.86Zm0-31.977c-3.287,0-5.952-2.052-5.952-4.583s2.665-4.583,5.952-4.583,5.952,2.052,5.952,4.583S485.084,255.884,481.8,255.884Zm16.246,28c-3.287,0-5.952-2.052-5.952-4.584s2.665-4.583,5.952-4.583S504,276.771,504,279.3,501.33,283.886,498.043,283.886Zm7.623-12.014c-3.287,0-5.952-2.052-5.952-4.583s2.665-4.584,5.952-4.584,5.952,2.052,5.952,4.584S508.954,271.872,505.666,271.872Z" transform="translate(-445.54 -244.223)" fill="#fff"/>
                <ellipse id="Ellipse_105" data-name="Ellipse 105" cx="13.362" cy="7.83" rx="13.362" ry="7.83" transform="translate(22.088 15.235)" fill="#f77b00"/>
              </g>
              <path id="Path_546" data-name="Path 546" d="M541.053,366.09c-.712,2.674-2.445,6.22-4.981,7.582-10.309,5.539-34.871,16.117-73.186,15.436-38.646.088-62.878-11.1-73.186-16.636a10.154,10.154,0,0,1-4.981-6.383c-.09.6-.189,1.187-.274,1.786a10.324,10.324,0,0,0,5.255,10.574c10.308,5.539,36.439,14.793,73.186,14.636,38.315.157,62.877-9.1,73.186-14.636a10.324,10.324,0,0,0,5.255-10.574C541.242,367.276,541.143,366.685,541.053,366.09Z" transform="translate(-384.34 -238.689)" fill="#f77b00"/>
            </g>
            <path id="Path_547" data-name="Path 547" d="M419.85,304.871c5.737,4.664,19.747,13.463,46.061,16.144,0,0-29.484,5.225-52.9-4.544a6.328,6.328,0,0,1-3.836-6.147,11.958,11.958,0,0,1,.355-2.36C410.7,303.51,416.279,301.967,419.85,304.871Z" transform="translate(-392.012 -219.315)" fill="#ffc400" opacity="0.43"/>
          </g>
        </g>
      </g>
    </g>
  </g>
</svg>
